<svg width="327" height="50" viewBox="0 0 327 50" fill="none" xmlns="http://www.w3.org/2000/svg">
<path d="M236.836 46.0512C236.836 46.0512 237.546 21.8587 292.655 15.4254C347.765 8.9921 324.36 30.9265 302.994 37.3598C281.628 43.7931 244.42 56.2621 236.836 46.0512Z" fill="#C1DDE5"/>
<path d="M0.791016 42.1244C0.791016 42.1244 3.04193 19.4658 71.6711 17.6338C140.3 15.8018 110.016 34.5976 83.2029 39.0071C56.3903 43.4167 9.596 52.2856 0.791016 42.1244Z" fill="#C1DDE5"/>
<path d="M85.1062 22.9665C85.1062 22.9665 98.5977 -15.2003 205.678 7.42281C312.758 30.0459 257.514 51.0359 214.071 48.5506C170.628 46.0653 94.2236 43.7647 85.1062 22.9665Z" fill="#C1DDE5"/>
</svg>
