<svg width="45" height="45" viewBox="0 0 45 45" fill="none" xmlns="http://www.w3.org/2000/svg">
<g clip-path="url(#clip0_2201_2001)">
<rect width="45" height="45" rx="12" fill="#53B56C"/>
<path d="M17.8238 31.0537C16.8136 31.5003 16.2197 32.882 16.5417 34.0432C16.8636 35.2044 18.0514 35.972 19.1116 35.7013C20.4243 35.3663 21.3512 33.7194 22.6972 33.7641C24.3069 33.8171 25.2144 36.2428 26.8213 36.3405C27.9314 36.4103 28.8861 35.1821 28.9471 33.9288C29.0082 32.6755 28.3921 31.4892 27.5872 30.6099C26.8217 29.7516 25.8446 29.1116 24.7547 28.7543C23.6647 28.3971 22.5003 28.3352 21.379 28.575C19.1837 29.0858 17.2605 30.8834 16.4196 33.2114L17.8238 31.0537Z" fill="#005434"/>
<path d="M18.0485 31.4138C17.5648 31.6688 17.194 32.0972 17.0095 32.6141C16.825 33.1311 16.8402 33.6989 17.0522 34.2051C17.1656 34.4594 17.3317 34.6863 17.5394 34.8707C17.7472 35.0551 17.9917 35.1927 18.2567 35.2742C18.4929 35.334 18.7392 35.3418 18.9787 35.297C19.2182 35.2522 19.4453 35.1559 19.6443 35.0146C20.5352 34.4563 21.254 33.5352 22.3391 33.3733C23.3576 33.2198 24.168 33.8618 24.8563 34.5317C25.428 35.0899 26.1717 36.0474 27.0765 35.9273C28.2782 35.7515 28.6861 34.1632 28.4863 33.1556C27.9951 30.6713 25.3447 28.9295 22.9358 28.8541C20.1605 28.7676 17.7738 30.8081 16.8302 33.3202L16.0698 32.9964L17.4574 30.8388C17.7349 30.3894 18.4704 30.8081 18.1762 31.263L16.7886 33.4207C16.5443 33.7948 15.8533 33.5659 16.0281 33.0969C16.9939 30.4731 19.2696 28.3294 22.1032 28.0335C24.9367 27.7376 27.9313 29.4291 29.0192 32.0669C29.5742 33.3956 29.4993 35.0006 28.4502 36.0669C28.2334 36.2988 27.9688 36.4801 27.6749 36.5983C27.381 36.7164 27.065 36.7685 26.749 36.7508C26.2093 36.6788 25.7026 36.4487 25.292 36.0892C24.8563 35.7431 24.4816 35.3272 24.0764 34.9476C23.7239 34.6182 23.3104 34.2581 22.8137 34.1883C22.2586 34.1102 21.7507 34.4675 21.3261 34.7773C20.8569 35.1853 20.3526 35.5505 19.8191 35.8687C19.4968 36.0274 19.1452 36.1171 18.7866 36.1321C18.428 36.1471 18.0702 36.0871 17.7358 35.9559C17.4014 35.8248 17.0977 35.6253 16.8439 35.37C16.5901 35.1148 16.3917 34.8094 16.2613 34.4731C15.7062 33.1276 16.2613 31.3133 17.6184 30.6769C18.0957 30.4647 18.5203 31.1849 18.0485 31.4138Z" fill="#005434"/>
<path d="M7.2145 25.7642C11.3314 25.7642 14.6689 22.22 14.6689 17.848C14.6689 13.476 11.3314 9.93176 7.2145 9.93176C3.09756 9.93176 -0.239868 13.476 -0.239868 17.848C-0.239868 22.22 3.09756 25.7642 7.2145 25.7642Z" fill="white" stroke="#005434" stroke-miterlimit="10"/>
<path d="M7.36422 22.3839C9.76602 22.3839 11.7131 20.3169 11.7131 17.7671C11.7131 15.2172 9.76602 13.1502 7.36422 13.1502C4.96242 13.1502 3.01538 15.2172 3.01538 17.7671C3.01538 20.3169 4.96242 22.3839 7.36422 22.3839Z" fill="#005434" stroke="#005434" stroke-miterlimit="10"/>
<path d="M0.828413 13.4544L-4.91639 11.3358C-5.41871 11.1488 -5.63796 11.9583 -5.13841 12.1425L0.595291 14.2528C1.10039 14.437 1.31686 13.6303 0.817312 13.4461L0.828413 13.4544Z" fill="#005434"/>
<path d="M-3.44007 9.15579L2.45182 11.5787C2.55815 11.607 2.67129 11.5921 2.76683 11.5373C2.86236 11.4825 2.93263 11.3921 2.96247 11.2856C2.9899 11.1787 2.9748 11.0652 2.92039 10.9693C2.86598 10.8734 2.77654 10.8026 2.67107 10.772L-3.21805 8.34909C-3.32473 8.32068 -3.43824 8.33546 -3.53423 8.39025C-3.63021 8.44504 -3.70102 8.53549 -3.73147 8.64218C-3.75746 8.74903 -3.74173 8.86184 -3.68752 8.95739C-3.63332 9.05293 -3.54475 9.12394 -3.44007 9.15579Z" fill="#005434"/>
<path d="M37.3398 25.4432C41.5227 25.4432 44.9135 21.899 44.9135 17.527C44.9135 13.155 41.5227 9.61078 37.3398 9.61078C33.157 9.61078 29.7661 13.155 29.7661 17.527C29.7661 21.899 33.157 25.4432 37.3398 25.4432Z" fill="white" stroke="#005434" stroke-miterlimit="10"/>
<path d="M37.1873 22.2108C39.7056 22.2108 41.7471 20.0775 41.7471 17.446C41.7471 14.8145 39.7056 12.6812 37.1873 12.6812C34.669 12.6812 32.6276 14.8145 32.6276 17.446C32.6276 20.0775 34.669 22.2108 37.1873 22.2108Z" fill="#005434" stroke="#005434" stroke-miterlimit="10"/>
<path d="M44.0507 13.929L49.8788 11.8103C50.3811 11.6289 50.1563 10.8194 49.6595 11.0036L43.8314 13.1223C43.3319 13.3037 43.5539 14.1132 44.0535 13.929H44.0507Z" fill="#005434"/>
<path d="M47.9386 8.0253L41.9468 10.4482C41.8444 10.4834 41.7591 10.5561 41.7076 10.6518C41.6562 10.7475 41.6425 10.8592 41.6693 10.9646C41.7008 11.0693 41.772 11.1573 41.8676 11.2096C41.9632 11.2618 42.0754 11.2741 42.1799 11.2437L48.1634 8.82362C48.2679 8.79059 48.3561 8.71895 48.4102 8.62312C48.4642 8.52729 48.4802 8.41441 48.4548 8.30722C48.4243 8.20053 48.3535 8.11008 48.2575 8.05529C48.1616 8.0005 48.048 7.98572 47.9414 8.01413L47.9386 8.0253Z" fill="#005434"/>
</g>
<rect x="1" y="1" width="43" height="43" rx="11" stroke="white" stroke-width="2"/>
<defs>
<clipPath id="clip0_2201_2001">
<rect width="45" height="45" rx="12" fill="white"/>
</clipPath>
</defs>
</svg>
