<svg width="374" height="392" viewBox="0 0 374 392" fill="none" xmlns="http://www.w3.org/2000/svg">
<g clip-path="url(#clip0_984_20501)">
<path d="M170.146 95.1625C168.609 94.6222 167.539 93.145 167.097 91.5736C166.732 89.9783 166.673 88.328 166.924 86.7107C167.721 79.3045 170.087 72.153 173.864 65.7323L173.472 64.9739C169.047 67.9288 163.889 69.6 158.571 69.8021C156.564 69.8715 154.194 69.5196 153.247 67.7499C152.102 65.6035 153.847 63.0902 155.572 61.3751C161.322 55.6613 168.045 51.0198 175.425 47.6687L175.267 46.5038C175.038 41.5398 175.614 36.5715 176.972 31.7912C177.587 29.62 178.642 27.2208 180.804 26.5714C182.623 26.0212 184.626 27.0027 185.835 28.47C187.045 29.9373 187.635 31.8011 188.195 33.6154L192.656 47.9909L192.904 47.8472L210.878 47.5845L205.044 63.9726L214.21 74.8137C216.316 77.2923 218.492 80.787 216.589 83.4192C215.295 85.2137 212.544 85.5954 210.378 84.9063C208.211 84.2173 206.481 82.6459 204.846 81.1241L170.146 95.1625Z" fill="#FF8000"/>
<path d="M170.319 94.4487C168.391 93.7151 167.608 91.5241 167.514 89.6305C167.481 87.3235 167.721 85.0207 168.228 82.7699C169.062 78.3488 170.467 74.0548 172.406 69.9954C172.962 68.8355 173.561 67.6987 174.206 66.585C174.468 66.124 174.701 65.8117 174.449 65.2912C174.335 65.0582 174.211 64.8252 174.092 64.5972C173.992 64.4346 173.833 64.3163 173.649 64.2665C173.465 64.2168 173.269 64.2393 173.1 64.3295C170.171 66.2785 166.908 67.6699 163.474 68.434C161.808 68.8069 160.109 69.0177 158.403 69.0635C157.129 69.0933 155.622 68.9991 154.571 68.1861C153.272 67.1947 153.525 65.5291 154.244 64.2551C155.052 62.8126 156.296 61.6775 157.486 60.5621C159.995 58.21 162.684 56.0555 165.526 54.1179C168.779 51.8982 172.217 49.9628 175.802 48.333C175.941 48.2467 176.048 48.1186 176.11 47.9673C176.171 47.8159 176.183 47.6489 176.144 47.4903C175.847 44.8166 175.876 42.1168 176.228 39.4499C176.42 37.7161 176.711 35.9948 177.101 34.2945C177.382 32.8459 177.809 31.4293 178.375 30.0662C178.87 28.9954 179.579 27.8801 180.709 27.4042C181.954 26.9085 183.357 27.3299 184.383 28.1081C185.582 29.0252 186.301 30.433 186.812 31.821C187.387 33.3676 187.828 34.9687 188.299 36.5451L191.903 48.214C191.934 48.3227 191.99 48.4228 192.066 48.5069C192.142 48.5909 192.236 48.6569 192.34 48.6997C192.445 48.7426 192.558 48.7613 192.671 48.7544C192.784 48.7476 192.894 48.7154 192.993 48.6602C193.044 48.6189 193.101 48.5855 193.162 48.561C193.216 48.5263 193.221 48.5214 193.162 48.561C193.107 48.5957 193.117 48.6503 193.365 48.5957C193.732 48.6205 194.108 48.5957 194.475 48.5957L196.81 48.561L201.49 48.4916L210.848 48.3578L210.13 47.4159L205.51 60.4828L204.518 63.239C204.446 63.4139 204.383 63.5926 204.33 63.7743C204.297 63.9042 204.296 64.0402 204.327 64.1706C204.358 64.3009 204.42 64.4218 204.508 64.5228C205.004 65.1772 205.569 65.777 206.09 66.3966L211.939 73.3365C213.634 75.3194 215.731 77.4162 216.4 80.0385C216.584 80.6102 216.614 81.2204 216.486 81.8071C216.358 82.3939 216.077 82.9364 215.672 83.3796C214.806 84.1635 213.666 84.5764 212.499 84.5296C209.614 84.5296 207.339 82.4724 205.331 80.6482C205.239 80.5544 205.123 80.487 204.996 80.453C204.868 80.419 204.734 80.4197 204.608 80.4549L192.919 85.1245L174.235 92.684L169.923 94.4289C169.05 94.7809 169.427 96.2234 170.319 95.8615L182.043 91.1424L200.726 83.5828L205.034 81.8429L204.3 81.6545C206.159 83.3449 208.167 85.1245 210.675 85.7491C212.707 86.2448 215.136 85.9523 216.683 84.4453C218.517 82.6757 218.244 80.0881 217.233 77.9714C216.053 75.4929 214.036 73.4654 212.276 71.3983L205.559 63.467L205.748 64.1907L210.819 49.8449L211.542 47.8076C211.571 47.6971 211.574 47.5816 211.551 47.4698C211.529 47.3579 211.481 47.2527 211.412 47.162C211.343 47.0713 211.254 46.9975 211.152 46.9462C211.05 46.8949 210.938 46.8673 210.824 46.8657L201.098 47.0045L196.294 47.0789L193.816 47.1136C193.267 47.0501 192.71 47.1411 192.21 47.3763L193.3 47.8175L189.736 36.2675C188.77 33.1445 188.071 29.2135 185.379 27.0572C184.794 26.5527 184.11 26.1761 183.37 25.9515C182.631 25.727 181.853 25.6596 181.086 25.7535C180.419 25.8863 179.785 26.1512 179.221 26.5326C178.658 26.9139 178.176 27.4041 177.805 27.9743C177.031 29.1579 176.468 30.4659 176.139 31.8408C175.635 33.6611 175.241 35.5101 174.959 37.3779C174.366 40.8493 174.264 44.387 174.657 47.8869L174.999 47.0491C168.06 50.2104 161.695 54.5021 156.162 59.7492C154.001 61.7964 150.556 65.3209 152.781 68.4935C154.729 71.2595 159.072 70.6696 161.932 70.2383C166.186 69.5891 170.247 68.0173 173.829 65.6332L172.813 65.3655L173.199 66.124V65.3755C170.936 69.2401 169.163 73.3713 167.92 77.674C167.315 79.7907 166.842 81.9429 166.502 84.1182C166.15 86.3687 165.789 88.7233 166.18 90.9887C166.557 93.1401 167.841 95.0981 169.928 95.8913C170.82 96.2234 171.207 94.7858 170.319 94.4487Z" fill="#CF6800"/>
<path d="M209.381 54.7078C209.426 57.1863 209.039 63.1348 206.68 64.1262C204.32 65.1177 197.073 62.7184 194.47 62.3367C193.817 62.2974 193.184 62.0927 192.631 61.7419C191.724 61.0429 191.64 59.655 192.136 58.6338C192.631 57.6126 193.573 56.874 194.48 56.1553C197.321 53.9543 201.638 48.9824 205.054 47.9563C208.34 47.0144 209.381 51.7038 209.381 54.7078Z" fill="#BA5D00"/>
<path d="M213.843 54.7078C213.887 57.1863 213.501 63.1348 211.141 64.1262C208.781 65.1177 201.534 62.7184 198.932 62.3367C198.278 62.2974 197.645 62.0927 197.093 61.7419C196.186 61.0429 196.101 59.655 196.597 58.6338C197.093 57.6126 198.035 56.874 198.942 56.1553C201.782 53.9543 206.1 48.9824 209.515 47.9563C212.802 47.0144 213.843 51.7038 213.843 54.7078Z" fill="#FF8000"/>
<path d="M213.099 54.7078C213.131 56.2013 213.026 57.6946 212.787 59.1692C212.569 60.4729 212.291 62.2376 211.245 63.1795C210.427 63.923 208.866 63.6454 207.844 63.5017C206.127 63.2356 204.424 62.8799 202.744 62.4359C201.98 62.2525 201.217 62.0592 200.453 61.8857C199.69 61.7122 199.046 61.6527 198.352 61.4891C198.133 61.4574 197.924 61.3792 197.738 61.2599C197.552 61.1406 197.394 60.9829 197.275 60.7974C197.155 60.6119 197.076 60.4029 197.044 60.1845C197.012 59.966 197.027 59.7432 197.088 59.531C197.296 58.4504 198.262 57.6672 199.07 57.0178C202.109 54.6037 204.687 51.5006 208.033 49.488C208.722 49.0716 209.594 48.5511 210.432 48.5908C210.751 48.6293 211.055 48.7447 211.319 48.9268C211.584 49.109 211.8 49.3526 211.949 49.6367C212.866 51.099 213.084 53.0075 213.089 54.6929C213.089 54.8901 213.167 55.0793 213.307 55.2187C213.446 55.3582 213.635 55.4365 213.833 55.4365C214.03 55.4365 214.219 55.3582 214.358 55.2187C214.498 55.0793 214.576 54.8901 214.576 54.6929C214.576 51.7831 213.496 46.0428 209.322 47.2573C207.299 47.8522 205.544 49.3294 203.983 50.6827C202.278 52.1698 200.696 53.761 198.971 55.2035C197.246 56.646 195.055 58.1778 195.635 60.7455C196.131 62.9911 198.609 62.9762 200.414 63.4025C202.218 63.8288 204.137 64.3345 206.02 64.6914C207.592 64.9937 209.49 65.4052 211.052 64.9442C212.866 64.4138 213.6 62.3219 213.986 60.6662C214.428 58.7053 214.626 56.6974 214.576 54.688C214.553 54.507 214.464 54.3409 214.326 54.2214C214.188 54.1018 214.011 54.0371 213.829 54.0395C213.646 54.042 213.471 54.1114 213.337 54.2346C213.202 54.3579 213.117 54.5263 213.099 54.7078Z" fill="#CF6800"/>
<path d="M244.472 321.894C234.489 336.448 231.069 354.79 235.218 371.644C239.367 388.498 251.026 403.602 266.784 412.54L266.12 412.203C268.985 413.635 272.346 417.11 272.331 419.846C272.331 424.461 271.365 427.411 269.55 431.649C264.36 443.759 257.638 455.152 249.548 465.551C247.427 468.272 245.142 471.003 242.113 472.664C239.084 474.325 235.173 474.791 232.258 472.952C227.276 469.809 227.797 462.507 228.912 456.722C230.637 447.799 232.838 436.398 234.568 427.475L242.048 432.462C224.387 421.995 211.083 405.521 204.568 386.052C198.053 366.583 198.762 345.419 206.566 326.43L217.471 303.385L244.472 321.894Z" fill="#FF8000"/>
<path d="M243.833 321.518C235.618 333.555 231.786 348.048 232.977 362.572C234.147 376.056 239.917 388.77 248.84 398.903C253.866 404.604 259.802 409.433 266.408 413.194L267.161 411.91L266.497 411.573C265.644 411.142 264.891 412.421 265.743 412.857C267.491 413.763 269.015 415.046 270.205 416.614C270.792 417.301 271.216 418.114 271.442 418.989C271.669 419.864 271.693 420.78 271.513 421.666C271.236 425.874 269.615 429.721 267.91 433.533C264.2 441.823 259.765 449.769 254.654 457.277C252.111 461.01 249.474 464.807 246.426 468.148C243.674 471.167 239.981 473.819 235.698 473.368C227.376 472.491 228.664 461.897 229.78 456.147C231.617 446.669 233.451 437.188 235.282 427.703L234.192 428.149L241.672 433.107L242.425 431.823C226.943 422.646 214.787 408.777 207.719 392.226C200.651 375.676 199.038 357.304 203.116 339.775C204.152 335.249 205.435 330.554 207.428 326.346L210.512 319.837L217.947 304.094L218.106 303.761L217.09 304.029L226.181 310.26L240.7 320.209L244.061 322.509C244.849 323.054 245.598 321.766 244.81 321.225L235.718 314.994L221.199 305.05L217.838 302.745C217.67 302.654 217.473 302.631 217.289 302.68C217.104 302.73 216.946 302.849 216.847 303.013L210.165 317.116L206.486 324.879C204.902 328.335 203.615 331.921 202.64 335.596C199.181 348.117 198.543 361.25 200.771 374.048C202.847 385.821 207.377 397.025 214.066 406.933C220.438 416.403 228.602 424.533 238.098 430.866C239.273 431.644 240.462 432.388 241.672 433.107C242.505 433.602 243.213 432.353 242.425 431.823L234.94 426.841C234.842 426.784 234.731 426.75 234.618 426.742C234.504 426.734 234.39 426.752 234.285 426.796C234.18 426.839 234.086 426.905 234.01 426.991C233.935 427.076 233.88 427.177 233.849 427.287C232.081 436.408 230.315 445.532 228.55 454.66C227.346 460.886 225.512 470.909 232.927 474.126C236.858 475.832 241.32 474.424 244.547 471.916C248.22 469.07 250.991 464.976 253.658 461.263C259.351 453.355 264.283 444.925 268.385 436.086C270.477 431.57 272.609 426.97 272.996 421.943C273.142 420.859 273.117 419.758 272.921 418.681C272.636 417.658 272.155 416.7 271.503 415.861C270.181 414.069 268.469 412.602 266.497 411.568L265.743 412.852L266.408 413.189C267.255 413.62 267.999 412.386 267.161 411.905C255.721 405.409 246.458 395.675 240.537 383.927C234.422 371.575 232.715 357.504 235.698 344.048C237.419 336.253 240.616 328.859 245.117 322.266C245.657 321.478 244.368 320.73 243.833 321.518Z" fill="#CF6800"/>
<path d="M176.035 318.365C165.833 360.783 155.81 389.95 145.608 432.378L142.411 444.458C141.54 447.749 139.703 450.703 137.137 452.94C120.848 467.073 101.862 471.965 79.6049 470.582C74.8907 470.29 69.2942 468.902 67.8021 464.42C66.191 459.587 70.5433 454.928 74.7122 451.988C84.458 445.13 95.4801 440.296 107.127 437.771L108.361 437.087L142.287 324.611" fill="#FF8000"/>
<path d="M175.321 318.167C172.079 331.625 168.535 345.004 164.832 358.319C161.397 370.712 157.837 383.04 154.422 395.428C152.634 401.925 150.889 408.435 149.187 414.959C147.675 420.798 146.337 426.687 144.795 432.522L142.386 441.668C142.158 442.525 141.935 443.388 141.702 444.25C140.927 447.188 139.352 449.853 137.152 451.949C132.903 455.974 127.778 459.315 122.598 462.001C117.533 464.611 112.167 466.591 106.621 467.895C100.928 469.215 95.1136 469.939 89.2711 470.057C86.1779 470.131 83.0748 470.057 79.9816 469.888C77.4782 469.739 74.8906 469.392 72.5905 468.332C70.2905 467.271 68.4514 465.471 68.2184 462.879C67.9507 459.939 69.879 457.292 71.8569 455.329C74.1124 453.089 76.8586 451.364 79.5503 449.688C82.364 447.954 85.2717 446.377 88.2599 444.964C91.2701 443.538 94.3602 442.286 97.5148 441.216C100.658 440.146 103.845 439.377 107.057 438.554C107.647 438.406 108.648 437.994 108.995 437.474C109.192 437.045 109.335 436.594 109.422 436.13L109.774 434.961L110.651 432.051L113.903 421.264L126.871 378.286L139.833 335.303L143.001 324.809C143.274 323.892 141.841 323.501 141.563 324.418L128.293 368.417L115.122 412.123L107.652 436.909L107.994 436.463C107.577 436.727 107.135 436.951 106.675 437.132C105.496 437.504 104.232 437.697 103.032 438.014C100.57 438.675 98.1393 439.43 95.7401 440.28C91.0547 441.96 86.5153 444.022 82.1676 446.446C79.9402 447.689 77.774 449.025 75.6689 450.456C73.7244 451.707 71.9254 453.17 70.3053 454.819C67.4748 457.838 65.4226 462.205 67.7723 466.136C69.7204 469.388 73.7208 470.597 77.2849 471.093C81.7463 471.702 86.3861 471.648 90.8822 471.465C99.6463 471.098 108.386 469.531 116.575 466.329C120.63 464.745 124.53 462.788 128.224 460.485C130.111 459.298 131.942 458.029 133.716 456.678C135.561 455.358 137.293 453.889 138.896 452.286C141.071 449.898 142.606 446.999 143.358 443.859L145.256 436.582C147.239 429.146 148.974 421.71 150.907 414.275C153.446 404.504 156.127 394.778 158.839 385.063C161.516 375.609 164.197 366.191 166.835 356.693C169.606 346.675 172.287 336.632 174.796 326.544C175.457 323.9 176.109 321.24 176.754 318.563C176.977 317.631 175.544 317.235 175.321 318.167Z" fill="#CF6800"/>
<path d="M233.527 352.688C233.725 346.482 240.17 330.123 244.205 323.441L217.238 304.971L206.333 328.021C202.438 337.567 200.297 347.736 200.012 358.042C200.012 358.042 208.548 349.971 233.527 352.688Z" fill="#BA5D00"/>
<path d="M132.353 360.609C132.353 360.609 144.25 355.652 164.078 366.062C166.557 355.157 175.728 319.713 175.728 319.713L142.267 326.405L132.353 360.609Z" fill="#BA5D00"/>
<path d="M243.793 321.731C235.578 333.768 231.746 348.261 232.937 362.785C234.107 376.269 239.877 388.984 248.8 399.116C253.824 404.82 259.761 409.649 266.368 413.407L267.116 412.123L266.452 411.786C265.6 411.355 264.846 412.634 265.704 413.07C267.451 413.976 268.976 415.259 270.165 416.828C270.653 417.452 271.043 418.147 271.32 418.89C271.565 419.862 271.617 420.872 271.474 421.864C271.196 426.073 269.575 429.919 267.87 433.731C264.161 442.021 259.725 449.967 254.615 457.476C252.072 461.208 249.44 465.005 246.386 468.346C243.64 471.365 239.942 474.017 235.664 473.566C227.336 472.689 228.63 462.096 229.715 456.345C231.556 446.867 233.392 437.386 235.223 427.902L234.127 428.348L241.612 433.33L242.361 432.046C232.626 426.236 224.146 418.545 217.417 409.422C210.511 400.096 205.602 389.446 202.997 378.138C200.159 365.58 200.178 352.547 203.051 339.998C204.092 335.472 205.371 330.778 207.364 326.569L210.492 320.09L217.952 304.346L218.106 304.014L217.114 304.282L226.161 310.498L240.68 320.447L244.041 322.747C244.834 323.292 245.578 322.004 244.79 321.463L235.718 315.232L221.204 305.288L217.843 302.983C217.673 302.884 217.47 302.857 217.28 302.907C217.089 302.957 216.926 303.081 216.827 303.251L210.145 317.354L206.467 325.117C204.882 328.573 203.595 332.159 202.62 335.834C199.162 348.355 198.523 361.488 200.751 374.286C202.83 386.059 207.361 397.263 214.051 407.171C220.412 416.648 228.568 424.788 238.058 431.129C239.228 431.907 240.423 432.651 241.632 433.369C242.46 433.865 243.169 432.616 242.381 432.085L234.9 427.128C234.802 427.071 234.691 427.037 234.577 427.03C234.463 427.022 234.349 427.04 234.243 427.083C234.138 427.126 234.043 427.193 233.967 427.278C233.891 427.363 233.836 427.465 233.805 427.575C232.034 436.696 230.269 445.82 228.511 454.947C227.306 461.174 225.467 471.197 232.888 474.414C236.814 476.119 241.275 474.711 244.502 472.203C248.175 469.358 250.946 465.263 253.613 461.55C259.305 453.636 264.231 445.199 268.326 436.353C270.418 431.838 272.549 427.242 272.936 422.211C273.085 421.127 273.061 420.026 272.867 418.949C272.582 417.925 272.099 416.966 271.444 416.129C270.122 414.337 268.41 412.869 266.437 411.836L265.689 413.12L266.353 413.457C267.201 413.888 267.939 412.654 267.102 412.173C255.656 405.679 246.389 395.942 240.467 384.19C234.351 371.838 232.642 357.767 235.624 344.31C237.345 336.515 240.542 329.122 245.043 322.529C245.623 321.691 244.334 320.943 243.793 321.731Z" fill="#CF6800"/>
<path d="M175.47 318.078C172.233 331.531 168.689 344.91 164.986 358.23C161.545 370.623 157.991 382.956 154.576 395.339C152.781 401.849 151.032 408.366 149.326 414.889C147.809 420.729 146.476 426.618 144.929 432.447L142.515 441.573C142.287 442.436 142.064 443.298 141.831 444.161C141.05 447.087 139.479 449.742 137.29 451.835C133.042 455.86 127.917 459.201 122.736 461.887C117.672 464.499 112.307 466.478 106.76 467.781C101.067 469.1 95.2525 469.824 89.41 469.943C86.3119 470.022 83.2137 469.943 80.1205 469.774C77.6171 469.625 75.0295 469.278 72.7295 468.223C70.4294 467.167 68.5903 465.362 68.3573 462.77C68.0896 459.83 70.0179 457.188 71.9958 455.225C74.2513 452.98 76.9975 451.259 79.6892 449.584C82.5012 447.848 85.4072 446.269 88.3938 444.855C91.4054 443.433 94.4953 442.184 97.6487 441.112C100.791 440.042 103.984 439.268 107.191 438.45C107.781 438.297 108.782 437.89 109.134 437.365C109.332 436.937 109.475 436.485 109.561 436.021L109.913 434.857L110.79 431.942L114.042 421.16L127.019 378.187L139.987 335.204L143.15 324.715C143.427 323.798 141.995 323.406 141.717 324.319L128.447 368.323L115.266 412.034L107.791 436.82L108.133 436.378C107.717 436.641 107.277 436.863 106.819 437.043C105.64 437.419 104.371 437.608 103.171 437.925C100.712 438.586 98.2832 439.341 95.884 440.19C91.1957 441.869 86.6543 443.934 82.3065 446.362C80.0858 447.601 77.9195 448.936 75.8078 450.367C73.866 451.619 72.0689 453.082 70.4492 454.729C67.6187 457.753 65.5665 462.12 67.9161 466.051C69.8643 469.303 73.8646 470.538 77.4238 471.009C81.8852 471.623 86.53 471.569 91.0211 471.38C99.7852 471.018 108.529 469.447 116.714 466.245C120.772 464.658 124.672 462.693 128.363 460.376C130.251 459.196 132.086 457.922 133.86 456.573C135.703 455.253 137.436 453.784 139.04 452.181C141.213 449.792 142.747 446.894 143.502 443.754L145.42 436.507C147.403 429.072 149.133 421.636 151.066 414.2C153.609 404.435 156.291 394.704 158.998 384.988C161.66 375.53 164.356 366.082 166.973 356.614C169.744 346.596 172.426 336.553 174.94 326.465C175.6 323.821 176.251 321.161 176.893 318.484C177.121 317.552 175.683 317.156 175.46 318.088L175.47 318.078Z" fill="#CF6800"/>
<path d="M34.9812 128.643C33.3305 126.66 30.0588 123.948 27.491 126.397C26.4996 127.354 26.3707 128.955 26.7822 130.269C27.1936 131.582 28.0661 132.693 28.9187 133.773C34.6045 140.951 36.6567 143.717 42.3424 150.9C37.0285 146.186 31.3129 141.764 27.1738 138.651C26.0783 137.828 23.6691 137.124 22.4794 139.013C21.0518 141.283 22.9156 142.879 24.1202 144.054L46.0801 165.429L45.7281 165.925C41.0963 177.08 39.9303 189.372 42.3821 201.199C46.2437 219.575 60.0541 236.132 78.2962 240.802C96.5382 245.471 118.176 236.296 125.448 218.896L119.395 209.612L113.06 199.891C111.329 203.614 108.788 206.905 105.624 209.522C102.459 212.139 98.7509 214.018 94.7686 215.02C90.7865 215.964 86.6431 216.001 82.6447 215.129C78.6463 214.256 74.8951 212.496 71.6685 209.978C64.3668 204.169 60.5696 194.686 60.4308 185.342C60.292 175.998 63.5141 166.822 68.2432 158.727L68.8034 157.339C70.4987 151.718 69.9137 143.826 69.4428 135.493C69.3189 133.273 68.6646 127.884 66.4686 127.631C65.2194 127.488 64.4857 128.524 63.8562 129.614C63.2714 130.731 62.9063 131.949 62.7805 133.203L60.411 147.529L59.7815 147.618C54.6128 138.946 48.1218 131.134 40.543 124.464C38.927 123.041 36.4683 121.643 34.7978 123.031C33.8559 123.814 33.6676 125.232 34.0195 126.397C34.4522 127.537 35.104 128.581 35.9379 129.471C41.014 135.627 44.1369 139.717 49.213 145.878" fill="#39A84A"/>
<path d="M35.5066 128.117C34.0195 126.387 31.7987 124.429 29.3499 124.712C26.5244 125.039 25.2901 127.949 26.0634 130.467C26.5621 131.816 27.3086 133.06 28.2643 134.135L31.2782 137.957C32.8182 139.94 34.3549 141.911 35.8883 143.871C37.8712 146.396 39.854 148.914 41.8368 151.425L42.8877 150.37C39.5417 147.395 36.0816 144.58 32.5621 141.833C31.0452 140.649 29.5234 139.484 27.9867 138.324C26.8714 137.481 25.5627 136.896 24.1252 137.119C23.3194 137.279 22.5932 137.712 22.068 138.343C21.5428 138.975 21.2505 139.768 21.2401 140.589C21.2104 142.24 22.4695 143.464 23.565 144.525C27.0118 147.873 30.452 151.224 33.8857 154.578L45.5745 165.979L45.4555 165.077C44.5533 166.366 44.1121 168.052 43.6065 169.539C41.6629 175.295 40.5919 181.31 40.429 187.384C40.1867 194.813 41.3801 202.219 43.9436 209.195C46.2258 215.314 49.5591 220.988 53.7933 225.96C57.9697 230.901 63.0636 234.987 68.7934 237.991C74.4029 240.918 80.598 242.547 86.9215 242.76C93.0444 242.917 99.1326 241.794 104.797 239.463C110.427 237.202 115.492 233.731 119.633 229.296C121.657 227.095 123.394 224.647 124.803 222.009C125.155 221.35 125.488 220.671 125.795 219.987C126.008 219.491 126.335 219.02 126.072 218.5C125.81 217.979 125.493 217.612 125.21 217.181L120.01 209.205L114.294 200.436L113.705 199.539C113.638 199.428 113.544 199.336 113.432 199.273C113.319 199.209 113.192 199.175 113.063 199.175C112.933 199.175 112.806 199.209 112.694 199.273C112.581 199.336 112.487 199.428 112.421 199.539C108.177 208.779 98.6648 215.069 88.4582 215.04C83.1162 215.03 77.8999 213.419 73.4828 210.415C69.2954 207.443 66.0145 203.367 64.0049 198.642C59.4295 188.262 60.8819 176.434 65.2689 166.257C65.8539 164.894 66.4933 163.555 67.1725 162.242C67.7574 161.117 68.5257 160.026 69.0016 158.861C69.7049 157.072 70.165 155.196 70.3698 153.284C71.0836 147.415 70.5433 141.387 70.1864 135.523C70.1141 133.711 69.8177 131.914 69.304 130.174C68.8083 128.663 67.8912 126.749 66.0075 126.918C64.7584 127.032 63.9652 128.023 63.3456 129.014C62.6622 130.216 62.2273 131.543 62.0667 132.916C61.5313 136.108 61.0108 139.3 60.4804 142.488L59.6773 147.346L60.1731 146.825L59.5435 146.919L60.3813 147.262C55.7155 139.436 49.9829 132.299 43.3487 126.055C41.817 124.618 40.2555 122.992 38.2875 122.164C36.5278 121.425 34.3516 121.668 33.4544 123.552C32.5572 125.435 33.4147 127.517 34.6193 129.064C36.0569 130.948 37.5936 132.747 39.1104 134.596C42.2879 138.562 45.4307 142.527 48.6478 146.419C49.2576 147.157 50.3035 146.102 49.6987 145.368C47.0517 142.156 44.4591 138.924 41.8517 135.652C40.5529 134.029 39.2476 132.412 37.9356 130.799C37.2168 129.922 36.4485 129.059 35.7793 128.152C35.1777 127.449 34.7649 126.605 34.5796 125.698C34.4972 125.286 34.533 124.858 34.683 124.465C34.833 124.073 35.091 123.73 35.4273 123.477C36.156 123.021 37.0681 123.239 37.8018 123.562C39.6012 124.355 41.0437 125.931 42.4515 127.255C45.4899 130.121 48.3396 133.181 50.9826 136.415C53.9714 140.072 56.6869 143.944 59.1073 148C59.1933 148.138 59.3205 148.245 59.4709 148.306C59.6213 148.368 59.7872 148.38 59.945 148.342L60.5795 148.248C60.7024 148.219 60.8153 148.157 60.9067 148.07C60.9982 147.983 61.0649 147.874 61.1 147.752L62.7061 138.036C62.9672 136.43 63.2316 134.824 63.4993 133.218C63.6591 131.854 64.1269 130.543 64.8674 129.386C65.3185 128.737 66.1017 128.018 66.8502 128.653C67.383 129.233 67.7525 129.945 67.921 130.715C68.4086 132.483 68.6832 134.304 68.7389 136.138C69.0661 141.933 69.6312 147.881 68.838 153.666C68.61 155.337 68.3175 157.324 67.3856 158.772C66.6154 160.039 65.917 161.348 65.2937 162.693C64.6443 164.011 64.0445 165.355 63.4844 166.718C59.2907 176.954 58.1258 188.589 62.5376 198.939C64.4993 203.665 67.652 207.801 71.6884 210.945C75.9286 214.121 80.9852 216.024 86.2671 216.433C96.4539 217.275 106.442 212.12 111.93 203.544C112.598 202.502 113.191 201.414 113.705 200.287H112.421L117.873 208.62L122.241 215.317L124.828 219.283L124.754 218.713C121.338 226.828 114.617 233.143 106.775 236.96C98.8325 240.866 89.8598 242.163 81.1366 240.668C71.9263 238.997 63.5488 234.025 57.0798 227.338C50.5216 220.525 45.8627 212.113 43.5668 202.939C40.8099 191.601 41.467 179.701 45.4555 168.736C45.7535 167.705 46.1869 166.718 46.7443 165.801C46.8278 165.659 46.8619 165.494 46.8413 165.33C46.8207 165.167 46.7465 165.015 46.6303 164.899L27.5951 146.359C26.2468 145.051 24.7745 143.797 23.5452 142.394C23.0639 141.915 22.7747 141.277 22.7322 140.599C22.7457 140.224 22.8536 139.858 23.046 139.536C23.2383 139.214 23.5089 138.945 23.8327 138.755C24.9034 138.215 26.1675 138.805 27.03 139.454C28.3949 140.482 29.7514 141.52 31.0998 142.567C34.7631 145.417 38.3669 148.347 41.8418 151.43C41.9818 151.57 42.1714 151.648 42.369 151.647C42.5665 151.647 42.7558 151.568 42.8951 151.428C43.0345 151.288 43.1125 151.098 43.1121 150.901C43.1116 150.703 43.0327 150.514 42.8927 150.375C39.9184 146.602 36.9442 142.8 33.9699 139.003C32.3638 136.941 30.723 134.903 29.1219 132.836C27.8529 131.201 26.0733 128.112 28.4775 126.566C30.6289 125.183 33.1669 127.646 34.4607 129.173C35.0803 129.907 36.1263 128.851 35.5116 128.122L35.5066 128.117Z" fill="#256E31"/>
<path d="M310.788 289.664C318.363 294.249 326.13 299.023 331.32 306.21C336.511 313.398 338.483 323.634 333.685 331.065C328.44 339.19 317.485 341.148 307.819 341.267C275.196 341.658 242.594 329.231 218.512 307.231L229.958 316.65C216.772 330.674 200.711 339.408 182.578 345.847C174.979 348.544 166.542 350.467 158.948 347.756C151.354 345.044 145.564 336.062 148.92 328.72L159.934 323.719C139.413 334.031 117.085 340.26 94.1885 342.06C84.2744 342.833 73.116 342.283 66.2504 335.12C59.4791 328.036 59.3948 316.496 63.4794 307.588C67.5641 298.681 74.9997 291.83 82.3461 285.351C89.6925 278.872 97.3065 272.294 101.922 263.649L94.1885 274.426C82.5344 268.289 79.4759 255.435 80.4227 246.889L80.9184 244.519C88.1657 217.255 111.092 189.887 132.596 173.554L132.839 172.032C130.43 173.261 127.931 174.511 125.24 174.654C122.548 174.798 119.584 173.42 118.592 170.882C117.323 167.556 119.757 164.051 122.037 161.34C131.317 150.31 139.025 138.725 148.31 127.696L153.872 120.126L177.815 88.986C181.012 84.832 184.521 80.45 189.523 78.8736C196.651 76.633 204.127 80.8564 210.031 85.4219C221.833 94.5429 229.631 106.807 240.353 116.919C252.592 128.484 265.515 139.102 277.184 151.316C280.818 155.114 284.451 159.094 286.434 163.962C288.417 168.83 288.452 174.823 285.2 178.952C281.948 183.081 274.953 184.172 271.399 180.3C279.975 188.727 301.637 214.544 313.039 228.31C321.585 241.129 330.032 252.704 336.035 265.909C338.94 272.284 341.359 279.293 340.109 286.194C338.86 293.094 332.713 299.523 325.734 298.795" fill="#39A84A"/>
<path d="M310.431 290.308C320.345 296.301 331.434 303.132 334.785 314.974C336.302 320.328 336.04 326.286 332.847 330.991C329.873 335.373 324.956 337.817 319.959 339.091C314.813 340.399 309.47 340.578 304.185 340.489C298.141 340.386 292.111 339.852 286.142 338.892C274.455 337 263.076 333.546 252.31 328.621C240.156 323.075 228.932 315.682 219.038 306.706L217.982 307.757L229.433 317.175V316.124C217.491 328.765 202.431 337.559 186.266 343.701C177.74 346.948 167.791 350.388 158.789 346.903C155.2 345.464 152.221 342.824 150.362 339.433C149.461 337.832 148.9 336.061 148.716 334.233C148.587 332.914 148.715 331.582 149.093 330.312C149.145 329.988 149.215 329.667 149.301 329.35C149.619 328.963 150.749 328.696 151.19 328.497L154.908 326.807L160.291 324.358L159.543 323.074C141.864 331.926 122.829 337.757 103.225 340.325C97.3164 341.093 91.2985 341.733 85.3352 341.47C79.8824 341.227 74.2809 340.151 69.7154 337.009C65.2243 333.935 62.5376 329.077 61.7296 323.743C59.9252 311.777 66.875 301.253 74.9699 293.138C84.3884 283.661 96.0574 275.987 102.576 263.961C102.667 263.791 102.688 263.593 102.636 263.408C102.583 263.222 102.461 263.065 102.295 262.968C102.129 262.871 101.931 262.842 101.744 262.888C101.557 262.933 101.395 263.05 101.292 263.213L93.5491 273.989L94.5405 273.722C87.8038 270.103 83.3524 263.723 81.6967 256.312C80.9716 253.299 80.7754 250.183 81.1167 247.102C81.5331 243.964 82.6336 240.876 83.6944 237.912C90.0196 220.195 101.421 204.327 114.349 190.819C117.869 187.141 121.552 183.627 125.398 180.276C127.252 178.66 129.146 177.09 131.079 175.566C131.738 175.041 132.918 174.481 133.27 173.688C133.408 173.193 133.488 172.684 133.508 172.171C133.542 172.029 133.534 171.881 133.485 171.744C133.437 171.607 133.349 171.487 133.234 171.399C133.119 171.31 132.98 171.257 132.836 171.245C132.691 171.234 132.545 171.264 132.418 171.333C128.799 173.177 122.251 176.018 119.529 171.155C116.991 166.624 123.068 161.27 125.582 158.152C132.343 149.755 138.544 140.931 145.276 132.519C147.095 130.244 148.949 128.028 150.674 125.683C151.943 123.958 153.193 122.213 154.482 120.503C161.129 111.65 167.98 102.945 174.731 94.1662C177.705 90.3245 180.481 86.1357 184.125 82.8938C187.853 79.5775 192.478 78.2589 197.37 79.4238C202.263 80.5888 206.575 83.5481 210.427 86.6463C214.139 89.6872 217.619 93.0011 220.837 96.5605C227.37 103.669 233.314 111.303 240.358 117.935C248.051 125.173 256.037 132.083 263.785 139.251C267.667 142.845 271.484 146.498 275.186 150.29C278.656 153.859 282.255 157.508 284.645 161.925C286.845 165.979 287.872 170.946 286.266 175.403C285.596 177.35 284.32 179.031 282.625 180.199C280.93 181.367 278.905 181.96 276.847 181.892C274.983 181.843 273.212 181.065 271.915 179.725L270.864 180.776C275.851 185.684 280.431 191.018 285.021 196.287C291.029 203.181 296.963 210.144 302.822 217.176C305.466 220.335 308.11 223.501 310.754 226.674C314.253 230.892 317.138 235.666 320.172 240.217C326.71 249.972 333.363 260.09 337.413 271.184C339.534 276.998 340.883 283.829 338.181 289.688C335.95 294.517 331.271 298.477 325.714 298.001C324.762 297.917 324.767 299.404 325.714 299.489C330.374 299.89 334.637 297.402 337.408 293.798C340.531 289.773 341.547 284.741 341.021 279.73C340.407 273.826 338.047 268.264 335.465 262.97C332.745 257.466 329.711 252.123 326.378 246.968C322.988 241.644 319.409 236.444 315.884 231.215C313.328 227.564 310.586 224.046 307.67 220.676C301.566 213.366 295.415 206.095 289.215 198.865C283.604 192.366 278.027 185.743 271.9 179.716C271.759 179.584 271.573 179.513 271.38 179.516C271.187 179.519 271.003 179.597 270.867 179.734C270.731 179.87 270.653 180.054 270.65 180.246C270.646 180.439 270.718 180.625 270.849 180.766C273.466 183.478 277.516 183.964 280.971 182.715C284.937 181.287 287.48 177.832 288.243 173.762C290.226 163.253 281.859 154.925 275.142 148.109C267.052 139.915 258.382 132.326 249.861 124.608C245.672 120.825 241.434 117.063 237.513 113.003C233.869 109.236 230.479 105.235 227.043 101.275C220.336 93.5366 213.163 85.412 204.042 80.4549C199.715 78.1102 194.659 76.5884 189.766 77.9367C185.305 79.1611 181.959 82.5369 179.143 86.0118C171.633 95.3361 164.549 105.002 157.257 114.465C153.5 119.348 149.971 124.434 146.059 129.193C138.663 138.21 132.001 147.797 124.699 156.888C121.894 160.358 116.996 164.646 117.517 169.603C117.963 173.831 122.439 175.765 126.241 175.224C128.72 174.877 130.975 173.737 133.181 172.612L132.085 171.769C132.078 172.244 132.003 172.714 131.862 173.167C131.937 173.038 131.297 173.529 131.114 173.663C130.697 173.985 130.281 174.307 129.87 174.654C128.111 176.046 126.385 177.475 124.689 178.942C121.137 182.016 117.721 185.238 114.443 188.609C107.589 195.598 101.374 203.188 95.8739 211.287C90.4787 219.126 86.0403 227.581 82.6534 236.474C81.4389 239.756 80.2591 243.141 79.6791 246.606C79.2985 249.547 79.4057 252.53 79.9964 255.435C81.5083 263.688 86.3712 271.015 93.8068 274.981C93.9783 275.075 94.1792 275.099 94.3683 275.05C94.5574 275 94.7201 274.879 94.823 274.713L102.556 263.941L101.272 263.193C95.0511 274.668 84.0463 282.154 74.8956 291.081C66.642 299.137 59.3849 309.274 60.0243 321.349C60.287 326.505 62.0369 331.6 65.601 335.412C69.2941 339.378 74.4544 341.465 79.7089 342.352C85.5037 343.344 91.4027 343.022 97.2173 342.471C119.197 340.38 140.595 334.217 160.321 324.299C161.188 323.867 160.43 322.623 159.572 323.015L154.561 325.29L150.873 326.966C150.113 327.239 149.376 327.571 148.667 327.957C147.74 328.587 147.497 330.406 147.348 331.427C147.103 333.177 147.222 334.96 147.7 336.662C148.759 340.266 150.945 343.436 153.936 345.708C161.57 351.657 172.144 349.976 180.675 347.195C189.469 344.341 197.958 340.623 206.02 336.097C215.079 331.03 223.325 324.632 230.483 317.116C230.623 316.976 230.701 316.787 230.701 316.59C230.701 316.393 230.623 316.204 230.483 316.065L219.038 306.647C218.309 306.047 217.263 307.043 217.982 307.697C236.61 324.561 259.646 335.785 284.407 340.062C290.479 341.114 296.618 341.732 302.778 341.911C308.384 342.065 314.06 341.946 319.542 340.677C324.5 339.532 329.457 337.326 332.817 333.39C336.406 329.196 337.651 323.684 336.952 318.271C335.118 304.029 322.418 295.815 311.175 288.989C311.005 288.889 310.802 288.861 310.611 288.911C310.42 288.961 310.256 289.084 310.156 289.255C310.056 289.425 310.028 289.628 310.078 289.819C310.128 290.01 310.251 290.173 310.421 290.273L310.431 290.308Z" fill="#256E31"/>
<path d="M210.844 332.037C162.002 344.429 157.486 335.507 159.954 323.114C95.1156 343.066 71.3514 325.246 62.6815 310.81C60.1385 319.039 60.9762 328.552 66.8305 334.694C73.6664 341.872 84.79 342.422 94.6497 341.634C113.402 340.154 131.796 335.681 149.133 328.383C145.876 335.71 151.611 344.638 159.151 347.344C166.691 350.051 175.118 348.132 182.687 345.436C199.571 339.418 214.636 331.397 227.257 318.93C224.733 320.814 219.945 324.551 210.844 332.037Z" fill="#409151"/>
<path d="M318.288 294.179L325.273 298.462C332.213 299.191 338.33 292.752 339.574 285.861C340.6 280.191 339.153 274.46 336.997 269.037C339.614 289.153 320.346 293.748 318.288 294.179Z" fill="#409151"/>
<path d="M229.497 316.675L229.879 316.278L228.55 315.183C251.16 331.987 279.281 341.247 307.422 340.91C317.049 340.791 327.96 338.833 333.199 330.708C336.074 326.247 336.501 320.74 335.266 315.51C312.072 347.047 218.725 306.78 218.725 306.78L229.497 316.675Z" fill="#409151"/>
<path d="M325.863 300.262C323.986 298.526 321.999 296.913 319.914 295.434C321.983 296.934 323.969 298.546 325.863 300.262Z" fill="#409151"/>
<path d="M82.0983 241.392C82.0983 241.392 85.3799 265.562 101.738 263.579C99.2739 267.182 96.6266 270.657 93.8069 273.989C93.8069 273.989 73.8596 260.848 82.0983 241.392Z" fill="#409151"/>
<path d="M277.036 229.926C277.036 229.926 263.067 239.344 257.966 233.178C252.865 227.011 254.709 216.438 254.709 216.438C254.709 216.438 264.306 227.343 277.016 229.926" fill="#409151"/>
<path d="M284.585 160.621C284.585 160.621 287.629 181.788 269.288 174.848C265.818 177.822 274.552 182.199 274.552 182.199C274.552 182.199 289.423 184.212 287.54 167.878C286.142 163.942 284.565 160.621 284.565 160.621" fill="#409151"/>
<path d="M310.149 290.144C320.063 296.138 331.152 302.968 334.503 314.816C336.015 320.164 335.752 326.123 332.565 330.827C329.591 335.209 324.673 337.653 319.676 338.927C314.526 340.236 309.187 340.414 303.903 340.325C297.873 340.222 291.858 339.689 285.904 338.729C274.215 336.838 262.834 333.383 252.067 328.458C239.905 322.903 228.676 315.502 218.775 306.518L217.734 307.569L229.185 316.987V315.936C217.238 328.562 202.164 337.356 186.009 343.502C177.482 346.744 167.534 350.185 158.532 346.705C154.943 345.262 151.965 342.621 150.105 339.229C149.202 337.629 148.642 335.858 148.459 334.029C148.374 333.137 148.404 332.237 148.548 331.353C148.617 330.934 148.713 330.52 148.836 330.113C148.886 329.779 148.956 329.448 149.044 329.122C149.361 328.74 150.486 328.468 150.927 328.269L154.65 326.579L160.034 324.13L159.28 322.846C147.437 328.783 134.967 333.376 122.102 336.538C115.789 338.091 109.394 339.292 102.948 340.137C97.039 340.905 91.026 341.544 85.0577 341.282C79.6049 341.039 74.0084 339.963 69.4429 336.845C64.9518 333.772 62.265 328.914 61.457 323.58C59.6477 311.594 66.5975 301.06 74.6776 292.955C84.1258 283.472 95.77 275.804 102.284 263.773C102.374 263.603 102.396 263.405 102.344 263.219C102.291 263.034 102.169 262.876 102.003 262.779C101.836 262.682 101.639 262.654 101.452 262.699C101.265 262.745 101.103 262.861 101 263.024L93.3112 273.821L94.3274 273.553C87.561 269.939 83.1096 263.579 81.4589 256.144C80.735 253.13 80.5371 250.014 80.8739 246.934C81.2953 243.796 82.3957 240.707 83.4566 237.743C89.7818 220.026 101.183 204.159 114.111 190.651C117.631 186.969 121.314 183.453 125.16 180.102C127.014 178.486 128.908 176.916 130.841 175.393C131.501 174.872 132.68 174.307 133.027 173.519C133.166 173.023 133.248 172.512 133.27 171.997C133.304 171.856 133.296 171.708 133.247 171.571C133.199 171.434 133.112 171.314 132.996 171.225C132.881 171.137 132.743 171.083 132.598 171.072C132.453 171.06 132.308 171.091 132.18 171.16C128.561 173.004 122.013 175.844 119.291 170.981C116.748 166.45 122.831 161.097 125.344 157.979C132.105 149.581 138.307 140.758 145.038 132.346C146.858 130.07 148.712 127.855 150.432 125.51C151.701 123.785 152.955 122.04 154.239 120.33C160.891 111.481 167.742 102.772 174.488 93.9927C177.463 90.151 180.239 85.9622 183.882 82.7203C187.615 79.404 192.24 78.0854 197.127 79.2751C202.015 80.4648 206.338 83.3994 210.189 86.4976C213.904 89.5466 217.383 92.8706 220.599 96.4415C227.152 103.55 233.101 111.184 240.13 117.841C247.819 125.079 255.804 131.989 263.557 139.157C267.434 142.751 271.256 146.409 274.959 150.196C278.428 153.765 282.027 157.414 284.417 161.83C286.618 165.885 287.644 170.857 286.038 175.309C285.368 177.256 284.092 178.936 282.397 180.104C280.702 181.272 278.677 181.866 276.619 181.797C274.746 181.756 272.965 180.978 271.662 179.631L270.611 180.682C275.593 185.59 280.178 190.923 284.769 196.193C290.777 203.093 296.71 210.056 302.569 217.082C305.213 220.238 307.857 223.404 310.501 226.58C314.001 230.798 316.891 235.572 319.919 240.122C326.458 249.878 333.105 259.995 337.16 271.089C339.282 276.904 340.63 283.735 337.923 289.594C335.698 294.422 331.018 298.383 325.461 297.907C324.51 297.823 324.514 299.31 325.461 299.394C330.121 299.796 334.359 297.307 337.15 293.704C340.278 289.678 341.294 284.647 340.769 279.635C340.154 273.732 337.794 268.17 335.212 262.876C332.492 257.371 329.456 252.029 326.121 246.874C322.735 241.555 319.181 236.35 315.631 231.12C313.074 227.469 310.331 223.952 307.413 220.582C301.315 213.272 295.164 206.001 288.957 198.771C283.351 192.272 277.774 185.649 271.647 179.621C271.506 179.49 271.32 179.418 271.127 179.422C270.935 179.425 270.751 179.503 270.615 179.64C270.478 179.776 270.4 179.96 270.397 180.152C270.393 180.345 270.465 180.531 270.596 180.672C273.214 183.384 277.264 183.87 280.719 182.62C284.66 181.193 287.227 177.738 287.991 173.668C289.974 163.164 281.606 154.831 274.889 148.015C266.799 139.821 258.129 132.232 249.608 124.513C245.419 120.731 241.181 116.969 237.255 112.909C233.616 109.142 230.221 105.141 226.791 101.18C220.084 93.4425 212.911 85.3178 203.79 80.3607C199.457 78.016 194.406 76.4892 189.508 77.8376C185.072 79.062 181.706 82.4377 178.885 85.9126C171.365 95.1725 164.292 104.839 157.02 114.302C153.262 119.185 149.728 124.271 145.822 129.034C138.426 138.046 131.763 147.633 124.457 156.725C121.656 160.195 116.758 164.482 117.279 169.439C117.725 173.668 122.201 175.601 125.998 175.066C128.477 174.714 130.737 173.579 132.938 172.448L131.848 171.606C131.84 172.08 131.765 172.551 131.625 173.004C131.694 172.875 131.054 173.365 130.871 173.499L129.632 174.491C127.87 175.885 126.144 177.315 124.452 178.779C120.896 181.852 117.479 185.074 114.2 188.445C107.35 195.437 101.137 203.027 95.6361 211.124C90.2371 218.963 85.7954 227.421 82.4057 236.315C81.1862 239.597 80.0064 242.983 79.4314 246.453C78.9654 249.328 79.2381 252.426 79.7487 255.276C81.2358 263.545 86.0739 270.856 93.5343 274.857C93.7052 274.951 93.9057 274.977 94.0947 274.928C94.2837 274.879 94.4468 274.759 94.5505 274.594L102.279 263.817L100.995 263.069C94.7785 274.549 83.7738 282.03 74.623 290.957C66.3695 299.013 59.1123 309.15 59.7518 321.225C60.0145 326.381 61.7346 331.477 65.3236 335.289C69.0215 339.254 74.1819 341.341 79.4364 342.228C85.2262 343.22 91.1252 342.903 96.9448 342.347C118.924 340.254 140.322 334.092 160.048 324.175C160.911 323.743 160.157 322.504 159.295 322.891L154.283 325.146L150.59 326.827C149.832 327.098 149.096 327.43 148.389 327.818C147.462 328.448 147.22 330.272 147.066 331.288C146.825 333.039 146.946 334.821 147.423 336.523C148.48 340.128 150.666 343.299 153.659 345.57C161.293 351.493 171.866 349.838 180.397 347.057C189.191 344.202 197.681 340.484 205.743 335.958C214.806 330.881 223.055 324.473 230.216 316.947C230.354 316.807 230.431 316.619 230.431 316.422C230.431 316.225 230.354 316.036 230.216 315.896L218.765 306.478C218.041 305.878 216.995 306.875 217.714 307.529C236.345 324.405 259.388 335.638 284.159 339.918C290.231 340.97 296.37 341.588 302.53 341.767C308.131 341.926 313.812 341.802 319.295 340.533C324.252 339.388 329.209 337.182 332.565 333.246C336.159 329.053 337.403 323.54 336.704 318.127C334.87 303.885 322.17 295.672 310.927 288.846C310.757 288.746 310.554 288.718 310.363 288.767C310.172 288.817 310.008 288.941 309.908 289.111C309.809 289.281 309.78 289.484 309.83 289.675C309.88 289.866 310.003 290.03 310.174 290.13L310.149 290.144Z" fill="#256E31"/>
<path d="M293.607 104.705C293.776 102.137 294.797 98.0079 298.282 98.469C299.645 98.6474 300.681 99.8718 301.122 101.176C301.484 102.507 301.6 103.892 301.464 105.265C301.127 114.416 301.102 117.861 300.765 127.012C302.252 120.072 304.235 113.132 305.722 108.175C306.114 106.861 307.631 104.874 309.688 105.696C312.166 106.688 311.611 109.077 311.334 110.733C309.652 120.812 307.973 130.892 306.297 140.971L306.877 141.169C317.151 147.455 325.298 156.685 330.26 167.66C337.943 184.772 336.605 206.285 324.743 220.82C312.88 235.354 290.192 240.717 274.18 230.962L273.581 219.898L272.956 208.313C276.507 210.325 280.47 211.498 284.544 211.744C288.617 211.989 292.693 211.3 296.459 209.728C300.226 208.157 303.583 205.745 306.274 202.678C308.966 199.61 310.92 195.968 311.988 192.029C314.422 183.032 311.904 173.133 306.535 165.509C301.167 157.885 293.206 152.377 284.674 148.654L283.415 147.861C278.761 144.327 274.602 137.61 270.091 130.606C268.891 128.737 266.254 124.008 267.875 122.491C268.792 121.638 269.967 122.06 271.122 122.541C272.248 123.099 273.257 123.866 274.096 124.801L284.387 134.968L284.947 134.671C283.997 124.622 284.609 114.487 286.761 104.626C287.222 102.524 288.372 99.9462 290.519 100.08C291.733 100.154 292.715 101.19 293.116 102.335C293.441 103.511 293.532 104.739 293.384 105.949C292.933 113.92 292.834 119.061 292.393 127.032" fill="#39A84A"/>
<path d="M294.351 104.705C294.465 103.064 294.817 101.062 296.051 99.8668C296.353 99.5785 296.721 99.3699 297.124 99.26C297.526 99.15 297.95 99.1422 298.356 99.2373C299.551 99.5149 300.264 100.724 300.542 101.84C300.924 103.357 300.73 105.002 300.676 106.549C300.626 107.977 300.578 109.403 300.532 110.827C300.459 113.177 300.39 115.525 300.324 117.871C300.235 120.918 300.134 123.965 300.022 127.012C299.992 127.84 301.305 128.038 301.509 127.21C302.401 123.056 303.447 118.942 304.587 114.852C305.079 113.091 305.585 111.336 306.104 109.588C306.461 108.373 306.823 106.891 308.146 106.366C309.47 105.84 310.744 106.99 310.858 108.254C310.992 109.741 310.496 111.412 310.253 112.884L308.082 125.906L305.603 140.778C305.555 140.965 305.58 141.163 305.672 141.333C305.764 141.503 305.916 141.632 306.099 141.695C307.035 142.095 307.914 142.615 308.716 143.241C309.804 143.972 310.863 144.738 311.894 145.541C313.891 147.092 315.788 148.768 317.575 150.558C321.225 154.235 324.38 158.372 326.958 162.866C331.939 171.531 334.468 181.387 334.275 191.38C334.072 201.165 331.162 210.945 325.308 218.857C319.929 226.134 311.983 231.284 303.293 233.678C294.802 236.013 285.448 235.716 277.412 231.884C276.421 231.412 275.455 230.889 274.517 230.317L274.884 230.962L274.349 221.072L273.908 212.928L273.66 208.313L272.54 208.952C281.819 214.162 293.805 213.577 302.366 207.183C306.28 204.278 309.373 200.407 311.344 195.95C313.4 191.124 314.086 185.824 313.326 180.633C311.839 169.905 305.197 160.869 296.616 154.593C294.465 153.027 292.209 151.609 289.865 150.35C287.936 149.314 285.869 148.526 284.02 147.376C282.171 146.225 280.625 144.342 279.251 142.671C277.464 140.43 275.793 138.099 274.245 135.687C272.792 133.481 271.271 131.285 269.967 128.99C269.445 128.099 268.994 127.17 268.618 126.209C268.252 125.417 268.071 124.553 268.088 123.681C268.217 122.565 269.357 122.689 270.185 122.972C271.543 123.443 272.53 124.33 273.536 125.316L280.476 132.157L283.842 135.483C283.959 135.598 284.11 135.672 284.273 135.693C284.436 135.715 284.601 135.683 284.744 135.602L285.304 135.305C285.418 135.241 285.512 135.147 285.576 135.033C285.641 134.92 285.673 134.791 285.671 134.661C284.826 125.703 285.223 116.672 286.851 107.823C287.183 106.048 287.411 104.095 288.273 102.474C288.982 101.141 290.415 100.12 291.714 101.483C293.151 102.97 292.64 105.528 292.541 107.377C292.432 109.439 292.333 111.503 292.244 113.568C292.051 118.064 291.872 122.555 291.619 127.047C291.565 128.003 293.052 127.998 293.106 127.047C293.349 122.704 293.528 118.357 293.711 114.009C293.81 111.754 293.914 109.503 294.038 107.253C294.152 105.131 294.504 102.692 293.141 100.873C292.085 99.4703 290.167 98.8457 288.63 99.852C287.237 100.754 286.523 102.474 286.127 104.021C285.013 108.673 284.31 113.413 284.025 118.188C283.617 123.682 283.67 129.2 284.184 134.685L284.555 134.046L283.995 134.343L284.893 134.457L277.953 127.622C276.808 126.486 275.658 125.346 274.483 124.216C273.578 123.212 272.487 122.394 271.271 121.807C270.145 121.311 268.817 120.915 267.701 121.638C267.347 121.874 267.058 122.195 266.861 122.572C266.663 122.949 266.564 123.369 266.571 123.795C266.502 125.708 267.563 127.696 268.435 129.327C269.674 131.597 271.176 133.744 272.594 135.905C274.185 138.339 275.826 140.748 277.63 143.028C279.129 145.028 280.882 146.825 282.845 148.372C284.387 149.517 286.246 150.161 287.946 151.034C297.335 155.847 305.871 163.203 309.817 173.217C311.8 178.214 312.652 183.736 311.8 189.079C310.993 194.035 308.78 198.656 305.425 202.392C302.071 206.128 297.714 208.823 292.873 210.157C287.582 211.533 281.996 211.257 276.867 209.364C275.624 208.899 274.419 208.337 273.263 207.683C273.15 207.62 273.022 207.587 272.892 207.587C272.762 207.588 272.634 207.623 272.522 207.688C272.409 207.753 272.316 207.846 272.25 207.958C272.185 208.07 272.149 208.198 272.148 208.328L272.688 218.296L273.129 226.426C273.209 227.913 273.199 229.445 273.372 230.927C273.437 231.497 273.833 231.681 274.294 231.948C274.978 232.345 275.677 232.717 276.391 233.064C277.752 233.73 279.154 234.306 280.59 234.789C286.471 236.685 292.718 237.156 298.817 236.162C304.969 235.206 310.846 232.95 316.058 229.544C321.439 226.007 325.923 221.265 329.154 215.694C332.512 209.83 334.629 203.34 335.375 196.624C336.168 189.805 335.698 182.899 333.988 176.251C332.233 169.491 329.261 163.108 325.218 157.414C321.125 151.604 316.053 146.55 310.228 142.478C309.048 141.655 307.839 140.713 306.471 140.242L306.991 141.159L311.765 112.502C312.018 110.981 312.489 109.32 312.261 107.773C312.129 107.012 311.758 106.312 311.2 105.777C310.643 105.242 309.929 104.899 309.162 104.799C305.37 104.274 304.587 109.345 303.844 111.927C302.426 116.85 301.127 121.807 300.046 126.799L301.533 126.997C301.747 121.252 301.885 115.506 302.079 109.766C302.133 108.096 302.203 106.43 302.252 104.764C302.297 103.178 302.252 101.527 301.494 100.09C300.349 97.9038 297.573 96.8678 295.481 98.4194C293.592 99.8173 293.042 102.479 292.888 104.69C292.824 105.642 294.311 105.637 294.375 104.69L294.351 104.705Z" fill="#256E31"/>
<path d="M268.445 192.95L245.942 200.681L262.532 248.968L285.035 241.237L268.445 192.95Z" fill="#39A84A"/>
<path d="M153.693 43.9807C148.3 47.8274 142.604 51.912 139.61 58.0191C136.938 63.4719 136.74 70.1789 141.127 74.7939C143.264 77.0345 146.283 78.4721 149.42 78.2242C150.367 78.1499 150.377 76.6627 149.42 76.7371C144.161 77.1584 139.828 72.4542 139.224 67.4872C138.485 61.4346 141.965 55.8281 146.164 51.798C148.762 49.4237 151.529 47.2402 154.442 45.2646C155.215 44.7143 154.477 43.4255 153.693 43.9807Z" fill="#CF6800"/>
<path d="M148.87 78.824C147.848 80.2251 147.118 81.8171 146.723 83.5056C146.328 85.1942 146.276 86.9449 146.57 88.6539C147.056 91.2135 148.314 93.563 150.175 95.386C152.036 97.209 154.411 98.4182 156.98 98.8506C157.917 98.9993 158.318 97.5667 157.376 97.418C155.448 97.1404 153.626 96.3623 152.093 95.1614C150.559 93.9604 149.366 92.3785 148.634 90.5732C147.902 88.7679 147.656 86.8023 147.92 84.8722C148.184 82.9421 148.949 81.1148 150.139 79.5725C150.714 78.8091 149.425 78.0854 148.855 78.824H148.87Z" fill="#CF6800"/>
<path d="M186.797 14.1886C189.406 17.078 191.399 20.4688 192.655 24.154C193.91 27.8393 194.401 31.7416 194.099 35.623C194.024 36.5748 195.511 36.5698 195.586 35.623C195.889 31.5462 195.36 27.4502 194.029 23.5845C192.699 19.7189 190.596 16.1645 187.848 13.1377C187.203 12.4289 186.152 13.4798 186.797 14.1886Z" fill="#CF6800"/>
<path d="M196.275 36.4112C199.003 35.2435 201.94 34.6415 204.907 34.6415C207.875 34.6415 210.812 35.2435 213.54 36.4112C216.176 37.5689 218.55 39.2484 220.519 41.3484C222.488 43.4485 224.011 45.9257 224.996 48.6304C226.123 51.6586 226.561 54.8996 226.28 58.1183C226.191 59.07 227.678 59.0651 227.767 58.1183C228.262 51.9199 226.278 45.7782 222.25 41.0411C220.209 38.686 217.707 36.7742 214.899 35.4237C212.09 34.0732 209.035 33.3127 205.921 33.1891C202.348 33.0226 198.784 33.6877 195.511 35.1323C194.639 35.5189 195.392 36.8028 196.26 36.4162L196.275 36.4112Z" fill="#CF6800"/>
<path d="M218.641 67.7747C225.016 71.5817 228.402 79.6717 226.632 86.8644C226.404 87.7963 227.836 88.1929 228.065 87.261C229.552 81.139 227.698 74.4667 223.479 69.8269C222.288 68.5217 220.911 67.3978 219.395 66.4908C219.31 66.4413 219.217 66.4089 219.12 66.3955C219.023 66.382 218.925 66.3878 218.83 66.4124C218.736 66.437 218.647 66.4801 218.569 66.539C218.491 66.598 218.425 66.6717 218.376 66.756C218.326 66.8403 218.294 66.9335 218.281 67.0303C218.267 67.1271 218.273 67.2257 218.298 67.3202C218.322 67.4148 218.365 67.5037 218.424 67.5816C218.483 67.6596 218.557 67.7252 218.641 67.7747Z" fill="#CF6800"/>
<path d="M222.106 32.8124C228.744 36.4013 233.304 43.2867 234.355 50.7322C234.657 52.8447 234.657 54.9896 234.355 57.1021C234.216 58.039 235.649 58.4455 235.788 57.4987C236.33 53.5107 235.936 49.4513 234.637 45.6422C233.337 41.833 231.169 38.3789 228.302 35.5536C226.685 33.9573 224.849 32.5987 222.85 31.5186C222.012 31.0625 221.258 32.3464 222.101 32.8025L222.106 32.8124Z" fill="#CF6800"/>
<path d="M130.628 46.5633C124.348 50.7471 121.661 59.0948 123.574 66.2875C124.104 68.3012 125.022 70.1921 126.276 71.8543C126.846 72.6078 128.14 71.8544 127.56 71.1058C123.361 65.5787 123.559 57.5631 127.356 51.8823C128.418 50.2857 129.784 48.9144 131.377 47.8472C132.17 47.3168 131.426 46.028 130.628 46.5633Z" fill="#CF6800"/>
<path d="M202.982 26.4227L212.618 11.1648C213.114 10.3518 211.845 9.60333 211.334 10.4113L201.698 25.6692C201.202 26.4822 202.471 27.2258 202.982 26.4227Z" fill="#CF6800"/>
<path d="M145.881 35.39L159.523 37.8686C160.46 38.0371 160.861 36.6045 159.919 36.436L146.273 33.9575C145.341 33.7889 144.939 35.2215 145.881 35.39Z" fill="#CF6800"/>
<path d="M147.586 24.7026L163.548 29.8431C164.46 30.1356 164.852 28.703 163.94 28.4105L147.983 23.27C147.071 22.9726 146.679 24.4101 147.586 24.7026Z" fill="#CF6800"/>
<path d="M140.869 194.785C138.648 197.684 136.766 200.828 135.258 204.154C133.969 207.004 132.78 210.033 132.73 213.206C132.7 215.962 133.781 218.753 136.443 219.927C139.496 221.281 142.956 219.838 145.648 218.296C147.527 217.221 149.316 215.972 151.131 214.792L156.95 211.034C157.753 210.514 157.01 209.225 156.202 209.75L146.64 215.952C144.25 217.498 141.221 219.392 138.212 218.926C135.432 218.5 134.212 215.952 134.197 213.379C134.197 210.568 135.228 207.847 136.344 205.309C137.879 201.835 139.825 198.556 142.138 195.543C142.718 194.785 141.425 194.056 140.85 194.79L140.869 194.785Z" fill="#256E31"/>
<path d="M155.399 210.415C153.822 211.793 153.981 214.147 155.037 215.788C156.405 217.91 158.849 218.485 161.223 217.999C163.875 217.454 166.18 215.778 168.272 214.123C170.403 212.36 172.436 210.483 174.364 208.501C176.528 206.251 178.856 204.165 181.329 202.26C182.097 201.7 181.354 200.411 180.581 200.976C176.615 203.886 173.343 207.594 169.73 210.891C167.956 212.599 165.989 214.097 163.87 215.352C162.006 216.398 159.24 217.404 157.277 216.026C155.899 215.035 154.992 212.725 156.45 211.446C157.168 210.811 156.112 209.765 155.399 210.395V210.415Z" fill="#256E31"/>
<path d="M268.837 257.839L272.098 265.195C272.961 267.139 274.428 269.424 273.481 271.585C273.069 272.46 272.429 273.207 271.627 273.747C270.825 274.288 269.891 274.601 268.926 274.654C266.665 274.773 264.464 273.736 262.799 272.274C260.816 270.519 259.388 268.234 258 265.989C257.505 265.176 256.211 265.924 256.716 266.737C259.354 271.005 262.744 275.977 268.321 276.156C269.458 276.194 270.587 275.955 271.611 275.458C272.635 274.961 273.522 274.222 274.195 273.305C274.862 272.407 275.243 271.329 275.291 270.212C275.34 268.883 274.795 267.649 274.274 266.464C272.893 263.338 271.508 260.217 270.12 257.1C269.734 256.223 268.455 256.982 268.837 257.849V257.839Z" fill="#256E31"/>
<path d="M257.168 267.605C258.957 268.735 258.883 271.263 257.99 272.948C256.746 275.303 253.945 276.007 251.462 275.992C248.636 275.992 245.786 275.238 243.129 274.331C237.329 272.338 232.123 268.918 227.99 264.387C227.341 263.679 226.29 264.729 226.934 265.438C231.299 270.205 236.801 273.787 242.926 275.848C245.851 276.84 249.053 277.628 252.161 277.489C254.991 277.36 258.01 276.265 259.344 273.583C260.548 271.164 260.385 267.902 257.921 266.34C257.108 265.845 256.36 267.114 257.168 267.624V267.605Z" fill="#256E31"/>
<path d="M140.19 175.933C133.376 179.477 127.674 184.834 123.713 191.414C123.422 191.927 123.343 192.532 123.493 193.102C123.643 193.672 124.01 194.16 124.516 194.463C125.03 194.749 125.634 194.826 126.203 194.677C126.772 194.529 127.262 194.166 127.57 193.665C128.065 192.867 128.561 192.083 129.086 191.325C129.314 190.998 129.547 190.676 129.79 190.334L130.028 190.016L129.984 190.076L130.42 189.531C131.534 188.163 132.74 186.873 134.029 185.669C134.683 185.054 135.362 184.464 136.056 183.894L136.522 183.523C136.929 183.195 136.324 183.666 136.7 183.379C137.077 183.091 137.449 182.824 137.831 182.556C139.303 181.522 140.845 180.591 142.446 179.77C142.953 179.467 143.32 178.978 143.47 178.407C143.619 177.835 143.538 177.228 143.244 176.716C142.936 176.215 142.447 175.852 141.878 175.703C141.309 175.553 140.705 175.629 140.19 175.913V175.933Z" fill="#A8E580"/>
<path d="M184.239 91.2663L176.045 103.198C175.75 103.709 175.669 104.317 175.82 104.887C175.97 105.458 176.339 105.947 176.848 106.247C177.361 106.53 177.964 106.606 178.532 106.457C179.099 106.309 179.588 105.947 179.897 105.448L188.091 93.5218C188.384 93.0092 188.465 92.4018 188.314 91.8305C188.164 91.2593 187.795 90.7699 187.288 90.4682C186.774 90.1845 186.171 90.1091 185.604 90.2577C185.036 90.4063 184.548 90.7674 184.239 91.2663Z" fill="#A8E580"/>
<path d="M189.335 154.737C187.53 153.944 186.47 151.49 187.045 149.423C187.62 147.356 189.741 146.002 191.635 146.483C193.98 147.078 195.635 150.003 198.04 149.923C200.915 149.829 202.536 145.521 205.406 145.348C207.389 145.224 209.094 147.405 209.208 149.631C209.322 151.857 208.216 153.963 206.774 155.525C205.408 157.047 203.665 158.182 201.721 158.816C199.777 159.45 197.7 159.562 195.7 159.139C191.774 158.231 188.339 155.039 186.837 150.905L189.335 154.737Z" fill="#256E31"/>
<path d="M189.712 154.097C188.848 153.644 188.185 152.884 187.856 151.966C187.526 151.048 187.553 150.039 187.932 149.14C188.134 148.689 188.431 148.286 188.802 147.958C189.173 147.631 189.61 147.386 190.083 147.242C190.505 147.135 190.945 147.121 191.373 147.201C191.801 147.28 192.207 147.451 192.562 147.703C194.153 148.669 195.437 150.33 197.375 150.617C199.194 150.89 200.642 149.75 201.871 148.56C202.892 147.569 204.221 145.869 205.837 146.082C207.988 146.394 208.712 149.215 208.355 151.004C207.483 155.416 202.744 158.509 198.441 158.643C193.484 158.797 189.221 155.173 187.535 150.687L186.177 151.262L188.656 155.094C189.176 155.892 190.465 155.148 189.94 154.34L187.461 150.508C187.025 149.844 185.795 150.251 186.103 151.083C187.833 155.738 191.893 159.55 196.959 160.076C202.025 160.601 207.369 157.597 209.307 152.913C210.298 150.553 210.164 147.703 208.291 145.809C207.903 145.397 207.431 145.075 206.906 144.865C206.381 144.656 205.816 144.563 205.252 144.595C204.287 144.72 203.381 145.128 202.65 145.769C201.871 146.384 201.207 147.123 200.483 147.797C199.854 148.382 199.11 149.021 198.223 149.145C197.231 149.279 196.324 148.649 195.566 148.099C194.728 147.375 193.827 146.726 192.874 146.161C192.298 145.88 191.67 145.721 191.03 145.695C190.39 145.669 189.751 145.775 189.154 146.008C188.557 146.241 188.014 146.595 187.561 147.048C187.108 147.501 186.753 148.043 186.519 148.64C185.528 151.029 186.519 154.251 188.943 155.381C189.821 155.783 190.579 154.524 189.712 154.097Z" fill="#256E31"/>
<path d="M169.338 140.991C176.691 140.991 182.653 134.697 182.653 126.932C182.653 119.168 176.691 112.874 169.338 112.874C161.984 112.874 156.023 119.168 156.023 126.932C156.023 134.697 161.984 140.991 169.338 140.991Z" fill="white" stroke="#256E31" stroke-width="1.48712" stroke-miterlimit="10"/>
<path d="M169.606 134.988C173.896 134.988 177.373 131.317 177.373 126.789C177.373 122.261 173.896 118.59 169.606 118.59C165.316 118.59 161.838 122.261 161.838 126.789C161.838 131.317 165.316 134.988 169.606 134.988Z" fill="#256E31" stroke="#256E31" stroke-width="1.48712" stroke-miterlimit="10"/>
<path d="M157.932 119.11L147.671 115.363C146.773 115.031 146.387 116.468 147.279 116.795L157.535 120.558C158.437 120.885 158.824 119.447 157.932 119.12V119.11Z" fill="#256E31"/>
<path d="M150.318 111.496L160.842 115.799C161.031 115.849 161.234 115.823 161.404 115.725C161.575 115.628 161.7 115.467 161.754 115.278C161.801 115.088 161.772 114.887 161.673 114.717C161.574 114.548 161.412 114.424 161.223 114.371L150.704 110.069C150.514 110.018 150.312 110.045 150.142 110.142C149.971 110.239 149.845 110.4 149.792 110.589C149.743 110.776 149.767 110.974 149.86 111.143C149.952 111.313 150.105 111.441 150.288 111.501L150.318 111.496Z" fill="#256E31"/>
<path d="M223.147 140.416C230.618 140.416 236.675 134.122 236.675 126.357C236.675 118.593 230.618 112.299 223.147 112.299C215.676 112.299 209.619 118.593 209.619 126.357C209.619 134.122 215.676 140.416 223.147 140.416Z" fill="white" stroke="#256E31" stroke-width="1.48712" stroke-miterlimit="10"/>
<path d="M222.879 134.68C227.377 134.68 231.024 130.892 231.024 126.219C231.024 121.545 227.377 117.757 222.879 117.757C218.381 117.757 214.735 121.545 214.735 126.219C214.735 130.892 218.381 134.68 222.879 134.68Z" fill="#256E31" stroke="#256E31" stroke-width="1.48712" stroke-miterlimit="10"/>
<path d="M235.133 119.973L245.543 116.21C246.44 115.888 246.039 114.451 245.152 114.778L234.742 118.54C233.849 118.862 234.246 120.3 235.138 119.973H235.133Z" fill="#256E31"/>
<path d="M242.078 109.489L231.391 113.791C231.208 113.853 231.056 113.981 230.964 114.15C230.872 114.319 230.847 114.517 230.895 114.703C230.947 114.893 231.072 115.055 231.243 115.152C231.414 115.25 231.617 115.276 231.807 115.224L242.495 110.926C242.681 110.867 242.839 110.74 242.935 110.57C243.032 110.4 243.06 110.199 243.015 110.009C242.957 109.823 242.828 109.668 242.657 109.575C242.486 109.483 242.285 109.461 242.098 109.513L242.078 109.489Z" fill="#256E31"/>
<g clip-path="url(#clip1_984_20501)">
<rect x="5.61076" y="108.634" width="79.0559" height="33.2058" rx="9.74141" transform="rotate(-15.849 5.61076 108.634)" fill="#FF8000"/>
<path fill-rule="evenodd" clip-rule="evenodd" d="M35.2458 126.415C37.1087 125.886 39.3118 125.954 42.1145 127.309C42.3953 127.445 42.6234 127.112 42.3571 126.92C39.3673 124.757 37.1832 124.804 35.028 124.931C32.391 125.086 30.7174 124.046 29.3915 122.76C29.1279 122.505 29.0635 122.581 29.1594 122.979C29.276 123.466 29.4906 124.093 29.7758 124.69C29.6766 124.723 29.576 124.75 29.4742 124.779C25.9259 125.787 22.2285 123.714 21.2168 120.15C20.2052 116.587 22.2624 112.882 25.8114 111.875C29.3597 110.867 33.0569 112.939 34.0685 116.502C34.1406 116.756 34.1995 117.011 34.2403 117.264C33.7472 117.312 32.8209 117.565 32.189 117.805C31.9517 117.895 32.0185 118 32.2122 117.981C34.4458 117.763 36.2797 118.671 37.2948 120.975C37.3174 121.028 37.3948 121.023 37.4095 120.968C37.8831 119.198 37.8671 117.331 37.3631 115.567C35.833 110.177 30.24 107.042 24.8722 108.566C19.5036 110.09 16.3919 115.696 17.9222 121.086C19.4526 126.477 25.0456 129.612 30.4142 128.087C31.8376 127.683 33.1725 127.004 35.2458 126.415ZM34.9632 122.666C35.4998 122.91 35.7551 123.309 35.6142 123.682C35.5349 123.887 35.3551 124.039 35.1076 124.109C34.8661 124.178 34.608 124.159 34.3784 124.056C33.887 123.822 33.6128 123.296 33.7791 122.906C33.8442 122.753 33.9877 122.638 34.183 122.583C34.4202 122.515 34.6977 122.545 34.9632 122.666ZM36.694 121.167C36.8787 121.577 36.7948 121.792 36.6594 121.83C36.5115 121.872 36.2774 121.752 35.9622 121.471C35.6505 121.195 35.4614 120.83 35.5131 120.604C35.5465 120.454 35.6782 120.356 35.8848 120.374C36.2845 120.408 36.583 120.923 36.694 121.167ZM49.5336 115.107L48.0284 114.071C47.993 114.047 47.9653 114.013 47.9485 113.973C47.9317 113.934 47.9264 113.89 47.9334 113.847C47.9404 113.805 47.9593 113.765 47.9879 113.733C48.0164 113.701 48.0535 113.678 48.0948 113.667L50.439 113.001C50.4558 112.636 50.4179 112.262 50.3126 111.891C49.8314 110.196 48.1593 109.091 46.4347 109.581C44.71 110.07 43.868 111.889 44.3492 113.584C44.8304 115.279 46.4968 116.364 48.2215 115.874C48.7441 115.726 49.1846 115.456 49.5341 115.106L49.5336 115.107ZM55.2536 115.954C55.4138 116.055 55.3758 116.301 55.1922 116.353L52.6341 117.079C52.5827 117.094 52.5287 117.097 52.4759 117.088C52.4231 117.08 52.3728 117.059 52.3286 117.029L51.7467 116.628C51.0033 117.483 50.0287 118.101 48.9409 118.409C45.8265 119.293 42.5709 117.468 41.6831 114.341C40.7954 111.214 42.6065 107.951 45.7209 107.066C48.8353 106.182 52.0909 108.007 52.9787 111.134C53.2988 112.262 53.2669 113.406 52.9506 114.451L55.2536 115.954ZM75.9163 98.7774L73.8279 99.3703C73.7545 99.3914 73.6925 99.4408 73.6554 99.5078C73.6183 99.5748 73.6091 99.6539 73.6299 99.7278L76.5433 109.99C76.5871 110.144 76.7462 110.234 76.8996 110.19L78.988 109.597C79.1414 109.554 79.2305 109.394 79.1867 109.24L76.2731 98.9767C76.252 98.9026 76.2026 98.8398 76.1356 98.8021C76.0686 98.7645 75.9896 98.7551 75.9159 98.7761L75.9163 98.7774ZM72.4024 99.775L70.0671 100.438C70.0077 100.455 69.9552 100.49 69.9173 100.539C69.8794 100.588 69.8581 100.647 69.8565 100.709L69.7298 107.299L65.9741 101.804C65.9397 101.754 65.8907 101.716 65.8337 101.695C65.7768 101.675 65.7149 101.673 65.6569 101.689L64.0271 102.152C63.9689 102.168 63.9172 102.203 63.8795 102.25C63.8418 102.298 63.8199 102.356 63.8169 102.417L63.5093 109.065L59.9391 103.525C59.9052 103.473 59.8557 103.433 59.7977 103.411C59.7398 103.389 59.6765 103.387 59.6172 103.404L57.2812 104.067C57.2373 104.08 57.1971 104.102 57.1637 104.134C57.1303 104.165 57.1047 104.203 57.0891 104.246C57.0734 104.289 57.0681 104.335 57.0737 104.38C57.0793 104.426 57.0956 104.469 57.1213 104.506L63.4677 113.8C63.5377 113.903 63.6659 113.949 63.7849 113.915L65.6388 113.389C65.7585 113.355 65.8428 113.248 65.8486 113.125L66.1576 106.555L69.8719 111.982C69.9419 112.085 70.0701 112.131 70.1891 112.097L72.0437 111.57C72.1634 111.536 72.2477 111.43 72.2533 111.306L72.7697 100.064C72.7718 100.018 72.763 99.9731 72.7441 99.9317C72.7253 99.8902 72.6968 99.8539 72.6612 99.8256C72.6252 99.7972 72.583 99.7777 72.5381 99.7688C72.4932 99.7598 72.4468 99.7617 72.4028 99.7741L72.4024 99.775ZM56.2128 104.672L59.1262 114.935C59.17 115.089 59.0816 115.249 58.9276 115.292L56.8398 115.885C56.7662 115.906 56.6874 115.897 56.6204 115.859C56.5535 115.822 56.504 115.759 56.4828 115.685L53.5692 105.422C53.5254 105.268 53.6137 105.108 53.7677 105.064L55.8554 104.471C56.0088 104.428 56.1688 104.517 56.2128 104.672Z" fill="white"/>
</g>
<g clip-path="url(#clip2_984_20501)">
<rect x="274.702" y="56.3267" width="68.8766" height="31.2839" rx="7.1437" transform="rotate(14.8178 274.702 56.3267)" fill="black"/>
<path d="M286.152 73.235L281.53 72.0253L282.224 69.375L290.567 71.5588L291.103 69.5108L280.669 66.7801L277.444 79.1021L284.429 80.93C285.669 81.2547 286.686 81.1162 287.623 80.5891C288.581 80.0492 289.206 79.2566 289.485 78.1896C289.76 77.1398 289.62 76.1471 289.049 75.207C288.483 74.2496 287.766 73.6575 286.152 73.235ZM287.383 77.6209C287.257 78.1028 286.957 78.4841 286.515 78.7177C286.068 78.9685 285.649 79.0427 284.952 78.8604L280.075 77.5839L280.994 74.0732L285.888 75.3541C286.534 75.5231 286.93 75.8108 287.197 76.2484C287.442 76.6988 287.509 77.1391 287.383 77.6209Z" fill="white"/>
<path d="M302.058 72.378L297.209 77.3425L294.352 70.3611L291.715 69.6709L295.561 79.0258L291.795 82.8579L294.209 83.4899L304.473 73.01L302.058 72.378Z" fill="white"/>
<path d="M316.343 76.1167L307.278 73.7441L305.425 80.8249C305.057 82.2307 304.138 83.9931 302.633 83.5992L301.761 83.3709L300.862 86.8072L302.965 87.3578L303.32 86.0041L312.898 88.5109L312.543 89.8645L314.647 90.4151L315.546 86.9789L313.614 86.473L316.325 76.1122L316.343 76.1167ZM313.694 77.6486L311.527 85.9269L305.883 84.4497C306.905 83.5488 307.26 82.3995 307.528 81.3755L308.836 76.3773L313.694 77.6486Z" fill="white"/>
<path d="M328.549 79.3114L323.722 84.2818L320.877 77.3036L318.258 76.618L322.064 85.9625L318.333 89.8037L320.714 90.4269L330.931 79.9347L328.549 79.3114Z" fill="white"/>
</g>
</g>
<defs>
<clipPath id="clip0_984_20501">
<rect width="374" height="392" fill="white"/>
</clipPath>
<clipPath id="clip1_984_20501">
<rect x="5.61076" y="108.634" width="79.0559" height="33.2058" rx="9.74141" transform="rotate(-15.849 5.61076 108.634)" fill="white"/>
</clipPath>
<clipPath id="clip2_984_20501">
<rect x="274.702" y="56.3267" width="68.8766" height="31.2839" rx="7.1437" transform="rotate(14.8178 274.702 56.3267)" fill="white"/>
</clipPath>
</defs>
</svg>
