<svg width="478" height="673" viewBox="0 0 478 673" fill="none" xmlns="http://www.w3.org/2000/svg">
<g clip-path="url(#clip0_984_11502)">
<path d="M306.836 669.051C306.836 669.051 307.546 644.859 362.655 638.425C417.765 631.992 394.36 653.926 372.994 660.36C351.628 666.793 314.42 679.262 306.836 669.051Z" fill="#C1DDE5"/>
<path d="M70.791 665.124C70.791 665.124 73.0419 642.466 141.671 640.634C210.3 638.802 180.016 657.598 153.203 662.007C126.39 666.417 79.596 675.286 70.791 665.124Z" fill="#C1DDE5"/>
<path d="M155.106 645.966C155.106 645.966 168.598 607.8 275.678 630.423C382.758 653.046 327.514 674.036 284.071 671.551C240.628 669.065 164.224 666.765 155.106 645.966Z" fill="#C1DDE5"/>
<path d="M232.689 122.631C230.488 121.857 228.954 119.741 228.322 117.49C227.799 115.204 227.715 112.84 228.074 110.524C229.216 99.9146 232.605 89.6704 238.015 80.4732L237.454 79.3867C231.114 83.6195 223.726 86.0134 216.109 86.3029C213.233 86.4023 209.839 85.8982 208.483 83.3632C206.842 80.2885 209.342 76.6884 211.813 74.2315C220.049 66.0469 229.679 59.3981 240.252 54.5978L240.024 52.9292C239.698 45.8184 240.522 38.7015 242.467 31.854C243.348 28.7438 244.86 25.3071 247.956 24.3769C250.562 23.5887 253.431 24.9946 255.163 27.0965C256.896 29.1983 257.741 31.8682 258.543 34.4671L264.934 55.0594L265.289 54.8535L291.037 54.4771L282.679 77.9524L295.808 93.4818C298.826 97.0322 301.943 102.038 299.217 105.809C297.363 108.379 293.422 108.926 290.319 107.939C287.216 106.952 284.738 104.701 282.395 102.521L232.689 122.631Z" fill="#FF8000"/>
<path d="M232.938 121.608C230.176 120.557 229.054 117.419 228.919 114.706C228.872 111.401 229.215 108.103 229.941 104.879C231.136 98.5457 233.149 92.3947 235.927 86.5798C236.723 84.9183 237.582 83.2898 238.505 81.6945C238.881 81.0341 239.215 80.5868 238.853 79.8412C238.689 79.5075 238.512 79.1737 238.342 78.8471C238.198 78.6141 237.972 78.4447 237.708 78.3734C237.444 78.3021 237.162 78.3344 236.921 78.4636C232.726 81.2554 228.051 83.2486 223.132 84.3431C220.745 84.8773 218.312 85.1793 215.868 85.2449C214.043 85.2875 211.884 85.1526 210.379 83.9881C208.518 82.5679 208.88 80.182 209.91 78.3571C211.067 76.2908 212.85 74.6647 214.554 73.067C218.149 69.6977 222 66.6114 226.071 63.836C230.731 60.6564 235.656 57.8839 240.791 55.5494C240.99 55.4257 241.144 55.2423 241.233 55.0254C241.321 54.8086 241.338 54.5694 241.281 54.3422C240.856 50.5123 240.897 46.6449 241.402 42.8247C241.676 40.3411 242.093 37.8754 242.652 35.4399C243.055 33.3648 243.667 31.3356 244.477 29.3829C245.187 27.8492 246.202 26.2515 247.821 25.5698C249.603 24.8597 251.613 25.4633 253.083 26.5781C254.801 27.8918 255.831 29.9084 256.562 31.8966C257.386 34.1121 258.018 36.4056 258.692 38.6637L263.855 55.3789C263.9 55.5346 263.98 55.678 264.089 55.7984C264.197 55.9189 264.332 56.0133 264.482 56.0747C264.632 56.1361 264.794 56.1629 264.956 56.1531C265.118 56.1433 265.275 56.0971 265.417 56.018C265.49 55.9589 265.571 55.911 265.658 55.876C265.736 55.8263 265.743 55.8192 265.658 55.876C265.58 55.9257 265.594 56.0038 265.949 55.9257C266.475 55.9612 267.015 55.9257 267.54 55.9257L270.884 55.876L277.588 55.7766L290.994 55.5849L289.964 54.2357L283.346 72.9534L281.926 76.9015C281.823 77.1521 281.733 77.4081 281.656 77.6683C281.609 77.8544 281.608 78.0492 281.652 78.236C281.697 78.4227 281.786 78.5959 281.912 78.7406C282.622 79.6779 283.432 80.5371 284.177 81.4247L292.556 91.3658C294.985 94.2061 297.988 97.2097 298.947 100.966C299.21 101.785 299.252 102.659 299.069 103.5C298.886 104.34 298.484 105.117 297.903 105.752C296.662 106.875 295.031 107.466 293.358 107.399C289.226 107.399 285.967 104.453 283.091 101.839C282.958 101.705 282.792 101.608 282.61 101.56C282.428 101.511 282.236 101.512 282.054 101.563L265.31 108.251L238.547 119.08L232.37 121.58C231.12 122.084 231.66 124.15 232.938 123.632L249.731 116.872L276.494 106.043L282.665 103.551L281.614 103.281C284.277 105.702 287.152 108.251 290.745 109.146C293.657 109.856 297.136 109.437 299.352 107.279C301.979 104.744 301.588 101.037 300.14 98.005C298.45 94.4546 295.56 91.5504 293.039 88.5894L283.417 77.2281L283.687 78.2648L290.951 57.7151L291.988 54.7967C292.029 54.6384 292.033 54.473 292.001 54.3128C291.969 54.1526 291.9 54.0019 291.801 53.8719C291.702 53.742 291.575 53.6363 291.429 53.5628C291.283 53.4893 291.122 53.4499 290.958 53.4475L277.027 53.6463L270.146 53.7529L266.596 53.8026C265.809 53.7117 265.012 53.842 264.295 54.1789L265.857 54.8109L260.752 38.266C259.367 33.7925 258.366 28.1616 254.51 25.0727C253.672 24.35 252.692 23.8105 251.633 23.4889C250.574 23.1673 249.459 23.0707 248.361 23.2052C247.405 23.3955 246.496 23.7749 245.689 24.3212C244.882 24.8675 244.192 25.5697 243.66 26.3864C242.553 28.0819 241.745 29.9555 241.274 31.925C240.552 34.5325 239.988 37.1812 239.584 39.8566C238.734 44.8293 238.588 49.8969 239.151 54.9103L239.641 53.7103C229.701 58.2387 220.583 64.3864 212.658 71.9025C209.562 74.8351 204.627 79.8838 207.815 84.4283C210.606 88.3905 216.826 87.5456 220.923 86.9278C227.017 85.9978 232.833 83.7463 237.965 80.3311L236.51 79.9477L237.063 81.0341V79.9619C233.822 85.4978 231.281 91.4156 229.501 97.579C228.634 100.611 227.956 103.694 227.47 106.81C226.966 110.034 226.448 113.407 227.009 116.652C227.548 119.733 229.387 122.538 232.377 123.674C233.655 124.15 234.209 122.091 232.938 121.608Z" fill="#CF6800"/>
<path d="M288.892 64.681C288.956 68.2314 288.402 76.7523 285.022 78.1725C281.642 79.5927 271.261 76.1559 267.533 75.6091C266.597 75.5527 265.69 75.2595 264.899 74.757C263.599 73.7558 263.478 71.7676 264.188 70.3048C264.899 68.842 266.248 67.784 267.547 66.7544C271.616 63.6017 277.801 56.4796 282.693 55.0097C287.401 53.6605 288.892 60.3779 288.892 64.681Z" fill="#BA5D00"/>
<path d="M295.283 64.681C295.347 68.2314 294.793 76.7523 291.413 78.1725C288.033 79.5927 277.651 76.1559 273.924 75.6091C272.987 75.5527 272.081 75.2595 271.289 74.757C269.99 73.7558 269.869 71.7676 270.579 70.3048C271.289 68.842 272.638 67.784 273.938 66.7544C278.007 63.6017 284.191 56.4796 289.084 55.0097C293.792 53.6605 295.283 60.3779 295.283 64.681Z" fill="#FF8000"/>
<path d="M294.218 64.681C294.263 66.8204 294.113 68.9595 293.77 71.0717C293.458 72.9392 293.06 75.4671 291.562 76.8162C290.39 77.8814 288.153 77.4837 286.691 77.2778C284.23 76.8967 281.791 76.3871 279.384 75.7511C278.29 75.4884 277.197 75.2115 276.103 74.9629C275.01 74.7144 274.087 74.6292 273.093 74.3949C272.78 74.3494 272.48 74.2375 272.214 74.0666C271.948 73.8956 271.721 73.6697 271.55 73.404C271.378 73.1383 271.266 72.8389 271.219 72.5261C271.173 72.2132 271.195 71.894 271.282 71.5901C271.58 70.0421 272.965 68.9202 274.122 67.99C278.475 64.5319 282.168 60.0868 286.961 57.2038C287.948 56.6074 289.197 55.8618 290.397 55.9186C290.854 55.9738 291.29 56.139 291.668 56.4C292.047 56.661 292.356 57.0099 292.57 57.4169C293.884 59.5116 294.196 62.2454 294.203 64.6597C294.203 64.9422 294.316 65.2131 294.515 65.4128C294.715 65.6126 294.986 65.7248 295.268 65.7248C295.551 65.7248 295.822 65.6126 296.022 65.4128C296.221 65.2131 296.334 64.9422 296.334 64.6597C296.334 60.4915 294.786 52.2688 288.807 54.0085C285.91 54.8606 283.396 56.9766 281.159 58.9151C278.717 61.0454 276.451 63.3247 273.98 65.3911C271.509 67.4574 268.371 69.6515 269.201 73.3298C269.912 76.5464 273.462 76.5251 276.047 77.1358C278.631 77.7464 281.379 78.4707 284.078 78.982C286.329 79.4151 289.048 80.0045 291.285 79.3441C293.884 78.5843 294.935 75.5878 295.489 73.2161C296.121 70.4072 296.405 67.531 296.334 64.6526C296.3 64.3934 296.173 64.1555 295.975 63.9842C295.778 63.8129 295.524 63.7202 295.263 63.7237C295.002 63.7272 294.751 63.8267 294.558 64.0032C294.365 64.1797 294.244 64.421 294.218 64.681Z" fill="#CF6800"/>
<path d="M339.159 447.414C324.858 468.262 319.958 494.535 325.902 518.678C331.845 542.82 348.546 564.456 371.119 577.259L370.168 576.776C374.272 578.828 379.087 583.806 379.065 587.726C379.065 594.336 377.681 598.561 375.082 604.633C367.647 621.979 358.018 638.299 346.43 653.195C343.391 657.093 340.117 661.006 335.779 663.385C331.44 665.763 325.838 666.431 321.662 663.796C314.526 659.295 315.272 648.835 316.869 640.548C319.34 627.767 322.493 611.435 324.971 598.654L335.686 605.797C310.388 590.803 291.33 567.205 281.998 539.316C272.665 511.428 273.681 481.112 284.859 453.911L300.481 420.9L339.159 447.414Z" fill="#FF8000"/>
<path d="M338.243 446.874C326.475 464.117 320.985 484.877 322.692 505.683C324.368 524.997 332.633 543.211 345.414 557.725C352.614 565.892 361.118 572.81 370.58 578.196L371.659 576.357L370.707 575.874C369.486 575.257 368.407 577.089 369.628 577.714C372.131 579.011 374.314 580.85 376.019 583.096C376.861 584.08 377.467 585.243 377.792 586.497C378.117 587.751 378.151 589.062 377.893 590.332C377.496 596.36 375.174 601.87 372.731 607.331C367.418 619.206 361.064 630.588 353.744 641.344C350.101 646.691 346.323 652.13 341.956 656.916C338.015 661.24 332.725 665.039 326.59 664.393C314.668 663.136 316.514 647.962 318.112 639.725C320.744 626.148 323.371 612.567 325.994 598.98L324.432 599.619L335.147 606.72L336.226 604.881C314.049 591.737 296.636 571.87 286.511 548.161C276.386 524.453 274.076 498.136 279.917 473.026C281.401 466.543 283.24 459.819 286.094 453.79L290.511 444.467L301.162 421.915L301.39 421.439L299.934 421.823L312.957 430.748L333.755 445L338.569 448.294C339.698 449.075 340.771 447.229 339.641 446.455L326.619 437.53L305.82 423.285L301.006 419.984C300.765 419.853 300.484 419.819 300.219 419.891C299.955 419.962 299.728 420.133 299.586 420.367L290.014 440.569L284.745 451.689C282.475 456.64 280.632 461.776 279.235 467.041C274.281 484.977 273.367 503.789 276.558 522.121C279.532 538.985 286.021 555.035 295.602 569.228C304.73 582.793 316.425 594.439 330.027 603.511C331.71 604.626 333.414 605.691 335.147 606.72C336.34 607.43 337.355 605.641 336.226 604.881L325.504 597.745C325.363 597.663 325.205 597.615 325.042 597.603C324.879 597.592 324.716 597.618 324.565 597.68C324.415 597.742 324.28 597.837 324.172 597.959C324.063 598.081 323.985 598.227 323.942 598.384C321.409 611.449 318.879 624.52 316.351 637.595C314.625 646.513 311.998 660.871 322.621 665.479C328.252 667.922 334.643 665.905 339.265 662.312C344.527 658.237 348.496 652.371 352.316 647.053C360.472 635.725 367.536 623.649 373.413 610.988C376.409 604.519 379.463 597.929 380.017 590.729C380.227 589.176 380.191 587.599 379.91 586.057C379.502 584.591 378.812 583.219 377.879 582.017C375.985 579.45 373.533 577.348 370.707 575.867L369.628 577.706L370.58 578.189C371.794 578.807 372.859 577.039 371.659 576.35C355.272 567.044 342.003 553.101 333.521 536.273C324.762 518.579 322.317 498.422 326.59 479.147C329.055 467.981 333.634 457.39 340.082 447.946C340.856 446.817 339.01 445.745 338.243 446.874Z" fill="#CF6800"/>
<path d="M241.125 442.358C226.512 503.12 212.154 544.901 197.54 605.676L192.96 622.981C191.712 627.695 189.081 631.927 185.405 635.131C162.072 655.375 134.876 662.383 102.993 660.402C96.2403 659.983 88.2235 657.995 86.0862 651.576C83.7784 644.653 90.0129 637.978 95.9847 633.767C109.945 623.943 125.734 617.018 142.417 613.402L144.185 612.422L192.783 451.305" fill="#FF8000"/>
<path d="M240.103 442.074C235.459 461.353 230.382 480.518 225.077 499.591C220.156 517.343 215.058 535.002 210.166 552.747C207.605 562.054 205.105 571.38 202.667 580.724C200.501 589.089 198.584 597.525 196.376 605.882L192.925 618.983C192.598 620.212 192.279 621.447 191.945 622.683C190.834 626.891 188.578 630.709 185.426 633.71C179.341 639.476 171.999 644.262 164.578 648.111C157.323 651.849 149.637 654.685 141.693 656.554C133.538 658.443 125.209 659.481 116.84 659.65C112.409 659.756 107.964 659.65 103.533 659.408C99.947 659.195 96.2404 658.698 92.9456 657.179C89.6509 655.659 87.0165 653.081 86.6827 649.368C86.2993 645.157 89.0615 641.365 91.8947 638.553C95.1256 635.344 99.0594 632.872 102.915 630.472C106.946 627.988 111.111 625.729 115.391 623.705C119.703 621.662 124.13 619.87 128.648 618.337C133.15 616.803 137.716 615.703 142.317 614.524C143.162 614.311 144.597 613.722 145.094 612.976C145.376 612.362 145.581 611.716 145.705 611.052L146.209 609.376L147.466 605.208L152.124 589.756L170.699 528.193L189.268 466.622L193.805 451.589C194.196 450.276 192.144 449.715 191.746 451.028L172.737 514.055L153.87 576.663L143.17 612.167L143.66 611.528C143.061 611.906 142.429 612.227 141.771 612.486C140.081 613.019 138.27 613.296 136.552 613.75C133.025 614.697 129.543 615.779 126.106 616.995C119.395 619.402 112.892 622.357 106.664 625.829C103.474 627.608 100.371 629.523 97.3552 631.573C94.5698 633.364 91.9929 635.46 89.6722 637.822C85.6176 642.146 82.6779 648.402 86.0437 654.033C88.8343 658.691 94.5646 660.424 99.6701 661.134C106.061 662.007 112.707 661.929 119.148 661.666C131.702 661.141 144.22 658.897 155.951 654.31C161.76 652.04 167.346 649.238 172.638 645.938C175.341 644.238 177.963 642.421 180.506 640.485C183.147 638.595 185.629 636.49 187.926 634.193C191.041 630.773 193.239 626.621 194.317 622.122L197.036 611.698C199.877 601.047 202.362 590.396 205.131 579.744C208.767 565.749 212.608 551.817 216.492 537.899C220.327 524.358 224.168 510.867 227.946 497.262C231.915 482.911 235.757 468.525 239.35 454.074C240.297 450.287 241.232 446.477 242.155 442.642C242.474 441.307 240.422 440.739 240.103 442.074Z" fill="#CF6800"/>
<path d="M323.48 491.524C323.764 482.634 332.995 459.201 338.775 449.629L300.147 423.172L284.525 456.191C278.946 469.864 275.879 484.431 275.472 499.193C275.472 499.193 287.699 487.633 323.48 491.524Z" fill="#BA5D00"/>
<path d="M178.553 502.871C178.553 502.871 195.595 495.77 223.998 510.682C227.548 495.06 240.685 444.29 240.685 444.29L192.754 453.876L178.553 502.871Z" fill="#BA5D00"/>
<path d="M88.6142 640.925C88.6142 640.925 91.0072 665.337 160.971 650.042C135.075 661.73 129.131 659.33 102.035 659.273C77.6364 659.224 88.6142 640.925 88.6142 640.925Z" fill="#BA5D00"/>
<path d="M335.651 606.017L317.189 640.811L325.71 598.917L335.651 606.017Z" fill="#BA5D00"/>
<path d="M338.186 447.18C326.418 464.422 320.928 485.183 322.635 505.988C324.311 525.303 332.576 543.516 345.357 558.03C352.554 566.201 361.058 573.119 370.523 578.502L371.595 576.663L370.643 576.18C369.422 575.562 368.343 577.394 369.571 578.019C372.075 579.316 374.258 581.155 375.962 583.401C376.661 584.296 377.219 585.292 377.616 586.355C377.967 587.747 378.042 589.195 377.837 590.616C377.439 596.644 375.117 602.154 372.674 607.615C367.361 619.49 361.007 630.872 353.687 641.628C350.044 646.975 346.273 652.414 341.899 657.2C337.966 661.524 332.668 665.323 326.54 664.677C314.611 663.42 316.464 648.246 318.019 640.009C320.656 626.432 323.286 612.851 325.908 599.264L324.339 599.904L335.061 607.04L336.134 605.201C322.188 596.879 310.041 585.862 300.402 572.793C290.51 559.434 283.478 544.178 279.746 527.98C275.682 509.992 275.708 491.322 279.824 473.346C281.315 466.863 283.147 460.139 286.002 454.11L290.483 444.829L301.169 422.277L301.389 421.801L299.969 422.185L312.928 431.089L333.726 445.34L338.541 448.635C339.677 449.416 340.742 447.57 339.613 446.796L326.619 437.87L305.827 423.626L301.013 420.324C300.769 420.182 300.479 420.143 300.206 420.215C299.933 420.287 299.7 420.464 299.557 420.708L289.985 440.91L284.717 452.029C282.447 456.981 280.603 462.117 279.206 467.381C274.253 485.318 273.338 504.13 276.529 522.462C279.507 539.326 285.998 555.376 295.581 569.569C304.692 583.145 316.375 594.804 329.97 603.887C331.646 605.002 333.357 606.067 335.09 607.097C336.276 607.807 337.291 606.017 336.162 605.257L325.447 598.157C325.305 598.075 325.147 598.026 324.984 598.015C324.821 598.004 324.657 598.03 324.506 598.092C324.354 598.154 324.219 598.249 324.11 598.371C324.001 598.493 323.922 598.638 323.878 598.796C321.34 611.861 318.812 624.931 316.294 638.006C314.568 646.925 311.934 661.283 322.564 665.891C328.188 668.334 334.578 666.317 339.201 662.724C344.463 658.648 348.432 652.783 352.252 647.465C360.405 636.128 367.462 624.043 373.328 611.371C376.324 604.902 379.377 598.32 379.931 591.113C380.144 589.56 380.11 587.983 379.832 586.44C379.424 584.973 378.732 583.6 377.794 582.4C375.9 579.834 373.447 577.731 370.622 576.251L369.55 578.09L370.501 578.573C371.716 579.19 372.774 577.422 371.574 576.734C355.178 567.431 341.903 553.484 333.421 536.65C324.66 518.956 322.212 498.8 326.484 479.524C328.948 468.358 333.528 457.767 339.975 448.323C340.806 447.123 338.96 446.051 338.186 447.18Z" fill="#CF6800"/>
<path d="M240.315 441.946C235.679 461.218 230.602 480.383 225.297 499.463C220.369 517.215 215.278 534.882 210.386 552.619C207.815 561.945 205.309 571.28 202.866 580.625C200.693 588.99 198.783 597.425 196.567 605.776L193.109 618.848C192.783 620.084 192.463 621.32 192.129 622.555C191.011 626.746 188.76 630.549 185.625 633.547C179.54 639.313 172.198 644.099 164.777 647.948C157.523 651.688 149.837 654.524 141.891 656.39C133.736 658.279 125.408 659.317 117.039 659.486C112.601 659.6 108.163 659.486 103.732 659.245C100.146 659.032 96.4391 658.535 93.1443 657.022C89.8496 655.51 87.2152 652.925 86.8814 649.212C86.498 645.001 89.2602 641.216 92.0934 638.404C95.3243 635.187 99.2581 632.723 103.114 630.323C107.142 627.837 111.305 625.575 115.583 623.549C119.897 621.512 124.323 619.723 128.84 618.188C133.342 616.654 137.915 615.547 142.509 614.375C143.354 614.155 144.788 613.573 145.293 612.82C145.576 612.206 145.781 611.56 145.903 610.896L146.407 609.227L147.664 605.052L152.322 589.607L170.912 528.051L189.488 466.48L194.018 451.454C194.416 450.141 192.364 449.58 191.966 450.886L172.957 513.92L154.076 576.535L143.368 612.039L143.858 611.407C143.262 611.783 142.632 612.101 141.977 612.358C140.287 612.898 138.469 613.168 136.75 613.622C133.228 614.569 129.749 615.651 126.312 616.867C119.596 619.273 113.091 622.229 106.863 625.708C103.682 627.483 100.579 629.396 97.5539 631.445C94.7724 633.238 92.1981 635.334 89.878 637.694C85.8234 642.025 82.8837 648.281 86.2495 653.912C89.0401 658.57 94.7704 660.338 99.8688 661.013C106.26 661.894 112.913 661.815 119.346 661.546C131.9 661.027 144.426 658.776 156.15 654.189C161.963 651.916 167.55 649.101 172.837 645.782C175.542 644.092 178.169 642.267 180.711 640.336C183.352 638.443 185.833 636.339 188.132 634.044C191.243 630.622 193.441 626.47 194.522 621.973L197.27 611.591C200.111 600.94 202.589 590.289 205.358 579.638C209.001 565.649 212.842 551.71 216.72 537.793C220.533 524.245 224.395 510.71 228.145 497.148C232.114 482.797 235.956 468.411 239.556 453.961C240.502 450.174 241.435 446.363 242.353 442.529C242.68 441.194 240.621 440.626 240.301 441.961L240.315 441.946Z" fill="#CF6800"/>
<path d="M39.0718 170.589C36.7072 167.749 32.0207 163.865 28.3425 167.373C26.9223 168.743 26.7377 171.037 27.3271 172.918C27.9164 174.8 29.1662 176.391 30.3875 177.939C38.5321 188.221 41.4719 192.183 49.6165 202.472C42.0044 195.719 33.8172 189.385 27.888 184.926C26.3188 183.747 22.8678 182.739 21.1636 185.444C19.1186 188.696 21.7885 190.983 23.5139 192.666L54.9705 223.284L54.4663 223.994C47.8314 239.974 46.1612 257.581 49.6733 274.524C55.2048 300.846 74.9876 324.563 101.119 331.252C127.249 337.941 158.244 324.797 168.661 299.874L159.991 286.574L150.916 272.649C148.436 277.983 144.797 282.696 140.264 286.446C135.731 290.195 130.419 292.885 124.715 294.321C119.01 295.673 113.075 295.727 107.348 294.477C101.62 293.227 96.2467 290.705 91.6248 287.099C81.1653 278.777 75.7261 265.193 75.5273 251.808C75.3285 238.423 79.944 225.28 86.7181 213.684L87.5205 211.696C89.949 203.644 89.1111 192.339 88.4365 180.403C88.259 177.221 87.3217 169.503 84.1761 169.141C82.3867 168.935 81.3357 170.419 80.4339 171.981C79.5963 173.58 79.0732 175.326 78.8931 177.122L75.4989 197.643L74.5971 197.771C67.1931 185.348 57.8951 174.158 47.0389 164.603C44.724 162.565 41.202 160.563 38.8091 162.551C37.4599 163.673 37.1901 165.704 37.6942 167.373C38.3141 169.006 39.2477 170.501 40.4422 171.775C47.7135 180.594 52.187 186.453 59.4582 195.279" fill="#39A84A"/>
<path d="M39.8245 169.837C37.6943 167.359 34.5131 164.554 31.0053 164.958C26.9579 165.427 25.1898 169.595 26.2975 173.202C27.0119 175.135 28.0812 176.917 29.4503 178.457L33.7675 183.932C35.9735 186.772 38.1748 189.596 40.3713 192.403C43.2116 196.02 46.0519 199.627 48.8922 203.225L50.3976 201.712C45.6046 197.452 40.6482 193.418 35.6067 189.485C33.4338 187.788 31.2539 186.119 29.0526 184.457C27.4549 183.25 25.5803 182.412 23.5211 182.732C22.3669 182.961 21.3266 183.58 20.5743 184.485C19.8219 185.39 19.4033 186.526 19.3884 187.702C19.3458 190.067 21.1494 191.821 22.7187 193.34C27.6561 198.136 32.5841 202.936 37.5026 207.741L54.2462 224.073L54.0758 222.78C52.7835 224.626 52.1515 227.041 51.4272 229.171C48.6431 237.417 47.1089 246.034 46.8756 254.734C46.5286 265.375 48.238 275.984 51.9101 285.977C55.1792 294.743 59.954 302.87 66.0194 309.992C72.0019 317.07 79.2986 322.922 87.5064 327.226C95.5417 331.418 104.416 333.752 113.474 334.057C122.245 334.282 130.966 332.674 139.079 329.335C147.145 326.095 154.4 321.123 160.332 314.771C163.231 311.618 165.72 308.111 167.738 304.333C168.242 303.389 168.718 302.416 169.158 301.436C169.464 300.726 169.932 300.051 169.556 299.306C169.18 298.56 168.725 298.034 168.321 297.417L160.872 285.992L152.685 273.43L151.84 272.145C151.744 271.986 151.61 271.855 151.448 271.763C151.287 271.672 151.105 271.624 150.92 271.624C150.735 271.624 150.553 271.672 150.392 271.763C150.23 271.855 150.096 271.986 150 272.145C143.922 285.381 130.296 294.392 115.675 294.349C108.023 294.335 100.551 292.028 94.2237 287.724C88.2255 283.467 83.5257 277.629 80.647 270.86C74.093 255.991 76.1735 239.048 82.4577 224.47C83.2956 222.518 84.2116 220.6 85.1844 218.719C86.0223 217.107 87.1229 215.545 87.8046 213.876C88.812 211.313 89.4711 208.626 89.7644 205.887C90.7869 197.48 90.013 188.846 89.5017 180.445C89.3982 177.849 88.9736 175.276 88.2378 172.784C87.5277 170.618 86.214 167.877 83.5157 168.118C81.7263 168.282 80.5902 169.702 79.7026 171.122C78.7237 172.843 78.1007 174.744 77.8706 176.71C77.1037 181.283 76.3581 185.856 75.5983 190.422L74.448 197.381L75.1581 196.635L74.2563 196.77L75.4563 197.26C68.7728 186.051 60.5612 175.827 51.058 166.883C48.8638 164.824 46.6271 162.494 43.8081 161.309C41.2873 160.251 38.17 160.599 36.8848 163.297C35.5996 165.995 36.828 168.978 38.5535 171.193C40.6127 173.891 42.814 176.469 44.9868 179.117C49.5384 184.798 54.0403 190.479 58.6487 196.053C59.5221 197.111 61.0204 195.598 60.1541 194.547C56.3623 189.946 52.6486 185.316 48.9135 180.63C47.0531 178.306 45.1833 175.988 43.3039 173.678C42.2743 172.421 41.1737 171.186 40.2151 169.886C39.3534 168.88 38.762 167.67 38.4967 166.372C38.3786 165.781 38.4299 165.169 38.6448 164.606C38.8596 164.043 39.2292 163.552 39.7109 163.19C40.7547 162.537 42.0613 162.85 43.1122 163.311C45.6898 164.447 47.7561 166.705 49.7727 168.601C54.1251 172.707 58.2071 177.09 61.9932 181.723C66.2744 186.962 70.1643 192.508 73.6314 198.318C73.7546 198.515 73.9369 198.669 74.1523 198.757C74.3677 198.845 74.6053 198.863 74.8315 198.808L75.7404 198.673C75.9163 198.631 76.0781 198.543 76.209 198.419C76.34 198.294 76.4356 198.137 76.4859 197.963L78.7866 184.045C79.1606 181.745 79.5393 179.444 79.9227 177.143C80.1517 175.189 80.8219 173.312 81.8825 171.655C82.5287 170.724 83.6506 169.695 84.7229 170.604C85.4861 171.435 86.0153 172.455 86.2566 173.558C86.9551 176.091 87.3485 178.699 87.4283 181.326C87.8969 189.627 88.7064 198.148 87.5703 206.434C87.2436 208.827 86.8247 211.675 85.4897 213.748C84.3865 215.563 83.3861 217.438 82.4932 219.365C81.563 221.254 80.7038 223.178 79.9014 225.131C73.8941 239.794 72.2255 256.459 78.5452 271.286C81.3552 278.055 85.8713 283.98 91.6532 288.484C97.7272 293.033 104.971 295.76 112.537 296.345C127.129 297.552 141.437 290.167 149.297 277.882C150.254 276.389 151.104 274.83 151.84 273.217H150L157.811 285.154L164.067 294.747L167.774 300.427L167.667 299.611C162.775 311.235 153.146 320.281 141.913 325.749C130.536 331.344 117.683 333.203 105.187 331.06C91.9941 328.667 79.9937 321.545 70.7272 311.966C61.3329 302.207 54.6591 290.157 51.3704 277.016C47.4213 260.775 48.3626 243.728 54.0758 228.021C54.5027 226.544 55.1235 225.13 55.922 223.817C56.0417 223.614 56.0905 223.377 56.061 223.143C56.0314 222.909 55.9251 222.692 55.7587 222.525L28.4917 195.968C26.5602 194.093 24.4513 192.297 22.6903 190.287C22.0009 189.601 21.5866 188.687 21.5258 187.717C21.5451 187.179 21.6996 186.655 21.9752 186.194C22.2507 185.732 22.6384 185.347 23.1021 185.075C24.6359 184.301 26.4466 185.146 27.6822 186.076C29.6372 187.548 31.5805 189.035 33.5119 190.536C38.7594 194.618 43.9217 198.815 48.8993 203.232C49.0999 203.431 49.3716 203.543 49.6545 203.542C49.9375 203.542 50.2086 203.429 50.4083 203.228C50.6079 203.028 50.7197 202.756 50.719 202.473C50.7183 202.19 50.6053 201.919 50.4047 201.719C46.1442 196.316 41.8838 190.869 37.6233 185.43C35.3226 182.476 32.9723 179.558 30.6787 176.597C28.8609 174.253 26.3117 169.83 29.7556 167.614C32.8373 165.633 36.473 169.162 38.3263 171.349C39.2139 172.4 40.7121 170.888 39.8316 169.844L39.8245 169.837Z" fill="#256E31"/>
<path d="M434.153 401.245C445.003 407.813 456.13 414.651 463.565 424.947C470.999 435.243 473.825 449.906 466.952 460.55C459.439 472.189 443.746 474.993 429.9 475.164C383.169 475.725 336.467 457.923 301.972 426.41L318.367 439.901C299.479 459.989 276.473 472.501 250.498 481.725C239.613 485.588 227.527 488.343 216.649 484.459C205.77 480.575 197.476 467.708 202.284 457.192L218.062 450.027C188.666 464.799 156.681 473.722 123.884 476.3C109.682 477.408 93.6983 476.62 83.8637 466.359C74.164 456.212 74.0433 439.681 79.8943 426.921C85.7454 414.161 96.3966 404.348 106.92 395.067C117.443 385.786 128.35 376.363 134.961 363.98L123.884 379.417C107.19 370.626 102.809 352.214 104.165 339.972L104.875 336.578C115.256 297.523 148.097 258.32 178.901 234.923L179.249 232.743C175.798 234.504 172.219 236.293 168.363 236.499C164.507 236.705 160.261 234.731 158.841 231.095C157.023 226.331 160.51 221.31 163.776 217.426C177.069 201.627 188.11 185.032 201.41 169.233L209.377 158.39L243.674 113.783C248.254 107.833 253.282 101.555 260.446 99.2974C270.657 96.0878 281.365 102.138 289.822 108.678C306.729 121.743 317.899 139.31 333.258 153.796C350.79 170.362 369.301 185.572 386.017 203.068C391.222 208.508 396.427 214.21 399.267 221.183C402.107 228.156 402.157 236.74 397.499 242.655C392.841 248.57 382.821 250.133 377.73 244.587C390.015 256.658 421.045 293.639 437.377 313.358C449.619 331.721 461.718 348.301 470.317 367.218C474.479 376.349 477.944 386.39 476.154 396.274C474.365 406.158 465.56 415.368 455.562 414.324" fill="#39A84A"/>
<path d="M433.642 402.168C447.843 410.752 463.728 420.537 468.528 437.501C470.701 445.17 470.324 453.705 465.752 460.444C461.491 466.721 454.447 470.222 447.289 472.047C439.919 473.921 432.264 474.177 424.695 474.049C416.036 473.901 407.398 473.137 398.848 471.763C382.107 469.052 365.807 464.104 350.385 457.05C332.975 449.105 316.898 438.515 302.724 425.657L301.212 427.162L317.615 440.654V439.149C300.509 457.256 278.937 469.852 255.781 478.65C243.568 483.301 229.316 488.229 216.421 483.237C211.279 481.177 207.012 477.394 204.35 472.537C203.058 470.243 202.256 467.707 201.992 465.088C201.807 463.198 201.99 461.291 202.532 459.471C202.606 459.007 202.706 458.547 202.83 458.093C203.285 457.54 204.904 457.156 205.536 456.872L210.861 454.451L218.573 450.943L217.501 449.104C192.177 461.783 164.909 470.136 136.828 473.815C128.364 474.915 119.744 475.831 111.202 475.455C103.391 475.107 95.3669 473.566 88.827 469.064C82.3937 464.662 78.5451 457.703 77.3876 450.062C74.803 432.921 84.7583 417.846 96.3539 406.222C109.845 392.645 126.561 381.653 135.898 364.427C136.028 364.184 136.059 363.9 135.984 363.634C135.909 363.369 135.734 363.143 135.496 363.004C135.257 362.865 134.975 362.824 134.707 362.889C134.439 362.955 134.207 363.122 134.059 363.355L122.968 378.792L124.388 378.408C114.738 373.225 108.361 364.086 105.99 353.47C104.951 349.154 104.67 344.69 105.159 340.277C105.755 335.782 107.332 331.358 108.851 327.112C117.912 301.734 134.244 279.004 152.763 259.655C157.804 254.386 163.08 249.351 168.59 244.551C171.246 242.236 173.958 239.988 176.728 237.806C177.672 237.053 179.362 236.25 179.866 235.114C180.064 234.406 180.178 233.676 180.207 232.941C180.255 232.739 180.244 232.527 180.174 232.33C180.105 232.134 179.98 231.962 179.815 231.836C179.65 231.709 179.451 231.632 179.244 231.616C179.036 231.599 178.828 231.643 178.645 231.741C173.461 234.383 164.081 238.452 160.183 231.486C156.547 224.996 165.253 217.327 168.853 212.86C178.539 200.832 187.422 188.192 197.064 176.142C199.67 172.883 202.326 169.709 204.797 166.35C206.615 163.879 208.404 161.38 210.251 158.93C219.773 146.248 229.586 133.779 239.257 121.203C243.518 115.7 247.494 109.7 252.713 105.056C258.053 100.306 264.678 98.4169 271.687 100.086C278.695 101.754 284.873 105.993 290.39 110.431C295.708 114.787 300.692 119.534 305.302 124.633C314.661 134.816 323.175 145.751 333.265 155.252C344.285 165.619 355.725 175.517 366.823 185.785C372.383 190.933 377.851 196.166 383.155 201.599C388.126 206.711 393.281 211.937 396.703 218.264C399.856 224.073 401.326 231.188 399.025 237.571C398.067 240.36 396.239 242.768 393.811 244.441C391.382 246.114 388.481 246.964 385.534 246.866C382.863 246.796 380.327 245.682 378.469 243.763L376.963 245.268C384.107 252.298 390.668 259.939 397.243 267.487C405.849 277.362 414.349 287.336 422.742 297.41C426.529 301.935 430.316 306.47 434.103 311.015C439.116 317.057 443.249 323.896 447.595 330.414C456.961 344.388 466.49 358.881 472.291 374.773C475.331 383.102 477.262 392.887 473.392 401.28C470.197 408.196 463.493 413.87 455.534 413.188C454.17 413.067 454.177 415.198 455.534 415.318C462.208 415.893 468.315 412.329 472.284 407.167C476.758 401.401 478.213 394.193 477.461 387.015C476.58 378.557 473.2 370.59 469.501 363.007C465.605 355.123 461.26 347.47 456.485 340.085C451.628 332.459 446.501 325.01 441.453 317.519C437.791 312.289 433.864 307.251 429.687 302.423C420.943 291.951 412.131 281.537 403.25 271.179C395.212 261.87 387.224 252.383 378.447 243.749C378.245 243.561 377.978 243.458 377.702 243.463C377.426 243.468 377.163 243.58 376.968 243.775C376.773 243.97 376.661 244.233 376.656 244.509C376.651 244.785 376.754 245.052 376.942 245.254C380.691 249.138 386.492 249.834 391.442 248.045C397.122 246 400.765 241.051 401.859 235.221C404.699 220.167 392.713 208.238 383.091 198.474C371.503 186.737 359.083 175.865 346.877 164.809C340.877 159.391 334.806 154.002 329.189 148.186C323.97 142.79 319.113 137.059 314.192 131.386C304.585 120.302 294.31 108.663 281.244 101.563C275.045 98.2038 267.803 96.0239 260.794 97.9553C254.403 99.7092 249.61 104.545 245.577 109.523C234.819 122.879 224.672 136.726 214.227 150.281C208.845 157.275 203.789 164.561 198.186 171.378C187.592 184.294 178.049 198.027 167.589 211.05C163.57 216.02 156.554 222.162 157.3 229.263C157.939 235.32 164.351 238.09 169.797 237.316C173.348 236.818 176.579 235.185 179.739 233.573L178.169 232.366C178.159 233.046 178.051 233.72 177.85 234.369C177.956 234.184 177.04 234.887 176.778 235.079C176.181 235.54 175.585 236.002 174.995 236.499C172.477 238.492 170.003 240.539 167.575 242.641C162.486 247.044 157.594 251.659 152.898 256.488C143.079 266.5 134.177 277.373 126.298 288.974C118.57 300.202 112.212 312.315 107.36 325.053C105.62 329.754 103.93 334.604 103.1 339.567C102.554 343.779 102.708 348.052 103.554 352.214C105.72 364.036 112.686 374.531 123.337 380.212C123.582 380.347 123.87 380.382 124.141 380.311C124.412 380.239 124.645 380.067 124.793 379.829L135.87 364.398L134.031 363.326C125.119 379.765 109.355 390.487 96.2474 403.275C84.4245 414.814 74.029 429.335 74.945 446.633C75.3213 454.018 77.8279 461.317 82.9334 466.778C88.2235 472.458 95.6154 475.448 103.142 476.719C111.443 478.139 119.893 477.678 128.222 476.889C159.707 473.893 190.36 465.066 218.615 450.858C219.858 450.24 218.772 448.458 217.543 449.019L210.364 452.278L205.081 454.678C203.993 455.07 202.937 455.545 201.921 456.098C200.594 457 200.246 459.606 200.033 461.069C199.681 463.576 199.852 466.129 200.537 468.567C202.054 473.73 205.184 478.271 209.47 481.526C220.405 490.047 235.551 487.64 247.771 483.656C260.368 479.567 272.529 474.241 284.078 467.758C297.053 460.5 308.866 451.335 319.12 440.569C319.32 440.369 319.432 440.098 319.432 439.816C319.432 439.534 319.32 439.263 319.12 439.063L302.724 425.572C301.681 424.713 300.182 426.14 301.212 427.077C327.896 451.234 360.894 467.312 396.363 473.438C405.06 474.945 413.854 475.83 422.678 476.087C430.709 476.307 438.84 476.137 446.693 474.319C453.794 472.679 460.895 469.519 465.709 463.881C470.85 457.873 472.632 449.977 471.631 442.223C469.004 421.823 450.811 410.057 434.707 400.279C434.463 400.136 434.172 400.095 433.899 400.167C433.625 400.238 433.391 400.415 433.248 400.659C433.104 400.903 433.064 401.193 433.135 401.467C433.207 401.741 433.384 401.975 433.627 402.118L433.642 402.168Z" fill="#256E31"/>
<path d="M290.987 461.942C221.023 479.694 214.554 466.913 218.09 449.161C125.212 477.741 91.1705 452.214 78.7512 431.537C75.1085 443.324 76.3085 456.95 84.6946 465.748C94.4866 476.03 110.421 476.818 124.544 475.689C151.406 473.57 177.754 467.162 202.589 456.709C197.924 467.204 206.139 479.992 216.94 483.869C227.74 487.746 239.811 484.998 250.654 481.136C274.84 472.515 296.419 461.026 314.498 443.168C310.883 445.866 304.024 451.22 290.987 461.942Z" fill="#409151"/>
<path d="M444.897 407.713L454.902 413.848C464.843 414.892 473.605 405.668 475.388 395.798C476.858 387.675 474.784 379.466 471.695 371.698C475.445 400.513 447.844 407.096 444.897 407.713Z" fill="#409151"/>
<path d="M317.707 439.937L318.254 439.369L316.351 437.799C348.738 461.871 389.021 475.135 429.332 474.653C443.122 474.482 458.75 471.677 466.256 460.039C470.374 453.648 470.985 445.759 469.217 438.268C435.992 483.443 302.277 425.764 302.277 425.764L317.707 439.937Z" fill="#409151"/>
<path d="M455.747 416.426C453.059 413.939 450.213 411.629 447.226 409.51C450.189 411.66 453.033 413.969 455.747 416.426Z" fill="#409151"/>
<path d="M106.565 332.097C106.565 332.097 111.266 366.72 134.698 363.88C131.168 369.041 127.376 374.018 123.337 378.792C123.337 378.792 94.7636 359.968 106.565 332.097Z" fill="#409151"/>
<path d="M385.804 315.673C385.804 315.673 365.794 329.164 358.487 320.331C351.181 311.498 353.822 296.352 353.822 296.352C353.822 296.352 367.569 311.973 385.776 315.673" fill="#409151"/>
<path d="M396.618 216.397C396.618 216.397 400.978 246.717 374.705 236.776C369.735 241.036 382.246 247.306 382.246 247.306C382.246 247.306 403.549 250.189 400.851 226.792C398.848 221.154 396.59 216.397 396.59 216.397" fill="#409151"/>
<path d="M433.237 401.933C447.439 410.518 463.323 420.303 468.123 437.274C470.289 444.936 469.913 453.471 465.347 460.21C461.086 466.487 454.042 469.987 446.885 471.812C439.507 473.687 431.86 473.943 424.29 473.815C415.652 473.668 407.036 472.903 398.507 471.528C381.764 468.819 365.461 463.871 350.037 456.815C332.617 448.859 316.53 438.258 302.348 425.387L300.857 426.893L317.26 440.384V438.879C300.147 456.964 278.553 469.561 255.412 478.366C243.199 483.01 228.947 487.938 216.052 482.953C210.911 480.887 206.645 477.103 203.981 472.245C202.688 469.952 201.886 467.416 201.623 464.797C201.502 463.518 201.545 462.23 201.751 460.962C201.85 460.362 201.987 459.769 202.163 459.187C202.235 458.708 202.335 458.234 202.461 457.767C202.916 457.22 204.528 456.83 205.16 456.546L210.492 454.124L218.204 450.616L217.124 448.777C200.16 457.282 182.297 463.86 163.868 468.39C154.825 470.615 145.665 472.336 136.431 473.545C127.967 474.645 119.354 475.561 110.804 475.185C102.993 474.837 94.9765 473.296 88.4367 468.83C82.0033 464.427 78.1547 457.469 76.9973 449.828C74.4055 432.658 84.3608 417.569 95.9351 405.959C109.469 392.376 126.149 381.391 135.479 364.157C135.61 363.914 135.64 363.63 135.565 363.364C135.49 363.099 135.315 362.873 135.077 362.734C134.839 362.595 134.556 362.554 134.288 362.62C134.02 362.685 133.788 362.852 133.64 363.085L122.627 378.55L124.083 378.167C114.39 372.99 108.014 363.88 105.649 353.229C104.612 348.912 104.329 344.449 104.811 340.036C105.415 335.541 106.991 331.117 108.511 326.871C117.571 301.493 133.903 278.763 152.422 259.413C157.463 254.14 162.739 249.103 168.25 244.303C170.905 241.988 173.618 239.739 176.387 237.557C177.332 236.811 179.022 236.002 179.519 234.873C179.718 234.162 179.834 233.431 179.867 232.693C179.915 232.49 179.903 232.278 179.834 232.082C179.764 231.886 179.639 231.714 179.474 231.587C179.309 231.46 179.111 231.384 178.903 231.367C178.696 231.35 178.488 231.394 178.304 231.493C173.121 234.134 163.741 238.203 159.842 231.237C156.2 224.747 164.912 217.078 168.512 212.612C178.198 200.583 187.081 187.944 196.724 175.894C199.33 172.634 201.986 169.46 204.449 166.102C206.267 163.631 208.064 161.131 209.903 158.681C219.432 146.006 229.245 133.53 238.91 120.955C243.17 115.452 247.147 109.452 252.366 104.808C257.713 100.057 264.338 98.1683 271.339 99.8725C278.34 101.577 284.532 105.78 290.05 110.218C295.37 114.586 300.355 119.348 304.961 124.463C314.349 134.645 322.869 145.58 332.938 155.117C343.952 165.484 355.391 175.382 366.497 185.65C372.05 190.798 377.524 196.039 382.829 201.464C387.799 206.576 392.954 211.802 396.377 218.129C399.53 223.938 401 231.06 398.699 237.436C397.74 240.225 395.913 242.633 393.484 244.306C391.056 245.979 388.155 246.829 385.207 246.731C382.524 246.672 379.973 245.557 378.107 243.628L376.601 245.134C383.737 252.163 390.306 259.804 396.881 267.352C405.487 277.236 413.987 287.21 422.38 297.275C426.167 301.796 429.954 306.331 433.741 310.88C438.754 316.923 442.894 323.761 447.233 330.279C456.599 344.254 466.121 358.746 471.929 374.638C474.969 382.967 476.9 392.752 473.023 401.145C469.835 408.061 463.132 413.735 455.172 413.053C453.808 412.932 453.815 415.063 455.172 415.183C461.846 415.759 467.917 412.194 471.915 407.032C476.396 401.266 477.851 394.059 477.099 386.88C476.218 378.423 472.838 370.456 469.139 362.872C465.242 354.987 460.894 347.334 456.116 339.95C451.266 332.331 446.175 324.875 441.091 317.384C437.427 312.154 433.497 307.115 429.317 302.288C420.584 291.817 411.771 281.402 402.881 271.044C394.85 261.735 386.862 252.249 378.085 243.614C377.883 243.426 377.616 243.323 377.34 243.328C377.064 243.333 376.801 243.445 376.606 243.64C376.411 243.835 376.299 244.098 376.294 244.374C376.289 244.65 376.392 244.917 376.58 245.119C380.329 249.003 386.13 249.699 391.08 247.91C396.725 245.865 400.403 240.916 401.497 235.086C404.337 220.039 392.351 208.103 382.729 198.339C371.141 186.602 358.721 175.73 346.515 164.674C340.515 159.256 334.444 153.867 328.82 148.051C323.608 142.655 318.744 136.924 313.83 131.251C304.223 120.167 293.948 108.528 280.882 101.428C274.676 98.0689 267.441 95.8819 260.425 97.8133C254.07 99.5672 249.248 104.403 245.208 109.381C234.436 122.645 224.303 136.491 213.886 150.047C208.504 157.041 203.441 164.326 197.846 171.15C187.251 184.06 177.708 197.793 167.241 210.815C163.229 215.786 156.214 221.928 156.959 229.029C157.598 235.086 164.01 237.855 169.45 237.088C173 236.584 176.238 234.958 179.391 233.339L177.829 232.132C177.818 232.811 177.711 233.486 177.509 234.134C177.608 233.95 176.692 234.653 176.43 234.844L174.655 236.265C172.131 238.262 169.658 240.31 167.234 242.407C162.141 246.809 157.246 251.425 152.55 256.253C142.737 266.27 133.837 277.141 125.957 288.74C118.223 299.969 111.861 312.084 107.005 324.826C105.258 329.526 103.568 334.376 102.745 339.347C102.077 343.465 102.468 347.903 103.199 351.986C105.329 363.83 112.26 374.304 122.947 380.034C123.191 380.17 123.479 380.206 123.749 380.136C124.02 380.066 124.254 379.895 124.402 379.658L135.472 364.221L133.633 363.149C124.729 379.594 108.965 390.309 95.857 403.098C84.0342 414.637 73.6386 429.158 74.5546 446.455C74.9309 453.84 77.3949 461.14 82.5359 466.6C87.8331 472.281 95.225 475.27 102.752 476.541C111.046 477.962 119.496 477.507 127.832 476.712C159.316 473.713 189.968 464.886 218.225 450.68C219.461 450.063 218.381 448.287 217.146 448.841L209.967 452.072L204.677 454.479C203.59 454.868 202.535 455.343 201.524 455.899C200.196 456.801 199.848 459.414 199.628 460.87C199.283 463.378 199.457 465.93 200.139 468.368C201.654 473.532 204.785 478.075 209.072 481.327C220.007 489.813 235.153 487.441 247.374 483.458C259.97 479.368 272.132 474.043 283.68 467.559C296.663 460.287 308.48 451.108 318.737 440.327C318.935 440.127 319.045 439.856 319.045 439.575C319.045 439.293 318.935 439.023 318.737 438.822L302.334 425.33C301.297 424.471 299.799 425.898 300.829 426.836C327.516 451.01 360.525 467.101 396.008 473.232C404.705 474.739 413.5 475.624 422.323 475.881C430.347 476.108 438.485 475.931 446.338 474.113C453.439 472.473 460.54 469.313 465.347 463.675C470.495 457.667 472.277 449.771 471.276 442.017C468.649 421.617 450.457 409.851 434.352 400.073C434.108 399.93 433.817 399.889 433.544 399.961C433.27 400.032 433.036 400.209 432.893 400.453C432.75 400.697 432.709 400.987 432.78 401.261C432.852 401.535 433.029 401.769 433.273 401.912L433.237 401.933Z" fill="#256E31"/>
<path d="M409.542 136.3C409.783 132.621 411.246 126.706 416.238 127.367C418.191 127.622 419.675 129.376 420.307 131.244C420.825 133.15 420.991 135.136 420.797 137.102C420.314 150.21 420.278 155.145 419.795 168.253C421.926 158.312 424.766 148.371 426.896 141.27C427.457 139.388 429.63 136.541 432.577 137.72C436.127 139.14 435.332 142.563 434.934 144.934C432.525 159.372 430.12 173.811 427.72 188.249L428.551 188.533C443.268 197.537 454.938 210.759 462.045 226.48C473.051 250.992 471.134 281.809 454.142 302.629C437.15 323.448 404.649 331.131 381.714 317.157L380.855 301.308L379.96 284.713C385.046 287.595 390.724 289.276 396.559 289.628C402.394 289.979 408.232 288.992 413.627 286.741C419.022 284.49 423.832 281.035 427.687 276.641C431.542 272.247 434.342 267.029 435.872 261.387C439.358 248.499 435.751 234.319 428.061 223.398C420.371 212.477 408.967 204.588 396.746 199.255L394.943 198.119C388.275 193.056 382.317 183.435 375.856 173.401C374.137 170.724 370.36 163.95 372.682 161.777C373.995 160.556 375.678 161.16 377.333 161.848C378.945 162.648 380.391 163.747 381.593 165.086L396.334 179.65L397.137 179.224C395.775 164.83 396.652 150.312 399.736 136.186C400.396 133.175 402.043 129.483 405.118 129.675C406.858 129.781 408.264 131.265 408.839 132.905C409.304 134.589 409.435 136.348 409.222 138.082C408.576 149.5 408.434 156.864 407.802 168.282" fill="#39A84A"/>
<path d="M410.607 136.3C410.77 133.949 411.274 131.081 413.042 129.369C413.474 128.956 414.002 128.657 414.579 128.5C415.156 128.342 415.762 128.331 416.344 128.467C418.056 128.865 419.078 130.598 419.476 132.195C420.022 134.368 419.746 136.726 419.667 138.941C419.596 140.986 419.528 143.029 419.462 145.069C419.357 148.435 419.258 151.798 419.163 155.159C419.035 159.524 418.891 163.889 418.73 168.253C418.688 169.439 420.569 169.723 420.86 168.537C422.139 162.587 423.637 156.693 425.27 150.835C425.975 148.312 426.7 145.798 427.443 143.294C427.954 141.554 428.472 139.431 430.368 138.678C432.264 137.926 434.089 139.573 434.252 141.384C434.444 143.514 433.734 145.907 433.386 148.016L430.276 166.67L426.726 187.972C426.657 188.24 426.692 188.524 426.824 188.768C426.955 189.011 427.174 189.196 427.436 189.286C428.776 189.859 430.036 190.604 431.185 191.501C432.742 192.547 434.26 193.646 435.737 194.796C438.597 197.018 441.315 199.418 443.874 201.982C449.103 207.249 453.622 213.176 457.316 219.613C464.451 232.025 468.074 246.144 467.797 260.457C467.505 274.474 463.337 288.484 454.951 299.817C447.247 310.241 435.864 317.618 423.417 321.048C411.253 324.393 397.854 323.967 386.343 318.478C384.923 317.802 383.539 317.053 382.197 316.234L382.722 317.157L381.955 302.991L381.323 291.324L380.968 284.713L379.363 285.629C392.656 293.092 409.826 292.254 422.089 283.094C427.695 278.933 432.125 273.389 434.948 267.004C437.895 260.09 438.877 252.498 437.789 245.063C435.658 229.696 426.143 216.752 413.852 207.762C410.77 205.518 407.539 203.487 404.181 201.684C401.418 200.2 398.457 199.071 395.809 197.423C393.16 195.776 390.945 193.078 388.978 190.685C386.417 187.475 384.024 184.135 381.806 180.68C379.725 177.52 377.545 174.374 375.678 171.086C374.931 169.811 374.285 168.479 373.747 167.103C373.221 165.969 372.962 164.731 372.987 163.481C373.171 161.884 374.805 162.061 375.99 162.466C377.936 163.141 379.349 164.412 380.791 165.825L390.732 175.624L395.553 180.388C395.721 180.553 395.938 180.658 396.171 180.689C396.404 180.72 396.641 180.674 396.845 180.559L397.648 180.133C397.811 180.041 397.945 179.906 398.038 179.744C398.13 179.581 398.177 179.397 398.173 179.21C396.962 166.379 397.531 153.441 399.863 140.766C400.339 138.224 400.666 135.426 401.901 133.104C402.917 131.194 404.969 129.731 406.829 131.684C408.888 133.814 408.157 137.478 408.015 140.127C407.859 143.081 407.717 146.037 407.589 148.996C407.312 155.436 407.056 161.87 406.694 168.303C406.616 169.673 408.746 169.666 408.825 168.303C409.172 162.083 409.428 155.855 409.691 149.628C409.833 146.397 409.982 143.173 410.159 139.949C410.323 136.91 410.827 133.417 408.874 130.811C407.362 128.801 404.614 127.906 402.413 129.348C400.417 130.64 399.395 133.104 398.827 135.32C397.232 141.983 396.224 148.774 395.816 155.614C395.231 163.483 395.307 171.388 396.043 179.245L396.576 178.329L395.773 178.755L397.058 178.919L387.117 169.127C385.477 167.501 383.83 165.867 382.147 164.248C380.852 162.81 379.289 161.638 377.546 160.797C375.934 160.087 374.031 159.519 372.433 160.556C371.926 160.894 371.512 161.354 371.229 161.894C370.946 162.433 370.803 163.036 370.814 163.645C370.715 166.386 372.234 169.233 373.484 171.569C375.259 174.821 377.411 177.896 379.441 180.992C381.721 184.479 384.071 187.93 386.656 191.196C388.803 194.061 391.314 196.634 394.126 198.851C396.334 200.491 398.997 201.414 401.433 202.664C414.882 209.559 427.109 220.096 432.761 234.44C435.602 241.597 436.823 249.508 435.602 257.162C434.445 264.261 431.276 270.88 426.471 276.232C421.665 281.584 415.425 285.444 408.491 287.355C400.911 289.327 392.91 288.93 385.562 286.219C383.781 285.553 382.055 284.748 380.4 283.812C380.238 283.72 380.054 283.673 379.868 283.674C379.682 283.675 379.499 283.725 379.338 283.818C379.177 283.911 379.043 284.044 378.949 284.205C378.855 284.366 378.804 284.548 378.802 284.735L379.576 299.014L380.208 310.66C380.322 312.79 380.308 314.984 380.556 317.107C380.649 317.924 381.217 318.187 381.877 318.57C382.857 319.138 383.858 319.671 384.881 320.168C386.829 321.122 388.838 321.947 390.895 322.639C399.319 325.356 408.269 326.03 417.005 324.606C425.817 323.236 434.236 320.004 441.701 315.126C449.41 310.059 455.833 303.266 460.462 295.286C465.271 286.887 468.304 277.589 469.373 267.97C470.509 258.202 469.835 248.309 467.385 238.785C464.871 229.103 460.614 219.959 454.823 211.802C448.96 203.48 441.694 196.24 433.351 190.408C431.661 189.229 429.928 187.88 427.968 187.205L428.714 188.519L435.552 147.469C435.914 145.289 436.589 142.91 436.262 140.695C436.074 139.604 435.542 138.602 434.743 137.835C433.945 137.069 432.922 136.578 431.824 136.435C426.392 135.682 425.27 142.946 424.205 146.645C422.174 153.697 420.314 160.797 418.766 167.948L420.896 168.232C421.201 160.002 421.4 151.772 421.677 143.55C421.755 141.157 421.854 138.771 421.925 136.385C421.989 134.113 421.925 131.748 420.839 129.689C419.199 126.557 415.222 125.073 412.226 127.296C409.52 129.298 408.732 133.111 408.512 136.278C408.42 137.642 410.55 137.635 410.642 136.278L410.607 136.3Z" fill="#256E31"/>
<path d="M373.499 262.706L341.264 273.78L365.027 342.95L397.262 331.876L373.499 262.706Z" fill="#39A84A"/>
<path d="M209.122 49.3149C201.396 54.8251 193.237 60.6761 188.948 69.4243C185.121 77.2352 184.837 86.8426 191.121 93.4534C194.182 96.663 198.506 98.7222 203.001 98.3672C204.357 98.2607 204.371 96.1304 203.001 96.2369C195.467 96.8405 189.261 90.1018 188.394 82.9868C187.336 74.3168 192.321 66.2858 198.336 60.5128C202.058 57.1117 206.021 53.984 210.194 51.154C211.302 50.3658 210.244 48.5196 209.122 49.3149Z" fill="#CF6800"/>
<path d="M202.213 99.2263C200.749 101.233 199.703 103.514 199.137 105.933C198.571 108.351 198.496 110.859 198.918 113.307C199.613 116.974 201.415 120.339 204.081 122.951C206.747 125.562 210.149 127.294 213.829 127.914C215.172 128.127 215.747 126.074 214.398 125.861C211.635 125.464 209.026 124.349 206.829 122.629C204.631 120.909 202.923 118.643 201.875 116.057C200.826 113.471 200.473 110.655 200.851 107.89C201.229 105.125 202.326 102.508 204.03 100.299C204.854 99.205 203.008 98.1683 202.191 99.2263H202.213Z" fill="#CF6800"/>
<path d="M256.541 6.63907C260.279 10.778 263.134 15.6352 264.932 20.9141C266.73 26.193 267.434 31.783 267 37.3429C266.894 38.7063 269.024 38.6992 269.131 37.3429C269.565 31.503 268.807 25.6357 266.901 20.0983C264.995 14.5609 261.983 9.46938 258.046 5.1337C257.123 4.11829 255.618 5.62366 256.541 6.63907Z" fill="#CF6800"/>
<path d="M270.118 38.472C274.026 36.7993 278.233 35.9369 282.484 35.9369C286.735 35.9369 290.942 36.7993 294.85 38.472C298.625 40.1302 302.026 42.536 304.846 45.5443C307.666 48.5526 309.848 52.101 311.26 55.9754C312.874 60.3131 313.502 64.9557 313.099 69.5663C312.971 70.9297 315.101 70.9226 315.229 69.5663C315.938 60.6874 313.096 51.8898 307.326 45.1041C304.403 41.7305 300.819 38.9919 296.796 37.0574C292.773 35.1229 288.396 34.0335 283.936 33.8564C278.817 33.6178 273.712 34.5707 269.024 36.6399C267.774 37.1938 268.854 39.0329 270.096 38.4791L270.118 38.472Z" fill="#CF6800"/>
<path d="M302.156 83.3987C311.288 88.8521 316.138 100.441 313.603 110.744C313.276 112.079 315.328 112.647 315.655 111.312C317.785 102.542 315.13 92.9847 309.087 86.3384C307.38 84.4687 305.409 82.8588 303.236 81.5596C303.115 81.4887 302.981 81.4423 302.843 81.423C302.704 81.4038 302.563 81.412 302.427 81.4473C302.292 81.4826 302.165 81.5442 302.053 81.6286C301.941 81.7131 301.847 81.8187 301.777 81.9395C301.706 82.0602 301.659 82.1937 301.64 82.3324C301.621 82.4711 301.629 82.6122 301.664 82.7477C301.7 82.8832 301.761 83.0105 301.846 83.1221C301.93 83.2338 302.036 83.3278 302.156 83.3987Z" fill="#CF6800"/>
<path d="M307.12 33.3168C316.628 38.4577 323.161 48.3207 324.666 58.9861C325.099 62.0122 325.099 65.0846 324.666 68.1107C324.467 69.4527 326.519 70.035 326.718 68.6787C327.495 62.9662 326.93 57.1513 325.069 51.6949C323.208 46.2384 320.102 41.2906 315.996 37.2435C313.679 34.9568 311.049 33.0107 308.185 31.4635C306.985 30.8102 305.906 32.6493 307.113 33.3026L307.12 33.3168Z" fill="#CF6800"/>
<path d="M176.082 53.0144C167.085 59.0074 163.236 70.9652 165.977 81.2684C166.737 84.1529 168.051 86.8615 169.847 89.2426C170.664 90.322 172.517 89.2426 171.686 88.1704C165.672 80.253 165.956 68.771 171.395 60.6335C172.916 58.3465 174.873 56.3822 177.154 54.8535C178.29 54.0937 177.225 52.2475 176.082 53.0144Z" fill="#CF6800"/>
<path d="M279.725 24.1638L293.529 2.30758C294.239 1.14305 292.421 0.0708321 291.69 1.22826L277.886 23.0845C277.176 24.249 278.994 25.3142 279.725 24.1638Z" fill="#CF6800"/>
<path d="M197.931 37.0092L217.472 40.5596C218.814 40.801 219.39 38.7489 218.04 38.5075L198.492 34.9571C197.157 34.7156 196.582 36.7678 197.931 37.0092Z" fill="#CF6800"/>
<path d="M200.373 21.6999L223.238 29.0634C224.545 29.4823 225.106 27.4302 223.799 27.0112L200.942 19.6477C199.635 19.2217 199.074 21.2809 200.373 21.6999Z" fill="#CF6800"/>
<path d="M190.752 265.335C187.57 269.488 184.874 273.991 182.714 278.756C180.868 282.839 179.163 287.177 179.092 291.722C179.05 295.67 180.598 299.668 184.411 301.351C188.785 303.289 193.741 301.223 197.597 299.014C200.288 297.474 202.852 295.684 205.451 293.994L213.787 288.612C214.937 287.866 213.872 286.02 212.715 286.773L199.017 295.656C195.595 297.871 191.256 300.584 186.946 299.916C182.962 299.306 181.216 295.656 181.194 291.97C181.194 287.944 182.671 284.046 184.269 280.41C186.469 275.433 189.256 270.737 192.57 266.422C193.401 265.335 191.547 264.291 190.724 265.342L190.752 265.335Z" fill="#256E31"/>
<path d="M211.564 287.724C209.306 289.698 209.534 293.071 211.046 295.421C213.006 298.46 216.507 299.284 219.908 298.588C223.707 297.807 227.009 295.407 230.005 293.035C233.057 290.51 235.97 287.822 238.732 284.983C241.831 281.76 245.166 278.772 248.709 276.043C249.809 275.241 248.744 273.395 247.636 274.204C241.956 278.372 237.269 283.684 232.093 288.406C229.552 290.854 226.735 292.998 223.7 294.796C221.03 296.295 217.068 297.736 214.256 295.762C212.282 294.342 210.982 291.033 213.07 289.201C214.099 288.292 212.587 286.794 211.564 287.696V287.724Z" fill="#256E31"/>
<path d="M374.059 355.657L378.731 366.195C379.967 368.979 382.069 372.252 380.713 375.348C380.123 376.601 379.205 377.671 378.056 378.445C376.907 379.219 375.57 379.668 374.187 379.743C370.949 379.914 367.796 378.43 365.41 376.335C362.57 373.821 360.525 370.548 358.537 367.331C357.827 366.167 355.973 367.239 356.698 368.403C360.475 374.517 365.332 381.639 373.321 381.895C374.949 381.95 376.567 381.607 378.033 380.895C379.5 380.184 380.77 379.125 381.735 377.812C382.69 376.525 383.237 374.982 383.304 373.381C383.375 371.478 382.594 369.71 381.849 368.013C379.87 363.535 377.886 359.063 375.898 354.599C375.344 353.343 373.512 354.429 374.059 355.672V355.657Z" fill="#256E31"/>
<path d="M357.344 369.646C359.907 371.265 359.801 374.886 358.522 377.301C356.74 380.674 352.728 381.682 349.171 381.661C345.123 381.661 341.04 380.581 337.234 379.282C328.926 376.426 321.469 371.528 315.548 365.038C314.618 364.022 313.113 365.528 314.036 366.543C320.287 373.371 328.169 378.502 336.943 381.455C341.133 382.875 345.72 384.004 350.172 383.805C354.226 383.62 358.551 382.051 360.461 378.21C362.186 374.744 361.952 370.072 358.423 367.835C357.258 367.125 356.186 368.943 357.344 369.674V369.646Z" fill="#256E31"/>
<path d="M189.779 238.331C180.018 243.407 171.85 251.081 166.176 260.507C165.759 261.241 165.646 262.109 165.861 262.925C166.076 263.741 166.602 264.44 167.326 264.874C168.062 265.284 168.928 265.394 169.743 265.181C170.558 264.968 171.259 264.448 171.7 263.731C172.41 262.587 173.121 261.465 173.873 260.379C174.2 259.91 174.534 259.449 174.882 258.959L175.222 258.504L175.158 258.59L175.783 257.808C177.38 255.85 179.107 254.002 180.953 252.277C181.89 251.396 182.863 250.551 183.857 249.735L184.524 249.202C185.107 248.734 184.24 249.408 184.78 248.996C185.32 248.585 185.852 248.201 186.399 247.818C188.508 246.336 190.717 245.003 193.01 243.827C193.736 243.394 194.263 242.692 194.477 241.874C194.691 241.056 194.574 240.186 194.153 239.453C193.712 238.735 193.011 238.215 192.197 238.001C191.382 237.787 190.516 237.895 189.779 238.303V238.331Z" fill="#A8E580"/>
<path d="M252.877 117.049L241.139 134.141C240.717 134.874 240.601 135.743 240.816 136.561C241.032 137.379 241.561 138.078 242.289 138.508C243.025 138.914 243.889 139.022 244.702 138.809C245.514 138.597 246.214 138.079 246.656 137.365L258.394 120.28C258.815 119.546 258.93 118.676 258.715 117.858C258.499 117.039 257.971 116.338 257.244 115.906C256.508 115.5 255.645 115.392 254.832 115.605C254.019 115.817 253.319 116.335 252.877 117.049Z" fill="#A8E580"/>
<path d="M260.176 207.968C257.592 206.832 256.072 203.317 256.896 200.356C257.72 197.395 260.759 195.456 263.471 196.145C266.83 196.997 269.202 201.187 272.645 201.073C276.764 200.938 279.086 194.768 283.197 194.519C286.038 194.342 288.48 197.466 288.644 200.654C288.807 203.842 287.223 206.86 285.157 209.097C283.2 211.277 280.704 212.903 277.919 213.811C275.135 214.72 272.16 214.88 269.294 214.273C263.67 212.974 258.749 208.401 256.598 202.479L260.176 207.968Z" fill="#256E31"/>
<path d="M260.716 207.052C259.479 206.403 258.53 205.313 258.058 203.998C257.586 202.683 257.625 201.239 258.167 199.951C258.457 199.304 258.882 198.727 259.414 198.258C259.945 197.789 260.571 197.439 261.249 197.232C261.853 197.079 262.483 197.059 263.096 197.173C263.709 197.287 264.29 197.532 264.799 197.892C267.079 199.277 268.918 201.655 271.694 202.067C274.3 202.458 276.374 200.825 278.135 199.12C279.597 197.7 281.5 195.265 283.815 195.57C286.897 196.017 287.934 200.058 287.422 202.621C286.173 208.941 279.384 213.372 273.221 213.563C266.12 213.783 260.013 208.593 257.599 202.167L255.653 202.99L259.204 208.479C259.949 209.622 261.796 208.557 261.043 207.4L257.492 201.911C256.868 200.959 255.107 201.542 255.547 202.735C258.025 209.402 263.841 214.863 271.098 215.616C278.355 216.368 286.009 212.065 288.786 205.355C290.206 201.975 290.014 197.892 287.33 195.179C286.775 194.59 286.098 194.128 285.346 193.828C284.594 193.527 283.786 193.395 282.977 193.44C281.595 193.619 280.298 194.205 279.249 195.123C278.135 196.003 277.183 197.061 276.146 198.027C275.244 198.865 274.179 199.781 272.908 199.958C271.488 200.15 270.189 199.248 269.102 198.46C267.902 197.422 266.612 196.493 265.247 195.684C264.422 195.281 263.522 195.054 262.605 195.016C261.688 194.979 260.773 195.131 259.917 195.465C259.062 195.798 258.285 196.306 257.636 196.954C256.986 197.603 256.478 198.379 256.143 199.234C254.723 202.657 256.143 207.272 259.616 208.891C260.872 209.466 261.959 207.663 260.716 207.052Z" fill="#256E31"/>
<path d="M231.532 188.277C242.065 188.277 250.604 179.261 250.604 168.14C250.604 157.018 242.065 148.002 231.532 148.002C220.998 148.002 212.459 157.018 212.459 168.14C212.459 179.261 220.998 188.277 231.532 188.277Z" fill="white" stroke="#256E31" stroke-width="2.13024" stroke-miterlimit="10"/>
<path d="M231.915 179.678C238.061 179.678 243.042 174.42 243.042 167.934C243.042 161.447 238.061 156.189 231.915 156.189C225.77 156.189 220.788 161.447 220.788 167.934C220.788 174.42 225.77 179.678 231.915 179.678Z" fill="#256E31" stroke="#256E31" stroke-width="2.13024" stroke-miterlimit="10"/>
<path d="M215.193 156.935L200.494 151.566C199.209 151.091 198.655 153.15 199.933 153.618L214.625 159.008C215.917 159.477 216.471 157.417 215.193 156.949V156.935Z" fill="#256E31"/>
<path d="M204.286 146.028L219.361 152.191C219.633 152.263 219.923 152.225 220.167 152.086C220.411 151.947 220.591 151.717 220.668 151.446C220.735 151.173 220.694 150.884 220.552 150.642C220.41 150.399 220.179 150.221 219.908 150.146L204.84 143.983C204.568 143.911 204.278 143.948 204.034 144.088C203.79 144.227 203.61 144.457 203.533 144.728C203.464 144.996 203.498 145.279 203.63 145.522C203.762 145.765 203.981 145.948 204.244 146.035L204.286 146.028Z" fill="#256E31"/>
<path d="M308.611 187.454C319.313 187.454 327.989 178.438 327.989 167.316C327.989 156.194 319.313 147.178 308.611 147.178C297.909 147.178 289.233 156.194 289.233 167.316C289.233 178.438 297.909 187.454 308.611 187.454Z" fill="white" stroke="#256E31" stroke-width="2.13024" stroke-miterlimit="10"/>
<path d="M308.227 179.238C314.671 179.238 319.894 173.811 319.894 167.117C319.894 160.423 314.671 154.996 308.227 154.996C301.784 154.996 296.561 160.423 296.561 167.117C296.561 173.811 301.784 179.238 308.227 179.238Z" fill="#256E31" stroke="#256E31" stroke-width="2.13024" stroke-miterlimit="10"/>
<path d="M325.781 158.17L340.692 152.781C341.978 152.319 341.402 150.26 340.131 150.728L325.22 156.118C323.942 156.579 324.51 158.639 325.788 158.17H325.781Z" fill="#256E31"/>
<path d="M335.729 143.152L320.42 149.315C320.158 149.403 319.94 149.587 319.808 149.829C319.677 150.072 319.641 150.355 319.709 150.622C319.784 150.894 319.964 151.125 320.209 151.265C320.454 151.405 320.744 151.441 321.016 151.367L336.325 145.211C336.593 145.127 336.818 144.945 336.957 144.701C337.095 144.457 337.136 144.17 337.071 143.897C336.987 143.632 336.803 143.409 336.558 143.276C336.313 143.144 336.026 143.112 335.757 143.187L335.729 143.152Z" fill="#256E31"/>
<g clip-path="url(#clip1_984_11502)">
<rect x="-3" y="141.927" width="113.244" height="47.5658" rx="13.9541" transform="rotate(-15.849 -3 141.927)" fill="#FF8000"/>
<path fill-rule="evenodd" clip-rule="evenodd" d="M39.4509 167.399C42.1194 166.641 45.2752 166.738 49.29 168.679C49.6922 168.873 50.0189 168.397 49.6375 168.122C45.3547 165.023 42.2261 165.09 39.1389 165.273C35.3615 165.495 32.9642 164.006 31.0648 162.163C30.6873 161.797 30.595 161.907 30.7324 162.477C30.8994 163.174 31.2068 164.073 31.6154 164.927C31.4732 164.974 31.3291 165.014 31.1834 165.055C26.1005 166.498 20.8042 163.53 19.3549 158.425C17.9059 153.321 20.8527 148.013 25.9365 146.57C31.0194 145.127 36.3154 148.094 37.7644 153.198C37.8677 153.562 37.9521 153.927 38.0106 154.29C37.3042 154.359 35.9773 154.721 35.0722 155.065C34.7322 155.194 34.8279 155.344 35.1054 155.316C38.3049 155.005 40.9318 156.305 42.386 159.605C42.4184 159.682 42.5293 159.675 42.5502 159.595C43.2287 157.061 43.2058 154.386 42.4838 151.859C40.292 144.138 32.2804 139.648 24.5911 141.831C16.9009 144.014 12.4435 152.043 14.6356 159.764C16.8279 167.487 24.8395 171.977 32.5298 169.794C34.5688 169.215 36.481 168.242 39.4509 167.399ZM39.046 162.028C39.8147 162.378 40.1804 162.95 39.9786 163.483C39.865 163.777 39.6075 163.995 39.2529 164.095C38.9069 164.194 38.5373 164.167 38.2083 164.019C37.5045 163.685 37.1117 162.931 37.3499 162.372C37.4431 162.152 37.6487 161.988 37.9285 161.909C38.2683 161.812 38.6657 161.855 39.046 162.028ZM41.5254 159.881C41.7899 160.468 41.6698 160.776 41.4758 160.831C41.264 160.891 40.9287 160.719 40.4771 160.317C40.0305 159.921 39.7597 159.398 39.8337 159.074C39.8816 158.86 40.0703 158.719 40.3662 158.745C40.9388 158.793 41.3664 159.531 41.5254 159.881ZM59.9176 151.2L57.7613 149.717C57.7107 149.682 57.671 149.633 57.6469 149.576C57.6228 149.519 57.6153 149.457 57.6253 149.396C57.6353 149.335 57.6623 149.278 57.7033 149.232C57.7443 149.187 57.7974 149.154 57.8565 149.137L61.2145 148.184C61.2385 147.661 61.1842 147.125 61.0334 146.593C60.3441 144.165 57.9489 142.582 55.4784 143.284C53.0079 143.985 51.8018 146.59 52.4911 149.019C53.1804 151.447 55.5674 153.001 58.0379 152.299C58.7865 152.087 59.4176 151.7 59.9183 151.199L59.9176 151.2ZM68.1112 152.414C68.3407 152.558 68.2862 152.91 68.0232 152.985L64.3588 154.025C64.2852 154.046 64.2078 154.05 64.1322 154.038C64.0566 154.026 63.9845 153.997 63.9212 153.953L63.0876 153.379C62.0228 154.603 60.6267 155.489 59.0685 155.93C54.6072 157.196 49.9438 154.582 48.6721 150.103C47.4004 145.623 49.9947 140.949 54.456 139.682C58.9173 138.416 63.5807 141.03 64.8524 145.509C65.311 147.125 65.2653 148.763 64.8122 150.261L68.1112 152.414ZM97.7095 127.809L94.718 128.658C94.6128 128.688 94.524 128.759 94.4708 128.855C94.4177 128.951 94.4046 129.064 94.4344 129.17L98.6077 143.87C98.6704 144.091 98.8984 144.219 99.1181 144.157L102.11 143.308C102.329 143.245 102.457 143.016 102.394 142.795L98.2206 128.094C98.1905 127.988 98.1196 127.898 98.0237 127.844C97.9277 127.79 97.8145 127.777 97.709 127.807L97.7095 127.809ZM92.676 129.238L89.3308 130.187C89.2457 130.211 89.1705 130.262 89.1162 130.332C89.062 130.402 89.0315 130.487 89.0292 130.576L88.8477 140.015L83.4677 132.144C83.4186 132.073 83.3483 132.018 83.2667 131.989C83.1852 131.959 83.0966 131.956 83.0134 131.98L80.6788 132.643C80.5954 132.666 80.5214 132.715 80.4674 132.783C80.4133 132.851 80.3819 132.935 80.3777 133.022L79.937 142.545L74.8229 134.609C74.7744 134.535 74.7034 134.478 74.6204 134.446C74.5374 134.415 74.4468 134.412 74.3617 134.436L71.0155 135.386C70.9527 135.404 70.8951 135.437 70.8472 135.481C70.7994 135.526 70.7628 135.581 70.7404 135.643C70.7179 135.704 70.7103 135.77 70.7184 135.835C70.7264 135.899 70.7498 135.961 70.7865 136.015L79.8775 149.328C79.9778 149.475 80.1614 149.541 80.3319 149.493L82.9875 148.739C83.1589 148.69 83.2797 148.538 83.288 148.361L83.7306 138.949L89.0512 146.724C89.1515 146.871 89.3352 146.937 89.5056 146.888L92.1622 146.134C92.3336 146.085 92.4544 145.933 92.4624 145.755L93.2022 129.652C93.2052 129.587 93.1926 129.522 93.1656 129.462C93.1385 129.403 93.0978 129.351 93.0468 129.31C92.9951 129.27 92.9347 129.242 92.8704 129.229C92.8061 129.216 92.7397 129.219 92.6767 129.237L92.676 129.238ZM69.4852 136.253L73.6585 150.953C73.7212 151.174 73.5946 151.403 73.3739 151.466L70.3833 152.315C70.278 152.345 70.1649 152.331 70.0691 152.278C69.9732 152.224 69.9023 152.134 69.872 152.028L65.6984 137.327C65.6356 137.106 65.762 136.876 65.9827 136.814L68.9733 135.965C69.1929 135.902 69.4222 136.031 69.4852 136.253Z" fill="white"/>
</g>
<g clip-path="url(#clip2_984_11502)">
<rect x="382.461" y="67" width="98.6626" height="44.8127" rx="10.233" transform="rotate(14.8178 382.461 67)" fill="black"/>
<path d="M398.863 91.2204L392.242 89.4875L393.235 85.6911L405.187 88.8192L405.955 85.8856L391.009 81.9739L386.389 99.6246L396.394 102.243C398.171 102.708 399.627 102.51 400.969 101.755C402.342 100.981 403.237 99.8461 403.637 98.3176C404.031 96.8139 403.831 95.3918 403.013 94.0451C402.201 92.6737 401.175 91.8256 398.863 91.2204ZM400.625 97.503C400.445 98.1932 400.016 98.7395 399.382 99.0741C398.742 99.4333 398.142 99.5396 397.144 99.2784L390.158 97.45L391.474 92.4211L398.484 94.2559C399.409 94.498 399.978 94.9101 400.36 95.5369C400.711 96.182 400.806 96.8128 400.625 97.503Z" fill="white"/>
<path d="M421.647 89.9928L414.701 97.1042L410.609 87.1037L406.831 86.1149L412.34 99.5154L406.946 105.005L410.405 105.91L425.106 90.898L421.647 89.9928Z" fill="white"/>
<path d="M442.109 95.3482L429.124 91.9497L426.47 102.093C425.942 104.106 424.627 106.631 422.471 106.067L421.222 105.74L419.933 110.662L422.947 111.451L423.454 109.512L437.174 113.102L436.667 115.041L439.68 115.83L440.969 110.908L438.2 110.183L442.085 95.3418L442.109 95.3482ZM438.315 97.5427L435.211 109.401L427.126 107.285C428.59 105.994 429.099 104.348 429.483 102.881L431.357 95.7216L438.315 97.5427Z" fill="white"/>
<path d="M459.594 99.9246L452.68 107.044L448.605 97.0484L444.853 96.0664L450.305 109.452L444.96 114.954L448.371 115.847L463.006 100.817L459.594 99.9246Z" fill="white"/>
</g>
</g>
<defs>
<clipPath id="clip0_984_11502">
<rect width="478" height="673" fill="white"/>
</clipPath>
<clipPath id="clip1_984_11502">
<rect x="-3" y="141.927" width="113.244" height="47.5658" rx="13.9541" transform="rotate(-15.849 -3 141.927)" fill="white"/>
</clipPath>
<clipPath id="clip2_984_11502">
<rect x="382.461" y="67" width="98.6626" height="44.8127" rx="10.233" transform="rotate(14.8178 382.461 67)" fill="white"/>
</clipPath>
</defs>
</svg>
