<svg width="0" height="0" position="absolute" xmlns="http://www.w3.org/2000/svg">
  <symbol id="telegram" viewBox="0 0 15 12">
    <path
      d="M1.37143 5.25252L9.61055 1.81277C10.4239 1.45446 13.182 0.307876 13.182 0.307876C13.182 0.307876 14.455 -0.193754 14.3489 1.02449C14.3136 1.52612 14.0307 3.28183 13.7478 5.18085L12.8638 10.8063C12.8638 10.8063 12.793 11.6304 12.1919 11.7737C11.5908 11.917 10.6007 11.2721 10.4239 11.1288C10.2824 11.0213 7.77178 9.40888 6.85239 8.62061C6.60486 8.40562 6.32198 7.97565 6.88775 7.47402C8.16075 6.29161 9.68128 4.82255 10.6007 3.89095C11.025 3.46098 11.4493 2.45772 9.68128 3.67596L4.69537 7.07988C4.69537 7.07988 4.12959 7.43819 3.06876 7.11571C2.00793 6.79324 0.770291 6.36327 0.770291 6.36327C0.770291 6.36327 -0.0783744 5.82581 1.37143 5.25252Z"
    />
  </symbol>
  <symbol viewBox="0 0 32 32" id="vk">
    <path
      d="M28.6707 24.5076H25.6293C24.4787 24.5076 24.132 23.5756 22.0693 21.5116C20.2667 19.7743 19.5053 19.5583 19.0493 19.5583C18.4187 19.5583 18.2467 19.7316 18.2467 20.5996V23.3356C18.2467 24.0756 18.0067 24.509 16.0733 24.509C14.1977 24.383 12.3789 23.8132 10.7666 22.8465C9.15437 21.8798 7.79483 20.544 6.8 18.949C4.43785 16.009 2.79428 12.5584 2 8.87163C2 8.41563 2.17333 8.0023 3.04267 8.0023H6.08267C6.864 8.0023 7.14533 8.3503 7.452 9.1543C8.928 13.4983 11.4467 17.277 12.4693 17.277C12.8613 17.277 13.032 17.1036 13.032 16.1263V11.6516C12.9027 9.6103 11.8187 9.4383 11.8187 8.69963C11.8324 8.50475 11.9215 8.3229 12.0672 8.19269C12.2128 8.06248 12.4035 7.99418 12.5987 8.0023H17.3773C18.0307 8.0023 18.2467 8.32763 18.2467 9.10896V15.149C18.2467 15.801 18.5267 16.017 18.724 16.017C19.116 16.017 19.4173 15.801 20.136 15.0836C21.6765 13.2049 22.935 11.1119 23.872 8.8703C23.9679 8.60117 24.1492 8.3708 24.3883 8.21432C24.6273 8.05784 24.911 7.98385 25.196 8.00363H28.2373C29.1493 8.00363 29.3427 8.45963 29.1493 9.1103C28.0432 11.5882 26.6744 13.9403 25.0667 16.1263C24.7387 16.6263 24.608 16.8863 25.0667 17.473C25.368 17.929 26.4347 18.8196 27.1507 19.6663C28.1933 20.7063 29.0587 21.909 29.7133 23.2263C29.9747 24.0743 29.5387 24.5076 28.6707 24.5076Z"
    />
  </symbol>
  <symbol viewBox="0 0 8 16" id="facebook">
    <path
      d="M7.73835 5.66362H4.93462V3.79447C4.93462 3.27858 5.35331 2.85989 5.8692 2.85989H6.80378V0.523438H4.93462C3.38602 0.523438 2.13088 1.77858 2.13088 3.32718V5.66362H0.261719V8.00007H2.13088V15.4767H4.93462V8.00007H6.80378L7.73835 5.66362Z"
    />
  </symbol>
  <symbol viewBox="0 0 16 10" id="behance">
    <path
      d="M7.38475 1.29895C7.66701 1.68683 7.80815 2.14948 7.80815 2.69065C7.80815 3.24677 7.66701 3.69541 7.38101 4.03375C7.22025 4.22162 6.98565 4.39546 6.67534 4.55155C7.14641 4.72166 7.50158 4.9899 7.74366 5.35629C7.98293 5.72267 8.1035 6.1685 8.1035 6.69191C8.1035 7.23214 7.9661 7.71723 7.69132 8.1453C7.51747 8.4285 7.29876 8.66871 7.03706 8.86218C6.74264 9.08463 6.39495 9.23698 5.99305 9.32016C5.59114 9.40241 5.15653 9.44261 4.68733 9.44261H0.523438V0.326904H4.98922C6.11642 0.343728 6.91368 0.667119 7.38475 1.29895ZM2.36564 1.91021V3.92159H4.61256C5.01259 3.92159 5.33879 3.84588 5.59021 3.69541C5.83976 3.54493 5.96594 3.27761 5.96594 2.89534C5.96594 2.46914 5.80051 2.18967 5.46964 2.05228C5.18363 1.95788 4.81912 1.91021 4.37702 1.91021H2.36564ZM2.36564 5.43013V7.86117H4.60975C5.01072 7.86117 5.32383 7.80789 5.54628 7.70041C5.95192 7.50039 6.15381 7.12279 6.15381 6.56199C6.15381 6.08625 5.95846 5.76099 5.56591 5.58341C5.34533 5.48527 5.03689 5.43293 4.6406 5.43013H2.36564ZM13.6899 2.83926C14.1675 3.04956 14.5601 3.3823 14.8695 3.83654C15.1517 4.23751 15.3331 4.70203 15.4153 5.23011C15.4639 5.53855 15.4826 5.98625 15.4751 6.56854H10.4962C10.5261 7.24429 10.7617 7.7191 11.2122 7.99015C11.4851 8.15932 11.8122 8.24438 12.1982 8.24438C12.6039 8.24438 12.9347 8.14156 13.189 7.93594C13.3292 7.82378 13.4516 7.66956 13.5572 7.47235H15.3817C15.3331 7.87145 15.1115 8.27802 14.7199 8.69114C14.1077 9.3454 13.2506 9.67346 12.1487 9.67346C11.2383 9.67346 10.4364 9.39774 9.74195 8.84442C9.0447 8.29204 8.69794 7.39197 8.69794 6.14607C8.69794 4.97775 9.01198 4.08142 9.63914 3.458C10.2682 2.83646 11.0813 2.52335 12.0823 2.52335C12.6786 2.52241 13.2142 2.62803 13.6899 2.83926ZM11.0178 4.36181C10.7654 4.61884 10.6065 4.96654 10.5411 5.40489H13.6208C13.5881 4.93663 13.4282 4.58239 13.145 4.33845C12.8581 4.09637 12.5057 3.9758 12.0842 3.9758C11.6272 3.97674 11.2701 4.10572 11.0178 4.36181ZM10.0794 1.88685H14.0395V0.752173H10.0794V1.88685Z"
    />
  </symbol>
  <symbol id="check" viewBox="0 0 32 33">
    <path fill-rule="evenodd" clip-rule="evenodd"
      d="M16.0007 1.83301C7.90065 1.83301 1.33398 8.39967 1.33398 16.4997C1.33398 24.5997 7.90065 31.1663 16.0007 31.1663C24.1007 31.1663 30.6673 24.5997 30.6673 16.4997C30.6673 8.39967 24.1007 1.83301 16.0007 1.83301ZM22.358 14.0197C22.475 13.8859 22.5642 13.73 22.6201 13.5612C22.676 13.3925 22.6977 13.2142 22.6837 13.037C22.6697 12.8597 22.6204 12.6871 22.5388 12.5292C22.4571 12.3713 22.3446 12.2313 22.208 12.1175C22.0715 12.0036 21.9135 11.9183 21.7435 11.8664C21.5734 11.8146 21.3947 11.7972 21.2178 11.8154C21.041 11.8337 20.8696 11.8871 20.7136 11.9725C20.5577 12.058 20.4205 12.1737 20.31 12.313L14.5767 19.1917L11.61 16.2237C11.3585 15.9808 11.0217 15.8464 10.6721 15.8494C10.3225 15.8525 9.9881 15.9927 9.74089 16.2399C9.49368 16.4871 9.35346 16.8215 9.35042 17.1711C9.34738 17.5207 9.48177 17.8575 9.72465 18.109L13.7247 22.109C13.8557 22.2399 14.0125 22.3421 14.1852 22.4091C14.3579 22.476 14.5426 22.5063 14.7277 22.4979C14.9127 22.4895 15.094 22.4426 15.2599 22.3603C15.4258 22.2779 15.5727 22.1619 15.6913 22.0197L22.358 14.0197Z"
    />
  </symbol>
  <symbol viewBox="0 0 24 24" id="copy">
    <path fill-rule="evenodd" clip-rule="evenodd"
      d="M0 4C0 1.79086 1.79086 0 4 0H14.6667C16.8758 0 18.6667 1.79086 18.6667 4V5.33333H20C22.2091 5.33333 24 7.12419 24 9.33333V20C24 22.2091 22.2091 24 20 24H9.33333C7.12419 24 5.33333 22.2091 5.33333 20V18.6667H4C1.79086 18.6667 0 16.8758 0 14.6667V4ZM8 20C8 20.7364 8.59695 21.3333 9.33333 21.3333H20C20.7364 21.3333 21.3333 20.7364 21.3333 20V9.33333C21.3333 8.59695 20.7364 8 20 8H9.33333C8.59695 8 8 8.59695 8 9.33333V20ZM16 5.33333H9.33333C7.12419 5.33333 5.33333 7.12419 5.33333 9.33333V16H4C3.26362 16 2.66667 15.403 2.66667 14.6667V4C2.66667 3.26362 3.26362 2.66667 4 2.66667H14.6667C15.403 2.66667 16 3.26362 16 4V5.33333Z"
    />
  </symbol>
  <symbol viewBox="0 0 35 28" id="telegram-big">
    <g opacity="0.5" clip-path="url(#clip0_372_3553)">
      <path fill-rule="evenodd" clip-rule="evenodd"
        d="M27.7889 2.17787C28.1701 2.02038 28.5873 1.96606 28.9971 2.02057C29.4068 2.07508 29.7943 2.23643 30.119 2.48782C30.4437 2.73922 30.6939 3.07147 30.8434 3.44999C30.993 3.82851 31.0364 4.23946 30.9693 4.64008L27.4712 25.4719C27.1319 27.4814 24.8862 28.6337 23.0091 27.6328C21.4389 26.7954 19.1069 25.5052 17.0092 24.159C15.9604 23.4852 12.7476 21.3274 13.1425 19.7919C13.4818 18.479 18.8801 13.5455 21.9649 10.6124C23.1757 9.46001 22.6235 8.79524 21.1937 9.85523C17.6416 12.487 11.9425 16.4893 10.0577 17.6159C8.39501 18.6092 7.52819 18.7788 6.49171 18.6092C4.60075 18.3003 2.84706 17.8218 1.41573 17.2388C-0.518413 16.4514 -0.424328 13.8408 1.41419 13.0806L27.7889 2.17787Z" />
    </g>
    <defs>
      <clipPath id="clip0_372_3553">
        <rect width="41" height="28" />
      </clipPath>
    </defs>
  </symbol>
</svg>