<svg width="185" height="28" viewBox="0 0 185 28" fill="none" xmlns="http://www.w3.org/2000/svg">
<path d="M10.1154 10.8104H3.49416V6.96862H15.4465V4H0.5V21.8616H10.5049C12.2819 21.8616 13.5964 21.3128 14.6675 20.265C15.7629 19.1923 16.3228 17.8952 16.3228 16.3485C16.3228 14.8267 15.7873 13.5295 14.6919 12.4568C13.5964 11.3592 12.428 10.8104 10.1154 10.8104ZM13.3043 16.3235C13.3043 17.022 13.0365 17.6457 12.5253 18.1197C12.0141 18.6186 11.4786 18.868 10.4806 18.868H3.49416V13.779H10.5049C11.4299 13.779 12.0628 14.0284 12.574 14.5273C13.0609 15.0512 13.3043 15.625 13.3043 16.3235Z" fill="white"/>
<path d="M31.1395 4L26.3804 12.4568L20.1004 4H16.3225L24.7613 15.3256L21.0571 21.8616H24.516L34.5984 4H31.1395Z" fill="white"/>
<path d="M51.6024 4H38.6168V14.2641C38.6168 16.3019 38.0043 19.0188 35.8482 19.0188H34.5986V24H37.6123V22.0377H51.3329V24H54.3465V19.0188H51.5779V4H51.6024ZM48.5888 7.01886V19.0188H40.5034C41.557 17.4339 41.6305 15.7484 41.6305 14.2641V7.01886H48.5888Z" fill="white"/>
<path d="M69.0886 4L64.3614 12.4568L58.0987 4H54.3464L62.7284 15.3256L59.0735 21.8616H62.4849L72.5 4H69.0886Z" fill="white"/>
<path d="M88.8252 7L91.5 11.8945L94.2412 7H98.3862L94.1653 14L98.5 21H94.374L91.5 16.1602L88.6734 21H84.5L88.8252 14L84.6518 7H88.8252Z" fill="white"/>
<g clip-path="url(#clip0_1148_1577)">
<path fill-rule="evenodd" clip-rule="evenodd" d="M128.848 24.3372C131.152 24.3372 133.652 25.1484 136.42 27.6658C136.697 27.9177 137.066 27.6045 136.824 27.2913C134.104 23.7659 131.589 23.0947 129.081 22.5278C126.012 21.833 124.434 20.0602 123.334 18.1143C123.116 17.7275 123.017 17.7957 122.998 18.2936C122.973 18.9018 123.015 19.7076 123.147 20.5004C123.023 20.5056 122.899 20.5047 122.773 20.5047C118.384 20.5047 114.825 16.8507 114.825 12.3436C114.825 7.83738 118.384 4.18425 122.774 4.18425C127.163 4.18425 130.722 7.83738 130.722 12.3436C130.722 12.6648 130.706 12.9824 130.671 13.293C130.091 13.1854 128.948 13.1731 128.147 13.244C127.846 13.2711 127.888 13.4155 128.116 13.4575C130.744 13.9449 132.548 15.617 132.961 18.6506C132.97 18.7206 133.06 18.7408 133.095 18.6804C134.212 16.7668 134.801 14.5758 134.797 12.3436C134.797 5.52738 129.414 0 122.774 0C116.134 0 110.75 5.5265 110.75 12.3436C110.75 19.1616 116.134 24.689 122.774 24.689C124.535 24.689 126.283 24.3372 128.848 24.3372ZM129.743 19.8555C130.278 20.3193 130.44 20.8714 130.158 21.2607C130 21.4743 129.745 21.5924 129.439 21.5924C129.14 21.5924 128.851 21.4847 128.622 21.2879C128.135 20.8512 127.992 20.1442 128.31 19.7426C128.434 19.5851 128.635 19.4985 128.877 19.4985C129.17 19.4985 129.478 19.6254 129.743 19.8555ZM132.211 18.676C132.289 19.2167 132.123 19.4408 131.956 19.4408C131.773 19.4408 131.544 19.222 131.275 18.7889C131.008 18.3619 130.91 17.8719 131.042 17.6243C131.129 17.4606 131.312 17.3889 131.543 17.479C131.989 17.6514 132.163 18.3531 132.211 18.676ZM148.877 15.8498L147.491 14.1374C147.458 14.097 147.438 14.0479 147.431 13.9959C147.425 13.9439 147.433 13.8911 147.455 13.8437C147.477 13.7963 147.511 13.7562 147.554 13.7283C147.597 13.7003 147.647 13.6856 147.698 13.6859H150.598C150.736 13.2641 150.814 12.8135 150.814 12.3445C150.814 10.2007 149.259 8.35188 147.126 8.35188C144.993 8.35188 143.438 10.2007 143.438 12.3445C143.438 14.4882 144.993 16.3118 147.126 16.3118C147.772 16.3118 148.364 16.142 148.878 15.8489L148.877 15.8498ZM155.149 18.7416C155.3 18.9131 155.177 19.1879 154.95 19.1879H151.785C151.722 19.188 151.659 19.1737 151.601 19.146C151.544 19.1183 151.493 19.0779 151.452 19.0278L150.916 18.3654C149.788 19.1183 148.471 19.5183 147.126 19.5169C143.274 19.5169 140.14 16.2995 140.14 12.3445C140.14 8.3895 143.274 5.17212 147.126 5.17212C150.978 5.17212 154.112 8.3895 154.112 12.3445C154.112 13.7708 153.703 15.099 153.002 16.2173L155.149 18.7416ZM184.383 5.50375H181.8C181.709 5.50398 181.622 5.54121 181.557 5.60729C181.493 5.67337 181.457 5.76292 181.457 5.85637V18.8352C181.457 19.0304 181.61 19.1879 181.8 19.1879H184.383C184.572 19.1879 184.726 19.0304 184.726 18.8352V5.8555C184.726 5.76175 184.69 5.67183 184.626 5.60554C184.561 5.53924 184.474 5.502 184.383 5.502V5.50375ZM180.036 5.50375H177.148C177.074 5.50346 177.003 5.52734 176.944 5.5719C176.884 5.61646 176.841 5.67935 176.819 5.75138L174.532 13.4216L172.019 5.74263C171.996 5.67257 171.952 5.61173 171.894 5.56871C171.835 5.52568 171.765 5.50265 171.693 5.50287H169.677C169.605 5.5026 169.535 5.5256 169.476 5.56862C169.418 5.61163 169.374 5.6725 169.351 5.74263L166.838 13.4216L164.552 5.75138C164.53 5.67919 164.486 5.61611 164.427 5.57138C164.368 5.52665 164.296 5.50264 164.222 5.50287H161.333C161.279 5.50297 161.225 5.51626 161.177 5.54165C161.129 5.56704 161.087 5.60383 161.055 5.649C161.023 5.69375 161.002 5.74572 160.994 5.80053C160.986 5.85535 160.99 5.91141 161.007 5.964L165.252 18.9499C165.298 19.0934 165.43 19.1896 165.577 19.1896H167.871C168.019 19.1896 168.15 19.0934 168.196 18.9508L170.685 11.3636L173.173 18.9499C173.22 19.0934 173.352 19.1896 173.499 19.1896H175.793C175.941 19.1896 176.072 19.0934 176.119 18.9499L180.363 5.964C180.38 5.91145 180.385 5.85546 180.377 5.80067C180.369 5.74589 180.348 5.69389 180.316 5.649C180.284 5.60376 180.242 5.56694 180.194 5.54155C180.145 5.51615 180.092 5.5029 180.037 5.50287L180.036 5.50375ZM159.913 5.85637V18.8352C159.913 19.0304 159.76 19.1879 159.57 19.1879H156.987C156.896 19.1879 156.809 19.1508 156.745 19.0846C156.68 19.0185 156.644 18.9289 156.644 18.8352V5.8555C156.644 5.66038 156.797 5.502 156.987 5.502H159.57C159.76 5.502 159.913 5.66037 159.913 5.85637Z" fill="white"/>
</g>
<defs>
<clipPath id="clip0_1148_1577">
<rect width="74" height="28" fill="white" transform="translate(110.5)"/>
</clipPath>
</defs>
</svg>
