<svg width="130" height="21" viewBox="0 0 130 21" fill="none" xmlns="http://www.w3.org/2000/svg">
<path d="M6.81091 7.83244H2.12087V5.14322H10.5871V3.06519H0V15.5683H7.08678C8.34554 15.5683 9.27663 15.1842 10.0353 14.4507C10.8113 13.6998 11.2078 12.7918 11.2078 11.7091C11.2078 10.6439 10.8285 9.73585 10.0526 8.98495C9.27663 8.21661 8.44897 7.83244 6.81091 7.83244ZM9.06972 11.6917C9.06972 12.1806 8.88003 12.6172 8.51794 12.949C8.15585 13.2982 7.7765 13.4728 7.06957 13.4728H2.12087V9.91049H7.08678C7.74204 9.91049 8.19035 10.0851 8.55244 10.4343C8.89728 10.8011 9.06972 11.2027 9.06972 11.6917Z" fill="black"/>
<path d="M21.7029 3.06519L18.3319 8.98495L13.8835 3.06519H11.2075L17.185 10.9931L14.5612 15.5683H17.0113L24.153 3.06519H21.7029Z" fill="black"/>
<path d="M36.1977 3.06519H26.9995V10.2501C26.9995 11.6765 26.5657 13.5784 25.0384 13.5784H24.1533V17.0652H26.288V15.6916H36.0067V17.0652H38.1414V13.5784H36.1803V3.06519H36.1977ZM34.063 5.17839V13.5784H28.3359C29.0821 12.4689 29.1342 11.2891 29.1342 10.2501V5.17839H34.063Z" fill="black"/>
<path d="M48.5837 3.06519L45.2353 8.98495L40.7992 3.06519H38.1414L44.0786 10.9931L41.4897 15.5683H43.9061L51.0001 3.06519H48.5837Z" fill="black"/>
<path d="M62.0894 5.06519L64 8.56128L65.958 5.06519H68.9187L65.9038 10.0652L69 15.0652H66.0528L64 11.6082L61.981 15.0652H59L62.0894 10.0652L59.1084 5.06519H62.0894Z" fill="black"/>
<g clip-path="url(#clip0_984_25332)">
<path fill-rule="evenodd" clip-rule="evenodd" d="M90.1412 17.4489C91.7915 17.4489 93.5819 18.0283 95.5642 19.8264C95.7628 20.0064 96.0272 19.7827 95.8536 19.5589C93.906 17.0408 92.1046 16.5614 90.3081 16.1564C88.1101 15.6602 86.9801 14.3939 86.1924 13.0039C86.0358 12.7277 85.9651 12.7764 85.9511 13.1321C85.9335 13.5664 85.9633 14.1421 86.0583 14.7083C85.9694 14.7121 85.8805 14.7114 85.7903 14.7114C82.6468 14.7114 80.098 12.1014 80.098 8.88206C80.098 5.66331 82.6469 3.05394 85.7909 3.05394C88.9344 3.05394 91.4832 5.66331 91.4832 8.88206C91.4832 9.11144 91.4723 9.33831 91.4467 9.56019C91.0312 9.48331 90.2131 9.47456 89.6392 9.52519C89.4235 9.54456 89.454 9.64769 89.6173 9.67769C91.4991 10.0258 92.7912 11.2202 93.0872 13.3871C93.0933 13.4371 93.1579 13.4514 93.1829 13.4083C93.983 12.0414 94.4045 10.4765 94.4019 8.88206C94.4019 4.01331 90.5463 0.0651855 85.7909 0.0651855C81.0349 0.0651855 77.1793 4.01269 77.1793 8.88206C77.1793 13.7521 81.0349 17.7002 85.7909 17.7002C87.0519 17.7002 88.3044 17.4489 90.1412 17.4489ZM90.782 14.2477C91.1652 14.5789 91.2816 14.9733 91.0793 15.2514C90.9666 15.4039 90.7839 15.4883 90.5646 15.4883C90.3506 15.4884 90.1434 15.4114 89.9791 15.2708C89.6307 14.9589 89.5283 14.4539 89.7555 14.1671C89.8445 14.0546 89.9889 13.9927 90.1619 13.9927C90.3721 13.9927 90.5926 14.0833 90.782 14.2477ZM92.5499 13.4052C92.606 13.7914 92.4872 13.9514 92.3672 13.9514C92.2362 13.9514 92.0723 13.7952 91.8792 13.4858C91.6879 13.1808 91.6179 12.8308 91.7129 12.6539C91.775 12.5371 91.906 12.4858 92.0711 12.5502C92.3909 12.6733 92.5158 13.1746 92.5499 13.4052ZM104.487 11.3864L103.494 10.1633C103.47 10.1345 103.455 10.0994 103.451 10.0623C103.446 10.0251 103.452 9.98738 103.468 9.95352C103.483 9.91967 103.508 9.89108 103.539 9.87111C103.57 9.85115 103.606 9.84064 103.642 9.84081H105.719C105.818 9.53956 105.874 9.21769 105.874 8.88269C105.874 7.35144 104.76 6.03081 103.232 6.03081C101.704 6.03081 100.591 7.35144 100.591 8.88269C100.591 10.4139 101.704 11.7164 103.232 11.7164C103.695 11.7164 104.119 11.5952 104.487 11.3858L104.487 11.3864ZM108.979 13.4521C109.087 13.5746 108.998 13.7708 108.836 13.7708H106.569C106.524 13.7709 106.479 13.7607 106.438 13.7409C106.396 13.7211 106.36 13.6923 106.331 13.6564L105.947 13.1833C105.138 13.7211 104.196 14.0068 103.232 14.0058C100.473 14.0058 98.2288 11.7077 98.2288 8.88269C98.2288 6.05769 100.473 3.75956 103.232 3.75956C105.991 3.75956 108.235 6.05769 108.235 8.88269C108.235 9.90144 107.943 10.8502 107.44 11.6489L108.979 13.4521ZM129.916 3.99644H128.066C128.001 3.9966 127.939 4.02319 127.893 4.07039C127.847 4.11759 127.821 4.18156 127.821 4.24831V13.5189C127.821 13.6583 127.93 13.7708 128.066 13.7708H129.916C130.052 13.7708 130.162 13.6583 130.162 13.5189V4.24769C130.162 4.18072 130.136 4.11649 130.09 4.06914C130.044 4.02179 129.981 3.99519 129.916 3.99519V3.99644ZM126.803 3.99644H124.734C124.682 3.99623 124.631 4.01329 124.588 4.04512C124.546 4.07694 124.514 4.12187 124.499 4.17331L122.861 9.65206L121.061 4.16706C121.044 4.11702 121.013 4.07357 120.971 4.04283C120.929 4.0121 120.879 3.99565 120.828 3.99581H119.384C119.332 3.99562 119.282 4.01204 119.24 4.04277C119.198 4.0735 119.166 4.11697 119.15 4.16706L117.35 9.65206L115.713 4.17331C115.697 4.12175 115.666 4.07669 115.623 4.04474C115.581 4.0128 115.53 3.99565 115.477 3.99581H113.408C113.369 3.99588 113.33 4.00537 113.296 4.02351C113.261 4.04165 113.231 4.06792 113.208 4.10019C113.186 4.13215 113.171 4.16927 113.165 4.20842C113.159 4.24758 113.162 4.28762 113.174 4.32519L116.214 13.6008C116.248 13.7033 116.342 13.7721 116.447 13.7721H118.09C118.196 13.7721 118.29 13.7033 118.323 13.6014L120.106 8.18206L121.888 13.6008C121.921 13.7033 122.015 13.7721 122.121 13.7721H123.764C123.87 13.7721 123.964 13.7033 123.997 13.6008L127.037 4.32519C127.049 4.28765 127.053 4.24766 127.047 4.20852C127.041 4.16939 127.026 4.13225 127.004 4.10019C126.981 4.06787 126.951 4.04157 126.916 4.02343C126.881 4.00529 126.843 3.99583 126.804 3.99581L126.803 3.99644ZM112.391 4.24831V13.5189C112.391 13.6583 112.281 13.7708 112.145 13.7708H110.295C110.23 13.7708 110.168 13.7443 110.121 13.6971C110.075 13.6499 110.049 13.5858 110.049 13.5189V4.24769C110.049 4.10831 110.159 3.99519 110.295 3.99519H112.145C112.281 3.99519 112.391 4.10831 112.391 4.24831Z" fill="black"/>
</g>
<defs>
<clipPath id="clip0_984_25332">
<rect width="53" height="20" fill="white" transform="translate(77 0.0651855)"/>
</clipPath>
</defs>
</svg>
