<svg width="60" height="60" viewBox="0 0 60 60" fill="none" xmlns="http://www.w3.org/2000/svg">
<g clip-path="url(#clip0_995_26660)">
<rect width="60" height="60" rx="12" fill="#53B56C"/>
<path d="M32.9889 17.8225C32.7751 19.078 32.2833 20.2801 31.5171 21.3044C31.0003 21.9979 30.3767 22.6061 29.6889 23.136C29.5142 23.2747 29.3325 23.4063 29.1472 23.5308C26.428 25.3909 22.9533 25.9457 19.7281 25.3056C18.488 25.0637 17.287 24.644 16.1786 24.0572C14.9883 23.4241 13.9014 22.599 12.9962 21.5889C12.5294 21.0696 12.1017 20.5006 11.8309 19.8533C11.0148 17.89 11.7881 15.6387 12.7859 13.7608C13.4203 12.5694 14.1544 11.4206 15.0881 10.4461C18.9691 6.38799 27.0766 6.53026 30.9077 10.6417L31.3353 11.0863C32.8356 12.9499 33.3916 15.4751 32.9889 17.8225Z" fill="white"/>
<path d="M40.9504 32.7528C40.423 32.326 39.8955 31.9028 39.3681 31.4795C37.604 30.0533 35.9754 28.3889 34.1543 27.0516C32.5792 25.8921 31.2677 24.3059 29.6925 23.1358C30.3803 22.6058 31.004 21.9976 31.5207 21.3041C32.2869 20.2798 32.7787 19.0777 32.9925 17.8222C35.3268 15.674 38.8941 14.9982 41.681 16.1541C44.4857 17.3172 46.5562 20.134 47.2155 23.0397C48.0174 26.5892 45.6724 30.9354 40.954 32.7528H40.9504Z" fill="white"/>
<path d="M32.9891 17.8218C32.8109 17.9783 32.6434 18.149 32.483 18.3268L32.9891 17.8218Z" fill="#FF8C00"/>
<path d="M58.9653 84.1027C57.4043 88.6659 53.9724 93.2681 48.9511 94.2355C43.1422 95.4376 36.8664 95.0677 31.0824 94.0434C28.1245 93.8905 25.2343 93.3748 22.8965 91.8455C22.2372 91.3547 21.2179 90.7998 20.5586 90.3126C11.1681 82.3173 8.66992 71.2456 8.11754 59.676C3.73768 57.0975 1.5032 53.8076 -0.720583 49.2445C-2.94793 44.6778 -3.30431 39.0655 -0.955791 34.5628C-0.456865 33.6061 0.473276 32.9695 1.03279 32.0519C1.28225 31.6464 1.44975 31.1556 1.37134 30.6755C1.27156 30.0744 0.0563169 27.9902 1.3856 27.8658C2.1233 27.7982 2.71488 28.5486 3.02136 29.1248C4.09762 31.1592 4.62149 33.4816 4.51814 35.7756C4.41479 38.059 4.25086 37.1129 4.31501 39.3963C4.37916 41.6796 5.95434 44.0305 8.16387 44.628C9.03343 36.2558 12.0305 31.3157 16.1788 24.0566C17.2871 24.6435 18.4881 25.0632 19.7283 25.305C23.2992 28.2001 28.8265 32.5178 32.3083 34.8936C31.1572 44.5462 37.2049 55.6855 45.2127 60.8177C47.187 62.283 48.8014 63.6879 50.7793 65.1532C56.7094 69.5562 61.0394 76.6552 58.9653 84.1027Z" fill="#FF8C00"/>
<path d="M32.3189 34.7949C32.3154 34.8268 32.3119 34.8623 32.3083 34.8942L32.3189 34.7949Z" fill="#FF8C00"/>
<path d="M16.3677 23.7275C16.3036 23.8378 16.243 23.948 16.1788 24.0583L16.3677 23.7275Z" fill="#FF8C00"/>
<path d="M54.2789 46.5041C53.4735 46.6677 52.6503 46.4009 51.8841 46.1093C48.6018 44.8574 45.5655 43.0613 42.5506 41.2688C39.108 39.2273 35.6618 37.1858 32.3582 34.9309C32.3404 34.9202 32.3262 34.9096 32.3083 34.8953C28.8265 32.5195 23.2992 28.2018 19.7283 25.3067C22.9535 25.9469 26.4281 25.3921 29.1473 23.532C29.3326 23.4075 29.5144 23.2759 29.689 23.1372C31.2642 24.3073 32.5756 25.8936 34.1508 27.053C35.9719 28.3903 37.6005 30.0548 39.3646 31.481C39.892 31.9042 40.4195 32.3275 40.9469 32.7543C42.3439 33.8746 43.7373 34.9985 45.0773 36.1828C46.9162 37.8046 48.6553 39.5331 50.3552 41.3008C51.2034 42.1828 52.0444 43.0791 52.8819 43.9753C53.5376 44.676 54.4108 45.4335 54.2753 46.5041H54.2789Z" fill="#F5C64A"/>
<path d="M19.7283 25.3055C19.4503 25.0814 19.1866 24.8645 18.9336 24.6582L19.7283 25.3055Z" fill="#FF8C00"/>
<path d="M29.6892 23.1356C29.5609 23.036 29.429 22.9435 29.2936 22.8511L29.6892 23.1356Z" fill="#FF8C00"/>
<path d="M27.1837 42.7832C27.0091 46.2651 27.7432 49.7933 29.297 52.916L27.1837 42.7832Z" fill="#FF8C00"/>
<path opacity="0.5" d="M33.0356 94.3531C31.3962 93.3714 29.5359 92.9838 27.7754 92.2689C26.0613 91.5754 24.4825 90.7182 22.9466 89.7224C19.814 86.212 16.2966 83.2173 14.0407 78.9281C11.3251 73.7639 11.6601 68.2832 11.2467 62.6531C11.0828 60.4409 10.117 59.1427 8.36722 57.873C6.21827 56.3152 4.30453 54.544 2.7935 52.3496C0.0779128 48.4053 -1.15158 43.7426 -0.83441 39.055C-0.581383 38.1765 -0.410322 37.2732 -0.157295 36.3911C0.106423 35.47 0.462799 34.5595 0.651678 33.617C0.779973 33.3645 0.86194 33.1048 0.836993 32.8452C0.826302 32.7349 0.747899 32.6211 0.619604 32.6282C-0.178678 32.6709 -0.723933 33.6277 -1.12307 34.2394C-1.7004 35.1321 -2.13162 36.071 -2.39177 37.1025C-2.51294 37.5897 -2.0746 37.8351 -1.71822 37.7177C-2.95485 42.1101 -2.45236 46.7622 -0.467342 50.9625C0.698007 53.4273 2.42999 55.6679 4.4257 57.5209C5.31307 58.346 6.28598 59.0396 7.2482 59.7758C8.72359 60.9032 8.99087 61.9418 9.01226 63.8019C9.0764 69.5991 9.28666 75.4746 12.1876 80.653C14.6858 85.113 18.5952 89.5801 22.9929 92.2333C23.3207 92.4325 23.6237 92.3827 23.8482 92.212C23.9373 92.2724 24.0264 92.3294 24.1226 92.3827C24.1582 92.4254 24.201 92.4609 24.2545 92.493C24.6251 92.6957 24.9743 92.8984 25.3735 93.0407V93.03C25.4412 93.0478 25.5089 93.0513 25.573 93.0336C26.0898 93.247 26.6065 93.4568 27.1268 93.6702C27.3834 93.7769 27.5759 93.656 27.6685 93.4675C29.3684 93.9476 31.1895 93.9725 32.8075 94.7372C33.0676 94.8581 33.2886 94.4989 33.0356 94.3495V94.3531Z" fill="#AA5B18"/>
<path opacity="0.5" d="M32.4617 38.0342C32.3548 37.8564 32.2657 37.6785 32.1837 37.4936C32.2158 37.426 32.2372 37.3549 32.2265 37.2766C32.2015 37.0348 32.0982 36.8498 31.9948 36.6613C32.3156 36.4195 32.5294 36.0567 32.5009 35.6121C32.4296 34.5132 30.7047 33.8232 29.9065 33.3644C29.7532 33.2755 29.6071 33.2435 29.4717 33.2435C29.0832 32.8024 28.7518 32.4325 28.6663 32.3507C27.7504 31.4367 26.7561 30.5298 25.6371 29.8682C25.5266 29.8042 25.4054 29.9323 25.466 30.039C26.2572 31.4616 27.312 32.7669 28.2778 34.0757C28.8623 34.8617 29.4966 36.327 30.4588 36.8107C30.5764 37.0348 30.694 37.2553 30.8152 37.4758C30.972 37.8848 31.1752 38.2725 31.4317 38.6317C31.7739 39.311 32.8644 38.6922 32.4617 38.0306V38.0342Z" fill="#AA5B18"/>
<path opacity="0.54" d="M53.6232 45.4005C48.1992 42.2387 43.0246 38.4829 37.5899 35.3353C34.967 33.8166 32.287 32.3976 29.6748 30.8682C26.977 29.2926 24.3648 27.4752 21.5102 26.1913C21.3997 26.1415 21.2821 26.2695 21.3748 26.3656C23.4168 28.4711 25.9506 30.1178 28.3704 31.7609C30.9755 33.5286 34.3219 36.292 37.009 37.9352C42.4615 41.2713 47.2334 43.4942 52.7465 46.7307C53.9832 47.4562 54.8599 46.1189 53.6197 45.3969L53.6232 45.4005Z" fill="#C09221"/>
<path d="M31.1606 10.394C28.4985 7.57363 24.2255 6.67381 20.4978 7.33533C18.6376 7.6661 16.8272 8.43077 15.391 9.67202C14.5107 10.4331 13.7944 11.3863 13.1779 12.3715C12.4936 13.4669 11.8842 14.637 11.4994 15.8712C11.1145 17.1053 10.9826 18.3359 11.339 19.5309C11.6775 20.6655 12.4616 21.6151 13.3026 22.4224C14.7887 23.8557 16.6561 24.8694 18.6411 25.4207C22.7145 26.5552 27.3189 25.7621 30.5156 22.9204C32.2226 21.4017 33.2525 19.3495 33.4414 17.0769C33.6196 14.9287 33.028 12.6916 31.6952 10.9809C31.5312 10.771 31.3424 10.5896 31.1606 10.3976C30.8434 10.0668 30.3374 10.5683 30.6581 10.899C33.3381 13.691 33.4628 18.4319 30.9931 21.4052C28.5234 24.3786 24.0937 25.6874 20.2092 25.0401C18.3418 24.7271 16.5456 24.0194 15.0025 22.9168C14.1722 22.3229 13.3917 21.5973 12.7787 20.7757C12.0304 19.7692 11.731 18.6204 11.8842 17.3756C12.0375 16.1308 12.5257 15.014 13.0924 13.9435C13.659 12.873 14.3112 11.8344 15.1237 10.9311C16.3069 9.61867 17.8678 8.7473 19.5606 8.27428C23.3132 7.23219 27.9033 7.98975 30.651 10.8955C30.9646 11.2298 31.4707 10.7248 31.1535 10.394H31.1606Z" fill="#1D1D1B" stroke="black" stroke-width="0.358507"/>
<path d="M33.1885 18.3828C34.5998 16.8499 36.5349 15.9145 38.6339 15.9074C40.733 15.9003 42.6824 16.7965 44.1542 18.2476C45.626 19.6987 46.6239 21.5553 46.9446 23.5363C47.2012 25.1154 46.852 26.7657 46.0822 28.1599C45.0166 30.0947 43.2062 31.4853 41.1678 32.282C40.7437 32.4456 40.929 33.1356 41.3566 32.9684C45.0202 31.5386 48.053 28.1279 47.7108 23.9986C47.3687 19.8694 43.7657 15.6513 39.4001 15.2281C36.8663 14.9827 34.3895 16.0176 32.6789 17.8777C32.3688 18.2156 32.8713 18.7171 33.1814 18.3792L33.1885 18.3828Z" fill="#1D1D1B" stroke="black" stroke-width="0.358507"/>
<path d="M15.9112 16.8603C17.0587 16.8603 17.0587 15.082 15.9112 15.082C14.7637 15.082 14.7637 16.8603 15.9112 16.8603Z" fill="#1D1D1B"/>
<path d="M35.0878 24.3598C36.2354 24.3598 36.2354 22.5815 35.0878 22.5815C33.9403 22.5815 33.9403 24.3598 35.0878 24.3598Z" fill="#1D1D1B"/>
<path d="M15.5338 24.4096C12.7719 29.2466 9.84962 34.0373 8.55597 39.5145C8.16039 41.1968 7.90024 42.9075 7.71849 44.6253L8.28156 44.195C6.45335 43.6722 5.18822 41.965 4.84253 40.1476C4.56456 38.6823 4.89243 37.3094 4.96014 35.8583C5.06705 33.5785 4.59307 31.2952 3.58453 29.2466C3.19608 28.457 2.5938 27.5181 1.62446 27.4256C0.911708 27.358 0.352198 27.7919 0.323688 28.5139C0.298742 29.1612 0.601661 29.7908 0.815487 30.3812C1.15404 31.3094 0.544641 32.0563 -0.061198 32.7178C-0.371245 33.0557 -0.684856 33.3865 -0.962829 33.7493C-1.31208 34.2116 -1.55441 34.738 -1.78249 35.2679C-2.20302 36.2495 -2.52019 37.2667 -2.7162 38.3159C-3.11534 40.4321 -3.08327 42.6052 -2.68412 44.7178C-2.28498 46.8304 -1.46888 48.8008 -0.478158 50.7107C0.512567 52.6206 1.571 54.3527 2.93236 55.9425C4.29372 57.5323 6.03283 58.9513 7.89311 60.0574L7.67216 59.6733C8.08912 68.259 9.61441 77.1042 14.5716 84.3348C15.8439 86.1914 17.3121 87.9127 18.9479 89.4599C19.7889 90.2565 20.6442 90.9216 21.6278 91.5369C22.6114 92.1522 23.5202 92.7817 24.5929 93.2228C25.7475 93.6993 26.9664 94.0016 28.1994 94.1937C29.4325 94.3858 30.694 94.4284 31.9342 94.6312C34.55 95.058 37.1908 95.3389 39.8422 95.4101C42.4936 95.4812 45.2663 95.3318 47.9355 94.873C49.051 94.681 50.1343 94.4498 51.1785 94.0088C52.1265 93.6069 53.0032 93.0769 53.8157 92.4474C55.4942 91.1457 56.8449 89.4492 57.882 87.6069C58.919 85.7646 59.6674 83.7586 59.8741 81.614C60.2946 77.2287 58.5911 72.9572 55.929 69.5358C54.5463 67.7575 52.9141 66.1997 51.1144 64.8446C49.0331 63.2762 47.066 61.5405 44.9099 60.0752C41.3568 57.6638 38.4417 54.3242 36.307 50.6182C34.1723 46.9122 32.7432 42.6479 32.622 38.3266C32.5935 37.2916 32.6434 36.2567 32.7682 35.2288C32.8359 34.6633 31.9449 34.6669 31.8772 35.2288C31.1466 41.2572 33.121 47.4173 36.3854 52.4534C38.0461 55.0142 40.0703 57.358 42.4224 59.307C43.6519 60.3242 45.0025 61.1778 46.257 62.1594C47.7252 63.3082 49.1721 64.489 50.6653 65.6093C55.5726 69.3046 59.5391 75.1019 58.9939 81.4717C58.7337 84.4984 57.2761 87.4433 55.3267 89.7479C54.3788 90.8718 53.2705 91.8641 51.9946 92.6039C50.5798 93.4255 49.0545 93.7883 47.4508 94.0514C43.6697 94.6703 39.7959 94.6454 35.9934 94.2684C34.1438 94.087 32.3084 93.678 30.4588 93.5464C28.709 93.4219 26.9592 93.1516 25.3092 92.5434C24.5252 92.2554 23.7554 91.8855 23.0676 91.4089C22.3798 90.9323 21.6599 90.5411 20.9899 90.0609C20.3199 89.5808 19.7426 88.9868 19.1653 88.4213C18.588 87.8558 18.0498 87.2868 17.526 86.6857C15.4982 84.3739 13.8482 81.7527 12.5688 78.9608C10.0135 73.3698 9.01926 67.192 8.63794 61.1031C8.61299 60.7154 8.59161 60.3242 8.57023 59.9365C8.54528 59.4564 8.43837 59.3426 8.0321 59.0936C7.35498 58.681 6.69925 58.2329 6.07916 57.7385C4.96727 56.8565 3.96229 55.8393 3.08204 54.7261C2.20179 53.6129 1.42133 52.3503 0.726393 51.0806C-0.0683255 49.6259 -0.816715 48.1428 -1.31208 46.5566C-2.32418 43.3272 -2.44535 39.7777 -1.34415 36.5554C-1.08043 35.7836 -0.770386 34.9585 -0.285715 34.297C0.198956 33.6354 0.797668 33.1411 1.25383 32.4938C1.67435 31.8963 1.95233 31.1494 1.76345 30.4167C1.64584 29.965 1.42489 29.5418 1.30016 29.0901C1.20394 28.7416 1.04357 28.1796 1.61377 28.3112C2.32296 28.4748 2.70784 29.4564 2.97513 30.0397C3.71995 31.6793 4.09415 33.4932 4.07633 35.2928C4.06564 36.3278 3.85894 37.345 3.84825 38.3799C3.83399 39.8631 4.03356 41.2572 4.83184 42.5376C5.56954 43.722 6.685 44.6538 8.03923 45.0415C8.34215 45.1268 8.57379 44.8921 8.6023 44.6111C8.90166 41.7907 9.46117 38.9988 10.4198 36.3242C11.2965 33.8773 12.4975 31.5619 13.7626 29.2928C14.593 27.8026 15.4518 26.3231 16.3 24.84C16.5851 24.342 15.8153 23.8939 15.5302 24.3918L15.5338 24.4096Z" fill="#1D1D1B" stroke="black" stroke-width="0.358507"/>
<path d="M29.7351 23.4352C30.5512 24.0861 31.2961 24.8223 32.0338 25.5585C32.7715 26.2947 33.5769 26.9456 34.3965 27.6C36.125 28.9693 37.6895 30.5378 39.4036 31.9248C41.1178 33.3119 42.9923 34.7915 44.7172 36.303C46.442 37.8146 48.06 39.4079 49.6459 41.044C50.576 42.0043 51.4955 42.9788 52.4078 43.9533C53.0778 44.6717 54.04 45.4186 53.9438 46.4998L54.1897 46.1762C53.427 46.3042 52.6786 46.0481 51.973 45.7814C51.2674 45.5146 50.633 45.2408 49.9773 44.942C48.6623 44.3374 47.3793 43.6616 46.1177 42.9539C43.6053 41.5419 41.1356 40.0481 38.6731 38.5544C34.2683 35.8833 30.0523 32.9634 25.9326 29.8762C23.8264 28.2971 21.7381 26.6895 19.696 25.0215C19.361 24.7476 18.8764 25.2242 19.2149 25.5016C22.9391 28.5496 26.7986 31.4518 30.7366 34.2224C35.4621 37.5443 40.4585 40.5283 45.4834 43.3735C46.9125 44.1809 48.3665 44.9527 49.8633 45.6284C51.2389 46.2473 52.8176 47.0866 54.3678 46.827C54.5211 46.8021 54.6031 46.6421 54.6137 46.5034C54.6922 45.6178 54.211 44.9064 53.6337 44.2805C52.8746 43.4518 52.0942 42.6409 51.3173 41.8264C49.6637 40.0873 47.9745 38.373 46.2033 36.7512C44.4321 35.1293 42.636 33.6889 40.8006 32.2236C38.9653 30.7583 37.3046 29.1969 35.5084 27.7423C34.5569 26.9741 33.5698 26.2699 32.6539 25.4554C31.738 24.6409 30.8934 23.8905 29.8563 23.2788C29.7601 23.2218 29.6425 23.3641 29.7351 23.4352Z" fill="#1D1D1B" stroke="black" stroke-width="0.358507"/>
<path d="M27.0303 42.7828C26.8272 46.3572 27.4579 49.8533 28.9832 53.097C29.1792 53.5131 29.81 53.1503 29.6069 52.7342C28.0745 49.5724 27.2904 46.3038 27.3368 42.7828C27.3368 42.5836 27.041 42.5872 27.0303 42.7828Z" fill="#1D1D1B"/>
<path d="M16.9839 3.00942C15.088 3.62115 13.3382 5.01179 12.0232 6.47355C10.6404 8.01 9.57487 9.80253 8.89776 11.7515C8.74808 12.1855 9.43589 12.3704 9.58556 11.94C10.2306 10.0871 11.2356 8.3621 12.5399 6.89323C13.1743 6.17835 13.8585 5.51327 14.6033 4.90864C15.3838 4.27557 16.2355 3.7563 17.0695 3.19792C17.1657 3.1339 17.1087 2.96674 16.9875 3.00586L16.9839 3.00942Z" fill="#1D1D1B" stroke="black" stroke-width="0.358507"/>
</g>
<rect x="1" y="1" width="58" height="58" rx="11" stroke="white" stroke-width="2"/>
<defs>
<clipPath id="clip0_995_26660">
<rect width="60" height="60" rx="12" fill="white"/>
</clipPath>
</defs>
</svg>
