<svg width="588" height="608" viewBox="0 0 588 608" fill="none" xmlns="http://www.w3.org/2000/svg">
<path d="M63.0323 438.95C63.0323 438.95 54.3048 499.537 94.7231 548.096C66.2473 552.996 87.8301 565.47 104.363 557.451C104.363 571.707 123.653 573.043 126.868 560.124C147.997 557.451 190.25 571.707 187.952 552.105C202.646 561.906 228.366 536.958 198.973 527.157C189.328 527.157 185.654 538.295 185.654 538.295C185.654 538.295 172.394 498.82 110.366 442.158C102.293 434.78 86.619 416.676 80.9416 412.666C43.0079 385.897 63.0323 438.95 63.0323 438.95Z" fill="white" stroke="#256E31" stroke-width="2" stroke-miterlimit="10"/>
<path d="M103.931 557.005C103.931 557.005 111.616 545.868 84.9395 497.755C91.7924 511.94 102.118 549.432 102.118 549.432C103.243 551.803 103.86 554.382 103.931 557.005Z" fill="#C1DDE5"/>
<path d="M86.748 424.694C85.6214 431.346 78.6082 442.96 63.6868 438.505L60.3115 427.314L84.9401 417.121C84.9401 417.121 87.6519 419.349 86.748 424.694Z" fill="#C1DDE5"/>
<path d="M133.694 512.193C133.694 512.193 125.635 522.257 132.416 534.285C135.128 538.295 140.552 541.859 140.552 541.859L145.45 544.264L156.381 544.086C156.381 544.086 133.614 531.978 133.694 512.193Z" fill="#C1DDE5"/>
<path d="M211.863 536.958C211.863 536.958 197.975 552.55 185.77 540.077C187.105 549.877 188.027 552.105 188.027 552.105C188.027 552.105 211.738 560.988 211.863 536.958Z" fill="#C1DDE5"/>
<path d="M77.2676 480.381C77.2676 480.381 111.256 544.086 104.363 557.451" stroke="#256E31" stroke-width="2" stroke-miterlimit="10"/>
<path d="M99.3135 484.836C99.3135 484.836 133.297 548.541 126.409 561.906" stroke="#256E31" stroke-width="2" stroke-miterlimit="10"/>
<path d="M152.588 506.665C152.588 506.665 105.744 503.546 156.261 544.086C139.728 544.086 125.71 544.946 126.521 550.087" stroke="#256E31" stroke-width="2" stroke-miterlimit="10"/>
<path d="M63.0944 438.919C63.0944 438.919 54.3714 499.506 94.7852 548.064C66.2871 552.965 87.8967 565.438 104.43 557.42C104.43 571.675 123.72 573.012 126.935 560.093C148.059 557.42 190.312 571.675 188.014 552.074C202.708 561.875 228.428 536.927 199.039 527.126C189.395 527.126 185.721 538.263 185.721 538.263C185.721 538.263 172.46 498.789 110.428 442.126C102.36 434.749 86.6811 416.64 81.0082 412.635C43.0745 385.865 63.0944 438.919 63.0944 438.919Z" stroke="#256E31" stroke-width="2" stroke-miterlimit="10"/>
<path d="M63.2591 379.477C63.2591 379.477 45.3498 303.744 63.2591 303.744C79.592 303.744 74.9255 364.843 73.9726 375.633C73.9655 375.683 73.978 375.734 74.0074 375.776C74.0368 375.818 74.0809 375.847 74.1309 375.857C74.1808 375.867 74.2327 375.858 74.2761 375.831C74.3195 375.804 74.3511 375.762 74.3644 375.713C78.1894 364.976 101.527 301.761 117.913 309.09C135.827 317.108 86.6854 382.596 86.6854 382.596V394.178C86.6854 394.178 107.293 391.087 108.268 405.316C108.958 415.339 97.016 420.685 84.1562 416.23C85.0779 424.695 79.0265 431.377 67.1642 430.04C53.1556 428.481 54.7631 414.003 54.7631 414.003C52.3654 414.541 49.9175 414.823 47.4604 414.845C41.6317 414.894 34.2667 413.268 33.1802 405.093C31.4748 392.272 48.5647 394.178 48.5647 394.178L63.2591 379.477Z" fill="white" stroke="#256E31" stroke-width="2" stroke-miterlimit="10"/>
<path d="M62.3325 303.966C62.3325 303.966 74.9919 376.136 69.1275 377.918C69.1275 377.918 63.8108 386.774 60.3643 365.64C56.9178 344.506 50.1228 306.194 62.3325 303.966Z" fill="#C1DDE5"/>
<path d="M63.3397 379.446C63.3397 379.446 45.426 303.712 63.3397 303.712C79.6682 303.712 75.0016 364.812 74.0532 375.601C74.0511 375.649 74.0661 375.696 74.0953 375.733C74.1245 375.771 74.1662 375.797 74.2128 375.806C74.2594 375.816 74.3079 375.809 74.3496 375.786C74.3914 375.763 74.4236 375.726 74.4406 375.682C78.2656 364.945 101.603 301.73 117.989 309.058C135.903 317.077 86.7616 382.564 86.7616 382.564V394.147C86.7616 394.147 107.369 391.055 108.349 405.284C109.035 415.308 97.0966 420.654 84.2368 416.199C85.1541 424.663 79.1072 431.346 67.2448 430.009C53.2362 428.45 54.8437 413.971 54.8437 413.971C52.4446 414.51 49.9952 414.792 47.5366 414.813C41.7078 414.854 34.3473 413.236 33.2564 405.062C31.5509 392.24 48.6409 394.147 48.6409 394.147L63.3397 379.446Z" stroke="#256E31" stroke-width="2" stroke-miterlimit="10"/>
<path d="M76.5238 395.564C76.4748 401.974 81.4664 407.209 87.6559 407.258C93.8453 407.307 98.9616 402.153 99.0106 395.737L76.5238 395.564Z" fill="white" stroke="#256E31" stroke-width="2" stroke-miterlimit="10"/>
<path d="M97.8757 395.501C97.8445 399.386 94.7899 402.513 91.054 402.487C87.3181 402.46 84.3079 399.279 84.3391 395.395L97.8757 395.501Z" fill="#256E31" stroke="#256E31" stroke-width="2" stroke-miterlimit="10"/>
<path d="M99.1711 395.68C99.2104 394.167 98.9482 392.662 98.3996 391.253C97.8511 389.843 97.0273 388.557 95.9764 387.469C94.9254 386.382 93.6684 385.514 92.2787 384.918C90.8891 384.322 89.3946 384.009 87.8826 383.997C86.3706 383.985 84.8714 384.275 83.4726 384.849C82.0738 385.424 80.8034 386.271 79.7355 387.342C78.6677 388.413 77.8239 389.686 77.2534 391.087C76.6829 392.488 76.3971 393.989 76.4127 395.501L99.1711 395.68Z" fill="#C1DDE5" stroke="#256E31" stroke-width="2" stroke-miterlimit="10"/>
<path d="M63.6864 395.916C63.6943 397.428 63.4002 398.926 62.8212 400.322C62.2422 401.719 61.39 402.986 60.3148 404.048C59.2395 405.111 57.9629 405.948 56.5598 406.509C55.1568 407.071 53.6557 407.347 52.1446 407.32C49.0609 407.234 46.133 405.945 43.9864 403.728C41.8398 401.512 40.6447 398.543 40.6563 395.457L63.6864 395.916Z" fill="white" stroke="#256E31" stroke-width="2" stroke-miterlimit="10"/>
<path d="M49.0326 395.359C49.0143 397.225 49.7283 399.024 51.0213 400.369C52.3144 401.715 54.0832 402.499 55.9478 402.554C56.8615 402.565 57.7683 402.395 58.615 402.051C59.4616 401.707 60.2312 401.198 60.8783 400.553C61.5254 399.907 62.0371 399.139 62.3833 398.293C62.7295 397.447 62.9032 396.54 62.8942 395.626L49.0326 395.359Z" fill="#256E31" stroke="#256E31" stroke-width="2" stroke-miterlimit="10"/>
<path d="M40.4961 395.403C40.4997 393.886 40.8068 392.384 41.3992 390.986C41.9917 389.589 42.8575 388.324 43.9458 387.266C45.0341 386.209 46.3229 385.379 47.7363 384.827C49.1497 384.275 50.6592 384.012 52.1759 384.052C55.2677 384.116 58.2122 385.387 60.381 387.592C62.5498 389.798 63.7711 392.764 63.7844 395.858L40.4961 395.403Z" fill="#C1DDE5" stroke="#256E31" stroke-width="2" stroke-miterlimit="10"/>
<path d="M98.5167 405.293C97.7491 406.703 96.6074 407.873 95.2175 408.675C93.8277 409.476 92.2435 409.879 90.6397 409.837C89.7803 409.811 89.7803 411.147 90.6397 411.174C92.4776 411.22 94.2928 410.76 95.8876 409.845C97.4823 408.93 98.7953 407.594 99.6834 405.984C100.089 405.227 98.9353 404.549 98.5301 405.311L98.5167 405.293Z" fill="#256E31"/>
<path d="M38.0646 404.251C38.7106 405.53 39.6735 406.623 40.8616 407.424C42.0496 408.225 43.423 408.707 44.8507 408.826C45.0279 408.826 45.1978 408.756 45.323 408.63C45.4483 408.505 45.5187 408.335 45.5187 408.158C45.5142 407.982 45.4423 407.815 45.318 407.69C45.1937 407.566 45.0265 407.494 44.8507 407.49C43.6558 407.372 42.5107 406.951 41.5247 406.266C40.5386 405.58 39.7445 404.653 39.2179 403.574C39.1282 403.421 38.9813 403.31 38.8097 403.265C38.6381 403.22 38.4558 403.246 38.3029 403.335C38.1499 403.425 38.0389 403.572 37.9942 403.744C37.9495 403.916 37.9749 404.098 38.0646 404.251Z" fill="#256E31"/>
<path d="M64.1407 421.808C63.1967 418.582 65.8594 414.827 69.2169 414.68C72.5743 414.533 75.5978 417.981 74.9788 421.282" fill="white"/>
<path d="M64.7864 421.629C64.0249 418.881 66.1222 415.66 69.0032 415.343C72.0133 415.009 74.8408 418.128 74.3466 421.086C74.1996 421.928 75.4865 422.289 75.6334 421.442C76.15 418.426 74.2575 415.437 71.4344 414.35C68.6113 413.263 65.5834 414.769 64.1541 417.295C63.3251 418.711 63.0913 420.398 63.5039 421.986C63.5627 422.143 63.6783 422.273 63.828 422.35C63.9777 422.426 64.1507 422.444 64.3127 422.399C64.4747 422.354 64.6142 422.251 64.7035 422.108C64.7928 421.966 64.8256 421.795 64.7953 421.629H64.7864Z" fill="#256E31"/>
<path d="M67.7426 421.34C67.7338 421.2 67.7338 421.061 67.7426 420.921C67.7426 420.854 67.7426 420.792 67.7426 420.725V420.632C67.7426 420.694 67.7426 420.698 67.7426 420.632C67.764 420.507 67.7922 420.383 67.8273 420.262C67.8273 420.199 67.8629 420.137 67.8851 420.079C67.9074 420.021 67.9608 419.883 67.9119 420.003C67.9596 419.889 68.0146 419.777 68.0766 419.669L68.1746 419.513C68.1746 419.513 68.3037 419.335 68.2636 419.384C68.2236 419.433 68.3349 419.308 68.3482 419.295C68.3923 419.243 68.4399 419.194 68.4907 419.148L68.6243 419.032C68.5308 419.108 68.6243 419.032 68.6733 419.006L68.8202 418.916C68.8202 418.916 69.0072 418.827 68.8737 418.885C68.9806 418.842 69.0908 418.808 69.2032 418.783L69.3189 418.761C69.2432 418.761 69.2343 418.761 69.2833 418.761H69.4525H69.6262C69.7999 418.761 69.5728 418.761 69.7019 418.761C69.831 418.761 69.9245 418.814 70.0359 418.85C70.1472 418.885 69.929 418.792 70.0937 418.872C70.1471 418.897 70.1991 418.926 70.2496 418.957L70.401 419.05C70.5301 419.13 70.3565 419.001 70.4589 419.095C70.5679 419.19 70.6705 419.293 70.7661 419.402C70.8914 419.527 71.0611 419.597 71.2381 419.597C71.4151 419.597 71.5849 419.527 71.7101 419.402C71.83 419.274 71.8967 419.105 71.8967 418.93C71.8967 418.754 71.83 418.586 71.7101 418.458C71.2728 417.936 70.6663 417.585 69.9965 417.465C69.3267 417.345 68.6362 417.465 68.0454 417.803C67.4781 418.19 67.0253 418.722 66.7346 419.345C66.444 419.967 66.3261 420.656 66.3934 421.34C66.3934 421.517 66.4638 421.687 66.5891 421.812C66.7143 421.938 66.8842 422.008 67.0614 422.008C67.2385 422.008 67.4084 421.938 67.5337 421.812C67.6589 421.687 67.7293 421.517 67.7293 421.34H67.7426Z" fill="#256E31"/>
<path d="M64.639 406.046H75.6197C75.9162 406.045 76.2058 406.136 76.448 406.307C76.6903 406.478 76.8732 406.72 76.9712 407C77.0692 407.28 77.0775 407.584 76.9949 407.869C76.9122 408.154 76.7428 408.406 76.5102 408.59L70.9754 412.341C70.691 412.567 70.3314 412.675 69.9698 412.644C69.6082 412.614 69.2719 412.446 69.0295 412.176L63.5881 408.421C63.4058 408.216 63.2863 407.963 63.2438 407.693C63.2013 407.422 63.2377 407.145 63.3486 406.895C63.4594 406.644 63.6401 406.431 63.869 406.28C64.0978 406.13 64.3652 406.049 64.639 406.046Z" fill="#256E31" stroke="#256E31" stroke-width="2" stroke-miterlimit="10"/>
<path d="M295.577 590.834C375.195 590.834 439.738 584.168 439.738 575.946C439.738 567.723 375.195 561.058 295.577 561.058C215.959 561.058 151.416 567.723 151.416 575.946C151.416 584.168 215.959 590.834 295.577 590.834Z" fill="black" fill-opacity="0.15"/>
<path d="M272.549 105.07C270.593 104.38 269.23 102.492 268.669 100.483C268.204 98.4445 268.129 96.3355 268.448 94.2685C269.463 84.803 272.474 75.6631 277.281 67.4573L276.782 66.488C271.15 70.2644 264.585 72.4003 257.817 72.6586C255.262 72.7473 252.247 72.2975 251.042 70.0358C249.584 67.2926 251.805 64.0805 254 61.8885C261.318 54.5861 269.875 48.654 279.268 44.3713L279.066 42.8824C278.776 36.5382 279.509 30.1885 281.236 24.0791C282.019 21.3042 283.363 18.2379 286.113 17.408C288.429 16.7048 290.978 17.9592 292.517 19.8344C294.056 21.7097 294.807 24.0918 295.52 26.4105L301.198 44.783L301.514 44.5993L324.39 44.2636L316.964 65.2082L328.63 79.0636C331.311 82.2313 334.081 86.6977 331.658 90.0618C330.011 92.3552 326.51 92.843 323.753 91.9624C320.996 91.0818 318.794 89.0735 316.712 87.1285L272.549 105.07Z" fill="#FF8000"/>
<path d="M272.77 104.158C270.316 103.22 269.319 100.42 269.2 98C269.158 95.0516 269.463 92.1085 270.108 89.2318C271.17 83.5816 272.958 78.0937 275.427 72.9056C276.133 71.4232 276.897 69.9703 277.717 68.5469C278.051 67.9577 278.348 67.5586 278.026 66.8934C277.881 66.5956 277.723 66.2979 277.572 66.0064C277.444 65.7986 277.243 65.6474 277.008 65.5838C276.774 65.5202 276.524 65.549 276.31 65.6643C272.582 68.1552 268.428 69.9335 264.058 70.91C261.937 71.3866 259.776 71.656 257.604 71.7146C255.982 71.7526 254.064 71.6322 252.727 70.5932C251.074 69.3262 251.396 67.1975 252.31 65.5693C253.339 63.7257 254.922 62.2749 256.436 60.8494C259.631 57.8433 263.052 55.0898 266.67 52.6135C270.81 49.7766 275.185 47.3031 279.748 45.2201C279.925 45.1098 280.062 44.9462 280.14 44.7527C280.218 44.5592 280.234 44.3458 280.184 44.1431C279.806 40.726 279.842 37.2756 280.291 33.8672C280.534 31.6513 280.905 29.4514 281.401 27.2784C281.76 25.427 282.303 23.6165 283.023 21.8744C283.653 20.5059 284.556 19.0805 285.994 18.4723C287.578 17.8387 289.363 18.3772 290.669 19.3719C292.196 20.5439 293.111 22.3432 293.761 24.1171C294.492 26.0937 295.054 28.14 295.653 30.1547L300.24 45.0681C300.28 45.2069 300.351 45.3349 300.448 45.4423C300.544 45.5498 300.664 45.634 300.797 45.6888C300.93 45.7436 301.074 45.7675 301.218 45.7588C301.362 45.75 301.502 45.7088 301.628 45.6383C301.693 45.5855 301.765 45.5428 301.842 45.5116C301.912 45.4672 301.918 45.4609 301.842 45.5116C301.773 45.5559 301.786 45.6256 302.101 45.5559C302.568 45.5876 303.047 45.5559 303.514 45.5559L306.486 45.5116L312.442 45.4229L324.353 45.2518L323.438 44.0481L317.558 60.7481L316.296 64.2705C316.204 64.4941 316.124 64.7225 316.057 64.9548C316.014 65.1208 316.013 65.2946 316.053 65.4612C316.092 65.6278 316.172 65.7823 316.284 65.9114C316.915 66.7477 317.634 67.5142 318.296 68.3062L325.741 77.1757C327.899 79.7098 330.567 82.3897 331.419 85.7411C331.653 86.4717 331.691 87.2515 331.528 88.0014C331.365 88.7514 331.007 89.4447 330.492 90.0111C329.389 91.013 327.939 91.5407 326.454 91.4809C322.782 91.4809 319.886 88.8517 317.331 86.5203C317.213 86.4004 317.066 86.3142 316.904 86.2708C316.742 86.2274 316.571 86.2282 316.41 86.2732L301.533 92.2411L277.755 101.903L272.266 104.133C271.155 104.582 271.635 106.426 272.77 105.964L287.691 99.9323L311.47 90.2708L316.952 88.0471L316.019 87.8064C318.385 89.9667 320.94 92.2411 324.132 93.0394C326.719 93.6729 329.81 93.2991 331.779 91.3732C334.113 89.1115 333.766 85.8044 332.479 83.0992C330.977 79.9315 328.41 77.3404 326.17 74.6985L317.621 64.562L317.861 65.4869L324.315 47.1524L325.236 44.5486C325.273 44.4074 325.276 44.2598 325.248 44.1169C325.219 43.9739 325.158 43.8395 325.07 43.7235C324.982 43.6076 324.869 43.5133 324.739 43.4477C324.609 43.3821 324.467 43.347 324.321 43.3449L311.943 43.5223L305.83 43.6173L302.675 43.6616C301.976 43.5806 301.268 43.6968 300.631 43.9974L302.019 44.5613L297.483 29.7999C296.253 25.8086 295.363 20.7847 291.937 18.0288C291.193 17.384 290.322 16.9026 289.381 16.6157C288.44 16.3288 287.45 16.2426 286.474 16.3626C285.624 16.5323 284.817 16.8709 284.1 17.3583C283.383 17.8457 282.77 18.4721 282.297 19.2008C281.313 20.7136 280.596 22.3852 280.177 24.1424C279.536 26.4688 279.034 28.832 278.676 31.219C277.921 35.6557 277.791 40.177 278.291 44.65L278.726 43.5793C269.895 47.6195 261.793 53.1045 254.752 59.8105C252.001 62.427 247.616 66.9314 250.449 70.986C252.929 74.5211 258.455 73.7672 262.096 73.2161C267.51 72.3863 272.678 70.3775 277.237 67.3305L275.944 66.9884L276.436 67.9577V67.0011C273.556 71.9402 271.299 77.2201 269.717 82.7191C268.947 85.4244 268.344 88.175 267.912 90.9551C267.465 93.8313 267.004 96.8406 267.502 99.7359C267.982 102.485 269.616 104.988 272.272 106.002C273.408 106.426 273.9 104.589 272.77 104.158Z" fill="#CF6800"/>
<path d="M322.485 53.3675C322.542 56.5352 322.05 64.1376 319.047 65.4047C316.044 66.6717 306.82 63.6054 303.508 63.1176C302.676 63.0673 301.871 62.8057 301.167 62.3574C300.013 61.4641 299.905 59.6902 300.536 58.3851C301.167 57.08 302.366 56.136 303.521 55.2174C307.136 52.4045 312.631 46.0502 316.978 44.7388C321.161 43.535 322.485 49.5283 322.485 53.3675Z" fill="#BA5D00"/>
<path d="M328.163 53.3675C328.22 56.5352 327.728 64.1376 324.725 65.4047C321.722 66.6717 312.498 63.6054 309.186 63.1176C308.354 63.0673 307.549 62.8057 306.845 62.3574C305.69 61.4641 305.583 59.6902 306.214 58.3851C306.845 57.08 308.044 56.136 309.198 55.2174C312.813 52.4045 318.309 46.0502 322.655 44.7388C326.838 43.535 328.163 49.5283 328.163 53.3675Z" fill="#FF8000"/>
<path d="M327.217 53.3673C327.257 55.2761 327.124 57.1846 326.819 59.0692C326.542 60.7354 326.188 62.9907 324.857 64.1945C323.816 65.1448 321.829 64.79 320.529 64.6063C318.343 64.2662 316.176 63.8116 314.037 63.2442C313.066 63.0097 312.094 62.7627 311.123 62.5409C310.151 62.3192 309.331 62.2432 308.448 62.0341C308.169 61.9935 307.903 61.8937 307.667 61.7412C307.43 61.5887 307.229 61.3871 307.077 61.1501C306.924 60.913 306.824 60.6459 306.783 60.3667C306.742 60.0876 306.761 59.8028 306.839 59.5316C307.104 58.1505 308.334 57.1495 309.362 56.3196C313.23 53.2343 316.51 49.2684 320.769 46.6962C321.646 46.164 322.756 45.4988 323.823 45.5495C324.228 45.5988 324.616 45.7462 324.952 45.979C325.288 46.2119 325.563 46.5232 325.753 46.8863C326.92 48.7552 327.198 51.1943 327.204 53.3483C327.204 53.6004 327.304 53.8421 327.481 54.0203C327.659 54.1985 327.9 54.2986 328.151 54.2986C328.402 54.2986 328.642 54.1985 328.82 54.0203C328.997 53.8421 329.097 53.6004 329.097 53.3483C329.097 49.6295 327.722 42.2931 322.409 43.8453C319.835 44.6055 317.602 46.4935 315.615 48.223C313.444 50.1236 311.432 52.1573 309.236 54.0009C307.041 55.8445 304.252 57.8021 304.99 61.0838C305.621 63.9537 308.776 63.9347 311.072 64.4795C313.369 65.0244 315.81 65.6706 318.208 66.1267C320.208 66.5132 322.624 67.039 324.611 66.4498C326.92 65.772 327.854 63.0984 328.346 60.9824C328.908 58.4763 329.16 55.9101 329.097 53.342C329.067 53.1107 328.954 52.8985 328.779 52.7457C328.603 52.5928 328.378 52.5101 328.146 52.5132C327.913 52.5164 327.691 52.6051 327.519 52.7626C327.348 52.9201 327.24 53.1353 327.217 53.3673Z" fill="#CF6800"/>
<path d="M367.147 394.843C354.44 413.444 350.087 436.884 355.368 458.425C360.648 479.965 375.487 499.269 395.543 510.691L394.698 510.26C398.345 512.091 402.622 516.532 402.603 520.03C402.603 525.928 401.373 529.697 399.064 535.114C392.458 550.59 383.903 565.152 373.607 578.442C370.907 581.92 367.998 585.41 364.143 587.533C360.289 589.655 355.311 590.251 351.601 587.9C345.261 583.884 345.923 574.552 347.343 567.158C349.538 555.755 352.339 541.183 354.541 529.78L364.061 536.153C341.584 522.775 324.651 501.721 316.359 476.839C308.067 451.956 308.97 424.909 318.901 400.64L332.781 371.187L367.147 394.843Z" fill="#FF8000"/>
<path d="M366.333 394.361C355.877 409.745 351 428.268 352.516 446.831C354.005 464.063 361.349 480.313 372.705 493.263C379.102 500.549 386.657 506.721 395.064 511.527L396.023 509.886L395.178 509.456C394.092 508.905 393.133 510.539 394.219 511.097C396.443 512.254 398.382 513.895 399.897 515.899C400.645 516.777 401.184 517.815 401.472 518.933C401.761 520.052 401.792 521.222 401.562 522.354C401.209 527.733 399.146 532.649 396.976 537.521C392.255 548.117 386.609 558.272 380.105 567.868C376.869 572.638 373.512 577.491 369.632 581.761C366.131 585.619 361.431 589.009 355.98 588.432C345.387 587.311 347.027 573.772 348.447 566.423C350.785 554.31 353.12 542.193 355.45 530.071L354.062 530.641L363.582 536.976L364.541 535.336C344.837 523.608 329.365 505.883 320.369 484.73C311.374 463.577 309.321 440.097 314.511 417.694C315.829 411.91 317.463 405.911 319.999 400.532L323.924 392.214L333.387 372.093L333.589 371.668L332.296 372.01L343.866 379.974L362.346 392.689L366.623 395.628C367.626 396.325 368.579 394.678 367.576 393.988L356.005 386.024L337.526 373.315L333.248 370.369C333.035 370.252 332.784 370.223 332.549 370.287C332.314 370.35 332.113 370.502 331.987 370.711L323.482 388.736L318.801 398.657C316.784 403.074 315.146 407.657 313.905 412.354C309.504 428.357 308.691 445.141 311.526 461.497C314.169 476.543 319.934 490.863 328.447 503.526C336.557 515.628 346.948 526.019 359.033 534.113C360.529 535.108 362.043 536.058 363.582 536.976C364.642 537.61 365.544 536.014 364.541 535.336L355.014 528.969C354.889 528.895 354.749 528.852 354.604 528.842C354.46 528.832 354.315 528.856 354.181 528.911C354.047 528.966 353.927 529.051 353.831 529.16C353.735 529.269 353.665 529.398 353.626 529.539C351.376 541.196 349.128 552.857 346.882 564.523C345.349 572.48 343.015 585.29 352.453 589.402C357.456 591.581 363.134 589.782 367.241 586.576C371.916 582.939 375.443 577.706 378.837 572.961C386.084 562.854 392.36 552.08 397.581 540.784C400.244 535.013 402.957 529.133 403.449 522.709C403.636 521.323 403.604 519.917 403.354 518.541C402.992 517.233 402.379 516.008 401.55 514.936C399.867 512.646 397.688 510.77 395.178 509.449L394.219 511.09L395.064 511.521C396.143 512.072 397.089 510.495 396.023 509.88C381.464 501.578 369.674 489.137 362.137 474.123C354.355 458.337 352.183 440.353 355.98 423.156C358.17 413.193 362.239 403.744 367.967 395.318C368.655 394.311 367.014 393.354 366.333 394.361Z" fill="#CF6800"/>
<path d="M280.045 390.332C267.061 444.544 254.304 481.821 241.32 536.045L237.25 551.485C236.142 555.69 233.804 559.466 230.538 562.324C209.806 580.387 185.643 586.64 157.315 584.872C151.315 584.498 144.193 582.724 142.294 576.997C140.243 570.82 145.782 564.865 151.088 561.108C163.492 552.343 177.52 546.165 192.343 542.938L193.914 542.064L237.093 398.315" fill="#FF8000"/>
<path d="M279.136 390.079C275.01 407.279 270.499 424.378 265.786 441.395C261.414 457.234 256.884 472.99 252.537 488.822C250.262 497.125 248.041 505.446 245.875 513.783C243.951 521.246 242.247 528.772 240.285 536.229L237.219 547.918C236.929 549.014 236.645 550.116 236.348 551.219C235.362 554.973 233.357 558.379 230.557 561.057C225.15 566.202 218.626 570.472 212.033 573.905C205.587 577.241 198.758 579.771 191.7 581.438C184.454 583.124 177.054 584.05 169.618 584.2C165.681 584.295 161.732 584.2 157.795 583.985C154.609 583.795 151.316 583.351 148.388 581.996C145.461 580.64 143.12 578.34 142.824 575.027C142.483 571.27 144.937 567.887 147.454 565.378C150.325 562.514 153.82 560.31 157.246 558.168C160.827 555.952 164.528 553.936 168.331 552.131C172.162 550.308 176.095 548.709 180.11 547.341C184.11 545.973 188.166 544.991 192.255 543.939C193.006 543.749 194.28 543.223 194.722 542.558C194.972 542.01 195.154 541.434 195.264 540.841L195.712 539.346L196.829 535.627L200.967 521.841L217.472 466.914L233.97 411.98L238.001 398.568C238.348 397.396 236.525 396.896 236.172 398.068L219.283 454.3L202.519 510.159L193.012 541.836L193.447 541.266C192.916 541.603 192.354 541.889 191.769 542.121C190.267 542.596 188.659 542.843 187.132 543.249C183.998 544.093 180.905 545.058 177.851 546.144C171.888 548.292 166.111 550.928 160.577 554.025C157.742 555.613 154.985 557.322 152.306 559.15C149.831 560.748 147.542 562.618 145.48 564.726C141.877 568.584 139.265 574.165 142.256 579.189C144.735 583.345 149.827 584.891 154.363 585.524C160.041 586.304 165.946 586.234 171.668 586C182.823 585.531 193.946 583.529 204.368 579.436C209.529 577.411 214.492 574.911 219.194 571.967C221.596 570.451 223.926 568.829 226.185 567.101C228.532 565.415 230.737 563.538 232.778 561.488C235.545 558.437 237.499 554.732 238.456 550.718L240.872 541.418C243.396 531.915 245.604 522.412 248.064 512.909C251.294 500.422 254.708 487.992 258.159 475.574C261.566 463.493 264.979 451.456 268.335 439.317C271.862 426.513 275.275 413.678 278.467 400.786C279.309 397.407 280.139 394.007 280.959 390.586C281.243 389.395 279.42 388.888 279.136 390.079Z" fill="#CF6800"/>
<path d="M353.217 434.198C353.469 426.267 361.671 405.36 366.806 396.82L332.485 373.214L318.606 402.674C313.648 414.873 310.923 427.87 310.562 441.041C310.562 441.041 321.426 430.727 353.217 434.198Z" fill="#BA5D00"/>
<path d="M224.45 444.322C224.45 444.322 239.592 437.987 264.828 451.291C267.982 437.353 279.654 392.056 279.654 392.056L237.068 400.608L224.45 444.322Z" fill="#BA5D00"/>
<path d="M144.54 567.494C144.54 567.494 146.666 589.275 208.829 575.629C185.82 586.057 180.539 583.916 156.464 583.865C134.786 583.821 144.54 567.494 144.54 567.494Z" fill="#BA5D00"/>
<path d="M364.03 536.35L347.627 567.393L355.198 530.014L364.03 536.35Z" fill="#BA5D00"/>
<path d="M366.282 394.634C355.827 410.018 350.949 428.541 352.465 447.103C353.954 464.336 361.298 480.586 372.654 493.535C379.049 500.825 386.605 506.997 395.013 511.8L395.966 510.159L395.121 509.728C394.036 509.177 393.077 510.812 394.168 511.369C396.392 512.527 398.332 514.167 399.846 516.171C400.468 516.969 400.963 517.858 401.316 518.807C401.628 520.049 401.695 521.34 401.512 522.608C401.158 527.987 399.095 532.903 396.925 537.775C392.204 548.37 386.559 558.525 380.055 568.121C376.818 572.892 373.468 577.745 369.582 582.015C366.087 585.873 361.38 589.262 355.935 588.686C345.336 587.565 346.983 574.026 348.365 566.677C350.707 554.564 353.044 542.446 355.374 530.325L353.98 530.895L363.506 537.262L364.459 535.621C352.069 528.196 341.276 518.367 332.712 506.706C323.923 494.787 317.675 481.177 314.359 466.724C310.748 450.676 310.772 434.018 314.428 417.98C315.753 412.196 317.381 406.196 319.917 400.817L323.898 392.537L333.393 372.416L333.589 371.991L332.327 372.334L343.841 380.278L362.32 392.993L366.598 395.933C367.607 396.63 368.553 394.982 367.55 394.292L356.005 386.328L337.532 373.62L333.254 370.674C333.038 370.547 332.78 370.512 332.537 370.576C332.295 370.64 332.088 370.798 331.961 371.016L323.457 389.04L318.775 398.961C316.758 403.379 315.121 407.961 313.88 412.658C309.478 428.661 308.666 445.445 311.501 461.801C314.147 476.848 319.914 491.167 328.428 503.83C336.524 515.942 346.904 526.345 358.983 534.449C360.472 535.444 361.992 536.394 363.531 537.313C364.585 537.946 365.487 536.35 364.484 535.672L354.964 529.336C354.838 529.263 354.697 529.22 354.552 529.21C354.407 529.2 354.262 529.223 354.128 529.278C353.993 529.333 353.873 529.419 353.776 529.528C353.679 529.636 353.609 529.766 353.57 529.906C351.315 541.564 349.069 553.225 346.832 564.89C345.298 572.847 342.958 585.658 352.402 589.769C357.399 591.949 363.077 590.149 367.184 586.944C371.859 583.307 375.386 578.074 378.78 573.329C386.024 563.215 392.294 552.432 397.506 541.126C400.168 535.355 402.881 529.482 403.373 523.052C403.562 521.666 403.532 520.259 403.285 518.883C402.922 517.574 402.307 516.349 401.474 515.278C399.791 512.989 397.612 511.113 395.102 509.792L394.149 511.433L394.995 511.863C396.073 512.415 397.013 510.837 395.947 510.223C381.38 501.923 369.585 489.479 362.049 474.459C354.265 458.674 352.09 440.69 355.885 423.492C358.075 413.529 362.144 404.08 367.872 395.654C368.61 394.583 366.97 393.627 366.282 394.634Z" fill="#CF6800"/>
<path d="M279.325 389.965C275.205 407.159 270.694 424.258 265.981 441.281C261.603 457.12 257.079 472.882 252.733 488.708C250.449 497.028 248.222 505.357 246.051 513.694C244.121 521.157 242.424 528.684 240.455 536.134L237.383 547.797C237.093 548.9 236.809 550.002 236.512 551.105C235.518 554.844 233.519 558.237 230.733 560.912C225.326 566.056 218.803 570.326 212.21 573.76C205.764 577.097 198.935 579.627 191.876 581.292C184.63 582.978 177.23 583.903 169.794 584.055C165.851 584.156 161.908 584.055 157.971 583.839C154.785 583.649 151.492 583.206 148.564 581.856C145.637 580.507 143.296 578.201 143 574.887C142.659 571.131 145.113 567.754 147.631 565.245C150.501 562.375 153.997 560.177 157.422 558.035C161.001 555.817 164.7 553.799 168.501 551.991C172.334 550.174 176.266 548.577 180.28 547.208C184.28 545.84 188.343 544.852 192.425 543.806C193.175 543.61 194.45 543.09 194.898 542.419C195.149 541.871 195.331 541.295 195.44 540.702L195.888 539.213L197.005 535.488L201.144 521.708L217.661 466.787L234.165 411.853L238.19 398.448C238.544 397.276 236.72 396.775 236.367 397.941L219.478 454.18L202.702 510.045L193.188 541.722L193.623 541.158C193.094 541.493 192.534 541.778 191.952 542.007C190.45 542.488 188.835 542.729 187.308 543.135C184.179 543.979 181.087 544.944 178.034 546.03C172.067 548.176 166.287 550.814 160.753 553.917C157.927 555.501 155.17 557.208 152.482 559.036C150.011 560.636 147.724 562.506 145.662 564.611C142.06 568.476 139.448 574.058 142.438 579.081C144.918 583.237 150.009 584.815 154.539 585.417C160.217 586.202 166.129 586.133 171.845 585.892C182.999 585.429 194.128 583.421 204.544 579.329C209.709 577.3 214.673 574.789 219.371 571.827C221.774 570.32 224.109 568.691 226.367 566.968C228.713 565.28 230.918 563.403 232.96 561.355C235.725 558.302 237.678 554.598 238.638 550.585L241.08 541.323C243.603 531.82 245.805 522.317 248.266 512.814C251.502 500.333 254.915 487.897 258.36 475.479C261.748 463.392 265.18 451.316 268.511 439.216C272.038 426.412 275.451 413.577 278.65 400.684C279.491 397.305 280.32 393.905 281.136 390.484C281.426 389.293 279.596 388.786 279.312 389.978L279.325 389.965Z" fill="#CF6800"/>
<path d="M174.558 335.937C174.558 335.937 173.183 313.662 158.672 261.079L236.273 233.203L232.488 204.061C232.488 204.061 156.742 228.198 133.436 250.942C126.528 257.683 158.186 314.714 158.186 314.714C158.186 314.714 160.224 322.234 152.824 335.69C152.824 335.69 144.307 350.635 138.042 361.443C137.012 363.017 136.243 364.748 135.764 366.569C135.392 368.4 135.695 370.49 137.026 371.517C140.42 374.146 144.174 369.787 146.004 366.797" fill="#39A84A"/>
<path d="M175.504 335.937C175.277 332.3 174.703 328.664 174.148 325.066C172.4 313.662 170.003 302.404 167.372 291.197C164.987 281.035 162.363 270.898 159.618 260.825L158.987 261.997L166.716 259.216L185.22 252.526L207.567 244.511L226.916 237.543C230.071 236.415 233.225 235.332 236.38 234.147L236.512 234.103C236.711 234.044 236.885 233.923 237.01 233.758C237.135 233.593 237.204 233.391 237.206 233.184L235.957 223.383L233.919 207.69L233.434 204.06C233.43 203.915 233.395 203.772 233.329 203.642C233.263 203.513 233.169 203.4 233.054 203.312C232.939 203.223 232.806 203.162 232.664 203.133C232.522 203.103 232.375 203.106 232.235 203.142C228.651 204.288 225.087 205.511 221.51 206.746C212.9 209.745 204.353 212.913 195.87 216.249C185.485 220.399 175.151 224.809 165.088 229.718C155.953 234.198 146.836 239.057 138.698 245.215C137.038 246.482 135.417 247.787 133.877 249.193C132.956 250.042 132.13 250.783 131.77 252.025C131.083 254.433 131.695 257.227 132.25 259.59C133.169 263.273 134.341 266.889 135.758 270.41C137.41 274.693 139.24 278.912 141.152 283.081C144.748 290.969 148.634 298.717 152.666 306.389C153.898 308.737 155.16 311.081 156.451 313.421C156.735 313.934 156.994 314.473 157.303 314.98C157.442 315.201 157.334 315.201 157.303 314.942C157.303 315.138 157.385 315.347 157.416 315.575C157.416 315.607 157.416 315.429 157.416 315.683L157.454 316.05C157.454 316.38 157.498 316.716 157.505 317.045C157.52 317.927 157.484 318.809 157.397 319.687C157.091 322.4 156.455 325.066 155.505 327.625C153.946 331.977 151.625 335.918 149.347 339.909C146.054 345.666 142.754 351.416 139.448 357.16C138.571 358.681 137.675 360.195 136.811 361.722C135.738 363.408 135.032 365.304 134.742 367.284C134.624 368.102 134.681 368.935 134.909 369.728C135.138 370.521 135.532 371.256 136.067 371.884C136.606 372.435 137.275 372.84 138.012 373.061C138.749 373.283 139.529 373.314 140.281 373.151C143.19 372.517 145.372 369.647 146.849 367.265C147.48 366.226 145.858 365.27 145.215 366.309C144.394 367.688 143.371 368.935 142.18 370.009C141.202 370.857 139.827 371.694 138.496 371.231C136.881 370.674 136.483 368.951 136.603 367.43C136.786 365.434 137.865 363.629 138.868 361.937C142.279 356.024 145.675 350.122 149.057 344.23C153.751 335.994 159.347 327.416 159.404 317.621C159.404 316.354 159.404 314.98 158.773 313.82C157.86 312.156 156.956 310.484 156.06 308.803C152.35 301.851 148.79 294.825 145.379 287.725C141.638 279.875 137.972 271.887 135.329 263.587C134.414 260.724 133.518 257.664 133.436 254.813C133.322 253.915 133.431 253.004 133.751 252.158C133.65 252.431 133.865 251.968 133.915 251.873C133.966 251.778 134.035 251.708 133.947 251.81C134.004 251.74 134.067 251.67 134.13 251.607C134.817 250.929 135.53 250.283 136.262 249.649C143.442 243.396 151.934 238.632 160.344 234.267C170.123 229.199 180.217 224.701 190.413 220.52C199.321 216.87 208.311 213.439 217.384 210.225C222.254 208.482 227.15 206.791 232.077 205.194L232.765 204.973L231.541 204.06L232.803 213.88L234.841 229.573L235.307 233.178L236.001 232.259L228.273 235.04L209.724 241.756L187.378 249.77L168.028 256.739C164.874 257.866 161.719 258.95 158.565 260.134L158.432 260.179C158.199 260.257 158.004 260.422 157.886 260.64C157.769 260.857 157.739 261.112 157.801 261.351C162.218 277.291 166.243 293.351 169.498 309.569C170.463 314.403 171.391 319.25 172.135 324.141C172.615 327.15 173 329.792 173.334 332.693C173.46 333.789 173.586 334.879 173.656 335.981C173.731 337.191 175.624 337.204 175.548 335.981L175.504 335.937Z" fill="#256E31"/>
<path d="M157.41 349.14C151.789 358.466 152.698 356.159 147.076 365.485C146.14 366.857 145.447 368.381 145.026 369.99C144.71 371.611 145.083 373.436 146.288 374.253C148.477 375.691 151.335 373.271 153.227 371.016C161.91 360.366 169.084 348.561 174.546 335.937" fill="#39A84A"/>
<path d="M156.59 348.658C154.622 351.928 152.546 355.121 150.445 358.307C149.265 360.094 148.136 361.906 147.026 363.737C145.568 366.131 143.688 368.805 144.016 371.751C144.3 374.323 146.395 376.243 149.032 375.438C151.669 374.633 153.492 372.226 155.139 370.161C163.347 359.861 170.157 348.512 175.391 336.412C175.877 335.304 174.243 334.334 173.757 335.456C169.191 346.012 163.426 356.003 156.577 365.232C154.995 367.537 153.236 369.714 151.316 371.745C150.016 373.012 146.944 375.153 146.054 372.283C145.24 369.654 147.316 366.93 148.609 364.82C149.669 363.071 150.748 361.329 151.865 359.619C154.035 356.312 156.199 353.017 158.249 349.628C158.88 348.576 157.246 347.619 156.609 348.665L156.59 348.658Z" fill="#256E31"/>
<path d="M451.548 353.651C461.188 359.511 471.075 365.612 477.68 374.798C484.286 383.985 486.797 397.067 480.69 406.564C474.015 416.947 460.072 419.45 447.769 419.602C406.25 420.102 364.755 404.22 334.106 376.103L348.674 388.141C331.892 406.063 311.45 417.226 288.372 425.456C278.7 428.902 267.962 431.36 258.297 427.895C248.632 424.43 241.263 412.95 245.534 403.567L259.552 397.175C233.434 410.354 205.016 418.315 175.876 420.616C163.258 421.604 149.056 420.901 140.318 411.746C131.7 402.693 131.593 387.944 136.792 376.56C141.99 365.175 151.454 356.419 160.804 348.139C170.154 339.859 179.844 331.452 185.718 320.403L175.876 334.176C161.043 326.333 157.151 309.905 158.356 298.983L158.987 295.955C168.211 261.11 197.39 226.133 224.758 205.258L225.067 203.313C222.001 204.884 218.821 206.481 215.396 206.664C211.97 206.848 208.197 205.087 206.935 201.843C205.32 197.592 208.418 193.113 211.32 189.648C223.131 175.551 232.941 160.746 244.758 146.65L251.837 136.975L282.309 97.1768C286.378 91.8677 290.845 86.2673 297.211 84.2526C306.283 81.3891 315.797 86.7868 323.311 92.6216C338.333 104.279 348.257 119.952 361.904 132.876C377.481 147.657 393.928 161.227 408.78 176.838C413.404 181.69 418.029 186.778 420.552 192.999C423.076 199.22 423.12 206.88 418.981 212.157C414.842 217.434 405.94 218.828 401.417 213.88C412.332 224.65 439.902 257.645 454.413 275.238C465.289 291.621 476.04 306.415 483.68 323.292C487.377 331.439 490.456 340.397 488.866 349.216C487.276 358.035 479.453 366.252 470.57 365.321" fill="#39A84A"/>
<path d="M451.095 354.474C463.713 362.134 477.826 370.864 482.091 385.999C484.021 392.841 483.687 400.456 479.624 406.469C475.839 412.069 469.58 415.192 463.22 416.821C456.672 418.493 449.871 418.721 443.145 418.607C435.452 418.475 427.777 417.794 420.18 416.567C405.306 414.149 390.824 409.734 377.121 403.44C361.653 396.352 347.368 386.904 334.775 375.432L333.431 376.775L348.005 388.812V387.469C332.807 403.624 313.64 414.863 293.066 422.712C282.215 426.862 269.553 431.259 258.096 426.805C253.527 424.966 249.736 421.592 247.37 417.258C246.223 415.211 245.51 412.949 245.276 410.612C245.111 408.926 245.273 407.224 245.755 405.601C245.821 405.186 245.91 404.776 246.02 404.372C246.424 403.877 247.862 403.535 248.424 403.282L253.156 401.122L260.007 397.992L259.054 396.351C236.554 407.664 212.328 415.116 187.378 418.398C179.857 419.38 172.198 420.197 164.609 419.862C157.669 419.551 150.539 418.176 144.729 414.16C139.013 410.232 135.593 404.023 134.565 397.206C132.269 381.913 141.114 368.463 151.416 358.092C163.404 345.979 178.255 336.172 186.551 320.802C186.667 320.585 186.694 320.331 186.628 320.095C186.561 319.858 186.405 319.656 186.194 319.532C185.982 319.408 185.731 319.372 185.493 319.43C185.255 319.489 185.048 319.637 184.917 319.845L175.063 333.618L176.324 333.276C167.75 328.651 162.085 320.498 159.978 311.027C159.055 307.175 158.805 303.192 159.24 299.255C159.77 295.245 161.17 291.298 162.52 287.51C170.571 264.867 185.081 244.588 201.535 227.324C206.015 222.623 210.702 218.131 215.598 213.849C217.958 211.783 220.368 209.777 222.828 207.83C223.667 207.158 225.169 206.442 225.617 205.429C225.792 204.797 225.894 204.146 225.92 203.49C225.962 203.309 225.952 203.12 225.89 202.945C225.829 202.77 225.718 202.617 225.571 202.504C225.424 202.39 225.248 202.322 225.064 202.307C224.879 202.292 224.694 202.331 224.532 202.42C219.926 204.776 211.592 208.406 208.128 202.191C204.898 196.401 212.633 189.559 215.831 185.574C224.437 174.842 232.33 163.565 240.897 152.814C243.213 149.906 245.572 147.074 247.768 144.077C249.383 141.873 250.973 139.643 252.613 137.457C261.073 126.142 269.792 115.017 278.385 103.797C282.171 98.8872 285.704 93.5338 290.341 89.3905C295.085 85.1521 300.972 83.4669 307.199 84.9557C313.426 86.4446 318.914 90.2268 323.817 94.1864C328.541 98.0727 332.97 102.308 337.065 106.857C345.381 115.942 352.945 125.698 361.91 134.175C371.702 143.425 381.866 152.256 391.727 161.417C396.667 166.01 401.525 170.679 406.237 175.526C410.654 180.087 415.234 184.75 418.275 190.395C421.076 195.577 422.382 201.925 420.338 207.621C419.486 210.109 417.862 212.257 415.705 213.75C413.547 215.243 410.97 216.001 408.351 215.914C405.978 215.851 403.725 214.857 402.074 213.145L400.736 214.488C407.083 220.76 412.912 227.577 418.755 234.312C426.401 243.122 433.953 252.021 441.41 261.009C444.775 265.047 448.14 269.093 451.505 273.147C455.959 278.539 459.631 284.64 463.492 290.456C471.813 302.924 480.28 315.854 485.435 330.033C488.135 337.464 489.851 346.194 486.412 353.682C483.573 359.853 477.618 364.915 470.545 364.307C469.334 364.199 469.34 366.1 470.545 366.207C476.476 366.721 481.901 363.54 485.428 358.934C489.403 353.79 490.696 347.36 490.027 340.955C489.245 333.409 486.242 326.301 482.955 319.535C479.494 312.501 475.633 305.673 471.391 299.084C467.075 292.28 462.52 285.634 458.034 278.951C454.781 274.285 451.292 269.789 447.58 265.482C439.812 256.139 431.982 246.847 424.092 237.606C416.95 229.3 409.853 220.836 402.055 213.133C401.875 212.965 401.638 212.873 401.393 212.878C401.148 212.882 400.914 212.982 400.74 213.156C400.567 213.33 400.468 213.565 400.463 213.811C400.459 214.057 400.55 214.296 400.717 214.476C404.048 217.941 409.203 218.562 413.6 216.965C418.647 215.141 421.884 210.725 422.855 205.524C425.379 192.093 414.729 181.45 406.181 172.738C395.884 162.266 384.85 152.567 374.005 142.702C368.674 137.869 363.279 133.06 358.289 127.871C353.652 123.057 349.337 117.944 344.964 112.882C336.428 102.992 327.299 92.6089 315.691 86.2735C310.183 83.2769 303.748 81.3319 297.521 83.0551C291.842 84.62 287.584 88.9343 284 93.3754C274.442 105.292 265.427 117.646 256.146 129.74C251.364 135.981 246.872 142.481 241.894 148.563C232.481 160.087 224.002 172.339 214.708 183.958C211.138 188.393 204.904 193.873 205.567 200.209C206.134 205.613 211.832 208.083 216.671 207.393C219.825 206.949 222.696 205.492 225.503 204.054L224.109 202.977C224.1 203.583 224.004 204.185 223.825 204.764C223.92 204.599 223.106 205.226 222.872 205.397C222.342 205.809 221.812 206.221 221.289 206.664C219.051 208.442 216.854 210.269 214.696 212.144C210.174 216.072 205.827 220.19 201.655 224.498C192.931 233.432 185.022 243.132 178.022 253.482C171.155 263.5 165.506 274.307 161.195 285.672C159.65 289.866 158.148 294.193 157.41 298.622C156.926 302.38 157.062 306.192 157.814 309.905C159.738 320.453 165.927 329.817 175.391 334.885C175.609 335.006 175.865 335.037 176.105 334.973C176.346 334.91 176.553 334.756 176.684 334.543L186.526 320.777L184.892 319.82C176.974 334.486 162.968 344.053 151.322 355.463C140.817 365.758 131.581 378.713 132.395 394.146C132.729 400.735 134.956 407.248 139.492 412.12C144.193 417.188 150.76 419.855 157.448 420.989C164.823 422.256 172.331 421.845 179.731 421.141C207.705 418.468 234.94 410.592 260.045 397.916C261.149 397.365 260.184 395.775 259.092 396.275L252.714 399.183L248.02 401.324C247.053 401.674 246.115 402.098 245.213 402.591C244.033 403.396 243.724 405.721 243.534 407.026C243.222 409.263 243.374 411.541 243.982 413.716C245.33 418.322 248.112 422.374 251.919 425.278C261.635 432.881 275.092 430.733 285.95 427.179C297.142 423.53 307.947 418.779 318.208 412.994C329.737 406.518 340.232 398.341 349.343 388.736C349.52 388.558 349.62 388.316 349.62 388.064C349.62 387.813 349.52 387.571 349.343 387.393L334.775 375.356C333.848 374.589 332.517 375.862 333.431 376.699C357.14 398.251 386.458 412.596 417.972 418.062C425.7 419.406 433.514 420.196 441.353 420.425C448.489 420.622 455.713 420.47 462.691 418.848C469 417.384 475.309 414.565 479.586 409.535C484.154 404.175 485.737 397.13 484.848 390.212C482.513 372.011 466.35 361.513 452.041 352.789C451.824 352.661 451.566 352.625 451.323 352.689C451.08 352.753 450.872 352.91 450.744 353.128C450.617 353.346 450.581 353.605 450.645 353.849C450.708 354.093 450.865 354.302 451.082 354.43L451.095 354.474Z" fill="#256E31"/>
<path d="M324.347 407.805C262.184 423.644 256.437 412.24 259.579 396.402C177.057 421.901 146.811 399.126 135.777 380.677C132.54 391.194 133.606 403.351 141.057 411.201C149.758 420.375 163.915 421.078 176.464 420.07C200.33 418.18 223.74 412.462 245.806 403.136C241.661 412.5 248.96 423.91 258.556 427.369C268.152 430.828 278.878 428.376 288.512 424.93C310 417.239 329.173 406.988 345.236 391.055C342.025 393.462 335.93 398.239 324.347 407.805Z" fill="#409151"/>
<path d="M461.095 359.422L469.984 364.896C478.817 365.827 486.602 357.598 488.186 348.792C489.492 341.544 487.649 334.22 484.905 327.289C488.236 352.998 463.713 358.871 461.095 359.422Z" fill="#409151"/>
<path d="M348.087 388.172L348.573 387.665L346.882 386.265C375.658 407.742 411.449 419.577 447.265 419.146C459.517 418.994 473.403 416.491 480.072 406.108C483.731 400.406 484.274 393.367 482.703 386.683C453.183 426.989 334.378 375.527 334.378 375.527L348.087 388.172Z" fill="#409151"/>
<path d="M470.735 367.196C468.347 364.977 465.818 362.916 463.164 361.025C465.797 362.943 468.324 365.003 470.735 367.196Z" fill="#409151"/>
<path d="M160.489 291.957C160.489 291.957 164.665 322.848 185.485 320.314C182.349 324.919 178.979 329.359 175.391 333.618C175.391 333.618 150.003 316.823 160.489 291.957Z" fill="#409151"/>
<path d="M438.243 253.863C438.243 253.863 420.464 265.932 413.972 258.019C407.48 250.106 409.827 236.624 409.827 236.624C409.827 236.624 422.042 250.562 438.218 253.863" fill="#409151"/>
<path d="M418.199 188.729C418.199 188.729 422.073 215.781 398.73 206.911C394.313 210.712 405.43 216.307 405.43 216.307C405.43 216.307 424.357 218.879 421.959 198.004C420.18 192.973 418.174 188.729 418.174 188.729" fill="#409151"/>
<path d="M450.735 354.265C463.353 361.925 477.467 370.655 481.731 385.796C483.656 392.632 483.321 400.247 479.265 406.259C475.479 411.86 469.221 414.983 462.861 416.611C456.306 418.284 449.511 418.512 442.786 418.398C435.111 418.267 427.456 417.585 419.878 416.358C405.002 413.941 390.517 409.526 376.813 403.231C361.335 396.132 347.042 386.674 334.441 375.191L333.116 376.534L347.69 388.571V387.228C332.485 403.364 313.3 414.603 292.739 422.459C281.887 426.602 269.225 430.999 257.768 426.552C253.2 424.708 249.41 421.332 247.042 416.998C245.894 414.952 245.181 412.689 244.948 410.352C244.84 409.212 244.879 408.062 245.061 406.931C245.149 406.396 245.271 405.867 245.427 405.347C245.492 404.92 245.58 404.497 245.692 404.08C246.096 403.592 247.528 403.244 248.09 402.99L252.828 400.83L259.679 397.7L258.72 396.06C243.648 403.648 227.776 409.517 211.403 413.558C203.368 415.543 195.229 417.078 187.025 418.157C179.504 419.139 171.852 419.957 164.256 419.621C157.316 419.31 150.193 417.936 144.382 413.951C138.666 410.023 135.247 403.814 134.218 396.997C131.916 381.678 140.761 368.216 151.045 357.857C163.069 345.738 177.889 335.937 186.179 320.561C186.295 320.344 186.322 320.091 186.256 319.854C186.189 319.617 186.033 319.415 185.822 319.292C185.61 319.168 185.359 319.131 185.121 319.189C184.883 319.248 184.676 319.397 184.545 319.604L174.76 333.403L176.053 333.061C167.442 328.442 161.776 320.314 159.675 310.811C158.754 306.96 158.502 302.977 158.931 299.04C159.467 295.03 160.868 291.083 162.218 287.294C170.268 264.652 184.779 244.372 201.233 227.108C205.712 222.403 210.4 217.909 215.296 213.627C217.655 211.561 220.065 209.555 222.526 207.608C223.365 206.943 224.866 206.221 225.308 205.213C225.485 204.579 225.589 203.926 225.617 203.268C225.66 203.088 225.65 202.898 225.588 202.723C225.526 202.548 225.415 202.395 225.268 202.282C225.122 202.169 224.945 202.1 224.761 202.085C224.577 202.071 224.392 202.11 224.229 202.198C219.623 204.554 211.289 208.185 207.826 201.97C204.589 196.179 212.33 189.337 215.529 185.352C224.134 174.62 232.027 163.343 240.595 152.592C242.91 149.684 245.27 146.852 247.459 143.855C249.074 141.651 250.67 139.421 252.304 137.235C260.771 125.926 269.49 114.795 278.076 103.575C281.862 98.6654 285.395 93.312 290.032 89.1687C294.783 84.9303 300.669 83.2451 306.89 84.7656C313.11 86.2861 318.612 90.0366 323.514 93.9962C328.241 97.893 332.67 102.141 336.763 106.705C345.103 115.79 352.674 125.546 361.62 134.055C371.406 143.304 381.57 152.136 391.437 161.297C396.37 165.89 401.235 170.565 405.948 175.406C410.364 179.967 414.944 184.63 417.985 190.275C420.786 195.457 422.092 201.811 420.048 207.5C419.197 209.989 417.573 212.137 415.415 213.63C413.257 215.122 410.68 215.881 408.061 215.793C405.677 215.74 403.41 214.745 401.752 213.025L400.415 214.368C406.755 220.64 412.591 227.457 418.433 234.191C426.08 243.01 433.632 251.909 441.089 260.888C444.454 264.922 447.818 268.968 451.183 273.027C455.637 278.418 459.315 284.519 463.17 290.335C471.492 302.803 479.952 315.734 485.113 329.912C487.813 337.344 489.529 346.074 486.085 353.562C483.252 359.733 477.296 364.795 470.224 364.186C469.012 364.079 469.019 365.979 470.224 366.087C476.154 366.6 481.548 363.42 485.1 358.814C489.081 353.67 490.375 347.239 489.706 340.834C488.924 333.289 485.921 326.181 482.634 319.414C479.171 312.38 475.308 305.552 471.063 298.964C466.754 292.166 462.23 285.514 457.713 278.83C454.458 274.164 450.966 269.668 447.253 265.361C439.493 256.019 431.663 246.727 423.764 237.486C416.629 229.18 409.531 220.716 401.733 213.012C401.554 212.844 401.316 212.753 401.071 212.757C400.826 212.762 400.592 212.861 400.419 213.035C400.245 213.21 400.146 213.444 400.142 213.691C400.137 213.937 400.228 214.175 400.396 214.355C403.727 217.821 408.881 218.442 413.279 216.845C418.294 215.02 421.562 210.605 422.534 205.403C425.058 191.979 414.408 181.329 405.859 172.618C395.563 162.146 384.528 152.446 373.683 142.582C368.352 137.748 362.958 132.94 357.961 127.751C353.33 122.936 349.009 117.823 344.643 112.762C336.107 102.872 326.978 92.4884 315.369 86.153C309.855 83.1564 303.426 81.2051 297.193 82.9284C291.546 84.4932 287.262 88.8076 283.673 93.2486C274.102 105.083 265.099 117.437 255.844 129.531C251.061 135.772 246.563 142.272 241.591 148.36C232.178 159.878 223.699 172.13 214.4 183.749C210.835 188.184 204.602 193.664 205.264 199.999C205.832 205.403 211.529 207.874 216.362 207.19C219.516 206.74 222.393 205.289 225.194 203.845L223.806 202.768C223.797 203.374 223.702 203.976 223.522 204.554C223.611 204.39 222.797 205.017 222.563 205.188L220.986 206.455C218.744 208.237 216.547 210.064 214.393 211.935C209.868 215.863 205.519 219.981 201.346 224.289C192.628 233.226 184.721 242.925 177.719 253.273C170.848 263.293 165.194 274.102 160.88 285.47C159.328 289.664 157.827 293.991 157.095 298.425C156.502 302.1 156.849 306.06 157.499 309.702C159.391 320.27 165.549 329.614 175.044 334.727C175.261 334.848 175.517 334.88 175.757 334.818C175.998 334.755 176.205 334.603 176.337 334.391L186.173 320.618L184.539 319.661C176.628 334.334 162.622 343.894 150.975 355.304C140.471 365.599 131.234 378.555 132.048 393.988C132.382 400.577 134.572 407.089 139.139 411.961C143.846 417.03 150.414 419.697 157.101 420.831C164.47 422.098 171.978 421.692 179.385 420.983C207.358 418.308 234.592 410.432 259.698 397.757C260.796 397.206 259.837 395.622 258.739 396.117L252.361 398.999L247.661 401.147C246.695 401.494 245.758 401.918 244.86 402.414C243.68 403.219 243.371 405.55 243.175 406.849C242.868 409.086 243.023 411.364 243.629 413.539C244.975 418.146 247.757 422.199 251.566 425.101C261.282 432.672 274.739 430.556 285.597 427.001C296.789 423.353 307.594 418.601 317.855 412.817C329.39 406.329 339.889 398.139 349.002 388.52C349.178 388.341 349.277 388.1 349.277 387.849C349.277 387.598 349.178 387.356 349.002 387.177L334.429 375.14C333.507 374.374 332.176 375.647 333.091 376.483C356.803 398.052 386.131 412.408 417.657 417.879C425.385 419.223 433.199 420.012 441.038 420.242C448.167 420.444 455.398 420.286 462.375 418.664C468.684 417.201 474.993 414.381 479.265 409.351C483.839 403.991 485.422 396.946 484.533 390.028C482.198 371.827 466.035 361.329 451.726 352.605C451.509 352.478 451.251 352.442 451.008 352.505C450.764 352.569 450.556 352.727 450.429 352.944C450.302 353.162 450.266 353.421 450.329 353.665C450.393 353.91 450.55 354.118 450.767 354.246L450.735 354.265Z" fill="#256E31"/>
<path d="M458.149 356.426C459.789 359.53 463.303 364.11 467.063 361.646C468.533 360.683 469.038 358.599 468.805 356.736C468.475 354.884 467.835 353.102 466.912 351.465C461.347 340.27 459.341 336 453.802 324.806C459.442 332.63 462.167 344.363 466.691 349.716C467.89 351.136 470.413 352.422 472.666 350.648C474.918 348.874 472.457 345.63 471.511 343.546C465.562 330.375 457.688 315.037 450.06 303.443C450.06 303.443 493.157 270.043 482.236 253.508C464.224 226.266 370.725 204.472 370.725 204.472L380.428 236.605L455.814 259.723C450.975 273.325 423.007 306.661 423.007 306.661L422.004 308.328C418.635 315.246 417.645 325.858 416.408 337.014C416.08 339.985 415.72 347.303 418.446 348.304C419.985 348.868 421.102 347.708 422.162 346.479C423.222 345.25 423.771 343.641 424.294 342.044L430.414 323.818L431.228 323.887C435.808 336.877 442.241 349.13 450.325 360.265C452.042 362.628 454.83 365.213 457.227 363.882C458.584 363.128 459.12 361.31 458.944 359.669C458.651 358.03 458.063 356.459 457.209 355.032C452.161 345.364 449.152 339.022 444.124 329.355" fill="#39A84A"/>
<path d="M457.328 356.888C458.722 359.485 460.943 362.685 464.066 363.223C464.877 363.353 465.708 363.273 466.481 362.991C467.253 362.71 467.942 362.236 468.482 361.614C469.491 360.289 469.944 358.62 469.744 356.964C469.555 354.823 468.615 352.878 467.675 350.983C466.735 349.089 465.782 347.233 464.886 345.358C463.368 342.266 461.856 339.172 460.35 336.076C458.432 332.153 456.501 328.235 454.558 324.324L452.987 325.262C456.407 330.045 458.52 335.601 460.842 340.961C461.82 343.34 462.958 345.649 464.249 347.873C465.473 349.881 466.993 351.953 469.466 352.365C470.186 352.489 470.924 352.446 471.624 352.238C472.324 352.031 472.968 351.664 473.504 351.167C473.932 350.739 474.242 350.208 474.406 349.624C474.57 349.04 474.581 348.424 474.438 347.835C474.128 346.577 473.628 345.374 472.955 344.268C472.28 343.001 471.693 341.664 471.107 340.353C468.268 334.207 465.267 328.142 462.104 322.158C458.628 315.607 454.943 309.145 450.874 302.942L450.533 304.248C453.214 302.17 455.795 299.952 458.331 297.703C463.736 292.982 468.796 287.878 473.473 282.429C477.946 277.126 482.469 271.114 484.318 264.297C485.148 261.571 485.191 258.665 484.444 255.915C483.636 253.311 481.826 251.1 480.028 249.124C475.611 244.321 470.085 240.565 464.514 237.264C457.642 233.275 450.517 229.745 443.183 226.696C435.322 223.383 427.423 220.412 419.436 217.681C412.071 215.147 404.654 212.788 397.184 210.605C391.455 208.915 385.702 207.317 379.923 205.809C377.058 205.061 374.188 204.326 371.311 203.642L370.932 203.553C370.771 203.511 370.602 203.512 370.441 203.556C370.28 203.6 370.134 203.686 370.016 203.804C369.899 203.923 369.815 204.071 369.772 204.232C369.729 204.394 369.728 204.564 369.771 204.725L372.232 212.873L376.85 228.16L378.667 234.153C378.932 235.027 379.134 235.959 379.475 236.808C379.733 237.441 380.307 237.543 380.894 237.72L383.569 238.537L393.519 241.591L407.48 245.874L423.127 250.669L437.953 255.218L449.486 258.753C451.378 259.343 453.322 260.02 455.265 260.527L455.53 260.61L454.899 259.438C453.742 262.392 452.299 265.225 450.59 267.895C448.438 271.468 446.092 274.934 443.688 278.342C438.924 285.089 433.884 291.646 428.723 298.09C427.04 300.168 425.358 302.237 423.676 304.298C422.787 305.322 421.987 306.42 421.284 307.58C420.139 309.751 419.29 312.067 418.761 314.466C418.014 317.452 417.433 320.476 417.02 323.526C416.521 326.991 416.13 330.495 415.758 333.954C415.441 336.313 415.255 338.689 415.203 341.069C415.203 343.166 415.31 345.503 416.256 347.404C416.614 348.195 417.253 348.823 418.048 349.165C419.411 349.697 420.723 349.165 421.758 348.228C424.187 346.067 424.975 342.887 425.972 339.916L429.53 329.304L431.284 324.077L430.376 324.774L431.19 324.844L430.275 324.115C434.44 335.918 440.117 347.127 447.164 357.458C448.792 359.834 450.388 362.469 452.804 364.123C454.88 365.542 457.688 365.586 459.113 363.242C460.634 360.746 459.624 357.775 458.432 355.393C457.025 352.58 455.549 349.805 454.123 347.005C451.057 340.948 448.028 334.873 444.899 328.848C444.338 327.764 442.704 328.727 443.265 329.811C445.845 334.765 448.35 339.757 450.867 344.749C452.129 347.246 453.391 349.742 454.653 352.231C455.334 353.562 456.041 354.886 456.716 356.223C457.41 357.406 457.841 358.727 457.978 360.094C458.016 361.101 457.751 362.311 456.88 362.926C456.009 363.54 454.817 363.166 453.946 362.615C451.681 361.164 450.161 358.554 448.703 356.381C441.773 346.226 436.187 335.21 432.086 323.608C432.025 323.412 431.905 323.239 431.742 323.114C431.58 322.989 431.382 322.918 431.177 322.911L430.363 322.842C430.156 322.844 429.956 322.913 429.791 323.039C429.627 323.164 429.506 323.339 429.448 323.539L425.991 333.846C424.9 337.096 423.972 340.467 422.666 343.628C422.124 344.939 419.543 349.14 418.042 346.726C417.064 345.142 417.083 342.855 417.083 341.024C417.125 338.759 417.296 336.498 417.594 334.252C417.966 330.888 418.332 327.517 418.811 324.166C419.212 321.182 419.77 318.221 420.483 315.296C421.057 313.035 421.695 310.583 422.868 308.556C423.057 308.232 423.259 307.922 423.448 307.593C423.524 307.472 423.941 306.845 423.613 307.263L423.802 307.041C424.187 306.585 424.565 306.123 424.944 305.667C426.555 303.72 428.147 301.762 429.72 299.794C434.697 293.579 439.568 287.275 444.23 280.788C446.647 277.417 448.994 274.003 451.17 270.486C452.97 267.713 454.562 264.81 455.934 261.801C456.205 261.167 456.464 260.534 456.697 259.9C456.761 259.661 456.731 259.406 456.614 259.188C456.497 258.97 456.3 258.805 456.066 258.728L448.565 256.428L430.546 250.904L408.824 244.29L389.897 238.493L383.714 236.592C382.754 236.232 381.772 235.932 380.774 235.693L380.648 235.655L381.279 236.32L377.986 225.429L372.8 208.178L371.601 204.2L370.44 205.365C372.396 205.828 374.352 206.316 376.301 206.816C381.348 208.109 386.396 209.471 391.443 210.902C398.496 212.913 405.51 215.056 412.483 217.333C420.313 219.899 428.086 222.654 435.745 225.702C443.243 228.633 450.578 231.968 457.719 235.693C463.763 238.86 469.706 242.446 474.93 246.932C477.035 248.709 478.939 250.712 480.608 252.906C482.17 254.866 483.012 257.307 482.993 259.818C482.851 262.688 482.105 265.495 480.804 268.054C479.251 271.238 477.385 274.258 475.233 277.069C470.758 282.891 465.773 288.3 460.337 293.23C456.968 296.398 453.498 299.42 449.89 302.284C449.782 302.372 449.057 302.917 449.517 302.588C449.303 302.717 449.148 302.925 449.084 303.168C449.021 303.41 449.054 303.668 449.177 303.886C456.041 314.352 461.902 325.496 467.296 336.786C468.558 339.396 469.649 342.089 470.968 344.661C471.864 346.397 473.971 349.52 470.968 350.413C468.659 351.104 467.006 348.823 465.921 347.138C464.693 345.083 463.614 342.943 462.691 340.733C460.236 335.132 458.091 329.291 454.489 324.261C454.358 324.053 454.152 323.904 453.914 323.846C453.675 323.787 453.424 323.824 453.212 323.948C453.001 324.072 452.845 324.274 452.778 324.51C452.712 324.747 452.739 325.001 452.855 325.218C455.788 331.122 458.672 337.046 461.568 342.957C463.151 346.181 464.772 349.393 466.343 352.631C467.485 354.975 469.265 359.866 465.713 361.152C462.646 362.26 460.034 358.073 458.861 355.874C458.287 354.797 456.653 355.754 457.227 356.831L457.328 356.888Z" fill="#256E31"/>
<path d="M395.587 194.469L330.71 210.893L345.747 270.789L410.625 254.364L395.587 194.469Z" fill="#39A84A"/>
<path d="M169.467 337.35L169.744 339.073C170.249 345.96 167.549 355.063 164.874 364.7C164.161 367.272 162.035 373.436 159.436 373.316C157.972 373.246 157.423 371.897 156.95 370.515C156.568 369.085 156.463 367.595 156.641 366.125L157.6 348.95" fill="#39A84A"/>
<path d="M168.552 337.603C168.987 340.812 168.884 344.071 168.249 347.246C167.365 351.927 166.243 356.56 164.886 361.126C163.978 364.414 163.202 367.95 161.297 370.838C160.804 371.586 159.845 372.872 158.868 372.15C158.237 371.706 157.978 370.693 157.782 370.002C157.509 368.823 157.437 367.607 157.568 366.404C157.871 360.588 158.199 354.766 158.546 348.95C158.615 347.727 156.722 347.733 156.653 348.95C156.338 354.626 156.02 360.299 155.7 365.967C155.574 368.266 155.587 370.718 156.893 372.726C157.095 373.077 157.366 373.384 157.689 373.627C158.013 373.871 158.381 374.046 158.774 374.143C159.166 374.24 159.574 374.257 159.972 374.192C160.371 374.127 160.753 373.982 161.095 373.765C162.451 372.891 163.315 371.307 163.984 369.882C164.684 368.372 165.264 366.808 165.719 365.206C167.189 360.1 168.653 354.956 169.7 349.748C170.244 347.203 170.588 344.618 170.728 342.019C170.782 340.37 170.663 338.72 170.375 337.096C170.18 335.893 168.356 336.406 168.552 337.603Z" fill="#256E31"/>
<path d="M235.288 232.392C232.461 236.097 230.065 240.115 228.146 244.366C226.506 248.009 224.992 251.88 224.928 255.934C224.891 259.457 226.266 263.024 229.654 264.525C233.54 266.255 237.944 264.411 241.37 262.441C243.761 261.066 246.038 259.469 248.348 257.962L255.754 253.159C256.776 252.494 255.83 250.847 254.802 251.519L242.632 259.444C239.591 261.421 235.736 263.841 231.906 263.245C228.367 262.7 226.815 259.444 226.796 256.156C226.796 252.564 228.108 249.086 229.528 245.842C231.482 241.402 233.958 237.212 236.903 233.361C237.641 232.392 235.995 231.461 235.263 232.398L235.288 232.392Z" fill="#256E31"/>
<path d="M253.779 252.367C251.773 254.129 251.975 257.138 253.319 259.235C255.06 261.946 258.171 262.681 261.193 262.061C264.568 261.364 267.502 259.222 270.164 257.106C272.875 254.853 275.464 252.455 277.918 249.922C280.671 247.046 283.634 244.38 286.782 241.946C287.76 241.23 286.813 239.583 285.829 240.305C280.782 244.024 276.618 248.763 272.019 252.976C269.761 255.16 267.259 257.073 264.562 258.677C262.189 260.014 258.669 261.3 256.171 259.539C254.417 258.272 253.262 255.32 255.117 253.685C256.032 252.874 254.688 251.537 253.779 252.342V252.367Z" fill="#256E31"/>
<path d="M398.155 312.978L402.306 322.379C403.404 324.863 405.272 327.783 404.067 330.546C403.543 331.664 402.727 332.619 401.706 333.309C400.685 334 399.498 334.4 398.269 334.467C395.392 334.619 392.591 333.295 390.471 331.426C387.947 329.184 386.13 326.263 384.364 323.393C383.733 322.354 382.086 323.311 382.73 324.35C386.086 329.804 390.401 336.159 397.499 336.387C398.946 336.436 400.384 336.13 401.686 335.495C402.989 334.86 404.118 333.916 404.975 332.744C405.824 331.596 406.309 330.219 406.369 328.791C406.433 327.093 405.739 325.515 405.076 324.001C403.318 320.006 401.556 316.017 399.789 312.034C399.297 310.912 397.669 311.882 398.155 312.99V312.978Z" fill="#256E31"/>
<path d="M383.303 325.458C385.581 326.903 385.486 330.134 384.351 332.288C382.767 335.297 379.203 336.197 376.042 336.178C372.446 336.178 368.818 335.215 365.436 334.056C358.055 331.508 351.429 327.138 346.169 321.347C345.342 320.441 344.005 321.784 344.825 322.69C350.379 328.782 357.382 333.36 365.178 335.994C368.9 337.261 372.976 338.269 376.931 338.091C380.534 337.926 384.376 336.526 386.073 333.099C387.606 330.007 387.398 325.839 384.262 323.843C383.228 323.209 382.275 324.831 383.303 325.484V325.458Z" fill="#256E31"/>
<path d="M234.423 208.299C225.751 212.828 218.494 219.675 213.452 228.084C213.082 228.739 212.982 229.513 213.173 230.241C213.364 230.969 213.831 231.594 214.474 231.98C215.128 232.346 215.897 232.445 216.622 232.255C217.346 232.065 217.969 231.601 218.361 230.96C218.992 229.94 219.622 228.939 220.291 227.97C220.581 227.552 220.878 227.14 221.187 226.703L221.49 226.298L221.433 226.374L221.988 225.677C223.407 223.929 224.941 222.281 226.581 220.741C227.414 219.956 228.278 219.202 229.162 218.473L229.755 217.998C230.272 217.58 229.502 218.182 229.982 217.814C230.461 217.447 230.935 217.105 231.42 216.763C233.294 215.441 235.257 214.251 237.294 213.202C237.939 212.816 238.407 212.19 238.597 211.46C238.787 210.73 238.684 209.954 238.31 209.3C237.918 208.659 237.295 208.195 236.571 208.004C235.848 207.813 235.078 207.91 234.423 208.273V208.299Z" fill="#A8E580"/>
<path d="M290.485 100.091L280.057 115.34C279.682 115.994 279.578 116.77 279.77 117.499C279.961 118.229 280.432 118.853 281.079 119.236C281.732 119.599 282.5 119.695 283.222 119.505C283.944 119.315 284.566 118.854 284.959 118.216L295.388 102.973C295.761 102.318 295.864 101.542 295.672 100.812C295.481 100.082 295.012 99.4564 294.365 99.0708C293.712 98.7082 292.945 98.6119 292.222 98.8018C291.5 98.9916 290.878 99.4532 290.485 100.091Z" fill="#A8E580"/>
<path d="M296.971 174.525C294.674 175.494 293.324 178.491 294.056 181.012C294.788 183.534 297.488 185.2 299.898 184.611C302.882 183.882 304.989 180.309 308.049 180.404C311.709 180.525 313.772 185.783 317.425 185.998C319.948 186.15 322.118 183.464 322.264 180.765C322.409 178.066 321.002 175.469 319.166 173.562C317.384 171.683 315.156 170.29 312.69 169.514C310.224 168.738 307.603 168.605 305.072 169.127C302.518 169.756 300.156 171.001 298.19 172.754C296.224 174.507 294.714 176.716 293.791 179.188L296.971 174.525Z" fill="#256E31"/>
<path d="M296.523 173.701C293.835 174.911 292.428 178.231 293.11 181.057C293.463 182.422 294.273 183.624 295.403 184.462C296.532 185.3 297.914 185.724 299.318 185.663C302.327 185.415 304.012 182.717 306.636 181.633C309.084 180.626 310.964 182.786 312.592 184.3C314.484 186.081 316.882 187.728 319.532 186.53C322.371 185.263 323.557 181.918 323.103 178.998C322.585 175.691 320.251 172.884 317.626 170.965C315.066 169.112 312.027 168.041 308.876 167.879C301.728 167.512 295.412 172.428 292.889 178.953C292.479 180.011 294.05 180.525 294.617 179.688L297.772 175C298.46 173.993 296.819 173.036 296.138 174.043L292.983 178.725L294.712 179.46C296.605 174.55 301.103 170.591 306.377 169.868C311.809 169.153 317.847 171.934 320.415 176.888C321.639 179.245 321.79 182.374 319.62 184.25C317.727 185.903 315.671 184.579 314.119 183.154C312.567 181.728 311.002 179.935 308.838 179.543C306.314 179.093 304.422 180.689 302.529 182.077C301.532 182.831 300.39 183.686 299.09 183.756C298.452 183.77 297.818 183.637 297.238 183.367C296.658 183.097 296.148 182.696 295.747 182.197C293.93 179.992 294.92 176.495 297.456 175.323C298.561 174.842 297.602 173.207 296.523 173.701Z" fill="#256E31"/>
<path d="M271.52 163.641C280.879 163.641 288.466 155.597 288.466 145.674C288.466 135.751 280.879 127.707 271.52 127.707C262.161 127.707 254.574 135.751 254.574 145.674C254.574 155.597 262.161 163.641 271.52 163.641Z" fill="white" stroke="#256E31" stroke-width="2.16641" stroke-miterlimit="10"/>
<path d="M271.861 155.969C277.321 155.969 281.747 151.277 281.747 145.49C281.747 139.703 277.321 135.011 271.861 135.011C266.401 135.011 261.975 139.703 261.975 145.49C261.975 151.277 266.401 155.969 271.861 155.969Z" fill="#256E31" stroke="#256E31" stroke-width="2.16641" stroke-miterlimit="10"/>
<path d="M257.004 135.676L243.944 130.887C242.802 130.462 242.31 132.3 243.446 132.718L256.499 137.526C257.647 137.945 258.14 136.107 257.004 135.689V135.676Z" fill="#256E31"/>
<path d="M247.313 125.946L260.707 131.445C260.948 131.509 261.205 131.475 261.423 131.351C261.64 131.226 261.8 131.021 261.867 130.779C261.927 130.536 261.89 130.279 261.764 130.062C261.638 129.846 261.433 129.687 261.192 129.62L247.805 124.121C247.563 124.057 247.306 124.09 247.089 124.215C246.871 124.339 246.712 124.545 246.644 124.786C246.582 125.025 246.612 125.278 246.729 125.494C246.847 125.711 247.042 125.875 247.275 125.952L247.313 125.946Z" fill="#256E31"/>
<path d="M340.004 162.906C349.513 162.906 357.222 154.862 357.222 144.939C357.222 135.016 349.513 126.972 340.004 126.972C330.496 126.972 322.787 135.016 322.787 144.939C322.787 154.862 330.496 162.906 340.004 162.906Z" fill="white" stroke="#256E31" stroke-width="2.16641" stroke-miterlimit="10"/>
<path d="M339.664 155.576C345.388 155.576 350.029 150.734 350.029 144.761C350.029 138.789 345.388 133.947 339.664 133.947C333.939 133.947 329.298 138.789 329.298 144.761C329.298 150.734 333.939 155.576 339.664 155.576Z" fill="#256E31" stroke="#256E31" stroke-width="2.16641" stroke-miterlimit="10"/>
<path d="M355.26 136.779L368.509 131.97C369.65 131.558 369.139 129.721 368.01 130.139L354.761 134.948C353.626 135.36 354.13 137.197 355.266 136.779H355.26Z" fill="#256E31"/>
<path d="M364.099 123.38L350.497 128.879C350.265 128.957 350.071 129.121 349.954 129.337C349.837 129.554 349.806 129.806 349.866 130.044C349.932 130.287 350.092 130.493 350.31 130.618C350.527 130.743 350.785 130.776 351.027 130.71L364.629 125.217C364.867 125.142 365.067 124.979 365.19 124.762C365.313 124.544 365.349 124.288 365.292 124.045C365.217 123.808 365.054 123.609 364.836 123.491C364.618 123.372 364.363 123.344 364.125 123.411L364.099 123.38Z" fill="#256E31"/>
<path d="M192.892 233.013C185.251 237.023 177.58 243.656 177.283 252.95C177.024 260.483 181.958 266.92 188.898 269.467C193.283 271.076 198.084 271.171 202.69 270.873C207.882 270.537 213.074 269.948 218.241 269.334C230.439 267.885 242.541 265.845 254.55 263.214C278.737 257.907 302.362 250.28 325.097 240.438C347.765 230.651 369.436 218.685 389.809 204.707C394.856 201.26 399.796 197.738 404.603 194C408.95 190.629 413.303 186.822 415.814 181.823C416.836 179.79 417.827 177.389 417.619 175.032C417.399 173.138 416.609 171.356 415.354 169.925C412.647 166.631 408.307 164.521 404.168 163.799C402.193 163.415 400.16 163.436 398.193 163.863C397.007 164.141 397.512 165.979 398.698 165.7C402.729 164.75 407.24 166.169 410.647 168.342C412.381 169.376 413.837 170.82 414.887 172.548C415.915 174.373 415.877 176.147 415.284 178.111C413.732 183.23 409.852 187.221 405.865 190.566C401.411 194.304 396.603 197.655 391.846 200.988C372.605 214.458 352.17 226.122 330.8 235.832C309.267 245.627 286.88 253.408 263.925 259.077C252.543 261.881 241.048 264.16 229.44 265.912C223.593 266.795 217.728 267.534 211.844 268.13C207.428 268.58 202.98 269.131 198.538 269.086C193.996 269.042 189.314 268.25 185.523 265.577C182.827 263.695 180.83 260.967 179.845 257.822C177.63 250.524 181.523 243.612 187.081 239.051C189.201 237.35 191.491 235.875 193.914 234.647C194.993 234.077 194.034 232.436 192.955 233L192.892 233.013Z" fill="#256E31"/>
<path d="M174.595 255.82C170.495 257.797 166.98 260.838 165.22 265.127C163.561 269.182 163.7 273.718 164.678 277.924C167.1 288.346 174.078 297.716 181.548 305.103C186.509 309.856 191.755 314.299 197.257 318.407C203.023 322.857 209.018 326.998 215.219 330.812C227.837 338.554 241.294 345.149 254.764 351.262C281.502 363.401 309.558 372.872 338.529 377.871C367.607 382.863 397.587 383.288 426.622 377.757C433.836 376.388 440.973 374.635 448.003 372.505C454.72 370.579 461.278 368.13 467.617 365.181C478.784 359.777 489.194 350.268 489.756 337.002C489.881 334.092 489.411 331.188 488.374 328.468C487.945 327.334 486.116 327.834 486.551 328.975C488.791 334.829 487.983 341.253 485.257 346.809C482.431 352.58 477.737 357.04 472.356 360.417C466.677 363.978 460.368 366.398 454.059 368.558C447.378 370.84 440.582 372.77 433.7 374.342C405.846 380.678 376.824 381.311 348.573 377.51C320.504 373.709 293.142 365.473 267.035 354.589C253.748 349.032 240.771 342.754 228.077 335.95C215.608 329.306 203.815 321.455 192.866 312.509C183.901 305.154 175.498 297.152 170.072 286.718C166.11 279.115 163.132 268.428 169.876 261.421C171.519 259.775 173.442 258.438 175.554 257.474C176.652 256.942 175.693 255.301 174.595 255.827V255.82Z" fill="#256E31"/>
<path d="M369.077 233.418C375.293 233.418 380.332 228.358 380.332 222.116C380.332 215.874 375.293 210.814 369.077 210.814C362.86 210.814 357.821 215.874 357.821 222.116C357.821 228.358 362.86 233.418 369.077 233.418Z" fill="#5CEEFF" stroke="#45B3E9" stroke-width="2.16641" stroke-miterlimit="10"/>
<path d="M366.913 217.333C366.913 217.333 362.585 219.943 364.314 224.302L366.913 217.333Z" fill="#5CEEFF"/>
<path d="M366.913 217.333C366.913 217.333 362.585 219.943 364.314 224.302" stroke="white" stroke-width="2.88854" stroke-miterlimit="10" stroke-linecap="round"/>
<path d="M264.978 270.797C271.194 270.797 276.233 265.737 276.233 259.495C276.233 253.253 271.194 248.192 264.978 248.192C258.762 248.192 253.723 253.253 253.723 259.495C253.723 265.737 258.762 270.797 264.978 270.797Z" fill="#5CEEFF" stroke="#45B3E9" stroke-width="2.16641" stroke-miterlimit="10"/>
<path d="M262.815 254.711C262.815 254.711 258.487 257.322 260.215 261.68L262.815 254.711Z" fill="#5CEEFF"/>
<path d="M262.815 254.711C262.815 254.711 258.487 257.322 260.215 261.68" stroke="white" stroke-width="2.88854" stroke-miterlimit="10" stroke-linecap="round"/>
<path d="M211.352 341.119C217.568 341.119 222.607 336.059 222.607 329.817C222.607 323.575 217.568 318.515 211.352 318.515C205.136 318.515 200.097 323.575 200.097 329.817C200.097 336.059 205.136 341.119 211.352 341.119Z" fill="#5CEEFF" stroke="#45B3E9" stroke-width="2.16641" stroke-miterlimit="10"/>
<path d="M209.188 325.034C209.188 325.034 204.86 327.644 206.588 332.003L209.188 325.034Z" fill="#5CEEFF"/>
<path d="M209.188 325.034C209.188 325.034 204.86 327.644 206.588 332.003" stroke="white" stroke-width="2.88854" stroke-miterlimit="10" stroke-linecap="round"/>
<path d="M276.334 555.254C282.55 555.254 287.59 550.194 287.59 543.952C287.59 537.71 282.55 532.65 276.334 532.65C270.118 532.65 265.079 537.71 265.079 543.952C265.079 550.194 270.118 555.254 276.334 555.254Z" fill="#5CEEFF" stroke="#45B3E9" stroke-width="2.16641" stroke-miterlimit="10"/>
<path d="M274.17 539.169C274.17 539.169 269.842 541.779 271.571 546.138L274.17 539.169Z" fill="#5CEEFF"/>
<path d="M274.17 539.169C274.17 539.169 269.842 541.779 271.571 546.138" stroke="white" stroke-width="2.88854" stroke-miterlimit="10" stroke-linecap="round"/>
<path d="M422.704 388.635C428.92 388.635 433.959 383.574 433.959 377.332C433.959 371.09 428.92 366.03 422.704 366.03C416.487 366.03 411.448 371.09 411.448 377.332C411.448 383.574 416.487 388.635 422.704 388.635Z" fill="#5CEEFF" stroke="#45B3E9" stroke-width="2.16641" stroke-miterlimit="10"/>
<path d="M420.539 372.549C420.539 372.549 416.211 375.159 417.94 379.518L420.539 372.549Z" fill="#5CEEFF"/>
<path d="M420.539 372.549C420.539 372.549 416.211 375.159 417.94 379.518" stroke="white" stroke-width="2.88854" stroke-miterlimit="10" stroke-linecap="round"/>
<path d="M434.06 578.695C440.276 578.695 445.315 573.635 445.315 567.393C445.315 561.151 440.276 556.091 434.06 556.091C427.844 556.091 422.805 561.151 422.805 567.393C422.805 573.635 427.844 578.695 434.06 578.695Z" fill="#5CEEFF" stroke="#45B3E9" stroke-width="2.16641" stroke-miterlimit="10"/>
<path d="M431.896 562.61C431.896 562.61 427.568 565.22 429.296 569.579L431.896 562.61Z" fill="#5CEEFF"/>
<path d="M431.896 562.61C431.896 562.61 427.568 565.22 429.296 569.579" stroke="white" stroke-width="2.88854" stroke-miterlimit="10" stroke-linecap="round"/>
</svg>
