<svg width="588" height="608" viewBox="0 0 588 608" fill="none" xmlns="http://www.w3.org/2000/svg">
<path d="M65.1262 457.417C65.1262 457.417 57.6247 510.316 92.3649 552.713C67.8781 556.992 86.4453 567.883 100.655 560.881C100.655 573.328 117.236 574.495 120 563.215C138.163 560.881 174.485 573.328 172.511 556.214C185.143 564.771 207.251 542.989 181.987 534.432C173.692 534.432 170.536 544.156 170.536 544.156C170.536 544.156 159.136 509.69 105.813 460.218C98.8753 453.776 85.3997 437.965 80.5218 434.468C47.9116 411.095 65.1262 457.417 65.1262 457.417Z" fill="white" stroke="#256E31" stroke-width="2" stroke-miterlimit="10"/>
<path d="M100.283 560.492C100.283 560.492 106.89 550.768 83.9583 508.76C89.8507 521.145 98.7282 553.88 98.7282 553.88C99.6935 555.954 100.223 558.205 100.283 560.492Z" fill="#C1DDE5"/>
<path d="M85.5123 444.97C84.5444 450.778 78.516 460.918 65.6896 457.028L62.7862 447.257L83.9575 438.358C83.9575 438.358 86.2896 440.303 85.5123 444.97Z" fill="#C1DDE5"/>
<path d="M125.865 521.367C125.865 521.367 118.939 530.153 124.769 540.655C127.101 544.156 131.765 547.268 131.765 547.268L135.967 549.368L145.369 549.213C145.369 549.213 125.799 538.641 125.865 521.367Z" fill="#C1DDE5"/>
<path d="M193.068 542.989C193.068 542.989 181.128 556.603 170.634 545.712C171.8 554.269 172.577 556.214 172.577 556.214C172.577 556.214 192.96 563.97 193.068 542.989Z" fill="#C1DDE5"/>
<path d="M77.3507 493.591C77.3507 493.591 106.579 549.213 100.671 560.882" stroke="#256E31" stroke-width="2" stroke-miterlimit="10"/>
<path d="M96.3145 497.48C96.3145 497.48 125.547 553.102 119.608 564.771" stroke="#256E31" stroke-width="2" stroke-miterlimit="10"/>
<path d="M142.112 516.54C142.112 516.54 101.841 513.817 145.269 549.213C131.058 549.213 119.005 549.963 119.701 554.452" stroke="#256E31" stroke-width="2" stroke-miterlimit="10"/>
<path d="M65.1809 457.39C65.1809 457.39 57.6794 510.289 92.4234 552.686C67.9367 556.965 86.5 567.856 100.714 560.855C100.714 573.301 117.295 574.468 120.059 563.188C138.218 560.855 174.54 573.301 172.565 556.187C185.197 564.744 207.305 542.962 182.041 534.405C173.751 534.405 170.591 544.129 170.591 544.129C170.591 544.129 159.191 509.663 105.872 460.191C98.9299 453.749 85.4544 437.938 80.5765 434.441C47.9663 411.068 65.1809 457.39 65.1809 457.39Z" stroke="#256E31" stroke-width="2" stroke-miterlimit="10"/>
<path d="M65.3252 405.491C65.3252 405.491 49.9257 339.367 65.3252 339.367C79.3604 339.367 75.3493 392.713 74.533 402.134C74.5265 402.177 74.5367 402.221 74.5616 402.257C74.5866 402.293 74.6243 402.318 74.6671 402.327C74.7099 402.336 74.7544 402.328 74.7917 402.305C74.8289 402.282 74.856 402.246 74.8673 402.204C78.1555 392.849 98.2075 337.616 112.305 344.034C127.7 351.036 85.4588 408.213 85.4588 408.213V418.326C85.4588 418.326 103.171 415.627 104.014 428.05C104.605 436.802 94.3401 441.47 83.2861 437.58C84.0634 444.97 78.8785 450.805 68.6795 449.638C56.6305 448.277 58.018 435.635 58.018 435.635C55.958 436.105 53.8535 436.351 51.7409 436.37C46.7308 436.405 40.3992 434.993 39.4664 427.856C37.9972 416.662 52.6815 418.326 52.6815 418.326L65.3252 405.491Z" fill="white" stroke="#256E31" stroke-width="2" stroke-miterlimit="10"/>
<path d="M65.5817 426.3H75.2987C75.5577 426.298 75.8109 426.376 76.0229 426.525C76.235 426.674 76.3951 426.885 76.4809 427.13C76.5666 427.375 76.5737 427.64 76.5011 427.889C76.4285 428.137 76.2798 428.357 76.076 428.517L71.167 431.796C70.9137 431.993 70.5958 432.088 70.2761 432.061C69.9564 432.034 69.6585 431.889 69.4413 431.652L64.6178 428.373C64.454 428.192 64.3472 427.967 64.3106 427.726C64.2741 427.485 64.3095 427.238 64.4124 427.017C64.5152 426.795 64.6811 426.609 64.889 426.482C65.097 426.354 65.338 426.291 65.5817 426.3Z" fill="#256E31" stroke="#256E31" stroke-width="3" stroke-miterlimit="10"/>
<path d="M71.5513 432.026C70.9842 435.15 71.3801 438.374 72.6862 441.268C72.9972 441.944 71.9905 442.54 71.6795 441.855C70.2299 438.684 69.7903 435.144 70.4202 431.715C70.5563 430.98 71.6795 431.291 71.5435 432.026H71.5513Z" fill="#256E31" stroke="#256E31"/>
<path d="M64.9941 436.219C65.958 438.576 67.641 440.886 70.1713 441.664C71.4096 442.077 72.7554 442.029 73.9609 441.528C75.1044 440.951 76.0134 439.996 76.534 438.825C77.2763 437.312 77.4901 435.589 77.7194 433.939C77.8205 433.196 78.9477 433.512 78.8427 434.251C78.4229 437.281 77.7389 440.863 74.7538 442.419C72.0331 443.858 68.6788 442.839 66.5916 440.77C65.4059 439.55 64.4803 438.103 63.8708 436.514C63.5871 435.822 64.7142 435.519 64.998 436.203L64.9941 436.219Z" fill="#256E31" stroke="#256E31"/>
<path d="M64.5239 339.561C64.5239 339.561 75.4069 402.573 70.3541 404.129C70.3541 404.129 65.7832 411.862 62.8215 393.409C59.8597 374.957 54.0296 341.506 64.5239 339.561Z" fill="#C1DDE5"/>
<path d="M65.3789 405.852C65.3789 405.852 49.9795 339.729 65.3789 339.729C79.4141 339.729 75.403 393.075 74.5867 402.496C74.5802 402.539 74.5904 402.583 74.6153 402.619C74.6403 402.655 74.678 402.68 74.7208 402.689C74.7636 402.698 74.8081 402.69 74.8454 402.667C74.8826 402.644 74.9097 402.608 74.921 402.566C78.2092 393.192 98.2612 337.998 112.359 344.396C127.754 351.397 85.5125 408.575 85.5125 408.575V418.688C85.5125 418.688 103.228 415.989 104.068 428.412C104.659 437.164 94.3938 441.831 83.3398 437.942C84.1171 445.332 78.9322 451.167 68.7332 450C56.6842 448.638 58.0756 435.997 58.0756 435.997C56.0143 436.467 53.9085 436.713 51.7946 436.732C46.7845 436.767 40.4529 435.355 39.5201 428.218C38.0548 417.023 52.7352 418.688 52.7352 418.688L65.3789 405.852Z" stroke="#256E31" stroke-width="2" stroke-miterlimit="10"/>
<path d="M51.1732 425.709C45.9655 425.709 41.7438 421.319 41.7438 415.903C41.7438 410.487 45.9655 406.097 51.1732 406.097C56.3809 406.097 60.6025 410.487 60.6025 415.903C60.6025 421.319 56.3809 425.709 51.1732 425.709Z" fill="white" stroke="#256E31" stroke-width="2" stroke-miterlimit="10"/>
<path d="M54.5545 419.224C51.5578 419.224 49.1286 416.697 49.1286 413.58C49.1286 410.463 51.5578 407.936 54.5545 407.936C57.5512 407.936 59.9805 410.463 59.9805 413.58C59.9805 416.697 57.5512 419.224 54.5545 419.224Z" fill="#256E31" stroke="#256E31" stroke-width="2" stroke-miterlimit="10"/>
<path d="M89.2716 425.308C83.9823 425.308 79.6945 420.918 79.6945 415.503C79.6945 410.087 83.9823 405.697 89.2716 405.697C94.5608 405.697 98.8486 410.087 98.8486 415.503C98.8486 420.918 94.5608 425.308 89.2716 425.308Z" fill="white" stroke="#256E31" stroke-width="2" stroke-miterlimit="10"/>
<path d="M92.6877 418.812C89.8585 418.812 87.565 416.464 87.565 413.568C87.565 410.673 89.8585 408.325 92.6877 408.325C95.517 408.325 97.8105 410.673 97.8105 413.568C97.8105 416.464 95.517 418.812 92.6877 418.812Z" fill="#256E31" stroke="#256E31" stroke-width="2" stroke-miterlimit="10"/>
<path d="M295.6 594.928C375.218 594.928 439.761 588.262 439.761 580.039C439.761 571.817 375.218 565.151 295.6 565.151C215.983 565.151 151.439 571.817 151.439 580.039C151.439 588.262 215.983 594.928 295.6 594.928Z" fill="black" fill-opacity="0.15"/>
<path d="M272.572 109.164C270.617 108.473 269.254 106.586 268.692 104.577C268.228 102.538 268.153 100.429 268.472 98.3622C269.486 88.8968 272.497 79.7569 277.304 71.551L276.806 70.5817C271.173 74.3582 264.609 76.494 257.841 76.7524C255.286 76.841 252.27 76.3912 251.065 74.1295C249.608 71.3863 251.828 68.1743 254.024 65.9823C261.341 58.6799 269.898 52.7478 279.291 48.465L279.09 46.9762C278.799 40.6319 279.532 34.2822 281.26 28.1729C282.042 25.398 283.386 22.3317 286.137 21.5017C288.452 20.7985 291.001 22.0529 292.54 23.9282C294.08 25.8034 294.831 28.1855 295.544 30.5043L301.222 48.8768L301.537 48.6931L324.414 48.3573L316.988 69.302L328.653 83.1574C331.335 86.3251 334.104 90.7915 331.682 94.1556C330.035 96.449 326.533 96.9368 323.776 96.0562C321.019 95.1756 318.817 93.1673 316.735 91.2223L272.572 109.164Z" fill="#FF8000"/>
<path d="M272.794 108.252C270.34 107.314 269.343 104.514 269.223 102.094C269.181 99.1453 269.486 96.2022 270.131 93.3256C271.193 87.6754 272.981 82.1874 275.45 76.9994C276.157 75.5169 276.92 74.064 277.74 72.6407C278.075 72.0515 278.371 71.6523 278.049 70.9871C277.904 70.6894 277.746 70.3916 277.595 70.1002C277.468 69.8923 277.266 69.7412 277.032 69.6776C276.797 69.614 276.547 69.6428 276.333 69.7581C272.605 72.2489 268.452 74.0273 264.081 75.0037C261.961 75.4803 259.799 75.7498 257.627 75.8083C256.006 75.8463 254.088 75.726 252.75 74.687C251.097 73.4199 251.419 71.2912 252.334 69.663C253.362 67.8194 254.946 66.3687 256.46 64.9432C259.654 61.937 263.076 59.1835 266.693 56.7072C270.833 53.8704 275.209 51.3968 279.772 49.3139C279.948 49.2036 280.085 49.0399 280.164 48.8464C280.242 48.6529 280.257 48.4396 280.207 48.2369C279.829 44.8198 279.865 41.3693 280.314 37.9609C280.558 35.745 280.928 33.5451 281.425 31.3722C281.783 29.5207 282.326 27.7103 283.046 25.9681C283.677 24.5997 284.579 23.1742 286.018 22.566C287.601 21.9325 289.387 22.471 290.693 23.4656C292.219 24.6377 293.134 26.4369 293.784 28.2108C294.516 30.1875 295.077 32.2338 295.677 34.2484L300.263 49.1618C300.304 49.3007 300.375 49.4286 300.471 49.5361C300.568 49.6435 300.687 49.7278 300.821 49.7826C300.954 49.8374 301.098 49.8613 301.242 49.8525C301.386 49.8438 301.526 49.8026 301.651 49.732C301.716 49.6792 301.788 49.6365 301.866 49.6053C301.935 49.561 301.942 49.5546 301.866 49.6053C301.796 49.6497 301.809 49.7193 302.124 49.6497C302.591 49.6813 303.071 49.6497 303.538 49.6497L306.509 49.6053L312.465 49.5166L324.376 49.3456L323.462 48.1418L317.582 64.8418L316.32 68.3643C316.228 68.5879 316.148 68.8163 316.08 69.0485C316.038 69.2145 316.037 69.3883 316.076 69.5549C316.116 69.7216 316.195 69.8761 316.307 70.0051C316.938 70.8414 317.657 71.608 318.32 72.3999L325.764 81.2694C327.922 83.8036 330.591 86.4834 331.442 89.8348C331.677 90.5655 331.714 91.3453 331.551 92.0952C331.388 92.8451 331.031 93.5384 330.515 94.1048C329.413 95.1067 327.963 95.6345 326.477 95.5746C322.805 95.5746 319.91 92.9455 317.354 90.6141C317.237 90.4941 317.089 90.408 316.927 90.3645C316.765 90.3211 316.595 90.3219 316.433 90.367L301.557 96.3349L277.778 105.996L272.289 108.226C271.179 108.676 271.658 110.52 272.794 110.057L287.715 104.026L311.493 94.3646L316.976 92.1409L316.042 91.9001C318.408 94.0605 320.963 96.3349 324.156 97.1331C326.742 97.7667 329.834 97.3929 331.802 95.4669C334.136 93.2052 333.789 89.8982 332.502 87.193C331.001 84.0253 328.433 81.4341 326.193 78.7923L317.645 68.6557L317.884 69.5807L324.339 51.2462L325.26 48.6423C325.296 48.5012 325.3 48.3535 325.271 48.2106C325.242 48.0677 325.182 47.9332 325.093 47.8173C325.005 47.7014 324.892 47.6071 324.763 47.5415C324.633 47.4759 324.49 47.4407 324.345 47.4386L311.967 47.616L305.853 47.711L302.699 47.7554C301.999 47.6743 301.292 47.7906 300.654 48.0912L302.042 48.655L297.506 33.8936C296.276 29.9024 295.386 24.8784 291.961 22.1225C291.216 21.4777 290.345 20.9964 289.404 20.7095C288.463 20.4225 287.473 20.3363 286.497 20.4564C285.648 20.6261 284.841 20.9646 284.123 21.452C283.406 21.9394 282.793 22.5659 282.32 23.2946C281.337 24.8073 280.619 26.4789 280.201 28.2362C279.559 30.5626 279.058 32.9257 278.699 35.3128C277.944 39.7494 277.814 44.2708 278.314 48.7437L278.75 47.673C269.918 51.7133 261.817 57.1983 254.775 63.9042C252.025 66.5207 247.64 71.0251 250.473 75.0798C252.952 78.6149 258.479 77.861 262.119 77.3098C267.533 76.4801 272.701 74.4713 277.261 71.4243L275.967 71.0822L276.459 72.0515V71.0948C273.579 76.034 271.322 81.3139 269.74 86.8128C268.97 89.5181 268.368 92.2687 267.936 95.0488C267.488 97.9251 267.027 100.934 267.526 103.83C268.005 106.579 269.639 109.082 272.295 110.095C273.431 110.52 273.923 108.682 272.794 108.252Z" fill="#CF6800"/>
<path d="M322.509 57.461C322.566 60.6287 322.074 68.2311 319.07 69.4982C316.067 70.7652 306.844 67.6989 303.531 67.2111C302.7 67.1608 301.894 66.8992 301.191 66.4509C300.036 65.5576 299.929 63.7837 300.56 62.4786C301.191 61.1735 302.389 60.2296 303.544 59.3109C307.159 56.498 312.654 50.1437 317.001 48.8323C321.184 47.6285 322.509 53.6218 322.509 57.461Z" fill="#BA5D00"/>
<path d="M328.187 57.461C328.243 60.6287 327.751 68.2311 324.748 69.4982C321.745 70.7652 312.521 67.6989 309.209 67.2111C308.377 67.1608 307.572 66.8992 306.868 66.4509C305.714 65.5576 305.607 63.7837 306.238 62.4786C306.868 61.1735 308.067 60.2296 309.222 59.3109C312.837 56.498 318.332 50.1437 322.679 48.8323C326.862 47.6285 328.187 53.6218 328.187 57.461Z" fill="#FF8000"/>
<path d="M327.24 57.4611C327.281 59.3699 327.148 61.2784 326.843 63.1629C326.565 64.8291 326.212 67.0845 324.881 68.2882C323.84 69.2385 321.852 68.8837 320.553 68.7C318.367 68.36 316.2 67.9053 314.061 67.3379C313.089 67.1035 312.118 66.8564 311.146 66.6347C310.174 66.4129 309.354 66.3369 308.471 66.1279C308.193 66.0873 307.927 65.9874 307.69 65.8349C307.454 65.6824 307.253 65.4809 307.1 65.2438C306.948 65.0067 306.848 64.7396 306.807 64.4605C306.766 64.1813 306.785 63.8966 306.862 63.6254C307.127 62.2443 308.357 61.2433 309.386 60.4134C313.253 57.328 316.534 53.3621 320.792 50.79C321.669 50.2578 322.78 49.5926 323.846 49.6433C324.252 49.6926 324.639 49.8399 324.975 50.0728C325.312 50.3056 325.587 50.617 325.777 50.98C326.944 52.849 327.221 55.2881 327.228 57.4421C327.228 57.6941 327.327 57.9358 327.505 58.114C327.682 58.2923 327.923 58.3924 328.174 58.3924C328.425 58.3924 328.666 58.2923 328.843 58.114C329.021 57.9358 329.12 57.6941 329.12 57.4421C329.12 53.7232 327.745 46.3869 322.433 47.939C319.859 48.6993 317.625 50.5872 315.638 52.3168C313.468 54.2174 311.455 56.251 309.26 58.0946C307.064 59.9382 304.276 61.8958 305.014 65.1776C305.645 68.0475 308.799 68.0285 311.096 68.5733C313.392 69.1181 315.834 69.7643 318.231 70.2205C320.231 70.6069 322.647 71.1328 324.635 70.5436C326.944 69.8657 327.878 67.1922 328.37 65.0762C328.932 62.57 329.184 60.0039 329.12 57.4357C329.091 57.2045 328.977 56.9922 328.802 56.8394C328.627 56.6866 328.401 56.6039 328.169 56.607C327.937 56.6101 327.714 56.6989 327.543 56.8564C327.371 57.0139 327.264 57.2291 327.24 57.4611Z" fill="#CF6800"/>
<path d="M367.17 398.937C354.464 417.537 350.11 440.978 355.391 462.518C360.672 484.058 375.51 503.362 395.567 514.785L394.721 514.354C398.368 516.185 402.646 520.626 402.627 524.123C402.627 530.021 401.396 533.791 399.087 539.208C392.482 554.684 383.926 569.245 373.63 582.535C370.93 586.013 368.022 589.504 364.167 591.626C360.312 593.749 355.334 594.344 351.625 591.994C345.284 587.977 345.946 578.645 347.366 571.252C349.561 559.848 352.363 545.277 354.565 533.873L364.085 540.247C341.607 526.869 324.675 505.814 316.383 480.932C308.091 456.05 308.993 429.002 318.925 404.733L332.805 375.28L367.17 398.937Z" fill="#FF8000"/>
<path d="M366.356 398.455C355.901 413.839 351.023 432.362 352.54 450.925C354.028 468.157 361.372 484.407 372.728 497.356C379.125 504.643 386.681 510.815 395.088 515.621L396.046 513.98L395.201 513.55C394.116 512.998 393.157 514.633 394.242 515.191C396.466 516.348 398.406 517.989 399.92 519.993C400.668 520.871 401.207 521.909 401.496 523.027C401.784 524.146 401.815 525.316 401.586 526.448C401.232 531.827 399.169 536.743 396.999 541.615C392.278 552.211 386.633 562.366 380.129 571.962C376.892 576.732 373.536 581.585 369.656 585.855C366.154 589.713 361.454 593.103 356.003 592.526C345.41 591.405 347.051 577.866 348.47 570.517C350.809 558.404 353.143 546.287 355.473 534.165L354.085 534.735L363.606 541.07L364.565 539.43C344.86 527.702 329.389 509.977 320.393 488.824C311.397 467.671 309.345 444.191 314.534 421.788C315.853 416.004 317.487 410.005 320.023 404.626L323.947 396.308L333.411 376.187L333.612 375.762L332.319 376.104L343.89 384.068L362.369 396.783L366.646 399.722C367.65 400.419 368.602 398.772 367.599 398.082L356.028 390.118L337.549 377.409L333.272 374.463C333.058 374.346 332.808 374.317 332.573 374.381C332.338 374.444 332.136 374.596 332.01 374.805L323.505 392.83L318.824 402.751C316.807 407.168 315.169 411.751 313.928 416.448C309.527 432.451 308.715 449.235 311.55 465.591C314.192 480.637 319.957 494.957 328.471 507.62C336.58 519.722 346.971 530.113 359.057 538.207C360.552 539.201 362.066 540.152 363.606 541.07C364.665 541.704 365.568 540.107 364.565 539.43L355.038 533.063C354.913 532.989 354.772 532.946 354.628 532.936C354.483 532.926 354.338 532.95 354.204 533.005C354.07 533.06 353.95 533.145 353.854 533.254C353.758 533.363 353.688 533.492 353.65 533.633C351.4 545.29 349.152 556.951 346.906 568.617C345.372 576.574 343.038 589.384 352.476 593.495C357.479 595.675 363.158 593.876 367.265 590.67C371.94 587.033 375.466 581.8 378.861 577.055C386.107 566.948 392.383 556.174 397.605 544.878C400.267 539.106 402.98 533.227 403.472 526.803C403.659 525.417 403.627 524.01 403.378 522.635C403.015 521.327 402.402 520.102 401.573 519.03C399.89 516.74 397.711 514.864 395.201 513.543L394.242 515.184L395.088 515.615C396.166 516.166 397.113 514.589 396.046 513.974C381.487 505.672 369.697 493.231 362.161 478.217C354.379 462.431 352.206 444.447 356.003 427.25C358.193 417.287 362.262 407.838 367.99 399.412C368.678 398.405 367.038 397.448 366.356 398.455Z" fill="#CF6800"/>
<path d="M280.068 394.426C267.084 448.637 254.327 485.915 241.343 540.139L237.274 555.578C236.165 559.784 233.827 563.559 230.561 566.418C209.83 584.48 185.666 590.733 157.339 588.965C151.339 588.592 144.216 586.818 142.317 581.091C140.267 574.914 145.806 568.958 151.112 565.202C163.515 556.437 177.544 550.258 192.366 547.032L193.937 546.158L237.116 402.408" fill="#FF8000"/>
<path d="M279.16 394.172C275.033 411.373 270.523 428.472 265.81 445.489C261.438 461.327 256.908 477.083 252.561 492.915C250.285 501.219 248.065 509.539 245.898 517.876C243.974 525.339 242.271 532.866 240.309 540.323L237.242 552.011C236.952 553.107 236.668 554.21 236.372 555.312C235.385 559.067 233.38 562.473 230.58 565.151C225.173 570.295 218.65 574.565 212.057 577.999C205.611 581.335 198.782 583.864 191.723 585.532C184.478 587.218 177.077 588.143 169.641 588.294C165.705 588.389 161.755 588.294 157.818 588.079C154.632 587.888 151.339 587.445 148.412 586.089C145.484 584.733 143.144 582.434 142.847 579.12C142.506 575.363 144.961 571.98 147.478 569.472C150.348 566.608 153.844 564.403 157.269 562.262C160.851 560.045 164.551 558.03 168.354 556.224C172.186 554.401 176.118 552.802 180.133 551.435C184.133 550.066 188.19 549.084 192.278 548.033C193.029 547.843 194.303 547.317 194.745 546.652C194.996 546.104 195.178 545.527 195.288 544.935L195.735 543.44L196.852 539.721L200.991 525.935L217.495 471.008L233.993 416.074L238.025 402.662C238.372 401.49 236.548 400.989 236.195 402.161L219.306 458.394L202.543 514.253L193.035 545.929L193.471 545.359C192.939 545.697 192.377 545.983 191.792 546.214C190.291 546.69 188.682 546.937 187.155 547.342C184.022 548.187 180.928 549.152 177.875 550.237C171.911 552.385 166.134 555.021 160.601 558.119C157.766 559.707 155.009 561.415 152.329 563.244C149.855 564.842 147.565 566.712 145.503 568.819C141.901 572.677 139.289 578.259 142.279 583.283C144.759 587.439 149.85 588.984 154.386 589.618C160.064 590.397 165.97 590.328 171.692 590.093C182.846 589.624 193.969 587.622 204.391 583.53C209.553 581.505 214.516 579.004 219.218 576.06C221.619 574.544 223.949 572.922 226.208 571.195C228.555 569.509 230.76 567.631 232.801 565.582C235.569 562.53 237.522 558.825 238.479 554.812L240.895 545.511C243.419 536.008 245.627 526.505 248.088 517.002C251.318 504.515 254.731 492.085 258.182 479.668C261.589 467.586 265.002 455.549 268.359 443.411C271.885 430.607 275.298 417.772 278.491 404.879C279.332 401.5 280.163 398.1 280.983 394.679C281.267 393.488 279.443 392.981 279.16 394.172Z" fill="#CF6800"/>
<path d="M353.24 438.292C353.493 430.36 361.694 409.454 366.83 400.914L332.509 377.308L318.629 406.768C313.672 418.967 310.947 431.964 310.585 445.134C310.585 445.134 321.449 434.82 353.24 438.292Z" fill="#BA5D00"/>
<path d="M224.474 448.416C224.474 448.416 239.615 442.081 264.851 455.385C268.006 441.447 279.677 396.149 279.677 396.149L237.092 404.702L224.474 448.416Z" fill="#BA5D00"/>
<path d="M144.563 571.588C144.563 571.588 146.689 593.369 208.852 579.723C185.843 590.151 180.562 588.01 156.487 587.959C134.809 587.915 144.563 571.588 144.563 571.588Z" fill="#BA5D00"/>
<path d="M364.054 540.443L347.65 571.486L355.221 534.108L364.054 540.443Z" fill="#BA5D00"/>
<path d="M366.306 398.728C355.85 414.112 350.972 432.635 352.489 451.197C353.978 468.43 361.322 484.68 372.678 497.629C379.072 504.919 386.628 511.091 395.037 515.894L395.99 514.253L395.144 513.822C394.059 513.271 393.1 514.906 394.191 515.463C396.416 516.621 398.356 518.261 399.87 520.265C400.491 521.063 400.987 521.952 401.34 522.901C401.652 524.143 401.718 525.434 401.535 526.702C401.182 532.081 399.119 536.997 396.949 541.869C392.228 552.464 386.582 562.619 380.078 572.215C376.842 576.986 373.492 581.839 369.605 586.109C366.11 589.967 361.404 593.356 355.959 592.78C345.36 591.659 347.006 578.12 348.388 570.771C350.731 558.658 353.067 546.54 355.397 534.419L354.003 534.989L363.53 541.356L364.482 539.715C352.092 532.29 341.3 522.461 332.735 510.8C323.946 498.881 317.698 485.271 314.382 470.818C310.771 454.77 310.795 438.112 314.452 422.074C315.777 416.29 317.404 410.29 319.941 404.911L323.922 396.631L333.417 376.51L333.612 376.085L332.351 376.428L343.864 384.372L362.344 397.087L366.621 400.027C367.631 400.724 368.577 399.076 367.574 398.386L356.028 390.422L337.555 377.714L333.278 374.768C333.061 374.641 332.803 374.606 332.561 374.67C332.318 374.734 332.111 374.892 331.985 375.11L323.48 393.134L318.799 403.055C316.782 407.473 315.144 412.055 313.903 416.752C309.502 432.755 308.689 449.539 311.524 465.895C314.17 480.942 319.937 495.261 328.452 507.924C336.547 520.036 346.927 530.439 359.006 538.543C360.495 539.538 362.016 540.488 363.555 541.407C364.609 542.04 365.511 540.444 364.508 539.766L354.987 533.43C354.862 533.357 354.721 533.314 354.576 533.304C354.431 533.294 354.286 533.317 354.151 533.372C354.016 533.427 353.896 533.513 353.8 533.622C353.703 533.73 353.632 533.86 353.593 534.001C351.339 545.658 349.093 557.319 346.855 568.984C345.322 576.941 342.981 589.752 352.426 593.863C357.423 596.043 363.101 594.243 367.208 591.038C371.883 587.401 375.41 582.168 378.804 577.423C386.047 567.309 392.317 556.526 397.529 545.22C400.191 539.449 402.904 533.576 403.396 527.146C403.585 525.76 403.555 524.353 403.308 522.977C402.946 521.668 402.331 520.443 401.497 519.372C399.814 517.083 397.635 515.207 395.125 513.886L394.173 515.527L395.018 515.957C396.097 516.509 397.037 514.931 395.971 514.317C381.404 506.017 369.609 493.573 362.072 478.553C354.288 462.768 352.113 444.784 355.908 427.586C358.098 417.623 362.167 408.174 367.896 399.748C368.634 398.677 366.993 397.721 366.306 398.728Z" fill="#CF6800"/>
<path d="M279.348 394.059C275.229 411.253 270.718 428.352 266.005 445.375C261.626 461.214 257.103 476.976 252.756 492.802C250.472 501.122 248.245 509.451 246.075 517.788C244.144 525.252 242.447 532.778 240.479 540.228L237.406 551.892C237.116 552.994 236.832 554.096 236.536 555.199C235.542 558.938 233.542 562.331 230.756 565.006C225.35 570.15 218.826 574.42 212.233 577.854C205.788 581.191 198.959 583.721 191.899 585.387C184.654 587.072 177.254 587.998 169.818 588.149C165.875 588.25 161.931 588.149 157.995 587.934C154.809 587.743 151.515 587.3 148.588 585.951C145.661 584.601 143.32 582.295 143.023 578.982C142.683 575.225 145.137 571.848 147.654 569.339C150.525 566.469 154.02 564.271 157.446 562.13C161.025 559.911 164.723 557.893 168.524 556.086C172.357 554.268 176.29 552.672 180.303 551.303C184.303 549.934 188.366 548.946 192.448 547.9C193.199 547.704 194.473 547.185 194.921 546.513C195.173 545.966 195.355 545.389 195.464 544.796L195.912 543.307L197.029 539.582L201.167 525.803L217.684 470.882L234.189 415.948L238.214 402.542C238.567 401.37 236.744 400.87 236.39 402.035L219.501 458.274L202.726 514.139L193.212 545.816L193.647 545.252C193.118 545.588 192.558 545.872 191.975 546.101C190.473 546.583 188.858 546.823 187.332 547.229C184.202 548.074 181.111 549.039 178.057 550.124C172.09 552.27 166.31 554.908 160.777 558.012C157.95 559.595 155.193 561.302 152.506 563.131C150.034 564.73 147.747 566.6 145.686 568.706C142.083 572.57 139.471 578.152 142.462 583.176C144.941 587.332 150.033 588.909 154.563 589.511C160.241 590.297 166.152 590.227 171.868 589.986C183.022 589.524 194.152 587.515 204.568 583.423C209.733 581.394 214.697 578.883 219.394 575.922C221.798 574.414 224.132 572.786 226.391 571.062C228.736 569.374 230.941 567.497 232.984 565.449C235.748 562.396 237.701 558.692 238.662 554.679L241.103 545.417C243.627 535.914 245.829 526.411 248.289 516.908C251.526 504.427 254.939 491.991 258.384 479.574C261.772 467.486 265.204 455.411 268.535 443.31C272.062 430.506 275.475 417.671 278.673 404.778C279.515 401.4 280.343 398 281.159 394.579C281.449 393.388 279.62 392.881 279.336 394.072L279.348 394.059Z" fill="#CF6800"/>
<path d="M174.581 340.031C174.581 340.031 173.205 317.756 158.695 265.172L236.296 237.297L232.51 208.154C232.51 208.154 156.764 232.292 133.459 255.036C126.55 261.777 158.209 318.808 158.209 318.808C158.209 318.808 160.247 326.328 152.846 339.784C152.846 339.784 144.329 354.729 138.064 365.537C137.034 367.111 136.265 368.842 135.787 370.662C135.414 372.493 135.717 374.584 137.048 375.61C140.443 378.24 144.197 373.881 146.026 370.891" fill="#39A84A"/>
<path d="M175.528 340.031C175.301 336.395 174.727 332.758 174.171 329.16C172.424 317.756 170.026 306.498 167.395 295.291C165.011 285.129 162.386 274.992 159.642 264.919L159.011 266.091L166.739 263.31L185.244 256.62L207.59 248.606L226.94 241.637C230.094 240.509 233.249 239.426 236.403 238.241L236.536 238.197C236.734 238.138 236.909 238.018 237.034 237.852C237.159 237.687 237.227 237.486 237.23 237.278L235.981 227.477L233.943 211.785L233.457 208.154C233.454 208.009 233.418 207.866 233.352 207.737C233.287 207.607 233.193 207.494 233.078 207.406C232.963 207.318 232.829 207.256 232.687 207.227C232.546 207.198 232.399 207.201 232.258 207.236C228.675 208.383 225.11 209.605 221.533 210.841C212.923 213.839 204.377 217.007 195.893 220.344C185.509 224.493 175.174 228.903 165.112 233.813C155.976 238.292 146.86 243.151 138.721 249.309C137.062 250.576 135.44 251.881 133.901 253.288C132.98 254.136 132.153 254.878 131.794 256.119C131.106 258.527 131.718 261.321 132.273 263.684C133.193 267.368 134.365 270.983 135.781 274.505C137.434 278.787 139.264 283.007 141.175 287.175C144.771 295.063 148.658 302.811 152.689 310.483C153.921 312.831 155.183 315.176 156.475 317.515C156.758 318.029 157.017 318.567 157.326 319.074C157.465 319.296 157.358 319.296 157.326 319.036C157.326 319.232 157.408 319.441 157.44 319.669C157.44 319.701 157.44 319.524 157.44 319.777L157.478 320.145C157.478 320.474 157.522 320.81 157.528 321.139C157.543 322.021 157.507 322.903 157.421 323.781C157.114 326.495 156.479 329.16 155.528 331.719C153.97 336.072 151.648 340.012 149.371 344.003C146.077 349.76 142.778 355.511 139.472 361.255C138.595 362.775 137.699 364.289 136.835 365.816C135.761 367.503 135.056 369.398 134.765 371.379C134.647 372.196 134.704 373.029 134.933 373.822C135.161 374.615 135.556 375.35 136.09 375.978C136.629 376.529 137.298 376.934 138.035 377.155C138.772 377.377 139.553 377.408 140.305 377.245C143.213 376.612 145.396 373.742 146.872 371.36C147.503 370.321 145.882 369.364 145.238 370.403C144.418 371.782 143.395 373.03 142.204 374.103C141.226 374.952 139.85 375.788 138.519 375.325C136.904 374.768 136.507 373.045 136.626 371.524C136.809 369.529 137.888 367.723 138.891 366.032C142.302 360.119 145.699 354.216 149.08 348.324C153.774 340.088 159.37 331.51 159.427 321.716C159.427 320.449 159.427 319.074 158.796 317.915C157.884 316.25 156.979 314.578 156.083 312.897C152.374 305.945 148.813 298.919 145.402 291.819C141.661 283.97 137.995 275.981 135.352 267.681C134.437 264.818 133.541 261.758 133.459 258.907C133.346 258.01 133.454 257.098 133.775 256.253C133.674 256.525 133.888 256.062 133.939 255.967C133.989 255.872 134.059 255.803 133.97 255.904C134.027 255.834 134.09 255.765 134.153 255.701C134.841 255.023 135.554 254.377 136.286 253.744C143.465 247.491 151.957 242.727 160.367 238.361C170.146 233.293 180.241 228.795 190.436 224.614C199.344 220.965 208.335 217.533 217.407 214.319C222.278 212.577 227.173 210.885 232.101 209.289L232.788 209.067L231.564 208.154L232.826 217.974L234.864 233.667L235.331 237.272L236.025 236.353L228.296 239.134L209.748 245.85L187.401 253.864L168.052 260.833C164.897 261.961 161.743 263.044 158.588 264.229L158.456 264.273C158.222 264.352 158.027 264.517 157.91 264.734C157.793 264.952 157.762 265.206 157.825 265.445C162.241 281.385 166.266 297.445 169.522 313.663C170.487 318.497 171.414 323.344 172.159 328.235C172.638 331.244 173.023 333.886 173.357 336.788C173.484 337.884 173.61 338.973 173.679 340.076C173.755 341.286 175.648 341.298 175.572 340.076L175.528 340.031Z" fill="#256E31"/>
<path d="M157.434 353.234C151.812 362.56 152.721 360.254 147.1 369.579C146.164 370.952 145.47 372.475 145.049 374.084C144.734 375.706 145.106 377.53 146.311 378.347C148.5 379.786 151.358 377.366 153.251 375.11C161.933 364.46 169.107 352.655 174.569 340.031" fill="#39A84A"/>
<path d="M156.614 352.752C154.645 356.022 152.569 359.215 150.469 362.401C149.289 364.188 148.159 366 147.049 367.831C145.592 370.225 143.712 372.899 144.04 375.845C144.324 378.417 146.418 380.337 149.055 379.532C151.692 378.727 153.516 376.32 155.162 374.255C163.371 363.955 170.181 352.606 175.414 340.506C175.9 339.398 174.266 338.428 173.78 339.55C169.214 350.106 163.45 360.097 156.601 369.326C155.018 371.631 153.259 373.808 151.339 375.838C150.04 377.106 146.967 379.247 146.077 376.377C145.264 373.748 147.339 371.024 148.633 368.914C149.693 367.165 150.771 365.423 151.888 363.713C154.058 360.406 156.222 357.111 158.273 353.722C158.904 352.67 157.27 351.713 156.632 352.759L156.614 352.752Z" fill="#256E31"/>
<path d="M451.572 357.745C461.212 363.605 471.098 369.706 477.704 378.892C484.309 388.078 486.82 401.161 480.713 410.658C474.038 421.041 460.095 423.544 447.793 423.696C406.273 424.196 364.779 408.313 334.129 380.197L348.697 392.234C331.915 410.157 311.474 421.32 288.395 429.55C278.724 432.996 267.986 435.454 258.32 431.989C248.655 428.523 241.286 417.044 245.557 407.661L259.576 401.269C233.458 414.448 205.04 422.409 175.899 424.709C163.281 425.698 149.08 424.994 140.342 415.84C131.724 406.787 131.616 392.038 136.815 380.653C142.014 369.269 151.477 360.513 160.827 352.233C170.177 343.953 179.868 335.546 185.741 324.497L175.899 338.27C161.067 330.427 157.174 313.999 158.379 303.077L159.01 300.049C168.234 265.204 197.413 230.227 224.782 209.352L225.091 207.407C222.025 208.978 218.845 210.574 215.419 210.758C211.993 210.942 208.22 209.181 206.959 205.937C205.344 201.686 208.441 197.207 211.343 193.741C223.154 179.645 232.964 164.839 244.781 150.743L251.86 141.069L282.332 101.271C286.402 95.9615 290.869 90.361 297.234 88.3464C306.307 85.4828 315.821 90.8805 323.335 96.7154C338.357 108.372 348.281 124.046 361.927 136.97C377.504 151.751 393.952 165.321 408.803 180.931C413.427 185.784 418.052 190.871 420.576 197.093C423.099 203.314 423.143 210.973 419.005 216.251C414.866 221.528 405.964 222.922 401.44 217.974C412.355 228.744 439.925 261.739 454.436 279.332C465.313 295.715 476.063 310.508 483.704 327.386C487.401 335.533 490.479 344.491 488.89 353.31C487.3 362.129 479.477 370.346 470.593 369.414" fill="#39A84A"/>
<path d="M451.118 358.568C463.736 366.228 477.849 374.958 482.114 390.093C484.045 396.935 483.71 404.55 479.647 410.563C475.862 416.163 469.603 419.286 463.244 420.915C456.695 422.587 449.894 422.815 443.169 422.701C435.475 422.57 427.801 421.888 420.204 420.661C405.33 418.243 390.847 413.828 377.145 407.534C361.676 400.446 347.392 390.998 334.799 379.526L333.455 380.869L348.029 392.906V391.563C332.83 407.718 313.664 418.957 293.09 426.806C282.238 430.956 269.576 435.353 258.119 430.899C253.55 429.06 249.759 425.686 247.394 421.352C246.246 419.305 245.533 417.043 245.299 414.706C245.134 413.02 245.297 411.318 245.779 409.695C245.845 409.28 245.933 408.87 246.044 408.466C246.447 407.971 247.886 407.629 248.447 407.376L253.179 405.216L260.031 402.086L259.078 400.445C236.578 411.758 212.351 419.21 187.401 422.492C179.881 423.474 172.222 424.291 164.632 423.956C157.692 423.645 150.563 422.27 144.752 418.254C139.036 414.326 135.617 408.117 134.588 401.3C132.292 386.007 141.137 372.557 151.44 362.186C163.427 350.073 178.278 340.266 186.575 324.896C186.69 324.679 186.718 324.425 186.651 324.189C186.584 323.952 186.429 323.75 186.217 323.626C186.005 323.502 185.754 323.466 185.516 323.524C185.278 323.583 185.072 323.731 184.941 323.939L175.086 337.712L176.348 337.37C167.774 332.745 162.108 324.592 160.001 315.121C159.078 311.269 158.829 307.286 159.263 303.349C159.793 299.339 161.194 295.392 162.544 291.604C170.594 268.961 185.105 248.682 201.559 231.418C206.038 226.717 210.726 222.225 215.621 217.943C217.981 215.877 220.391 213.871 222.852 211.924C223.691 211.252 225.192 210.536 225.64 209.523C225.815 208.891 225.917 208.24 225.943 207.584C225.986 207.404 225.976 207.214 225.914 207.039C225.852 206.864 225.741 206.711 225.594 206.598C225.448 206.484 225.271 206.416 225.087 206.401C224.903 206.386 224.718 206.425 224.555 206.514C219.949 208.87 211.615 212.5 208.152 206.285C204.921 200.495 212.656 193.653 215.855 189.668C224.46 178.936 232.353 167.659 240.921 156.908C243.236 154 245.596 151.168 247.791 148.171C249.406 145.967 250.996 143.737 252.636 141.551C261.097 130.236 269.816 119.111 278.409 107.891C282.194 102.981 285.727 97.6278 290.364 93.4845C295.109 89.2461 300.995 87.5609 307.222 89.0497C313.449 90.5385 318.938 94.3208 323.84 98.2804C328.564 102.167 332.993 106.402 337.089 110.951C345.404 120.036 352.969 129.792 361.934 138.269C371.725 147.519 381.889 156.35 391.75 165.511C396.69 170.104 401.548 174.773 406.261 179.62C410.677 184.181 415.258 188.844 418.298 194.489C421.1 199.671 422.406 206.019 420.362 211.715C419.51 214.203 417.886 216.351 415.728 217.844C413.571 219.337 410.993 220.095 408.374 220.008C406.002 219.945 403.748 218.951 402.097 217.239L400.759 218.582C407.106 224.854 412.936 231.671 418.778 238.406C426.424 247.216 433.976 256.115 441.434 265.103C444.798 269.141 448.163 273.187 451.528 277.241C455.982 282.633 459.654 288.734 463.515 294.55C471.837 307.018 480.303 319.948 485.458 334.127C488.158 341.558 489.874 350.288 486.436 357.776C483.597 363.947 477.641 369.009 470.569 368.401C469.357 368.293 469.364 370.194 470.569 370.301C476.499 370.815 481.925 367.634 485.452 363.028C489.426 357.884 490.72 351.454 490.051 345.049C489.269 337.503 486.266 330.395 482.979 323.629C479.518 316.595 475.656 309.767 471.414 303.178C467.099 296.374 462.544 289.728 458.058 283.045C454.804 278.379 451.315 273.883 447.604 269.576C439.835 260.233 432.006 250.941 424.115 241.7C416.974 233.394 409.876 224.93 402.078 217.227C401.899 217.059 401.661 216.967 401.416 216.972C401.171 216.976 400.937 217.076 400.764 217.25C400.59 217.424 400.491 217.659 400.487 217.905C400.482 218.151 400.573 218.39 400.741 218.57C404.072 222.035 409.226 222.656 413.624 221.06C418.671 219.235 421.907 214.819 422.879 209.618C425.402 196.187 414.753 185.544 406.204 176.832C395.908 166.36 384.873 156.661 374.028 146.796C368.697 141.963 363.303 137.154 358.312 131.965C353.675 127.151 349.36 122.038 344.988 116.976C336.452 107.086 327.323 96.7028 315.714 90.3675C310.206 87.3709 303.771 85.4259 297.544 87.1491C291.866 88.714 287.607 93.0283 284.024 97.4694C274.466 109.386 265.45 121.74 256.169 133.834C251.387 140.075 246.895 146.575 241.917 152.657C232.504 164.181 224.025 176.433 214.732 188.052C211.161 192.487 204.928 197.967 205.59 204.303C206.158 209.707 211.855 212.177 216.694 211.487C219.848 211.043 222.719 209.586 225.527 208.148L224.132 207.071C224.123 207.677 224.028 208.279 223.848 208.858C223.943 208.693 223.129 209.32 222.896 209.491C222.366 209.903 221.836 210.315 221.312 210.758C219.075 212.536 216.877 214.363 214.719 216.238C210.198 220.166 205.851 224.284 201.679 228.592C192.955 237.526 185.045 247.226 178.045 257.576C171.178 267.594 165.529 278.401 161.219 289.766C159.673 293.96 158.172 298.287 157.433 302.716C156.949 306.474 157.085 310.286 157.837 313.999C159.761 324.548 165.951 333.911 175.414 338.979C175.632 339.1 175.888 339.131 176.129 339.067C176.369 339.004 176.577 338.85 176.707 338.637L186.55 324.871L184.915 323.914C176.998 338.58 162.992 348.147 151.345 359.557C140.841 369.852 131.604 382.807 132.418 398.24C132.753 404.829 134.98 411.342 139.516 416.214C144.216 421.282 150.784 423.949 157.471 425.083C164.847 426.35 172.354 425.939 179.755 425.235C207.729 422.562 234.963 414.686 260.068 402.01C261.173 401.459 260.207 399.869 259.116 400.369L252.737 403.277L248.043 405.418C247.077 405.768 246.138 406.192 245.236 406.685C244.056 407.49 243.747 409.815 243.558 411.12C243.245 413.357 243.398 415.635 244.006 417.81C245.354 422.417 248.135 426.468 251.942 429.372C261.658 436.975 275.115 434.827 285.973 431.273C297.165 427.624 307.971 422.873 318.231 417.088C329.76 410.612 340.255 402.435 349.366 392.83C349.543 392.652 349.643 392.41 349.643 392.158C349.643 391.907 349.543 391.665 349.366 391.487L334.799 379.45C333.871 378.683 332.54 379.957 333.455 380.793C357.163 402.345 386.482 416.69 417.996 422.156C425.724 423.5 433.537 424.29 441.377 424.519C448.512 424.716 455.736 424.564 462.714 422.942C469.023 421.478 475.332 418.659 479.609 413.629C484.177 408.269 485.761 401.224 484.871 394.306C482.537 376.105 466.373 365.607 452.064 356.883C451.848 356.755 451.589 356.719 451.346 356.783C451.103 356.847 450.895 357.004 450.768 357.222C450.641 357.44 450.605 357.699 450.668 357.943C450.731 358.187 450.889 358.396 451.105 358.524L451.118 358.568Z" fill="#256E31"/>
<path d="M324.37 411.899C262.208 427.737 256.46 416.334 259.602 400.495C177.08 425.995 146.835 403.22 135.8 384.771C132.564 395.288 133.63 407.445 141.081 415.295C149.781 424.468 163.938 425.172 176.487 424.164C200.353 422.273 223.764 416.556 245.829 407.23C241.684 416.593 248.984 428.003 258.58 431.463C268.176 434.922 278.901 432.47 288.535 429.023C310.024 421.332 329.197 411.082 345.259 395.148C342.048 397.556 335.954 402.333 324.37 411.899Z" fill="#409151"/>
<path d="M461.118 363.516L470.008 368.989C478.84 369.921 486.626 361.691 488.209 352.885C489.515 345.637 487.673 338.314 484.928 331.383C488.26 357.092 463.736 362.965 461.118 363.516Z" fill="#409151"/>
<path d="M348.111 392.265L348.597 391.759L346.906 390.359C375.681 411.835 411.472 423.67 447.289 423.239C459.541 423.087 473.427 420.584 480.095 410.201C483.755 404.499 484.297 397.46 482.726 390.777C453.206 431.082 334.401 379.62 334.401 379.62L348.111 392.265Z" fill="#409151"/>
<path d="M470.758 371.289C468.37 369.07 465.841 367.009 463.188 365.119C465.82 367.037 468.347 369.097 470.758 371.289Z" fill="#409151"/>
<path d="M160.512 296.051C160.512 296.051 164.689 326.942 185.508 324.408C182.372 329.013 179.003 333.453 175.414 337.712C175.414 337.712 150.027 320.917 160.512 296.051Z" fill="#409151"/>
<path d="M438.267 258.59C438.267 258.59 420.488 270.658 413.996 262.746C407.504 254.833 409.851 241.351 409.851 241.351C409.851 241.351 422.065 255.289 438.241 258.59" fill="#409151"/>
<path d="M418.223 192.822C418.223 192.822 422.096 219.874 398.753 211.005C394.337 214.806 405.453 220.4 405.453 220.4C405.453 220.4 424.38 222.972 421.983 202.097C420.204 197.067 418.197 192.822 418.197 192.822" fill="#409151"/>
<path d="M450.759 358.359C463.377 366.018 477.49 374.749 481.755 389.89C483.679 396.726 483.345 404.341 479.288 410.353C475.503 415.954 469.244 419.077 462.885 420.705C456.33 422.378 449.535 422.606 442.809 422.492C435.135 422.361 427.479 421.679 419.901 420.452C405.025 418.035 390.54 413.62 376.836 407.325C361.358 400.226 347.066 390.767 334.465 379.285L333.14 380.628L347.714 392.665V391.322C332.509 407.458 313.323 418.697 292.762 426.553C281.911 430.696 269.248 435.093 257.791 430.645C253.224 428.802 249.433 425.426 247.066 421.092C245.918 419.046 245.204 416.783 244.971 414.446C244.864 413.305 244.902 412.156 245.085 411.025C245.172 410.489 245.295 409.96 245.451 409.441C245.515 409.014 245.604 408.591 245.716 408.174C246.12 407.686 247.552 407.338 248.113 407.084L252.851 404.924L259.703 401.794L258.744 400.153C243.671 407.741 227.8 413.611 211.426 417.652C203.391 419.637 195.253 421.172 187.048 422.251C179.528 423.233 171.875 424.05 164.279 423.714C157.339 423.404 150.216 422.029 144.406 418.044C138.69 414.116 135.27 407.908 134.242 401.091C131.939 385.772 140.784 372.309 151.068 361.951C163.093 349.832 177.913 340.031 186.203 324.655C186.319 324.438 186.346 324.184 186.279 323.948C186.212 323.711 186.057 323.509 185.845 323.385C185.634 323.261 185.382 323.225 185.144 323.283C184.906 323.341 184.7 323.49 184.569 323.698L174.784 337.497L176.077 337.155C167.465 332.536 161.8 324.408 159.699 314.905C158.777 311.053 158.526 307.071 158.954 303.134C159.49 299.123 160.891 295.176 162.241 291.388C170.292 268.745 184.802 248.466 201.256 231.202C205.736 226.497 210.423 222.003 215.319 217.72C217.679 215.655 220.089 213.649 222.549 211.702C223.388 211.037 224.89 210.314 225.331 209.307C225.508 208.673 225.612 208.02 225.64 207.362C225.683 207.181 225.673 206.992 225.611 206.817C225.549 206.642 225.438 206.489 225.292 206.375C225.145 206.262 224.969 206.194 224.785 206.179C224.6 206.164 224.415 206.203 224.253 206.291C219.647 208.648 211.313 212.278 207.849 206.063C204.613 200.273 212.354 193.431 215.552 189.446C224.158 178.714 232.05 167.437 240.618 156.686C242.933 153.778 245.293 150.946 247.482 147.949C249.097 145.744 250.694 143.514 252.328 141.329C260.794 130.02 269.513 118.889 278.1 107.669C281.885 102.759 285.418 97.4057 290.055 93.2624C294.806 89.0241 300.692 87.3389 306.913 88.8594C313.134 90.3798 318.635 94.1304 323.537 98.09C328.265 101.987 332.694 106.235 336.786 110.799C345.127 119.884 352.698 129.64 361.644 138.148C371.429 147.398 381.593 156.23 391.46 165.39C396.394 169.984 401.258 174.659 405.971 179.499C410.387 184.061 414.968 188.724 418.009 194.368C420.81 199.551 422.116 205.905 420.072 211.594C419.22 214.082 417.596 216.231 415.438 217.723C413.281 219.216 410.703 219.974 408.085 219.887C405.701 219.834 403.434 218.839 401.775 217.119L400.438 218.462C406.779 224.734 412.614 231.551 418.457 238.285C426.103 247.104 433.655 256.003 441.112 264.982C444.477 269.016 447.842 273.062 451.207 277.121C455.661 282.512 459.339 288.613 463.194 294.429C471.515 306.897 479.976 319.827 485.136 334.006C487.837 341.437 489.553 350.167 486.108 357.656C483.275 363.826 477.32 368.888 470.247 368.28C469.036 368.172 469.042 370.073 470.247 370.181C476.178 370.694 481.572 367.514 485.124 362.908C489.105 357.763 490.398 351.333 489.729 344.928C488.947 337.383 485.944 330.274 482.657 323.508C479.195 316.474 475.332 309.645 471.086 303.058C466.777 296.26 462.254 289.608 457.736 282.924C454.481 278.258 450.99 273.762 447.276 269.455C439.516 260.112 431.687 250.821 423.788 241.579C416.652 233.274 409.555 224.81 401.757 217.106C401.577 216.938 401.34 216.847 401.095 216.851C400.85 216.855 400.616 216.955 400.442 217.129C400.269 217.303 400.17 217.538 400.165 217.784C400.161 218.031 400.252 218.269 400.419 218.449C403.75 221.914 408.905 222.535 413.302 220.939C418.318 219.114 421.586 214.698 422.557 209.497C425.081 196.073 414.431 185.423 405.883 176.712C395.586 166.239 384.552 156.54 373.707 146.676C368.376 141.842 362.981 137.033 357.985 131.845C353.354 127.03 349.032 121.917 344.666 116.855C336.13 106.966 327.001 96.5822 315.392 90.2468C309.878 87.2502 303.45 85.2989 297.216 87.0221C291.57 88.5869 287.286 92.9013 283.696 97.3424C274.125 109.177 265.122 121.531 255.867 133.625C251.085 139.865 246.586 146.365 241.615 152.454C232.202 163.971 223.723 176.224 214.423 187.843C210.858 192.278 204.625 197.758 205.288 204.093C205.855 209.497 211.552 211.968 216.385 211.284C219.54 210.834 222.417 209.383 225.218 207.939L223.83 206.862C223.821 207.468 223.725 208.069 223.546 208.648C223.634 208.483 222.82 209.111 222.587 209.282L221.01 210.549C218.768 212.331 216.57 214.158 214.417 216.029C209.891 219.957 205.542 224.075 201.37 228.383C192.651 237.319 184.744 247.019 177.742 257.367C170.871 267.386 165.218 278.195 160.904 289.563C159.352 293.757 157.85 298.084 157.118 302.519C156.525 306.194 156.872 310.153 157.522 313.796C159.415 324.363 165.572 333.708 175.067 338.821C175.285 338.941 175.54 338.974 175.781 338.911C176.021 338.849 176.229 338.696 176.361 338.485L186.197 324.712L184.562 323.755C176.651 338.428 162.645 347.988 150.999 359.398C140.494 369.693 131.258 382.649 132.072 398.082C132.406 404.67 134.595 411.183 139.163 416.055C143.869 421.123 150.437 423.79 157.125 424.924C164.494 426.192 172.001 425.786 179.408 425.077C207.382 422.401 234.616 414.526 259.722 401.851C260.82 401.3 259.861 399.716 258.763 400.21L252.384 403.093L247.684 405.241C246.718 405.588 245.782 406.011 244.883 406.508C243.703 407.312 243.394 409.644 243.198 410.942C242.891 413.18 243.046 415.457 243.653 417.633C244.998 422.24 247.78 426.292 251.589 429.195C261.305 436.765 274.762 434.649 285.62 431.095C296.812 427.446 307.618 422.695 317.878 416.91C329.413 410.422 339.913 402.232 349.026 392.614C349.202 392.435 349.3 392.194 349.3 391.943C349.3 391.691 349.202 391.45 349.026 391.271L334.452 379.234C333.531 378.467 332.2 379.741 333.115 380.577C356.826 402.145 386.154 416.502 417.681 421.972C425.408 423.316 433.222 424.106 441.062 424.335C448.191 424.538 455.421 424.38 462.399 422.758C468.708 421.294 475.017 418.475 479.288 413.445C483.862 408.085 485.446 401.04 484.556 394.122C482.222 375.921 466.058 365.423 451.749 356.699C451.533 356.571 451.274 356.535 451.031 356.599C450.788 356.662 450.58 356.82 450.453 357.038C450.326 357.256 450.29 357.515 450.353 357.759C450.416 358.003 450.574 358.212 450.79 358.34L450.759 358.359Z" fill="#256E31"/>
<path d="M458.172 360.519C459.812 363.624 463.327 368.204 467.087 365.74C468.557 364.777 469.061 362.692 468.828 360.83C468.499 358.978 467.859 357.196 466.935 355.559C461.371 344.364 459.364 340.094 453.825 328.9C459.465 336.724 462.191 348.457 466.714 353.81C467.913 355.229 470.437 356.515 472.689 354.742C474.941 352.968 472.481 349.724 471.535 347.64C465.585 334.468 457.711 319.131 450.084 307.537C450.084 307.537 493.181 274.137 482.26 257.602C464.248 230.36 370.748 208.566 370.748 208.566L380.451 240.699L455.838 263.817C450.999 277.419 423.031 310.755 423.031 310.755L422.028 312.421C418.659 319.34 417.668 329.951 416.432 341.108C416.104 344.079 415.744 351.396 418.469 352.397C420.009 352.961 421.126 351.802 422.185 350.573C423.245 349.344 423.794 347.735 424.318 346.138L430.438 327.911L431.251 327.981C435.832 340.971 442.265 353.224 450.349 364.359C452.065 366.722 454.853 369.307 457.251 367.976C458.607 367.222 459.144 365.404 458.967 363.763C458.674 362.124 458.086 360.553 457.232 359.126C452.185 349.458 449.175 343.116 444.147 333.448" fill="#39A84A"/>
<path d="M457.351 360.982C458.746 363.579 460.966 366.779 464.089 367.317C464.901 367.446 465.732 367.367 466.504 367.085C467.277 366.804 467.965 366.33 468.506 365.708C469.514 364.383 469.967 362.714 469.767 361.058C469.578 358.916 468.638 356.971 467.698 355.077C466.758 353.183 465.805 351.327 464.91 349.451C463.391 346.36 461.879 343.266 460.373 340.17C458.455 336.246 456.525 332.329 454.582 328.418L453.011 329.356C456.43 334.139 458.544 339.695 460.865 345.055C461.843 347.434 462.981 349.743 464.272 351.967C465.496 353.975 467.017 356.046 469.49 356.458C470.209 356.583 470.948 356.54 471.648 356.332C472.348 356.124 472.991 355.758 473.528 355.261C473.955 354.833 474.266 354.301 474.429 353.718C474.593 353.134 474.604 352.518 474.461 351.928C474.152 350.67 473.652 349.467 472.979 348.362C472.304 347.095 471.717 345.758 471.13 344.446C468.291 338.301 465.29 332.236 462.127 326.251C458.651 319.701 454.967 313.239 450.897 307.036L450.556 308.341C453.238 306.263 455.818 304.046 458.354 301.797C463.759 297.076 468.82 291.971 473.496 286.522C477.969 281.22 482.493 275.207 484.341 268.391C485.171 265.665 485.215 262.759 484.467 260.009C483.66 257.405 481.849 255.194 480.051 253.217C475.635 248.415 470.108 244.658 464.537 241.358C457.666 237.369 450.54 233.839 443.207 230.79C435.345 227.477 427.447 224.506 419.459 221.775C412.095 219.241 404.677 216.882 397.207 214.698C391.479 213.009 385.725 211.41 379.946 209.903C377.082 209.155 374.211 208.42 371.334 207.736L370.956 207.647C370.795 207.605 370.625 207.606 370.464 207.65C370.304 207.694 370.157 207.78 370.04 207.898C369.922 208.017 369.838 208.164 369.795 208.326C369.752 208.487 369.752 208.658 369.795 208.819L372.255 216.966L376.874 232.254L378.691 238.247C378.956 239.121 379.157 240.052 379.498 240.901C379.757 241.535 380.331 241.636 380.918 241.814L383.593 242.631L393.542 245.685L407.504 249.967L423.15 254.763L437.976 259.312L449.509 262.847C451.402 263.436 453.345 264.114 455.288 264.621L455.553 264.703L454.922 263.531C453.766 266.486 452.322 269.318 450.613 271.989C448.462 275.562 446.115 279.028 443.711 282.436C438.948 289.183 433.907 295.74 428.746 302.183C427.064 304.261 425.381 306.331 423.699 308.392C422.811 309.416 422.011 310.514 421.308 311.674C420.162 313.845 419.313 316.161 418.784 318.56C418.037 321.545 417.456 324.57 417.043 327.62C416.545 331.085 416.153 334.589 415.781 338.048C415.464 340.407 415.279 342.782 415.226 345.162C415.226 347.259 415.333 349.597 416.28 351.498C416.637 352.289 417.276 352.917 418.071 353.259C419.434 353.791 420.746 353.259 421.781 352.321C424.21 350.161 424.999 346.981 425.996 344.009L429.554 333.398L431.308 328.171L430.399 328.868L431.213 328.938L430.298 328.209C434.463 340.012 440.141 351.221 447.188 361.552C448.815 363.928 450.411 366.563 452.828 368.217C454.903 369.636 457.711 369.68 459.137 367.336C460.657 364.84 459.648 361.869 458.455 359.487C457.048 356.674 455.572 353.899 454.146 351.099C451.08 345.042 448.052 338.966 444.923 332.941C444.361 331.858 442.727 332.821 443.289 333.904C445.869 338.859 448.374 343.851 450.891 348.843C452.153 351.339 453.414 353.835 454.676 356.325C455.358 357.656 456.064 358.98 456.739 360.316C457.434 361.5 457.864 362.821 458.001 364.187C458.039 365.195 457.774 366.405 456.903 367.019C456.033 367.634 454.84 367.26 453.97 366.709C451.705 365.258 450.184 362.648 448.727 360.475C441.797 350.32 436.21 339.303 432.109 327.702C432.049 327.505 431.929 327.333 431.766 327.208C431.603 327.083 431.405 327.012 431.2 327.005L430.387 326.936C430.18 326.938 429.979 327.007 429.815 327.133C429.65 327.258 429.53 327.433 429.472 327.632L426.014 337.94C424.923 341.19 423.996 344.56 422.69 347.722C422.147 349.033 419.567 353.234 418.065 350.82C417.087 349.236 417.106 346.949 417.106 345.118C417.148 342.853 417.319 340.591 417.617 338.346C417.989 334.981 418.355 331.611 418.835 328.26C419.236 325.276 419.794 322.315 420.507 319.39C421.081 317.128 421.718 314.677 422.891 312.649C423.081 312.326 423.283 312.016 423.472 311.686C423.548 311.566 423.964 310.939 423.636 311.357L423.825 311.135C424.21 310.679 424.589 310.217 424.967 309.76C426.578 307.813 428.17 305.856 429.743 303.887C434.721 297.673 439.591 291.369 444.254 284.881C446.67 281.511 449.017 278.096 451.194 274.58C452.993 271.807 454.585 268.904 455.957 265.894C456.228 265.261 456.487 264.627 456.72 263.994C456.784 263.754 456.755 263.5 456.637 263.282C456.52 263.064 456.324 262.899 456.09 262.822L448.588 260.522L430.57 254.998L408.848 248.383L389.921 242.587L383.738 240.686C382.777 240.326 381.795 240.026 380.798 239.786L380.672 239.748L381.302 240.414L378.009 229.523L372.823 212.272L371.624 208.293L370.464 209.459C372.419 209.922 374.375 210.409 376.325 210.91C381.372 212.202 386.419 213.564 391.466 214.996C398.52 217.007 405.533 219.15 412.507 221.427C420.336 223.992 428.109 226.748 435.768 229.796C443.266 232.727 450.602 236.062 457.742 239.786C463.787 242.954 469.73 246.54 474.953 251.025C477.058 252.802 478.962 254.806 480.632 257C482.194 258.96 483.036 261.401 483.016 263.911C482.874 266.781 482.128 269.588 480.827 272.147C479.275 275.332 477.408 278.352 475.256 281.163C470.781 286.985 465.796 292.394 460.361 297.324C456.992 300.492 453.522 303.514 449.913 306.377C449.806 306.466 449.08 307.011 449.541 306.681C449.327 306.811 449.171 307.019 449.108 307.261C449.044 307.504 449.077 307.762 449.2 307.98C456.064 318.446 461.925 329.59 467.32 340.88C468.581 343.49 469.673 346.182 470.991 348.754C471.887 350.49 473.994 353.614 470.991 354.507C468.682 355.198 467.029 352.917 465.944 351.232C464.717 349.177 463.637 347.036 462.714 344.827C460.26 339.226 458.115 333.385 454.512 328.355C454.381 328.147 454.175 327.998 453.937 327.939C453.699 327.881 453.448 327.918 453.236 328.042C453.024 328.166 452.869 328.367 452.802 328.604C452.735 328.841 452.763 329.094 452.878 329.311C455.812 335.216 458.695 341.139 461.591 347.05C463.175 350.275 464.796 353.487 466.367 356.724C467.509 359.068 469.288 363.959 465.736 365.245C462.67 366.354 460.058 362.166 458.884 359.968C458.31 358.891 456.676 359.848 457.25 360.925L457.351 360.982Z" fill="#256E31"/>
<path d="M395.61 198.562L330.733 214.987L345.771 274.882L410.648 258.458L395.61 198.562Z" fill="#39A84A"/>
<path d="M169.49 341.443L169.768 343.167C170.273 350.053 167.572 359.157 164.897 368.793C164.184 371.365 162.058 377.53 159.459 377.409C157.995 377.339 157.446 375.99 156.973 374.609C156.591 373.179 156.486 371.688 156.664 370.219L157.623 353.043" fill="#39A84A"/>
<path d="M168.575 341.697C169.01 344.905 168.908 348.164 168.272 351.339C167.389 356.021 166.266 360.654 164.91 365.22C164.001 368.508 163.225 372.043 161.32 374.932C160.828 375.68 159.869 376.966 158.891 376.243C158.26 375.8 158.001 374.786 157.806 374.096C157.533 372.917 157.46 371.7 157.591 370.497C157.894 364.681 158.222 358.859 158.569 353.043C158.639 351.821 156.746 351.827 156.677 353.043C156.361 358.72 156.044 364.392 155.724 370.06C155.598 372.36 155.61 374.812 156.916 376.82C157.119 377.171 157.39 377.477 157.713 377.721C158.036 377.964 158.405 378.14 158.797 378.237C159.189 378.334 159.597 378.35 159.996 378.286C160.395 378.221 160.776 378.075 161.118 377.859C162.474 376.985 163.339 375.401 164.008 373.975C164.707 372.465 165.288 370.902 165.743 369.3C167.213 364.194 168.676 359.049 169.724 353.842C170.267 351.296 170.611 348.712 170.752 346.112C170.805 344.464 170.687 342.814 170.399 341.19C170.203 339.986 168.38 340.499 168.575 341.697Z" fill="#256E31"/>
<path d="M251.634 43.7514C244.769 48.6676 237.52 53.888 233.71 61.6931C230.309 68.662 230.057 77.2337 235.64 83.132C238.36 85.9955 242.202 87.8328 246.195 87.516C247.4 87.421 247.413 85.5204 246.195 85.6154C239.501 86.1539 233.987 80.1417 233.218 73.7936C232.278 66.0582 236.707 58.8929 242.05 53.7423C245.358 50.7078 248.879 47.9172 252.586 45.3923C253.571 44.689 252.631 43.0418 251.634 43.7514Z" fill="#CF6800"/>
<path d="M245.494 88.2828C244.194 90.0735 243.265 92.1081 242.762 94.2662C242.259 96.4242 242.193 98.6616 242.567 100.846C243.185 104.117 244.786 107.12 247.155 109.45C249.523 111.78 252.546 113.325 255.816 113.878C257.008 114.068 257.519 112.237 256.321 112.047C253.867 111.692 251.548 110.698 249.596 109.163C247.643 107.628 246.126 105.606 245.194 103.299C244.262 100.992 243.949 98.4794 244.285 96.0126C244.621 93.5459 245.595 91.2106 247.11 89.2395C247.841 88.2638 246.201 87.3389 245.475 88.2828H245.494Z" fill="#CF6800"/>
<path d="M293.765 5.67627C297.086 9.36906 299.623 13.7026 301.221 18.4125C302.818 23.1224 303.444 28.1098 303.058 33.0703C302.964 34.2867 304.857 34.2804 304.951 33.0703C305.337 27.8599 304.663 22.6251 302.97 17.6846C301.277 12.7442 298.6 8.20149 295.103 4.33318C294.283 3.42722 292.945 4.77032 293.765 5.67627Z" fill="#CF6800"/>
<path d="M305.828 34.0778C309.301 32.5854 313.038 31.8159 316.815 31.8159C320.593 31.8159 324.33 32.5854 327.803 34.0778C331.157 35.5573 334.178 37.7037 336.684 40.3877C339.19 43.0717 341.129 46.2376 342.383 49.6944C343.817 53.5645 344.375 57.7066 344.017 61.8203C343.903 63.0367 345.796 63.0303 345.909 61.8203C346.54 53.8984 344.014 46.0492 338.888 39.995C336.29 36.9851 333.106 34.5417 329.532 32.8157C325.957 31.0897 322.069 30.1177 318.106 29.9598C313.557 29.7469 309.022 30.597 304.857 32.4432C303.746 32.9374 304.705 34.5782 305.809 34.0841L305.828 34.0778Z" fill="#CF6800"/>
<path d="M334.294 74.1614C342.407 79.0269 346.716 89.3662 344.464 98.5588C344.174 99.7498 345.997 100.257 346.287 99.0656C348.18 91.2415 345.821 82.7141 340.452 76.7842C338.935 75.1161 337.184 73.6797 335.253 72.5205C335.146 72.4573 335.027 72.4159 334.904 72.3987C334.781 72.3815 334.655 72.3889 334.535 72.4203C334.414 72.4518 334.301 72.5068 334.202 72.5821C334.103 72.6575 334.019 72.7517 333.956 72.8594C333.894 72.9672 333.852 73.0863 333.835 73.2101C333.818 73.3338 333.825 73.4597 333.857 73.5806C333.888 73.7015 333.943 73.815 334.018 73.9146C334.093 74.0143 334.187 74.0981 334.294 74.1614Z" fill="#CF6800"/>
<path d="M338.704 29.478C347.152 34.0648 352.956 42.8646 354.294 52.3803C354.678 55.0802 354.678 57.8214 354.294 60.5212C354.117 61.7186 355.94 62.2381 356.117 61.0281C356.807 55.9314 356.306 50.7432 354.652 45.875C352.998 41.0068 350.238 36.5923 346.59 32.9815C344.532 30.9412 342.195 29.2049 339.65 27.8245C338.584 27.2416 337.625 28.8825 338.698 29.4653L338.704 29.478Z" fill="#CF6800"/>
<path d="M222.278 47.0523C214.284 52.3993 210.865 63.068 213.3 72.2606C213.975 74.8341 215.142 77.2508 216.738 79.3752C217.464 80.3382 219.111 79.3752 218.372 78.4186C213.029 71.3547 213.281 61.1104 218.114 53.8501C219.465 51.8096 221.203 50.0571 223.23 48.6931C224.24 48.0152 223.293 46.368 222.278 47.0523Z" fill="#CF6800"/>
<path d="M314.363 21.3118L326.628 1.81159C327.259 0.772594 325.644 -0.184044 324.994 0.848618L312.729 20.3488C312.099 21.3878 313.714 22.3381 314.363 21.3118Z" fill="#CF6800"/>
<path d="M241.69 32.7723L259.052 35.94C260.245 36.1554 260.756 34.3245 259.557 34.1091L242.188 30.9414C241.002 30.726 240.491 32.5569 241.69 32.7723Z" fill="#CF6800"/>
<path d="M243.861 19.1134L264.176 25.6831C265.336 26.0569 265.835 24.226 264.674 23.8522L244.365 17.2824C243.204 16.9023 242.706 18.7396 243.861 19.1134Z" fill="#CF6800"/>
<path d="M235.312 236.486C232.486 240.191 230.089 244.208 228.171 248.459C226.53 252.102 225.016 255.973 224.953 260.028C224.915 263.55 226.29 267.117 229.678 268.618C233.565 270.348 237.968 268.504 241.394 266.534C243.785 265.159 246.063 263.563 248.372 262.055L255.779 257.253C256.801 256.588 255.854 254.94 254.826 255.612L242.656 263.538C239.615 265.514 235.76 267.934 231.931 267.339C228.391 266.794 226.839 263.538 226.82 260.25C226.82 256.657 228.133 253.179 229.552 249.936C231.507 245.495 233.983 241.305 236.927 237.455C237.666 236.486 236.019 235.554 235.287 236.492L235.312 236.486Z" fill="#256E31"/>
<path d="M253.804 256.461C251.798 258.222 251.999 261.231 253.343 263.328C255.085 266.04 258.195 266.775 261.217 266.154C264.592 265.457 267.526 263.316 270.188 261.2C272.9 258.947 275.488 256.549 277.942 254.016C280.696 251.14 283.659 248.474 286.806 246.039C287.784 245.323 286.838 243.676 285.854 244.398C280.806 248.117 276.643 252.856 272.043 257.069C269.786 259.253 267.283 261.167 264.586 262.771C262.214 264.108 258.693 265.394 256.195 263.633C254.441 262.365 253.287 259.413 255.141 257.779C256.056 256.968 254.712 255.631 253.804 256.436V256.461Z" fill="#256E31"/>
<path d="M398.18 317.072L402.331 326.473C403.429 328.957 405.296 331.877 404.091 334.64C403.567 335.758 402.751 336.713 401.73 337.403C400.71 338.094 399.522 338.494 398.293 338.561C395.416 338.713 392.615 337.389 390.495 335.52C387.972 333.278 386.155 330.357 384.388 327.487C383.757 326.448 382.11 327.405 382.754 328.444C386.11 333.898 390.426 340.253 397.523 340.481C398.971 340.53 400.408 340.224 401.711 339.589C403.013 338.954 404.142 338.01 405 336.838C405.848 335.69 406.334 334.313 406.394 332.885C406.457 331.187 405.763 329.609 405.1 328.095C403.342 324.1 401.58 320.111 399.814 316.128C399.321 315.006 397.694 315.976 398.18 317.084V317.072Z" fill="#256E31"/>
<path d="M383.328 329.552C385.605 330.997 385.511 334.228 384.375 336.382C382.792 339.391 379.227 340.291 376.066 340.272C372.47 340.272 368.842 339.309 365.461 338.149C358.079 335.601 351.454 331.231 346.193 325.441C345.367 324.535 344.029 325.878 344.849 326.784C350.404 332.876 357.406 337.453 365.202 340.088C368.924 341.355 373 342.362 376.956 342.185C380.558 342.02 384.4 340.62 386.098 337.193C387.631 334.101 387.422 329.932 384.287 327.937C383.252 327.303 382.299 328.925 383.328 329.578V329.552Z" fill="#256E31"/>
<path d="M234.448 212.393C225.776 216.921 218.518 223.768 213.477 232.178C213.107 232.833 213.006 233.607 213.197 234.335C213.388 235.063 213.855 235.687 214.499 236.074C215.153 236.44 215.922 236.538 216.646 236.348C217.37 236.158 217.993 235.695 218.385 235.054C219.016 234.034 219.647 233.033 220.316 232.064C220.606 231.646 220.902 231.234 221.212 230.797L221.514 230.391L221.458 230.467L222.013 229.77C223.431 228.023 224.966 226.374 226.606 224.835C227.439 224.05 228.303 223.296 229.186 222.567L229.779 222.092C230.297 221.674 229.527 222.276 230.006 221.908C230.486 221.541 230.959 221.199 231.445 220.857C233.318 219.535 235.281 218.345 237.318 217.296C237.964 216.909 238.432 216.284 238.622 215.554C238.812 214.824 238.708 214.048 238.334 213.394C237.942 212.753 237.32 212.289 236.596 212.098C235.872 211.907 235.103 212.003 234.448 212.367V212.393Z" fill="#A8E580"/>
<path d="M290.51 104.185L280.081 119.434C279.706 120.087 279.603 120.863 279.794 121.593C279.986 122.322 280.456 122.947 281.103 123.33C281.757 123.693 282.524 123.789 283.246 123.599C283.969 123.409 284.59 122.948 284.983 122.31L295.412 107.067C295.786 106.412 295.888 105.636 295.697 104.906C295.506 104.176 295.036 103.55 294.39 103.165C293.736 102.802 292.969 102.706 292.247 102.896C291.525 103.085 290.903 103.547 290.51 104.185Z" fill="#A8E580"/>
<path d="M192.916 236.473C185.276 240.484 177.604 247.117 177.308 256.411C177.049 263.943 181.983 270.38 188.922 272.927C193.307 274.536 198.108 274.631 202.714 274.333C207.906 273.998 213.099 273.409 218.266 272.794C230.463 271.345 242.566 269.305 254.574 266.674C278.762 261.368 302.386 253.741 325.121 243.898C347.789 234.112 369.461 222.145 389.833 208.167C394.88 204.721 399.82 201.198 404.628 197.46C408.975 194.09 413.328 190.282 415.839 185.284C416.861 183.25 417.851 180.849 417.643 178.492C417.424 176.598 416.633 174.817 415.378 173.386C412.672 170.092 408.331 167.982 404.192 167.26C402.217 166.875 400.184 166.897 398.218 167.323C397.032 167.602 397.536 169.439 398.722 169.16C402.754 168.21 407.265 169.629 410.672 171.802C412.405 172.836 413.861 174.28 414.911 176.009C415.94 177.833 415.902 179.607 415.309 181.571C413.757 186.69 409.877 190.681 405.889 194.027C401.435 197.764 396.628 201.116 391.871 204.448C372.63 217.919 352.195 229.583 330.825 239.293C309.291 249.087 286.905 256.868 263.949 262.537C252.568 265.341 241.073 267.62 229.464 269.373C223.618 270.256 217.753 270.995 211.868 271.59C207.452 272.04 203.004 272.591 198.563 272.547C194.02 272.503 189.339 271.711 185.547 269.037C182.851 267.155 180.854 264.428 179.869 261.283C177.655 253.984 181.547 247.072 187.105 242.511C189.226 240.811 191.515 239.335 193.938 238.108C195.017 237.538 194.058 235.897 192.979 236.461L192.916 236.473Z" fill="#256E31"/>
<path d="M174.62 259.281C170.519 261.257 167.005 264.298 165.245 268.587C163.585 272.642 163.724 277.178 164.702 281.385C167.125 291.807 174.102 301.176 181.572 308.564C186.533 313.317 191.779 317.76 197.282 321.868C203.047 326.318 209.043 330.458 215.244 334.272C227.862 342.014 241.319 348.609 254.788 354.723C281.526 366.861 309.582 376.333 338.553 381.331C367.631 386.324 397.612 386.748 426.646 381.217C433.861 379.849 440.998 378.095 448.027 375.965C454.745 374.039 461.303 371.59 467.642 368.642C478.809 363.238 489.219 353.728 489.78 340.462C489.905 337.553 489.435 334.648 488.399 331.928C487.97 330.794 486.14 331.295 486.575 332.435C488.815 338.289 488.007 344.713 485.282 350.269C482.455 356.041 477.762 360.501 472.38 363.877C466.702 367.438 460.393 369.858 454.084 372.018C447.402 374.3 440.606 376.231 433.725 377.803C405.87 384.138 376.849 384.772 348.597 380.97C320.528 377.169 293.166 368.933 267.059 358.049C253.773 352.493 240.795 346.215 228.101 339.41C215.633 332.766 203.84 324.915 192.891 315.97C183.926 308.614 175.522 300.613 170.096 290.178C166.134 282.576 163.156 271.888 169.901 264.881C171.543 263.235 173.466 261.899 175.579 260.934C176.677 260.402 175.718 258.761 174.62 259.287V259.281Z" fill="#256E31"/>
<path d="M369.102 258.52C387.221 258.52 401.909 243.771 401.909 225.577C401.909 207.382 387.221 192.633 369.102 192.633C350.983 192.633 336.295 207.382 336.295 225.577C336.295 243.771 350.983 258.52 369.102 258.52Z" fill="url(#paint0_radial_1200_9190)"/>
<path d="M369.101 236.879C375.317 236.879 380.356 231.819 380.356 225.577C380.356 219.335 375.317 214.274 369.101 214.274C362.885 214.274 357.846 219.335 357.846 225.577C357.846 231.819 362.885 236.879 369.101 236.879Z" fill="#5CEEFF" stroke="#45B3E9" stroke-width="2.16641" stroke-miterlimit="10"/>
<path d="M366.938 220.793C366.938 220.793 362.61 223.404 364.338 227.762L366.938 220.793Z" fill="#5CEEFF"/>
<path d="M366.938 220.793C366.938 220.793 362.61 223.404 364.338 227.762" stroke="white" stroke-width="2.88854" stroke-miterlimit="10" stroke-linecap="round"/>
<path d="M265.003 301.601C286.257 301.601 303.488 284.299 303.488 262.955C303.488 241.612 286.257 224.31 265.003 224.31C243.748 224.31 226.518 241.612 226.518 262.955C226.518 284.299 243.748 301.601 265.003 301.601Z" fill="url(#paint1_radial_1200_9190)"/>
<path d="M265.002 274.257C271.218 274.257 276.258 269.197 276.258 262.955C276.258 256.713 271.218 251.653 265.002 251.653C258.786 251.653 253.747 256.713 253.747 262.955C253.747 269.197 258.786 274.257 265.002 274.257Z" fill="#5CEEFF" stroke="#45B3E9" stroke-width="2.16641" stroke-miterlimit="10"/>
<path d="M262.839 258.172C262.839 258.172 258.511 260.782 260.24 265.141L262.839 258.172Z" fill="#5CEEFF"/>
<path d="M262.839 258.172C262.839 258.172 258.511 260.782 260.24 265.141" stroke="white" stroke-width="2.88854" stroke-miterlimit="10" stroke-linecap="round"/>
<path d="M211.376 369.389C231.237 369.389 247.338 353.221 247.338 333.278C247.338 313.334 231.237 297.166 211.376 297.166C191.515 297.166 175.415 313.334 175.415 333.278C175.415 353.221 191.515 369.389 211.376 369.389Z" fill="url(#paint2_radial_1200_9190)"/>
<path d="M211.375 344.58C217.592 344.58 222.631 339.519 222.631 333.277C222.631 327.035 217.592 321.975 211.375 321.975C205.159 321.975 200.12 327.035 200.12 333.277C200.12 339.519 205.159 344.58 211.375 344.58Z" fill="#5CEEFF" stroke="#45B3E9" stroke-width="2.16641" stroke-miterlimit="10"/>
<path d="M209.212 328.495C209.212 328.495 204.884 331.105 206.613 335.464L209.212 328.495Z" fill="#5CEEFF"/>
<path d="M209.212 328.495C209.212 328.495 204.884 331.105 206.613 335.464" stroke="white" stroke-width="2.88854" stroke-miterlimit="10" stroke-linecap="round"/>
<path d="M301.595 408.035C322.85 408.035 340.08 390.733 340.08 369.389C340.08 348.046 322.85 330.744 301.595 330.744C280.341 330.744 263.11 348.046 263.11 369.389C263.11 390.733 280.341 408.035 301.595 408.035Z" fill="url(#paint3_radial_1200_9190)"/>
<path d="M301.595 380.691C307.811 380.691 312.85 375.631 312.85 369.389C312.85 363.147 307.811 358.087 301.595 358.087C295.379 358.087 290.34 363.147 290.34 369.389C290.34 375.631 295.379 380.691 301.595 380.691Z" fill="#5CEEFF" stroke="#45B3E9" stroke-width="2.16641" stroke-miterlimit="10"/>
<path d="M299.431 364.606C299.431 364.606 295.103 367.216 296.832 371.575L299.431 364.606Z" fill="#5CEEFF"/>
<path d="M299.431 364.606C299.431 364.606 295.103 367.216 296.832 371.575" stroke="white" stroke-width="2.88854" stroke-miterlimit="10" stroke-linecap="round"/>
<path d="M422.728 416.904C442.589 416.904 458.689 400.737 458.689 380.793C458.689 360.849 442.589 344.681 422.728 344.681C402.867 344.681 386.767 360.849 386.767 380.793C386.767 400.737 402.867 416.904 422.728 416.904Z" fill="url(#paint4_radial_1200_9190)"/>
<path d="M422.728 392.095C428.944 392.095 433.983 387.035 433.983 380.793C433.983 374.55 428.944 369.49 422.728 369.49C416.512 369.49 411.473 374.55 411.473 380.793C411.473 387.035 416.512 392.095 422.728 392.095Z" fill="#5CEEFF" stroke="#45B3E9" stroke-width="2.16641" stroke-miterlimit="10"/>
<path d="M420.564 376.01C420.564 376.01 416.236 378.62 417.964 382.979L420.564 376.01Z" fill="#5CEEFF"/>
<path d="M420.564 376.01C420.564 376.01 416.236 378.62 417.964 382.979" stroke="white" stroke-width="2.88854" stroke-miterlimit="10" stroke-linecap="round"/>
<path d="M323.203 151.719C319.814 161.266 324.565 171.667 333.819 174.958C343.073 178.249 353.324 173.166 356.719 163.619L323.203 151.719Z" fill="white" stroke="#256E31" stroke-width="2.60673" stroke-miterlimit="10"/>
<path d="M349.824 160.843C347.764 166.63 341.58 169.725 336.008 167.744C330.436 165.763 327.588 159.455 329.641 153.674L349.824 160.843Z" fill="#256E31" stroke="#256E31" stroke-width="1.95505" stroke-miterlimit="10"/>
<path d="M357.893 164.362L372.093 167.581C373.931 167.998 374.7 165.176 372.875 164.753L358.642 161.534C356.804 161.116 356.035 163.945 357.867 164.362H357.893Z" fill="#256E31"/>
<path d="M372.855 156.744L357.716 156.633C355.826 156.633 355.826 159.552 357.716 159.565L372.855 159.676C374.745 159.676 374.745 156.757 372.855 156.744Z" fill="#256E31"/>
<path d="M356.986 163.613C357.819 161.376 358.2 158.995 358.105 156.61C358.01 154.224 357.441 151.881 356.432 149.718C355.423 147.554 353.993 145.613 352.227 144.007C350.46 142.401 348.392 141.163 346.142 140.364C343.892 139.565 341.506 139.222 339.122 139.354C336.738 139.487 334.405 140.092 332.257 141.135C330.11 142.177 328.191 143.637 326.613 145.429C325.035 147.22 323.829 149.308 323.065 151.57L356.986 163.613Z" fill="#39A84A" stroke="#256E31" stroke-width="2.60673" stroke-miterlimit="10"/>
<path d="M291.049 151.067C291.888 153.307 292.271 155.692 292.175 158.082C292.078 160.472 291.505 162.819 290.489 164.984C289.472 167.15 288.033 169.09 286.256 170.691C284.479 172.292 282.399 173.521 280.14 174.306C275.514 175.86 270.465 175.544 266.069 173.425C261.674 171.306 258.28 167.553 256.614 162.967L291.049 151.067Z" fill="white" stroke="#256E31" stroke-width="2.60673" stroke-miterlimit="10"/>
<path d="M263.697 160.191C264.698 162.963 266.741 165.235 269.393 166.522C272.045 167.809 275.094 168.009 277.891 167.079C279.253 166.599 280.505 165.851 281.573 164.88C282.642 163.909 283.507 162.735 284.115 161.426C284.724 160.116 285.065 158.698 285.119 157.255C285.173 155.812 284.937 154.373 284.427 153.022L263.697 160.191Z" fill="#256E31" stroke="#256E31" stroke-width="1.95505" stroke-miterlimit="10"/>
<path d="M254.619 160.882L240.034 164.101C238.19 164.512 238.972 167.36 240.816 166.93L255.401 163.71C257.238 163.3 256.463 160.452 254.619 160.882Z" fill="#256E31"/>
<path d="M240.035 159.025L255.591 158.888C257.481 158.888 257.481 155.942 255.591 155.955L240.035 156.092C238.152 156.092 238.145 159.038 240.035 159.025Z" fill="#256E31"/>
<path d="M256.327 162.961C255.505 160.705 255.143 158.308 255.261 155.91C255.38 153.512 255.976 151.163 257.017 148.999C258.057 146.835 259.519 144.902 261.318 143.312C263.117 141.722 265.215 140.508 267.49 139.741C272.117 138.142 277.186 138.416 281.614 140.504C286.042 142.592 289.477 146.33 291.186 150.918L256.327 162.961Z" fill="#39A84A" stroke="#256E31" stroke-width="2.60673" stroke-miterlimit="10"/>
<path d="M298.034 190.071C298.437 188.207 299.494 186.549 301.016 185.399C302.537 184.249 304.42 183.682 306.323 183.803C308.226 183.924 310.023 184.723 311.386 186.057C312.75 187.39 313.589 189.168 313.753 191.068C313.763 191.454 313.921 191.821 314.193 192.094C314.466 192.367 314.834 192.524 315.219 192.534C315.607 192.531 315.978 192.375 316.252 192.101C316.527 191.827 316.682 191.456 316.686 191.068C316.448 188.493 315.332 186.079 313.525 184.23C311.717 182.381 309.329 181.21 306.76 180.915C301.547 180.413 296.438 184.271 295.226 189.295C294.783 191.126 297.611 191.902 298.054 190.071H298.034Z" fill="#256E31"/>
<path d="M345.282 191.146C344.011 193.329 342.512 195.388 341.372 197.663C340.231 199.937 339.677 204.258 341.372 206.135C343.066 208.011 347.328 208.487 349.192 206.786C351.29 204.87 350.665 200.745 349.192 198.314C347.665 195.952 346.298 193.489 345.099 190.944L345.282 191.146Z" fill="white"/>
<path d="M344.435 190.651C342.721 193.583 340.362 196.385 339.632 199.774C339.097 202.251 338.98 205.548 341.189 207.295C342.268 208.106 343.543 208.617 344.883 208.775C346.224 208.933 347.583 208.732 348.82 208.194C351.499 206.891 351.831 203.567 351.271 200.98C350.825 199.316 350.1 197.741 349.127 196.32C347.937 194.438 346.875 192.479 345.946 190.455L344.409 191.641L344.591 191.843C345.432 192.782 346.813 191.394 345.973 190.462L345.79 190.26C344.989 189.373 343.835 190.501 344.259 191.446C344.934 192.946 345.696 194.406 346.54 195.818C347.371 197.078 348.13 198.383 348.814 199.729C349.609 201.521 350.202 204.531 348.573 206.063C347.133 207.405 344.369 207.021 342.825 206.063C340.922 204.916 341.111 202.153 341.522 200.289C342.212 197.083 344.506 194.424 346.135 191.641C346.267 191.416 346.303 191.147 346.237 190.895C346.17 190.642 346.006 190.427 345.78 190.295C345.555 190.164 345.286 190.128 345.034 190.194C344.782 190.261 344.566 190.425 344.435 190.651Z" fill="white"/>
<path d="M356.621 172.71C355.445 174.878 353.693 176.678 351.557 177.911C349.421 179.144 346.985 179.762 344.519 179.696C342.63 179.631 342.636 182.563 344.519 182.628C347.496 182.694 350.433 181.942 353.012 180.455C355.592 178.969 357.714 176.804 359.15 174.196C360.043 172.527 357.514 171.048 356.621 172.71Z" fill="#256E31"/>
<path d="M251.114 170.774C252.172 172.856 253.746 174.632 255.685 175.934C257.625 177.235 259.865 178.019 262.192 178.21C262.388 178.214 262.582 178.18 262.763 178.108C262.945 178.036 263.111 177.929 263.25 177.792C263.39 177.656 263.501 177.492 263.577 177.312C263.652 177.132 263.691 176.939 263.691 176.744C263.681 176.358 263.524 175.991 263.251 175.718C262.978 175.445 262.611 175.287 262.225 175.277L261.867 175.245C261.704 175.245 262.023 175.277 261.756 175.245C261.489 175.212 261.28 175.167 261.045 175.114C260.55 174.999 260.063 174.853 259.586 174.678L259.247 174.548L259.136 174.528C258.914 174.424 258.693 174.326 258.484 174.215C258.035 173.981 257.599 173.72 257.181 173.433L256.881 173.225L256.777 173.146C256.588 173.003 256.399 172.847 256.223 172.684C255.861 172.364 255.519 172.022 255.2 171.661C254.589 170.949 254.075 170.16 253.668 169.314C253.572 169.147 253.445 169 253.292 168.881C253.139 168.763 252.965 168.676 252.778 168.625C252.592 168.574 252.397 168.561 252.206 168.585C252.014 168.609 251.829 168.671 251.661 168.767C251.493 168.863 251.346 168.991 251.228 169.144C251.11 169.296 251.023 169.471 250.972 169.657C250.921 169.844 250.907 170.038 250.932 170.23C250.956 170.422 251.018 170.607 251.114 170.774Z" fill="#256E31"/>
<path d="M265.776 169.64C264.473 171.824 263.006 173.883 261.866 176.157C260.726 178.432 260.172 182.752 261.866 184.629C263.56 186.506 267.822 186.982 269.686 185.281C271.785 183.365 271.159 179.24 269.686 176.809C268.159 174.446 266.792 171.984 265.594 169.438L265.776 169.64Z" fill="white"/>
<path d="M264.93 169.145C263.216 172.078 260.857 174.88 260.127 178.269C259.592 180.745 259.508 184.043 261.684 185.789C262.763 186.601 264.038 187.111 265.378 187.269C266.719 187.427 268.078 187.227 269.316 186.689C271.994 185.385 272.326 182.062 271.766 179.474C271.32 177.811 270.595 176.236 269.622 174.815C268.432 172.933 267.37 170.973 266.442 168.95L264.904 170.136L265.086 170.338C265.927 171.276 267.308 169.888 266.468 168.956L266.285 168.754C265.484 167.868 264.33 168.995 264.754 169.94C265.429 171.44 266.191 172.9 267.035 174.313C267.866 175.573 268.625 176.878 269.309 178.223C270.104 180.015 270.697 183.026 269.068 184.558C267.628 185.9 264.865 185.516 263.32 184.558C261.417 183.411 261.606 180.647 262.017 178.784C262.707 175.577 265.001 172.918 266.631 170.136C266.762 169.91 266.798 169.642 266.732 169.389C266.665 169.137 266.501 168.921 266.275 168.79C266.05 168.659 265.781 168.622 265.529 168.689C265.277 168.756 265.061 168.92 264.93 169.145Z" fill="white"/>
<defs>
<radialGradient id="paint0_radial_1200_9190" cx="0" cy="0" r="1" gradientUnits="userSpaceOnUse" gradientTransform="translate(369.102 225.577) scale(32.8069 32.9438)">
<stop stop-color="white"/>
<stop offset="0.43" stop-color="#FFF8EF"/>
<stop offset="0.49" stop-color="#FFE3C3" stop-opacity="0.81"/>
<stop offset="0.56" stop-color="#FFCE98" stop-opacity="0.62"/>
<stop offset="0.63" stop-color="#FFBC72" stop-opacity="0.46"/>
<stop offset="0.7" stop-color="#FFAD54" stop-opacity="0.33"/>
<stop offset="0.77" stop-color="#FFA23C" stop-opacity="0.23"/>
<stop offset="0.84" stop-color="#FF992B" stop-opacity="0.16"/>
<stop offset="0.92" stop-color="#FF9521" stop-opacity="0.11"/>
<stop offset="1" stop-color="#FF931E" stop-opacity="0.1"/>
</radialGradient>
<radialGradient id="paint1_radial_1200_9190" cx="0" cy="0" r="1" gradientUnits="userSpaceOnUse" gradientTransform="translate(265.003 262.955) scale(38.485 38.6457)">
<stop stop-color="white"/>
<stop offset="0.43" stop-color="#FFF8EF"/>
<stop offset="0.49" stop-color="#FFE3C3" stop-opacity="0.81"/>
<stop offset="0.56" stop-color="#FFCE98" stop-opacity="0.62"/>
<stop offset="0.63" stop-color="#FFBC72" stop-opacity="0.46"/>
<stop offset="0.7" stop-color="#FFAD54" stop-opacity="0.33"/>
<stop offset="0.77" stop-color="#FFA23C" stop-opacity="0.23"/>
<stop offset="0.84" stop-color="#FF992B" stop-opacity="0.16"/>
<stop offset="0.92" stop-color="#FF9521" stop-opacity="0.11"/>
<stop offset="1" stop-color="#FF931E" stop-opacity="0.1"/>
</radialGradient>
<radialGradient id="paint2_radial_1200_9190" cx="0" cy="0" r="1" gradientUnits="userSpaceOnUse" gradientTransform="translate(211.376 333.278) scale(35.9614 36.1115)">
<stop stop-color="white"/>
<stop offset="0.43" stop-color="#FFF8EF"/>
<stop offset="0.49" stop-color="#FFE3C3" stop-opacity="0.81"/>
<stop offset="0.56" stop-color="#FFCE98" stop-opacity="0.62"/>
<stop offset="0.63" stop-color="#FFBC72" stop-opacity="0.46"/>
<stop offset="0.7" stop-color="#FFAD54" stop-opacity="0.33"/>
<stop offset="0.77" stop-color="#FFA23C" stop-opacity="0.23"/>
<stop offset="0.84" stop-color="#FF992B" stop-opacity="0.16"/>
<stop offset="0.92" stop-color="#FF9521" stop-opacity="0.11"/>
<stop offset="1" stop-color="#FF931E" stop-opacity="0.1"/>
</radialGradient>
<radialGradient id="paint3_radial_1200_9190" cx="0" cy="0" r="1" gradientUnits="userSpaceOnUse" gradientTransform="translate(301.595 369.389) scale(38.485 38.6457)">
<stop stop-color="white"/>
<stop offset="0.43" stop-color="#FFF8EF"/>
<stop offset="0.49" stop-color="#FFE3C3" stop-opacity="0.81"/>
<stop offset="0.56" stop-color="#FFCE98" stop-opacity="0.62"/>
<stop offset="0.63" stop-color="#FFBC72" stop-opacity="0.46"/>
<stop offset="0.7" stop-color="#FFAD54" stop-opacity="0.33"/>
<stop offset="0.77" stop-color="#FFA23C" stop-opacity="0.23"/>
<stop offset="0.84" stop-color="#FF992B" stop-opacity="0.16"/>
<stop offset="0.92" stop-color="#FF9521" stop-opacity="0.11"/>
<stop offset="1" stop-color="#FF931E" stop-opacity="0.1"/>
</radialGradient>
<radialGradient id="paint4_radial_1200_9190" cx="0" cy="0" r="1" gradientUnits="userSpaceOnUse" gradientTransform="translate(422.728 380.793) scale(35.9614 36.1115)">
<stop stop-color="white"/>
<stop offset="0.43" stop-color="#FFF8EF"/>
<stop offset="0.49" stop-color="#FFE3C3" stop-opacity="0.81"/>
<stop offset="0.56" stop-color="#FFCE98" stop-opacity="0.62"/>
<stop offset="0.63" stop-color="#FFBC72" stop-opacity="0.46"/>
<stop offset="0.7" stop-color="#FFAD54" stop-opacity="0.33"/>
<stop offset="0.77" stop-color="#FFA23C" stop-opacity="0.23"/>
<stop offset="0.84" stop-color="#FF992B" stop-opacity="0.16"/>
<stop offset="0.92" stop-color="#FF9521" stop-opacity="0.11"/>
<stop offset="1" stop-color="#FF931E" stop-opacity="0.1"/>
</radialGradient>
</defs>
</svg>
