<svg width="588" height="608" viewBox="0 0 588 608" fill="none" xmlns="http://www.w3.org/2000/svg">
<path d="M293.046 594.633C373.353 594.633 438.455 587.97 438.455 579.75C438.455 571.53 373.353 564.867 293.046 564.867C212.739 564.867 147.637 571.53 147.637 579.75C147.637 587.97 212.739 594.633 293.046 594.633Z" fill="black" fill-opacity="0.15"/>
<path d="M269.817 109.025C267.845 108.335 266.47 106.447 265.904 104.44C265.435 102.402 265.359 100.293 265.681 98.2268C266.705 88.7644 269.742 79.6274 274.59 71.4242L274.087 70.4552C268.406 74.2304 261.785 76.3656 254.958 76.6238C252.381 76.7125 249.339 76.2628 248.124 74.0018C246.654 71.2595 248.894 68.0485 251.108 65.8572C258.489 58.5571 267.12 52.6269 276.595 48.3455L276.391 46.8572C276.098 40.5149 276.837 34.1672 278.58 28.0598C279.369 25.2858 280.725 22.2205 283.499 21.3908C285.835 20.6878 288.406 21.9418 289.958 23.8165C291.511 25.6912 292.268 28.0725 292.987 30.3905L298.715 48.7572L299.033 48.5735L322.107 48.2378L314.617 69.1758L326.384 83.0268C329.088 86.1935 331.882 90.6585 329.438 94.0215C327.777 96.3142 324.246 96.8018 321.465 95.9215C318.684 95.0412 316.463 93.0335 314.363 91.0892L269.817 109.025Z" fill="#FF8000"/>
<path d="M270.041 108.113C267.566 107.176 266.56 104.376 266.439 101.957C266.397 99.0096 266.705 96.0675 267.356 93.1917C268.427 87.5433 270.23 82.0571 272.72 76.8707C273.433 75.3887 274.203 73.9363 275.03 72.5134C275.367 71.9244 275.666 71.5254 275.342 70.8604C275.196 70.5627 275.036 70.2651 274.884 69.9737C274.755 69.766 274.552 69.6148 274.316 69.5513C274.079 69.4877 273.827 69.5165 273.611 69.6317C269.851 72.1218 265.661 73.8996 261.253 74.8757C259.114 75.3522 256.934 75.6215 254.743 75.6801C253.107 75.7181 251.173 75.5977 249.824 74.5591C248.156 73.2924 248.481 71.1644 249.404 69.5367C250.441 67.6937 252.038 66.2434 253.566 64.8184C256.788 61.8132 260.239 59.0606 263.887 56.5851C268.063 53.7491 272.477 51.2763 277.079 49.1941C277.257 49.0838 277.396 48.9202 277.475 48.7268C277.553 48.5333 277.569 48.32 277.518 48.1174C277.137 44.7014 277.174 41.2521 277.626 37.8447C277.872 35.6296 278.246 33.4303 278.746 31.2581C279.108 29.4072 279.656 27.5973 280.382 25.8557C281.018 24.4877 281.928 23.0627 283.379 22.4547C284.976 21.8214 286.777 22.3597 288.095 23.3541C289.635 24.5257 290.557 26.3244 291.213 28.0977C291.951 30.0737 292.517 32.1194 293.122 34.1334L297.748 49.0421C297.789 49.1809 297.861 49.3088 297.958 49.4162C298.055 49.5236 298.176 49.6079 298.31 49.6626C298.445 49.7174 298.59 49.7413 298.735 49.7325C298.88 49.7238 299.021 49.6826 299.148 49.6121C299.214 49.5593 299.287 49.5166 299.365 49.4854C299.435 49.4411 299.441 49.4347 299.365 49.4854C299.295 49.5297 299.307 49.5994 299.626 49.5297C300.096 49.5614 300.58 49.5297 301.051 49.5297L304.048 49.4854L310.056 49.3967L322.07 49.2257L321.147 48.0224L315.216 64.7171L313.944 68.2384C313.851 68.4619 313.77 68.6903 313.702 68.9224C313.659 69.0884 313.658 69.2621 313.698 69.4287C313.738 69.5953 313.818 69.7497 313.931 69.8787C314.567 70.7147 315.293 71.4811 315.961 72.2727L323.47 81.1394C325.646 83.6727 328.338 86.3517 329.197 89.7021C329.433 90.4325 329.471 91.2121 329.307 91.9617C329.143 92.7114 328.782 93.4045 328.262 93.9707C327.15 94.9723 325.688 95.4999 324.189 95.4401C320.486 95.4401 317.565 92.8117 314.987 90.4811C314.869 90.3612 314.72 90.2751 314.557 90.2317C314.393 90.1882 314.221 90.1891 314.058 90.2341L299.053 96.2001L275.068 105.858L269.532 108.088C268.412 108.537 268.896 110.38 270.041 109.918L285.091 103.889L309.076 94.2304L314.606 92.0074L313.664 91.7667C316.05 93.9264 318.627 96.2001 321.847 96.9981C324.456 97.6314 327.575 97.2577 329.56 95.3324C331.915 93.0714 331.565 89.7654 330.266 87.0611C328.752 83.8944 326.162 81.3041 323.903 78.6631L315.28 68.5297L315.522 69.4544L322.032 51.1257L322.961 48.5227C322.998 48.3816 323.002 48.234 322.973 48.0912C322.943 47.9483 322.882 47.8138 322.793 47.698C322.705 47.5821 322.59 47.4878 322.46 47.4222C322.329 47.3566 322.185 47.3215 322.038 47.3194L309.553 47.4967L303.386 47.5917L300.205 47.6361C299.499 47.555 298.785 47.6713 298.143 47.9717L299.543 48.5354L294.967 33.7787C293.726 29.7887 292.829 24.7664 289.374 22.0114C288.623 21.3668 287.744 20.8856 286.795 20.5988C285.846 20.3119 284.847 20.2257 283.863 20.3457C283.006 20.5154 282.192 20.8538 281.469 21.3411C280.745 21.8284 280.127 22.4546 279.65 23.1831C278.658 24.6953 277.934 26.3664 277.512 28.1231C276.865 30.4488 276.359 32.8112 275.997 35.1974C275.236 39.6327 275.105 44.1526 275.609 48.6241L276.048 47.5537C267.141 51.5927 258.969 57.076 251.866 63.7797C249.092 66.3954 244.669 70.8984 247.526 74.9517C250.027 78.4857 255.602 77.7321 259.274 77.1811C264.735 76.3516 269.947 74.3434 274.546 71.2974L273.242 70.9554L273.738 71.9244V70.9681C270.833 75.9056 268.556 81.1839 266.961 86.6811C266.184 89.3855 265.576 92.1352 265.141 94.9144C264.689 97.7897 264.225 100.798 264.727 103.692C265.211 106.441 266.859 108.943 269.538 109.956C270.684 110.38 271.18 108.544 270.041 108.113Z" fill="#CF6800"/>
<path d="M320.186 57.3388C320.243 60.5055 319.747 68.1055 316.717 69.3722C313.688 70.6388 304.385 67.5735 301.044 67.0858C300.205 67.0355 299.393 66.774 298.683 66.3258C297.518 65.4328 297.41 63.6595 298.047 62.3548C298.683 61.0502 299.892 60.1065 301.057 59.1882C304.703 56.3762 310.246 50.0238 314.63 48.7128C318.849 47.5095 320.186 53.5008 320.186 57.3388Z" fill="#BA5D00"/>
<path d="M325.913 57.3388C325.97 60.5055 325.474 68.1055 322.445 69.3722C319.416 70.6388 310.112 67.5735 306.771 67.0858C305.932 67.0355 305.12 66.774 304.41 66.3258C303.246 65.4328 303.138 63.6595 303.774 62.3548C304.41 61.0502 305.62 60.1065 306.784 59.1882C310.43 56.3762 315.973 50.0238 320.358 48.7128C324.577 47.5095 325.913 53.5008 325.913 57.3388Z" fill="#FF8000"/>
<path d="M324.959 57.3386C325 59.2468 324.866 61.1547 324.558 63.0386C324.278 64.7043 323.922 66.9589 322.579 68.1623C321.529 69.1123 319.525 68.7576 318.214 68.5739C316.009 68.234 313.823 67.7795 311.666 67.2123C310.686 66.9779 309.706 66.7309 308.726 66.5093C307.746 66.2876 306.918 66.2116 306.027 66.0026C305.747 65.9621 305.478 65.8622 305.24 65.7098C305.001 65.5573 304.798 65.3558 304.645 65.1188C304.491 64.8818 304.39 64.6148 304.349 64.3358C304.307 64.0567 304.326 63.772 304.405 63.5009C304.672 62.1203 305.913 61.1196 306.95 60.2899C310.851 57.2056 314.16 53.2409 318.456 50.6696C319.34 50.1376 320.46 49.4726 321.536 49.5233C321.945 49.5725 322.335 49.7199 322.675 49.9527C323.014 50.1854 323.291 50.4966 323.483 50.8596C324.66 52.7279 324.94 55.1663 324.946 57.3196C324.946 57.5716 325.047 57.8132 325.226 57.9913C325.405 58.1695 325.648 58.2696 325.901 58.2696C326.154 58.2696 326.397 58.1695 326.576 57.9913C326.755 57.8132 326.856 57.5716 326.856 57.3196C326.856 53.6019 325.468 46.2679 320.11 47.8196C317.514 48.5796 315.261 50.4669 313.256 52.1959C311.067 54.0959 309.037 56.1289 306.823 57.9719C304.608 59.8149 301.796 61.7719 302.54 65.0526C303.176 67.9216 306.358 67.9026 308.675 68.4473C310.991 68.9919 313.454 69.6379 315.872 70.0939C317.889 70.4803 320.326 71.0059 322.331 70.4169C324.66 69.7393 325.602 67.0666 326.098 64.9513C326.665 62.4459 326.919 59.8806 326.856 57.3133C326.826 57.0821 326.711 56.8699 326.534 56.7171C326.357 56.5643 326.13 56.4817 325.896 56.4848C325.662 56.4879 325.437 56.5766 325.264 56.7341C325.091 56.8915 324.983 57.1067 324.959 57.3386Z" fill="#CF6800"/>
<path d="M277.378 394.196C264.281 448.39 251.414 485.656 238.318 539.863L234.213 555.297C233.095 559.501 230.737 563.276 227.442 566.133C206.531 584.19 182.159 590.441 153.586 588.674C147.534 588.3 140.349 586.527 138.434 580.801C136.366 574.626 141.953 568.673 147.305 564.917C159.816 556.155 173.966 549.979 188.917 546.753L190.501 545.879L234.054 402.176" fill="#FF8000"/>
<path d="M276.461 393.943C272.3 411.138 267.75 428.231 262.996 445.243C258.586 461.076 254.017 476.827 249.632 492.654C247.337 500.955 245.097 509.273 242.912 517.607C240.971 525.068 239.253 532.592 237.274 540.046L234.181 551.731C233.889 552.827 233.602 553.929 233.303 555.031C232.308 558.784 230.286 562.189 227.461 564.867C222.008 570.009 215.428 574.278 208.778 577.711C202.276 581.045 195.388 583.574 188.268 585.241C180.96 586.926 173.495 587.852 165.995 588.002C162.024 588.097 158.041 588.002 154.07 587.787C150.856 587.597 147.534 587.154 144.581 585.798C141.629 584.443 139.268 582.144 138.969 578.832C138.625 575.076 141.101 571.694 143.64 569.186C146.535 566.323 150.061 564.119 153.516 561.979C157.128 559.763 160.861 557.748 164.697 555.943C168.561 554.12 172.528 552.522 176.578 551.155C180.612 549.787 184.704 548.805 188.828 547.754C189.585 547.564 190.871 547.038 191.316 546.373C191.569 545.826 191.752 545.249 191.863 544.657L192.315 543.162L193.441 539.445L197.616 525.663L214.263 470.753L230.904 415.837L234.971 402.429C235.321 401.258 233.481 400.757 233.125 401.929L216.09 458.144L199.181 513.985L189.591 545.651L190.031 545.081C189.495 545.419 188.928 545.705 188.338 545.936C186.823 546.411 185.201 546.658 183.661 547.064C180.5 547.908 177.38 548.873 174.3 549.958C168.285 552.105 162.457 554.74 156.876 557.837C154.017 559.424 151.236 561.132 148.533 562.96C146.037 564.557 143.728 566.427 141.648 568.534C138.014 572.391 135.38 577.97 138.396 582.993C140.897 587.147 146.032 588.693 150.608 589.326C156.335 590.105 162.291 590.035 168.063 589.801C179.314 589.332 190.533 587.331 201.046 583.24C206.252 581.215 211.258 578.716 216.001 575.773C218.423 574.257 220.773 572.635 223.051 570.909C225.419 569.223 227.643 567.346 229.701 565.297C232.493 562.247 234.463 558.543 235.429 554.531L237.866 545.233C240.411 535.733 242.639 526.233 245.121 516.733C248.379 504.25 251.821 491.824 255.302 479.411C258.739 467.333 262.181 455.3 265.567 443.165C269.124 430.366 272.567 417.534 275.787 404.646C276.635 401.268 277.473 397.869 278.301 394.449C278.587 393.259 276.748 392.752 276.461 393.943Z" fill="#CF6800"/>
<path d="M322.585 379.496C334.676 433.691 342.669 477.783 346.13 533.396L348.039 561.896C348.676 580.263 348.345 592.163 374.767 590.396C380.36 590.023 399.865 590.187 404.676 586.596C414.858 578.996 409.767 567.21 407.858 563.163C402.499 551.883 386.59 544.917 386.59 544.917C379.635 497.201 376.676 455.496 369.039 397.863" fill="#FF8000"/>
<path d="M321.669 379.75C325.131 395.247 328.453 410.783 331.437 426.382C334.282 441.215 336.815 456.104 338.915 471.057C341.078 486.46 342.775 501.918 344.006 517.43C344.706 526.119 345.24 534.815 345.826 543.511C346.233 549.635 346.742 555.766 347.054 561.877C347.276 566.228 347.264 570.586 347.862 574.918C348.333 578.325 349.186 581.84 351.235 584.677C356.682 592.201 367.424 591.676 375.671 591.277C380.221 591.055 384.777 590.998 389.327 590.681C393.877 590.365 398.873 590.118 403.136 588.427C407.801 586.59 410.964 581.618 411.6 576.799C412.186 572.365 410.964 567.932 409.233 563.936C405.415 555.272 397.186 549.204 388.939 544.993C388.303 544.676 387.666 544.359 387.03 544.074L387.469 544.644C384.841 526.588 382.671 508.468 380.654 490.33C378.56 471.482 376.587 452.615 374.398 433.773C373.011 421.786 371.526 409.81 369.944 397.844C369.785 396.647 367.876 396.634 368.035 397.844C370.714 418.073 373.056 438.339 375.276 458.644C377.249 476.688 379.146 494.744 381.328 512.756C382.406 521.678 383.566 530.591 384.809 539.495L385.267 542.757C385.395 543.612 385.267 545.214 386.056 545.746C386.35 545.907 386.654 546.049 386.966 546.171C388.978 547.145 390.933 548.232 392.821 549.426C398.606 553.049 404.212 557.71 407.146 563.993C409.513 569.059 411.104 575.31 408.514 580.605C407.171 583.354 404.829 585.9 401.87 586.888C398.97 587.754 395.982 588.296 392.961 588.503C386.973 589.098 380.966 589.079 374.965 589.44C368.836 589.801 361.652 590.124 356.192 586.78C352.316 584.405 350.668 580.219 349.917 575.931C349.084 571.168 349.217 566.323 348.918 561.516C348.67 557.52 348.384 553.53 348.116 549.534C347.315 537.583 346.602 525.619 345.571 513.687C343.874 493.712 341.416 473.821 338.196 454.014C335.014 434.121 331.075 414.342 326.824 394.646C325.716 389.511 324.59 384.379 323.445 379.249C323.177 378.059 321.338 378.559 321.606 379.756L321.669 379.75Z" fill="#CF6800"/>
<path d="M221.302 448.169C221.302 448.169 236.574 441.836 262.029 455.136C265.211 441.202 276.984 395.919 276.984 395.919L234.029 404.469L221.302 448.169Z" fill="#BA5D00"/>
<path d="M140.7 571.302C140.7 571.302 142.845 593.076 205.546 579.434C182.338 589.858 177.011 587.718 152.728 587.667C130.862 587.623 140.7 571.302 140.7 571.302Z" fill="#BA5D00"/>
<path d="M374.182 439.467C374.182 439.467 359.546 433.134 336 446.434C333.06 432.5 325.818 389.434 325.818 389.434L366.546 380.567L374.182 439.467Z" fill="#BA5D00"/>
<path d="M353.118 584.361C353.118 584.361 374.271 567.755 406.999 584.361C403.521 587.042 399.5 588.939 395.214 589.922L363.695 590.865C363.695 590.865 354.327 589.288 353.118 584.361Z" fill="#BA5D00"/>
<path d="M276.652 393.829C272.497 411.018 267.947 428.111 263.193 445.129C258.777 460.962 254.214 476.72 249.83 492.54C247.526 500.858 245.28 509.184 243.091 517.519C241.143 524.98 239.431 532.504 237.446 539.952L234.347 551.611C234.054 552.713 233.768 553.815 233.469 554.917C232.466 558.655 230.45 562.047 227.64 564.721C222.186 569.864 215.606 574.133 208.956 577.565C202.455 580.901 195.567 583.43 188.446 585.096C181.138 586.78 173.674 587.706 166.173 587.857C162.196 587.958 158.219 587.857 154.248 587.642C151.034 587.452 147.712 587.008 144.76 585.659C141.807 584.31 139.446 582.005 139.147 578.693C138.803 574.937 141.279 571.561 143.818 569.053C146.713 566.184 150.239 563.987 153.694 561.846C157.304 559.628 161.035 557.611 164.869 555.804C168.735 553.987 172.701 552.391 176.75 551.022C180.784 549.654 184.882 548.666 189 547.621C189.757 547.425 191.042 546.906 191.494 546.234C191.748 545.687 191.932 545.11 192.041 544.518L192.493 543.03L193.62 539.306L197.794 525.531L214.454 470.627L231.101 415.711L235.161 402.309C235.518 401.138 233.679 400.637 233.322 401.803L216.287 458.024L199.366 513.871L189.77 545.538L190.209 544.974C189.675 545.309 189.11 545.593 188.522 545.823C187.008 546.304 185.379 546.545 183.839 546.95C180.682 547.794 177.564 548.759 174.484 549.844C168.466 551.989 162.636 554.627 157.054 557.729C154.203 559.313 151.422 561.018 148.711 562.847C146.219 564.446 143.912 566.315 141.832 568.42C138.199 572.283 135.564 577.863 138.581 582.885C141.081 587.04 146.217 588.617 150.786 589.219C156.513 590.004 162.476 589.934 168.241 589.694C179.492 589.231 190.718 587.224 201.224 583.132C206.434 581.104 211.441 578.594 216.179 575.634C218.603 574.126 220.958 572.499 223.236 570.776C225.602 569.088 227.826 567.212 229.886 565.165C232.675 562.112 234.645 558.409 235.613 554.398L238.076 545.139C240.621 535.639 242.842 526.139 245.324 516.639C248.589 504.162 252.031 491.73 255.506 479.316C258.923 467.232 262.385 455.161 265.745 443.064C269.302 430.265 272.745 417.433 275.971 404.545C276.82 401.167 277.656 397.768 278.479 394.348C278.771 393.158 276.926 392.651 276.64 393.842L276.652 393.829Z" fill="#CF6800"/>
<path d="M321.395 379.87C324.857 395.368 328.179 410.903 331.17 426.502C334.014 441.329 336.541 456.225 338.647 471.178C340.811 486.58 342.518 502.038 343.77 517.55C344.47 526.24 345.004 534.935 345.583 543.631C345.997 549.755 346.506 555.886 346.818 561.998C347.041 566.38 347.034 570.769 347.639 575.133C348.11 578.528 348.981 582.043 351.043 584.861C356.554 592.372 367.315 591.771 375.581 591.391C380.125 591.175 384.681 591.112 389.219 590.795C393.756 590.479 398.713 590.219 402.977 588.515C407.692 586.615 410.785 581.549 411.358 576.691C411.867 572.34 410.613 567.995 408.94 564.024C407.101 559.648 403.957 556.272 400.349 553.258C396.809 550.306 393.041 547.638 389.079 545.278C388.442 544.879 387.749 544.486 387.074 544.106L387.513 544.676C384.885 526.626 382.677 508.525 380.609 490.399C378.458 471.57 376.428 452.729 374.207 433.912C372.794 421.93 371.309 409.958 369.752 397.996C369.593 396.799 367.684 396.786 367.843 397.996C370.529 418.263 372.934 438.58 375.193 458.904C377.204 476.871 379.158 494.839 381.366 512.781C382.469 521.754 383.648 530.717 384.904 539.673L385.343 542.77C385.471 543.65 385.343 545.17 386.139 545.753C386.476 545.984 386.827 546.195 387.189 546.386C389.276 547.606 391.312 548.907 393.298 550.287C396.116 552.195 398.782 554.317 401.271 556.633C403.531 558.774 405.624 561.136 406.865 564.012C409.086 569.142 410.861 575.266 408.335 580.63C407.018 583.43 404.644 586.02 401.653 587.021C398.795 587.877 395.849 588.414 392.871 588.623C386.883 589.225 380.876 589.218 374.875 589.56C368.721 589.915 361.55 590.282 356.051 586.957C352.125 584.589 350.451 580.39 349.688 576.064C348.861 571.32 348.994 566.494 348.701 561.706C348.447 557.691 348.161 553.676 347.893 549.673C347.098 537.785 346.385 525.891 345.348 514.023C343.651 493.984 341.188 474.028 337.96 454.154C334.778 434.261 330.839 414.482 326.588 394.785C325.481 389.647 324.354 384.515 323.209 379.389C322.941 378.198 321.096 378.698 321.363 379.895L321.395 379.87Z" fill="#CF6800"/>
<path d="M360.5 548.717C360.5 548.717 369.409 537.95 386.591 544.917" stroke="#CF6800" stroke-width="2.16641" stroke-miterlimit="10"/>
<path d="M121.094 331.338C110.734 337.126 104.179 341.066 93.819 346.854C92.19 347.656 90.7096 348.726 89.4408 350.021C88.2508 351.364 87.5953 353.251 88.3017 354.644C89.5744 357.102 93.5644 356.335 96.5235 355.183C110.479 349.729 123.635 342.435 135.641 333.497L136.385 333.877C134.374 340.312 130.773 343.542 125.045 350.509C123.932 351.864 122.984 353.929 123.136 355.575C123.289 357.222 125.274 359.046 126.954 359.375C129.939 359.964 132.045 356.842 136.5 351.775C144.429 342.757 158.022 329.267 159.409 321.375C159.409 321.375 157.226 317.417 157.182 310.317C157.137 303.218 236.364 273.413 263.098 208.015C238.808 200.504 233.654 200.865 233.654 200.865C233.654 200.865 159.498 288.138 123.652 305.707C109.83 311.806 101.831 317.227 88.0153 323.326C85.7435 324.327 82.3581 325.6 82.7462 329.102C83.0644 332.009 86.5644 332.098 88.4735 331.496C95.709 329.222 105.776 325.929 115.519 322.091C103.746 328.931 99.3808 331.623 87.6081 338.463C85.7852 339.398 84.121 340.611 82.6762 342.06C81.3208 343.567 80.4617 345.67 81.1299 347.31C82.8544 351.497 88.7663 349.362 92.0881 347.526" fill="#39A84A"/>
<path d="M120.61 330.533C114.819 333.77 109.079 337.082 103.326 340.382C100.357 342.071 97.387 343.759 94.4173 345.448C91.7636 346.937 88.6518 348.438 87.4173 351.427C86.4373 353.846 87.4491 356.494 90.1345 357.076C92.82 357.659 95.5182 356.595 97.9363 355.632C104.288 353.098 110.478 350.181 116.474 346.899C123.289 343.16 129.837 338.959 136.074 334.327H135.106L135.857 334.707L135.418 333.63C133.764 338.817 130.276 342.801 126.808 346.88C124.899 349.147 122.538 351.446 122.163 354.556C121.851 357.152 123.957 359.622 126.426 360.256C128.335 360.75 130.003 359.914 131.415 358.723C133.56 356.905 135.278 354.562 137.143 352.459C140.636 348.488 144.27 344.644 147.764 340.673C151.257 336.702 154.668 332.712 157.417 328.253C158.504 326.576 159.37 324.767 159.995 322.87C160.29 322.236 160.351 321.518 160.166 320.843C159.995 320.432 159.861 320.21 159.715 319.805C158.948 317.733 158.458 315.569 158.257 313.37C158.181 312.585 158.136 311.793 158.111 311.008C158.111 310.837 158.149 309.899 158.111 310.374C158.117 310.309 158.132 310.245 158.155 310.184L158.194 310.07C158.149 310.165 158.085 310.292 158.194 310.153C158.302 310.013 158.391 309.83 158.499 309.678C158.499 309.678 158.404 309.779 158.575 309.583C158.665 309.494 158.747 309.399 158.83 309.304C159.242 308.885 159.68 308.492 160.141 308.126L160.542 307.803C160.675 307.702 160.415 307.904 160.605 307.759L160.873 307.556L161.84 306.859C162.61 306.315 163.399 305.789 164.188 305.27C166.135 304.003 168.115 302.774 170.1 301.558C175.433 298.278 180.778 295.029 186.047 291.653C192.665 287.41 199.169 282.983 205.469 278.283C212.664 272.958 219.554 267.237 226.106 261.145C233.076 254.67 239.517 247.654 245.369 240.163C251.472 232.373 256.722 223.957 261.03 215.058C262.099 212.822 263.105 210.548 264.046 208.256C264.109 208.012 264.075 207.754 263.95 207.535C263.826 207.317 263.62 207.155 263.378 207.084C257.161 205.184 250.905 203.322 244.58 201.802C241.669 201.068 238.72 200.489 235.747 200.067C235.003 199.972 233.635 199.617 232.979 200.181C232.533 200.636 232.119 201.12 231.738 201.631C228.798 205.059 225.828 208.465 222.829 211.847C217.692 217.656 212.503 223.416 207.264 229.124C200.722 236.251 194.089 243.287 187.365 250.233C180.237 257.58 172.989 264.8 165.544 271.842C158.544 278.423 151.435 284.857 143.958 290.874C138.015 295.656 131.823 300.298 125.077 303.921C122.532 305.289 119.84 306.384 117.231 307.638C113.89 309.247 110.594 310.944 107.316 312.673C100.743 316.131 94.1754 319.602 87.36 322.591C85.1582 323.56 82.6127 324.719 81.9254 327.253C81.7303 327.851 81.6738 328.486 81.7603 329.109C81.8468 329.732 82.074 330.328 82.4248 330.852C82.7756 331.375 83.241 331.813 83.7861 332.132C84.3311 332.451 84.9416 332.642 85.5718 332.693C86.6777 332.827 87.7996 332.724 88.8618 332.389C90.44 331.908 92.0436 331.388 93.59 330.882C97.1854 329.716 100.768 328.519 104.332 327.265C108.175 325.923 111.994 324.508 115.786 323.022L115.048 321.287C108.048 325.372 101.048 329.52 94.0482 333.63C92.0627 334.796 90.0751 335.957 88.0854 337.114C86.1318 338.254 84.0827 339.356 82.46 340.958C81.06 342.345 79.87 344.308 79.9909 346.341C80.0433 347.135 80.3004 347.901 80.7373 348.567C81.1743 349.233 81.7764 349.775 82.4854 350.141C85.6673 351.712 89.7718 349.92 92.6036 348.374C93.6854 347.792 92.7245 346.151 91.6427 346.734C89.4663 347.918 86.3609 349.419 83.8282 348.634C83.1899 348.441 82.6439 348.024 82.2925 347.46C81.9412 346.896 81.8084 346.223 81.9191 345.569C82.2373 343.574 83.9109 342.016 85.4954 340.926C88.8109 338.627 92.4954 336.765 95.9636 334.72C98.8654 333.031 101.763 331.323 104.656 329.596C108.441 327.367 112.229 325.148 116.022 322.94C116.925 322.414 116.321 320.799 115.29 321.204C108.971 323.687 102.563 325.948 96.11 328.076C93.45 328.956 90.79 329.906 88.0918 330.654C86.5836 331.065 84.0064 331.078 83.7009 329.096C83.3445 326.79 85.4636 325.549 87.2645 324.719C90.0518 323.453 92.8582 322.186 95.6136 320.862C101.055 318.209 106.368 315.302 111.745 312.521C114.577 311.058 117.428 309.64 120.317 308.291C122.296 307.366 124.307 306.517 126.229 305.479C128.775 304.085 131.32 302.521 133.719 300.881C139.631 296.814 145.314 292.427 150.742 287.739C157.029 282.406 163.113 276.827 169.075 271.139C175.316 265.173 181.444 259.091 187.46 252.893C193.225 246.982 198.917 240.991 204.534 234.919C209.37 229.7 214.164 224.437 218.915 219.13C222.382 215.258 225.822 211.365 229.237 207.451C230.86 205.583 232.648 203.772 234.125 201.789C234.195 201.701 234.271 201.625 234.341 201.542L233.666 201.815C233.897 201.799 234.129 201.799 234.36 201.815C235.141 201.863 235.919 201.956 236.689 202.093C241.009 202.844 245.287 203.819 249.505 205.013C253.96 206.216 258.415 207.546 262.869 208.902L262.182 207.736C256.703 221.106 248.818 233.405 239.451 244.413C230.685 254.597 220.926 263.891 210.318 272.159C201.263 279.231 191.838 285.821 182.083 291.9C175.395 296.118 168.484 300.038 161.929 304.465C160.262 305.599 158.416 306.771 157.118 308.335C156.621 308.855 156.308 309.522 156.227 310.235C156.17 312.228 156.356 314.221 156.781 316.169C157.031 317.57 157.408 318.946 157.907 320.28C158.097 320.814 158.322 321.334 158.582 321.838L158.486 321.103C158.079 322.952 157.358 324.719 156.355 326.328C155.092 328.468 153.684 330.521 152.142 332.471C148.718 336.905 144.925 341.04 141.158 345.176C139.395 347.076 137.626 349.039 135.902 350.996C133.993 353.143 132.255 355.582 130.035 357.412C128.38 358.774 126.624 358.78 125.052 357.184C122.595 354.689 125.465 351.44 127.165 349.432C131.167 344.669 135.386 340.154 137.308 334.112C137.362 333.91 137.349 333.696 137.27 333.503C137.19 333.31 137.05 333.148 136.869 333.041L136.125 332.661C135.978 332.576 135.811 332.53 135.641 332.53C135.471 332.53 135.304 332.576 135.157 332.661C124.937 340.256 113.885 346.675 102.213 351.794C99.5082 352.972 96.7336 354.328 93.8509 355.012C92.12 355.417 88.5754 355.721 88.9954 352.934C89.4409 349.97 92.9345 348.45 95.2445 347.152C98.0064 345.607 100.764 344.047 103.517 342.472C109.537 339.026 115.538 335.549 121.59 332.167C121.799 332.036 121.948 331.829 122.007 331.59C122.066 331.351 122.029 331.099 121.904 330.886C121.78 330.674 121.577 330.517 121.34 330.45C121.102 330.383 120.847 330.411 120.629 330.527L120.61 330.533Z" fill="#256E31"/>
<path d="M450.367 357.526C460.091 363.384 470.063 369.483 476.726 378.667C483.388 387.85 485.921 400.928 479.761 410.422C473.028 420.802 458.965 423.304 446.555 423.456C404.676 423.956 362.823 408.079 331.908 379.971L346.602 392.005C329.675 409.922 309.056 421.081 285.778 429.308C276.023 432.753 265.192 435.211 255.443 431.746C245.694 428.282 238.261 416.806 242.569 407.426L256.709 401.036C230.365 414.211 201.701 422.17 172.308 424.469C159.581 425.457 145.256 424.754 136.443 415.603C127.75 406.552 127.642 391.808 132.886 380.427C138.129 369.046 147.675 360.294 157.106 352.016C166.536 343.738 176.311 335.334 182.235 324.289L172.308 338.057C157.347 330.217 153.421 313.794 154.636 302.876L155.273 299.848C164.576 265.015 194.008 230.049 221.614 209.18L221.925 207.236C218.833 208.807 215.625 210.403 212.17 210.586C208.715 210.77 204.909 209.009 203.636 205.767C202.007 201.517 205.132 197.039 208.059 193.575C219.972 179.483 229.867 164.682 241.786 150.591L248.926 140.92L279.663 101.134C283.767 95.8262 288.273 90.2276 294.694 88.2136C303.845 85.3509 313.441 90.7469 321.02 96.5799C336.172 108.233 346.182 123.902 359.946 136.822C375.658 151.598 392.248 165.164 407.228 180.769C411.893 185.62 416.557 190.706 419.103 196.925C421.648 203.145 421.693 210.802 417.518 216.077C413.344 221.353 404.365 222.746 399.802 217.8C410.811 228.567 438.62 261.551 453.256 279.138C464.227 295.516 475.071 310.305 482.777 327.177C486.506 335.321 489.612 344.277 488.008 353.093C486.405 361.909 478.514 370.123 469.554 369.192" fill="#39A84A"/>
<path d="M449.909 358.349C462.636 366.006 476.872 374.734 481.174 389.864C483.121 396.704 482.784 404.317 478.685 410.327C474.867 415.926 468.554 419.048 462.14 420.676C455.534 422.348 448.674 422.576 441.891 422.462C434.131 422.33 426.39 421.648 418.727 420.422C403.724 418.005 389.116 413.591 375.295 407.3C359.693 400.213 345.285 390.769 332.583 379.3L331.227 380.643L345.927 392.676V391.333C330.597 407.483 311.264 418.719 290.513 426.566C279.567 430.714 266.795 435.109 255.239 430.657C250.631 428.819 246.807 425.445 244.421 421.113C243.263 419.067 242.544 416.805 242.308 414.469C242.142 412.784 242.306 411.082 242.792 409.459C242.858 409.045 242.948 408.635 243.059 408.231C243.466 407.737 244.917 407.395 245.484 407.141L250.256 404.982L257.167 401.853L256.206 400.213C233.511 411.522 209.075 418.971 183.909 422.253C176.324 423.234 168.598 424.051 160.943 423.716C153.943 423.405 146.752 422.031 140.891 418.016C135.125 414.089 131.676 407.882 130.639 401.068C128.323 385.779 137.244 372.333 147.636 361.966C159.759 349.856 174.707 340.052 183.075 324.688C183.192 324.471 183.22 324.217 183.152 323.981C183.085 323.744 182.928 323.542 182.715 323.418C182.501 323.295 182.248 323.258 182.007 323.316C181.767 323.375 181.559 323.523 181.427 323.731L171.487 337.5L172.76 337.158C164.112 332.535 158.397 324.384 156.272 314.915C155.341 311.065 155.089 307.084 155.527 303.148C156.062 299.139 157.474 295.193 158.836 291.406C166.956 268.771 181.593 248.498 198.189 231.239C202.707 226.54 207.435 222.05 212.374 217.768C214.754 215.704 217.184 213.698 219.666 211.752C220.513 211.08 222.027 210.365 222.479 209.351C222.656 208.719 222.758 208.069 222.784 207.413C222.828 207.233 222.817 207.043 222.755 206.868C222.693 206.693 222.581 206.54 222.433 206.427C222.285 206.314 222.107 206.246 221.921 206.231C221.735 206.216 221.549 206.255 221.384 206.343C216.739 208.699 208.333 212.328 204.839 206.115C201.581 200.326 209.383 193.486 212.609 189.503C221.289 178.774 229.25 167.501 237.892 156.753C240.227 153.846 242.607 151.015 244.822 148.019C246.451 145.815 248.054 143.586 249.709 141.401C258.243 130.09 267.037 118.968 275.704 107.752C279.523 102.844 283.086 97.4919 287.764 93.3499C292.549 89.1129 298.486 87.4283 304.767 88.9166C311.048 90.4049 316.584 94.1859 321.529 98.1443C326.294 102.029 330.761 106.263 334.893 110.811C343.28 119.893 350.91 129.646 359.953 138.12C369.829 147.367 380.081 156.196 390.027 165.354C395.01 169.945 399.91 174.613 404.664 179.458C409.118 184.018 413.738 188.679 416.805 194.322C419.631 199.503 420.948 205.849 418.886 211.543C418.027 214.03 416.389 216.178 414.213 217.67C412.036 219.162 409.437 219.92 406.795 219.833C404.402 219.77 402.129 218.777 400.464 217.065L399.114 218.408C405.516 224.678 411.396 231.493 417.289 238.225C425.002 247.033 432.619 255.929 440.141 264.914C443.535 268.95 446.929 272.995 450.323 277.048C454.815 282.438 458.519 288.537 462.414 294.351C470.807 306.815 479.347 319.741 484.546 333.915C487.27 341.344 489.001 350.072 485.533 357.558C482.669 363.726 476.662 368.787 469.528 368.179C468.306 368.071 468.313 369.971 469.528 370.079C475.51 370.592 480.983 367.412 484.54 362.808C488.549 357.665 489.854 351.237 489.179 344.834C488.39 337.291 485.361 330.185 482.045 323.421C478.554 316.389 474.66 309.563 470.381 302.977C466.028 296.175 461.434 289.531 456.909 282.85C453.627 278.185 450.108 273.691 446.364 269.385C438.529 260.045 430.631 250.757 422.673 241.518C415.469 233.215 408.31 224.754 400.444 217.053C400.263 216.885 400.024 216.793 399.777 216.798C399.53 216.802 399.294 216.902 399.119 217.076C398.944 217.25 398.844 217.485 398.839 217.731C398.835 217.977 398.927 218.215 399.095 218.395C402.455 221.86 407.654 222.48 412.09 220.884C417.181 219.06 420.445 214.646 421.425 209.446C423.971 196.02 413.229 185.38 404.606 176.671C394.221 166.202 383.091 156.506 372.152 146.645C366.774 141.813 361.334 137.006 356.3 131.819C351.623 127.005 347.27 121.894 342.86 116.834C334.25 106.948 325.042 96.5673 313.333 90.2339C307.777 87.2383 301.286 85.2939 295.005 87.0166C289.278 88.5809 284.983 92.8939 281.368 97.3336C271.727 109.247 262.634 121.597 253.273 133.687C248.449 139.925 243.918 146.423 238.897 152.503C229.403 164.024 220.85 176.272 211.476 187.888C207.874 192.321 201.587 197.799 202.255 204.133C202.828 209.535 208.574 212.005 213.455 211.315C216.637 210.871 219.533 209.415 222.364 207.977L220.958 206.9C220.949 207.506 220.852 208.108 220.672 208.686C220.767 208.522 219.946 209.149 219.711 209.32C219.176 209.731 218.642 210.143 218.114 210.586C215.857 212.364 213.64 214.19 211.464 216.065C206.903 219.991 202.518 224.108 198.31 228.415C189.51 237.345 181.532 247.042 174.472 257.39C167.546 267.404 161.848 278.208 157.5 289.569C155.941 293.762 154.426 298.088 153.682 302.515C153.193 306.271 153.331 310.082 154.089 313.794C156.03 324.339 162.273 333.7 171.818 338.767C172.038 338.887 172.296 338.918 172.539 338.855C172.782 338.791 172.991 338.637 173.123 338.425L183.05 324.662L181.402 323.706C173.415 338.368 159.288 347.931 147.541 359.337C136.945 369.629 127.629 382.581 128.45 398.009C128.787 404.595 131.034 411.106 135.609 415.976C140.35 421.043 146.974 423.709 153.72 424.843C161.159 426.11 168.732 425.698 176.196 424.995C204.412 422.323 231.883 414.449 257.205 401.777C258.319 401.226 257.345 399.636 256.244 400.137L249.811 403.044L245.076 405.184C244.101 405.534 243.154 405.957 242.244 406.451C241.054 407.255 240.743 409.58 240.552 410.884C240.236 413.121 240.39 415.398 241.004 417.572C242.363 422.177 245.169 426.228 249.009 429.131C258.809 436.731 272.383 434.584 283.334 431.031C294.623 427.383 305.522 422.633 315.872 416.85C327.5 410.377 338.087 402.202 347.276 392.6C347.455 392.422 347.555 392.18 347.555 391.929C347.555 391.677 347.455 391.435 347.276 391.257L332.583 379.224C331.647 378.458 330.304 379.731 331.227 380.567C355.141 402.112 384.713 416.453 416.5 421.917C424.295 423.26 432.176 424.05 440.083 424.279C447.281 424.476 454.567 424.324 461.605 422.702C467.969 421.239 474.333 418.421 478.647 413.392C483.254 408.034 484.852 400.992 483.954 394.076C481.6 375.88 465.296 365.386 450.863 356.665C450.645 356.537 450.384 356.501 450.139 356.564C449.894 356.628 449.684 356.786 449.556 357.003C449.427 357.221 449.391 357.48 449.455 357.724C449.519 357.968 449.678 358.177 449.896 358.305L449.909 358.349Z" fill="#256E31"/>
<path d="M322.064 411.663C259.363 427.497 253.566 416.097 256.735 400.263C173.498 425.755 142.991 402.987 131.861 384.544C128.597 395.058 129.672 407.211 137.187 415.058C145.963 424.229 160.243 424.932 172.9 423.925C196.973 422.035 220.586 416.319 242.843 406.996C238.662 416.356 246.025 427.763 255.704 431.221C265.383 434.679 276.201 432.228 285.918 428.783C307.593 421.094 326.932 410.846 343.134 394.918C339.895 397.325 333.747 402.1 322.064 411.663Z" fill="#409151"/>
<path d="M459.996 363.296L468.962 368.768C477.872 369.699 485.724 361.472 487.322 352.668C488.639 345.423 486.781 338.102 484.012 331.173C487.372 356.874 462.637 362.745 459.996 363.296Z" fill="#409151"/>
<path d="M346.01 392.037L346.5 391.53L344.794 390.13C373.819 411.6 409.92 423.431 446.046 423C458.404 422.848 472.411 420.347 479.137 409.966C482.828 404.266 483.375 397.23 481.791 390.548C452.015 430.841 332.182 379.395 332.182 379.395L346.01 392.037Z" fill="#409151"/>
<path d="M469.719 371.067C467.31 368.849 464.76 366.788 462.083 364.898C464.738 366.816 467.288 368.875 469.719 371.067Z" fill="#409151"/>
<path d="M156.787 295.852C156.787 295.852 161 326.733 182 324.2C178.836 328.803 175.438 333.243 171.818 337.5C171.818 337.5 146.211 320.71 156.787 295.852Z" fill="#409151"/>
<path d="M436.31 257.77C436.31 257.77 418.377 269.835 411.829 261.925C405.281 254.014 407.648 240.537 407.648 240.537C407.648 240.537 419.968 254.47 436.285 257.77" fill="#409151"/>
<path d="M416.729 192.657C416.729 192.657 420.637 219.7 397.091 210.833C392.637 214.633 403.849 220.226 403.849 220.226C403.849 220.226 422.94 222.797 420.522 201.929C418.727 196.9 416.704 192.657 416.704 192.657" fill="#409151"/>
<path d="M449.547 358.14C462.274 365.797 476.509 374.525 480.811 389.661C482.752 396.495 482.415 404.108 478.323 410.118C474.505 415.717 468.192 418.839 461.778 420.467C455.166 422.139 448.312 422.367 441.528 422.253C433.787 422.122 426.066 421.44 418.422 420.213C403.417 417.797 388.807 413.383 374.984 407.091C359.372 399.994 344.956 390.539 332.246 379.059L330.909 380.402L345.609 392.435V391.093C330.273 407.224 310.921 418.459 290.182 426.312C279.237 430.454 266.465 434.85 254.908 430.404C250.301 428.561 246.478 425.186 244.09 420.853C242.932 418.808 242.213 416.546 241.978 414.209C241.869 413.069 241.908 411.92 242.092 410.789C242.18 410.254 242.304 409.725 242.461 409.206C242.526 408.779 242.615 408.356 242.728 407.939C243.136 407.452 244.58 407.103 245.147 406.85L249.926 404.69L256.837 401.562L255.869 399.921C240.666 407.507 224.657 413.374 208.142 417.414C200.038 419.398 191.829 420.933 183.553 422.012C175.968 422.994 168.248 423.811 160.587 423.475C153.587 423.165 146.402 421.79 140.541 417.807C134.776 413.88 131.327 407.673 130.289 400.859C127.967 385.545 136.888 372.086 147.261 361.731C159.39 349.616 174.338 339.818 182.7 324.447C182.817 324.23 182.845 323.977 182.777 323.74C182.71 323.503 182.553 323.302 182.34 323.178C182.126 323.054 181.872 323.017 181.632 323.076C181.392 323.134 181.184 323.283 181.052 323.491L171.182 337.285L172.487 336.943C163.8 332.326 158.086 324.2 155.967 314.7C155.037 310.85 154.783 306.869 155.216 302.933C155.757 298.924 157.169 294.978 158.531 291.191C166.651 268.555 181.288 248.282 197.884 231.024C202.402 226.321 207.13 221.828 212.068 217.547C214.448 215.482 216.879 213.477 219.361 211.53C220.208 210.865 221.722 210.143 222.168 209.136C222.346 208.502 222.451 207.85 222.479 207.192C222.523 207.011 222.512 206.822 222.45 206.647C222.388 206.472 222.276 206.318 222.128 206.205C221.98 206.092 221.802 206.024 221.616 206.009C221.43 205.994 221.244 206.033 221.079 206.121C216.434 208.477 208.028 212.106 204.534 205.893C201.269 200.105 209.078 193.265 212.304 189.281C220.984 178.552 228.945 167.279 237.587 156.531C239.922 153.624 242.302 150.793 244.51 147.798C246.139 145.594 247.749 143.364 249.398 141.179C257.938 129.874 266.732 118.747 275.393 107.53C279.211 102.622 282.775 97.2704 287.452 93.1284C292.244 88.8914 298.181 87.2067 304.456 88.7267C310.73 90.2467 316.279 93.9961 321.224 97.9544C325.992 101.85 330.459 106.097 334.588 110.659C343 119.741 350.637 129.494 359.66 138C369.53 147.247 379.782 156.075 389.735 165.233C394.711 169.825 399.618 174.499 404.371 179.338C408.826 183.898 413.446 188.559 416.513 194.202C419.338 199.383 420.656 205.735 418.594 211.422C417.735 213.91 416.097 216.057 413.92 217.55C411.744 219.042 409.144 219.8 406.503 219.713C404.098 219.66 401.812 218.665 400.139 216.945L398.79 218.288C405.186 224.558 411.072 231.372 416.965 238.105C424.677 246.921 432.295 255.817 439.817 264.793C443.211 268.826 446.604 272.87 449.998 276.928C454.491 282.318 458.201 288.417 462.089 294.231C470.483 306.695 479.017 319.621 484.222 333.795C486.946 341.224 488.677 349.951 485.202 357.437C482.345 363.606 476.337 368.666 469.204 368.058C467.982 367.951 467.988 369.851 469.204 369.958C475.186 370.471 480.627 367.292 484.209 362.688C488.225 357.545 489.529 351.117 488.855 344.714C488.066 337.171 485.037 330.065 481.721 323.301C478.229 316.268 474.332 309.442 470.05 302.857C465.704 296.061 461.141 289.411 456.585 282.729C453.301 278.065 449.78 273.57 446.034 269.265C438.207 259.925 430.309 250.636 422.342 241.398C415.145 233.095 407.986 224.634 400.12 216.932C399.939 216.765 399.7 216.673 399.453 216.678C399.205 216.682 398.969 216.782 398.795 216.956C398.62 217.13 398.519 217.365 398.515 217.611C398.511 217.857 398.603 218.095 398.771 218.275C402.131 221.739 407.33 222.36 411.766 220.764C416.825 218.94 420.121 214.526 421.101 209.326C423.647 195.906 412.905 185.259 404.282 176.551C393.897 166.082 382.767 156.386 371.827 146.525C366.45 141.692 361.009 136.885 355.969 131.698C351.298 126.885 346.939 121.774 342.536 116.714C333.926 106.827 324.718 96.4471 313.008 90.1137C307.447 87.1181 300.962 85.1674 294.675 86.8901C288.979 88.4544 284.658 92.7674 281.038 97.2071C271.384 109.038 262.303 121.388 252.968 133.478C248.144 139.716 243.607 146.214 238.592 152.301C229.098 163.815 220.545 176.063 211.165 187.679C207.569 192.112 201.282 197.59 201.95 203.924C202.523 209.326 208.269 211.796 213.144 211.112C216.326 210.662 219.228 209.212 222.053 207.768L220.653 206.691C220.644 207.297 220.547 207.899 220.367 208.477C220.456 208.313 219.635 208.94 219.399 209.111L217.808 210.377C215.547 212.159 213.331 213.985 211.158 215.856C206.594 219.782 202.207 223.899 197.998 228.206C189.204 237.139 181.229 246.836 174.167 257.181C167.236 267.197 161.534 278.002 157.182 289.367C155.617 293.559 154.102 297.885 153.364 302.318C152.766 305.992 153.116 309.95 153.771 313.592C155.68 324.156 161.891 333.497 171.468 338.608C171.688 338.729 171.945 338.762 172.188 338.699C172.431 338.637 172.64 338.484 172.773 338.273L182.694 324.504L181.046 323.548C173.066 338.216 158.938 347.773 147.191 359.179C136.596 369.471 127.279 382.422 128.1 397.85C128.438 404.437 130.646 410.948 135.253 415.818C140 420.885 146.625 423.551 153.37 424.685C160.803 425.951 168.376 425.546 175.847 424.837C204.062 422.162 231.532 414.289 256.856 401.619C257.963 401.068 256.996 399.484 255.888 399.978L249.455 402.86L244.714 405.007C243.74 405.354 242.795 405.778 241.888 406.274C240.698 407.078 240.387 409.409 240.189 410.707C239.88 412.944 240.036 415.221 240.648 417.395C242.005 422.001 244.811 426.052 248.653 428.953C258.453 436.522 272.027 434.406 282.978 430.853C294.267 427.206 305.166 422.456 315.516 416.673C327.15 410.187 337.741 402 346.933 392.385C347.11 392.206 347.21 391.965 347.21 391.713C347.21 391.462 347.11 391.221 346.933 391.042L332.233 379.009C331.304 378.242 329.961 379.515 330.884 380.351C354.801 401.913 384.383 416.264 416.182 421.733C423.977 423.077 431.858 423.867 439.766 424.096C446.957 424.298 454.249 424.14 461.288 422.519C467.651 421.056 474.015 418.237 478.323 413.209C482.937 407.851 484.534 400.808 483.637 393.892C481.282 375.696 464.978 365.202 450.546 356.481C450.327 356.353 450.067 356.317 449.821 356.381C449.576 356.444 449.366 356.602 449.238 356.82C449.11 357.037 449.073 357.297 449.137 357.541C449.201 357.785 449.36 357.994 449.578 358.121L449.547 358.14Z" fill="#256E31"/>
<path d="M457.024 360.3C458.678 363.403 462.223 367.982 466.016 365.519C467.498 364.556 468.007 362.472 467.772 360.61C467.44 358.759 466.794 356.977 465.863 355.341C460.25 344.15 458.226 339.881 452.639 328.69C458.328 336.512 461.077 348.241 465.64 353.593C466.849 355.012 469.395 356.297 471.666 354.524C473.938 352.751 471.456 349.508 470.502 347.424C464.501 334.257 456.559 318.924 448.866 307.334C448.866 307.334 492.335 273.945 481.32 257.415C463.152 230.182 368.843 208.395 368.843 208.395L378.63 240.518L454.669 263.628C449.788 277.226 421.578 310.552 421.578 310.552L420.566 312.217C417.168 319.133 416.169 329.742 414.922 340.895C414.591 343.865 414.228 351.18 416.977 352.181C418.53 352.744 419.656 351.585 420.726 350.357C421.795 349.128 422.348 347.519 422.876 345.923L429.049 327.702L429.87 327.772C434.49 340.757 440.979 353.007 449.133 364.138C450.864 366.5 453.676 369.084 456.095 367.754C457.463 367.001 458.004 365.183 457.826 363.543C457.53 361.904 456.937 360.333 456.076 358.907C450.985 349.242 447.949 342.902 442.877 333.238" fill="#39A84A"/>
<path d="M456.197 360.762C457.603 363.359 459.843 366.557 462.993 367.096C463.812 367.225 464.65 367.145 465.429 366.864C466.208 366.582 466.903 366.109 467.447 365.487C468.465 364.162 468.922 362.494 468.72 360.838C468.529 358.698 467.581 356.753 466.633 354.86C465.685 352.966 464.724 351.11 463.82 349.236C462.289 346.145 460.764 343.052 459.245 339.957C457.31 336.035 455.363 332.119 453.403 328.209L451.818 329.146C455.267 333.928 457.399 339.482 459.741 344.84C460.727 347.219 461.875 349.527 463.177 351.75C464.412 353.758 465.946 355.829 468.44 356.24C469.166 356.365 469.91 356.322 470.617 356.114C471.323 355.907 471.972 355.54 472.513 355.043C472.944 354.615 473.258 354.084 473.422 353.501C473.587 352.917 473.599 352.301 473.455 351.712C473.142 350.454 472.638 349.252 471.959 348.146C471.278 346.88 470.687 345.543 470.095 344.232C467.231 338.089 464.204 332.026 461.014 326.043C457.507 319.494 453.791 313.034 449.687 306.834L449.343 308.139C452.047 306.061 454.65 303.845 457.208 301.596C462.66 296.877 467.764 291.774 472.481 286.327C476.993 281.026 481.556 275.015 483.42 268.201C484.257 265.476 484.301 262.571 483.547 259.822C482.733 257.219 480.907 255.008 479.093 253.032C474.638 248.232 469.064 244.476 463.445 241.176C456.514 237.189 449.326 233.66 441.929 230.612C434 227.3 426.033 224.33 417.977 221.6C410.548 219.067 403.067 216.709 395.532 214.526C389.754 212.837 383.95 211.239 378.121 209.731C375.232 208.984 372.337 208.249 369.435 207.565L369.053 207.477C368.89 207.435 368.719 207.436 368.557 207.48C368.395 207.524 368.248 207.609 368.129 207.728C368.011 207.846 367.926 207.994 367.882 208.155C367.839 208.317 367.839 208.487 367.882 208.648L370.364 216.793L375.022 232.075L376.855 238.067C377.122 238.941 377.326 239.872 377.669 240.72C377.93 241.354 378.509 241.455 379.101 241.632L381.799 242.449L391.835 245.502L405.917 249.783L421.699 254.578L436.654 259.125L448.287 262.659C450.196 263.248 452.156 263.926 454.116 264.432L454.383 264.515L453.747 263.343C452.58 266.296 451.124 269.128 449.4 271.798C447.23 275.37 444.863 278.834 442.438 282.242C437.634 288.987 432.549 295.542 427.344 301.983C425.647 304.06 423.95 306.129 422.253 308.189C421.357 309.213 420.55 310.31 419.841 311.47C418.685 313.64 417.829 315.956 417.296 318.354C416.542 321.339 415.956 324.362 415.539 327.411C415.037 330.875 414.642 334.378 414.267 337.836C413.947 340.194 413.76 342.569 413.707 344.948C413.707 347.044 413.815 349.381 414.769 351.281C415.13 352.072 415.775 352.7 416.577 353.042C417.951 353.574 419.275 353.042 420.318 352.105C422.768 349.945 423.564 346.766 424.569 343.795L428.158 333.187L429.927 327.962L429.011 328.659L429.832 328.728L428.909 328C433.11 339.8 438.837 351.005 445.945 361.332C447.587 363.707 449.197 366.342 451.634 367.995C453.727 369.414 456.559 369.458 457.997 367.115C459.531 364.619 458.513 361.649 457.31 359.268C455.891 356.456 454.402 353.682 452.964 350.882C449.871 344.828 446.817 338.754 443.66 332.731C443.094 331.648 441.446 332.611 442.012 333.694C444.615 338.646 447.141 343.637 449.68 348.628C450.953 351.123 452.226 353.618 453.498 356.107C454.186 357.437 454.898 358.761 455.579 360.097C456.28 361.281 456.714 362.601 456.852 363.967C456.89 364.974 456.623 366.184 455.745 366.798C454.867 367.412 453.664 367.039 452.786 366.488C450.501 365.037 448.967 362.428 447.497 360.256C440.507 350.104 434.873 339.091 430.736 327.493C430.675 327.297 430.554 327.124 430.39 326.999C430.225 326.874 430.026 326.803 429.819 326.797L428.998 326.727C428.79 326.73 428.588 326.799 428.422 326.924C428.255 327.049 428.134 327.225 428.076 327.424L424.588 337.728C423.487 340.977 422.552 344.346 421.235 347.507C420.687 348.818 418.085 353.017 416.57 350.604C415.584 349.02 415.603 346.734 415.603 344.904C415.646 342.639 415.818 340.379 416.118 338.133C416.494 334.77 416.863 331.401 417.347 328.051C417.751 325.068 418.314 322.108 419.033 319.184C419.612 316.923 420.255 314.472 421.438 312.445C421.629 312.122 421.833 311.812 422.024 311.483C422.1 311.362 422.52 310.735 422.189 311.153L422.38 310.932C422.768 310.476 423.15 310.013 423.532 309.557C425.157 307.611 426.763 305.654 428.349 303.686C433.37 297.473 438.283 291.172 442.986 284.686C445.423 281.317 447.79 277.903 449.986 274.388C451.801 271.616 453.407 268.714 454.79 265.705C455.064 265.072 455.325 264.439 455.56 263.805C455.625 263.566 455.595 263.311 455.476 263.094C455.358 262.876 455.16 262.711 454.924 262.634L447.357 260.335L429.183 254.812L407.273 248.2L388.182 242.405L381.946 240.505C380.977 240.145 379.986 239.845 378.98 239.606L378.853 239.568L379.489 240.233L376.167 229.346L370.937 212.1L369.727 208.123L368.557 209.288C370.529 209.75 372.502 210.238 374.468 210.738C379.559 212.03 384.65 213.392 389.741 214.823C396.856 216.833 403.93 218.976 410.964 221.252C418.861 223.817 426.701 226.572 434.427 229.618C441.99 232.549 449.389 235.883 456.591 239.606C462.687 242.772 468.682 246.357 473.951 250.841C476.074 252.617 477.994 254.62 479.678 256.813C481.254 258.773 482.103 261.213 482.084 263.723C481.941 266.592 481.188 269.398 479.876 271.956C478.31 275.14 476.427 278.159 474.257 280.969C469.743 286.789 464.714 292.196 459.232 297.125C455.834 300.292 452.334 303.313 448.694 306.175C448.586 306.264 447.854 306.809 448.318 306.479C448.102 306.609 447.946 306.817 447.882 307.059C447.817 307.302 447.851 307.559 447.975 307.778C454.898 318.24 460.81 329.381 466.251 340.667C467.524 343.276 468.625 345.968 469.955 348.539C470.858 350.274 472.984 353.397 469.955 354.29C467.626 354.98 465.958 352.7 464.864 351.015C463.626 348.961 462.537 346.821 461.606 344.612C459.13 339.014 456.967 333.174 453.333 328.146C453.201 327.938 452.993 327.789 452.753 327.731C452.513 327.672 452.259 327.709 452.045 327.833C451.832 327.957 451.675 328.158 451.608 328.395C451.54 328.632 451.568 328.885 451.685 329.102C454.644 335.005 457.552 340.926 460.473 346.835C462.07 350.059 463.706 353.27 465.29 356.506C466.442 358.85 468.237 363.739 464.654 365.025C461.561 366.133 458.927 361.947 457.743 359.749C457.164 358.672 455.516 359.629 456.095 360.705L456.197 360.762Z" fill="#256E31"/>
<path d="M393.922 198.399L328.483 214.818L343.651 274.694L409.09 258.275L393.922 198.399Z" fill="#39A84A"/>
<path d="M248.697 43.6334C241.773 48.5481 234.461 53.7668 230.618 61.5694C227.188 68.5361 226.933 77.1051 232.565 83.0014C235.308 85.8641 239.183 87.7008 243.211 87.3841C244.427 87.2891 244.439 85.3891 243.211 85.4841C236.459 86.0224 230.898 80.0121 230.121 73.6661C229.173 65.9331 233.64 58.7701 239.03 53.6211C242.366 50.5876 245.918 47.7979 249.658 45.2738C250.65 44.5708 249.702 42.9241 248.697 43.6334Z" fill="#CF6800"/>
<path d="M242.505 88.1504C241.193 89.9404 240.256 91.9745 239.749 94.1318C239.242 96.2891 239.175 98.5259 239.552 100.709C240.176 103.98 241.791 106.981 244.18 109.311C246.569 111.64 249.618 113.185 252.916 113.737C254.119 113.927 254.634 112.097 253.425 111.907C250.95 111.552 248.611 110.558 246.642 109.024C244.673 107.489 243.142 105.468 242.202 103.162C241.262 100.855 240.946 98.3437 241.285 95.8777C241.624 93.4117 242.606 91.0772 244.134 89.1067C244.872 88.1314 243.218 87.2067 242.486 88.1504H242.505Z" fill="#CF6800"/>
<path d="M291.193 5.57004C294.543 9.26165 297.102 13.5938 298.713 18.3022C300.325 23.0106 300.956 27.9964 300.567 32.9554C300.471 34.1714 302.381 34.165 302.476 32.9554C302.866 27.7466 302.186 22.5135 300.478 17.5746C298.77 12.6357 296.07 8.09445 292.542 4.22737C291.715 3.3217 290.366 4.66437 291.193 5.57004Z" fill="#CF6800"/>
<path d="M303.361 33.9624C306.863 32.4705 310.633 31.7013 314.443 31.7013C318.253 31.7013 322.023 32.4705 325.525 33.9624C328.909 35.4415 331.956 37.5873 334.484 40.2704C337.011 42.9535 338.966 46.1184 340.231 49.5741C341.678 53.443 342.241 57.5838 341.88 61.6961C341.765 62.9121 343.674 62.9058 343.789 61.6961C344.424 53.7768 341.877 45.93 336.706 39.8777C334.086 36.8688 330.875 34.4262 327.269 32.7008C323.664 30.9753 319.742 30.0036 315.744 29.8458C311.157 29.6329 306.582 30.4828 302.381 32.3284C301.261 32.8224 302.228 34.4627 303.341 33.9687L303.361 33.9624Z" fill="#CF6800"/>
<path d="M332.073 74.0333C340.257 78.8973 344.603 89.2333 342.332 98.423C342.039 99.6137 343.878 100.12 344.171 98.9297C346.08 91.108 343.7 82.5833 338.284 76.6553C336.755 74.9878 334.988 73.5518 333.041 72.393C332.932 72.3298 332.813 72.2884 332.689 72.2713C332.564 72.2541 332.438 72.2614 332.316 72.2929C332.195 72.3243 332.081 72.3793 331.981 72.4546C331.881 72.5299 331.797 72.6241 331.733 72.7319C331.669 72.8396 331.628 72.9587 331.611 73.0824C331.593 73.206 331.601 73.3319 331.632 73.4528C331.664 73.5736 331.719 73.6871 331.795 73.7867C331.871 73.8863 331.965 73.9701 332.073 74.0333Z" fill="#CF6800"/>
<path d="M311.971 21.2007L324.342 1.70665C324.978 0.667985 323.349 -0.288349 322.693 0.743985L310.322 20.238C309.686 21.2767 311.315 22.2267 311.971 21.2007Z" fill="#CF6800"/>
<path d="M238.667 32.6577L256.18 35.8244C257.383 36.0397 257.898 34.2094 256.689 33.9941L239.17 30.8274C237.974 30.6121 237.458 32.4424 238.667 32.6577Z" fill="#CF6800"/>
<path d="M240.856 19.0031L261.347 25.5708C262.518 25.9445 263.021 24.1141 261.85 23.7405L241.366 17.1728C240.195 16.7928 239.692 18.6295 240.856 19.0031Z" fill="#CF6800"/>
<path d="M232.234 227.439C229.383 231.143 226.966 235.159 225.03 239.409C223.376 243.051 221.849 246.921 221.785 250.974C221.747 254.495 223.134 258.061 226.551 259.562C230.471 261.291 234.913 259.448 238.369 257.478C240.78 256.104 243.078 254.508 245.407 253.001L252.878 248.2C253.909 247.535 252.954 245.888 251.917 246.56L239.641 254.483C236.574 256.459 232.686 258.878 228.823 258.283C225.253 257.738 223.688 254.483 223.669 251.196C223.669 247.605 224.992 244.128 226.424 240.885C228.396 236.446 230.893 232.257 233.863 228.408C234.608 227.439 232.947 226.508 232.209 227.446L232.234 227.439Z" fill="#256E31"/>
<path d="M250.886 247.408C248.862 249.169 249.066 252.177 250.422 254.274C252.178 256.984 255.315 257.719 258.363 257.098C261.768 256.402 264.727 254.261 267.412 252.146C270.147 249.893 272.758 247.496 275.233 244.964C278.011 242.089 280.999 239.423 284.174 236.99C285.161 236.274 284.206 234.628 283.213 235.35C278.122 239.067 273.922 243.805 269.283 248.016C267.006 250.2 264.482 252.112 261.762 253.716C259.369 255.053 255.818 256.338 253.298 254.578C251.529 253.311 250.364 250.36 252.235 248.726C253.158 247.915 251.802 246.579 250.886 247.383V247.408Z" fill="#256E31"/>
<path d="M396.512 307.999L400.699 317.398C401.806 319.881 403.69 322.8 402.474 325.562C401.946 326.68 401.123 327.634 400.093 328.324C399.064 329.015 397.866 329.415 396.626 329.482C393.724 329.634 390.899 328.31 388.761 326.442C386.215 324.2 384.382 321.28 382.601 318.411C381.964 317.373 380.303 318.329 380.953 319.368C384.338 324.821 388.691 331.173 395.85 331.401C397.31 331.45 398.759 331.144 400.073 330.51C401.387 329.875 402.526 328.931 403.391 327.759C404.246 326.612 404.736 325.235 404.797 323.807C404.861 322.11 404.161 320.533 403.493 319.019C401.719 315.025 399.942 311.037 398.16 307.056C397.663 305.935 396.022 306.904 396.512 308.012V307.999Z" fill="#256E31"/>
<path d="M381.531 320.476C383.829 321.92 383.733 325.15 382.588 327.303C380.991 330.312 377.395 331.211 374.207 331.192C370.58 331.192 366.92 330.229 363.51 329.07C356.064 326.523 349.381 322.154 344.075 316.366C343.241 315.46 341.892 316.803 342.72 317.708C348.322 323.798 355.385 328.374 363.249 331.008C367.003 332.275 371.114 333.282 375.104 333.105C378.738 332.94 382.613 331.54 384.325 328.114C385.871 325.023 385.661 320.856 382.499 318.861C381.455 318.228 380.494 319.849 381.531 320.501V320.476Z" fill="#256E31"/>
<path d="M231.362 212.22C222.615 216.748 215.295 223.593 210.209 231.999C209.836 232.654 209.735 233.428 209.928 234.156C210.12 234.884 210.591 235.508 211.24 235.894C211.9 236.26 212.676 236.358 213.406 236.168C214.137 235.978 214.765 235.515 215.16 234.875C215.797 233.855 216.433 232.854 217.108 231.885C217.4 231.467 217.699 231.056 218.011 230.619L218.317 230.213L218.259 230.289L218.819 229.593C220.25 227.846 221.798 226.198 223.452 224.659C224.292 223.874 225.164 223.12 226.055 222.392L226.653 221.917C227.175 221.499 226.398 222.1 226.882 221.733C227.366 221.366 227.843 221.024 228.333 220.682C230.223 219.36 232.202 218.171 234.258 217.122C234.908 216.736 235.381 216.11 235.572 215.38C235.764 214.651 235.66 213.875 235.282 213.221C234.887 212.581 234.259 212.117 233.529 211.926C232.799 211.735 232.023 211.831 231.362 212.195V212.22Z" fill="#A8E580"/>
<path d="M287.909 104.047L277.39 119.291C277.012 119.945 276.908 120.721 277.101 121.45C277.294 122.179 277.768 122.803 278.421 123.186C279.08 123.549 279.854 123.645 280.583 123.455C281.311 123.266 281.938 122.804 282.335 122.167L292.854 106.929C293.231 106.274 293.334 105.498 293.141 104.768C292.948 104.038 292.475 103.413 291.823 103.027C291.164 102.665 290.39 102.569 289.661 102.759C288.933 102.948 288.305 103.41 287.909 104.047Z" fill="#A8E580"/>
<path d="M271.192 173.992C280.632 173.992 288.285 165.951 288.285 156.031C288.285 146.111 280.632 138.07 271.192 138.07C261.752 138.07 254.1 146.111 254.1 156.031C254.1 165.951 261.752 173.992 271.192 173.992Z" fill="white" stroke="#256E31" stroke-width="2.88854" stroke-miterlimit="10"/>
<path d="M271.536 166.329C277.044 166.329 281.508 161.639 281.508 155.854C281.508 150.068 277.044 145.378 271.536 145.378C266.029 145.378 261.564 150.068 261.564 155.854C261.564 161.639 266.029 166.329 271.536 166.329Z" fill="#256E31" stroke="#256E31" stroke-width="2.16641" stroke-miterlimit="10"/>
<path d="M256.677 145.6L243.504 140.799C243.138 140.702 242.748 140.751 242.418 140.937C242.088 141.123 241.845 141.431 241.741 141.794C241.651 142.158 241.704 142.543 241.892 142.869C242.079 143.194 242.385 143.435 242.747 143.542L255.913 148.349C256.279 148.446 256.669 148.397 256.999 148.211C257.329 148.025 257.572 147.717 257.676 147.354C257.767 146.99 257.715 146.605 257.529 146.279C257.343 145.952 257.038 145.709 256.677 145.6Z" fill="#256E31"/>
<path d="M246.635 136.771L260.145 142.262C260.511 142.361 260.9 142.312 261.23 142.126C261.559 141.94 261.8 141.631 261.902 141.268C261.995 140.905 261.943 140.521 261.758 140.195C261.573 139.87 261.269 139.628 260.909 139.52L247.405 134.023C247.039 133.925 246.649 133.975 246.319 134.161C245.989 134.347 245.746 134.654 245.642 135.017C245.551 135.381 245.604 135.766 245.79 136.093C245.976 136.419 246.281 136.662 246.642 136.771H246.635Z" fill="#256E31"/>
<path d="M340.27 173.264C349.861 173.264 357.636 165.222 357.636 155.303C357.636 145.383 349.861 137.341 340.27 137.341C330.679 137.341 322.903 145.383 322.903 155.303C322.903 165.222 330.679 173.264 340.27 173.264Z" fill="white" stroke="#256E31" stroke-width="2.88854" stroke-miterlimit="10"/>
<path d="M339.919 165.93C345.694 165.93 350.375 161.09 350.375 155.119C350.375 149.148 345.694 144.308 339.919 144.308C334.145 144.308 329.464 149.148 329.464 155.119C329.464 161.09 334.145 165.93 339.919 165.93Z" fill="#256E31" stroke="#256E31" stroke-width="2.16641" stroke-miterlimit="10"/>
<path d="M355.784 147.601L369.148 142.794C369.509 142.685 369.814 142.442 370 142.116C370.186 141.789 370.238 141.404 370.147 141.04C370.044 140.678 369.803 140.37 369.474 140.184C369.145 139.998 368.756 139.948 368.391 140.046L355.027 144.853C354.667 144.96 354.362 145.202 354.176 145.527C353.99 145.853 353.937 146.237 354.028 146.601C354.132 146.964 354.375 147.272 354.704 147.459C355.034 147.646 355.424 147.697 355.791 147.601H355.784Z" fill="#256E31"/>
<path d="M364.445 133.288L350.725 138.785C350.365 138.896 350.061 139.139 349.876 139.465C349.69 139.791 349.636 140.176 349.726 140.54C349.832 140.901 350.075 141.208 350.404 141.394C350.734 141.579 351.123 141.63 351.489 141.534L365.209 136.037C365.57 135.928 365.875 135.685 366.061 135.358C366.247 135.032 366.299 134.646 366.208 134.282C366.104 133.92 365.861 133.612 365.531 133.426C365.201 133.24 364.811 133.19 364.445 133.288Z" fill="#256E31"/>
<path d="M294.764 185.677L319.276 185.095C321.115 185.05 321.122 182.2 319.276 182.245L294.764 182.827C292.924 182.872 292.918 185.722 294.764 185.677Z" fill="#256E31"/>
<path d="M301.356 193.1C302.939 194.156 304.793 194.737 306.699 194.775C308.604 194.813 310.48 194.307 312.104 193.316C312.276 193.226 312.427 193.103 312.549 192.953C312.672 192.804 312.762 192.631 312.815 192.446C312.869 192.261 312.884 192.067 312.859 191.876C312.835 191.685 312.772 191.501 312.675 191.334C312.577 191.168 312.446 191.023 312.291 190.908C312.135 190.794 311.958 190.712 311.77 190.667C311.581 190.623 311.386 190.617 311.195 190.65C311.004 190.682 310.822 190.753 310.66 190.858C310.341 191.054 310.012 191.232 309.674 191.39C309.807 191.327 309.705 191.39 309.623 191.39L309.292 191.511C309.12 191.574 308.935 191.625 308.757 191.675C308.579 191.726 308.394 191.764 308.21 191.802L307.93 191.853C307.694 191.891 308.133 191.853 307.892 191.853C307.495 191.898 307.095 191.915 306.695 191.903C306.508 191.902 306.321 191.892 306.135 191.872H305.855C306.008 191.872 305.919 191.872 305.817 191.872C305.447 191.81 305.081 191.724 304.723 191.612C304.544 191.561 304.366 191.498 304.188 191.428C304.01 191.359 304.188 191.428 304.08 191.384L303.825 191.264C303.47 191.075 303.128 190.863 302.801 190.63C302.473 190.44 302.083 190.387 301.716 190.482C301.349 190.577 301.034 190.812 300.841 191.137C300.657 191.465 300.608 191.852 300.704 192.215C300.8 192.579 301.034 192.891 301.356 193.088V193.1Z" fill="#256E31"/>
<path d="M188.834 238.193C181.128 242.202 173.39 248.833 173.091 258.124C172.83 265.655 177.806 272.089 184.806 274.635C189.229 276.244 194.072 276.339 198.717 276.041C203.954 275.706 209.192 275.117 214.404 274.502C226.707 273.054 238.914 271.015 251.026 268.384C275.423 263.08 299.252 255.455 322.184 245.616C345.048 235.833 366.908 223.87 387.456 209.896C392.547 206.451 397.53 202.929 402.379 199.193C406.764 195.823 411.155 192.017 413.687 187.02C414.718 184.987 415.717 182.587 415.507 180.231C415.286 178.337 414.489 176.556 413.223 175.126C410.493 171.833 406.114 169.724 401.94 169.002C399.948 168.617 397.897 168.639 395.914 169.065C394.717 169.344 395.226 171.18 396.423 170.902C400.489 169.952 405.039 171.37 408.475 173.543C410.224 174.576 411.692 176.02 412.752 177.748C413.789 179.572 413.751 181.345 413.153 183.309C411.587 188.426 407.674 192.416 403.652 195.76C399.159 199.497 394.31 202.847 389.512 206.178C370.104 219.645 349.492 231.305 327.937 241.012C306.217 250.803 283.637 258.582 260.483 264.249C249.003 267.052 237.408 269.33 225.699 271.082C219.802 271.965 213.886 272.704 207.951 273.299C203.496 273.749 199.01 274.3 194.53 274.255C189.948 274.211 185.226 273.419 181.402 270.747C178.683 268.865 176.668 266.139 175.674 262.995C173.441 255.699 177.367 248.789 182.974 244.229C185.112 242.529 187.422 241.054 189.865 239.827C190.954 239.257 189.986 237.617 188.898 238.181L188.834 238.193Z" fill="#256E31"/>
<path d="M170.38 260.993C166.244 262.969 162.699 266.009 160.924 270.297C159.25 274.35 159.39 278.885 160.376 283.09C162.82 293.509 169.858 302.876 177.393 310.26C182.396 315.012 187.688 319.454 193.238 323.56C199.053 328.009 205.101 332.148 211.355 335.961C224.083 343.7 237.656 350.293 251.243 356.405C278.212 368.54 306.511 378.008 335.733 383.005C365.063 387.996 395.303 388.42 424.588 382.891C431.865 381.523 439.064 379.77 446.154 377.641C452.93 375.715 459.545 373.267 465.939 370.319C477.203 364.917 487.703 355.411 488.269 342.149C488.395 339.24 487.921 336.337 486.875 333.618C486.443 332.484 484.597 332.984 485.036 334.124C487.295 339.976 486.481 346.398 483.732 351.953C480.881 357.722 476.146 362.181 470.718 365.557C464.991 369.116 458.627 371.535 452.264 373.695C445.524 375.976 438.669 377.906 431.728 379.477C403.633 385.811 374.36 386.444 345.864 382.644C317.552 378.844 289.953 370.611 263.62 359.73C250.218 354.176 237.128 347.899 224.324 341.097C211.748 334.456 199.853 326.607 188.809 317.664C179.766 310.311 171.29 302.312 165.817 291.881C161.821 284.281 158.817 273.597 165.62 266.592C167.277 264.947 169.216 263.61 171.347 262.646C172.454 262.114 171.487 260.474 170.38 261V260.993Z" fill="#256E31"/>
<path d="M366.545 254.533C381.658 254.533 393.909 242.341 393.909 227.3C393.909 212.259 381.658 200.067 366.545 200.067C351.433 200.067 339.182 212.259 339.182 227.3C339.182 242.341 351.433 254.533 366.545 254.533Z" fill="url(#paint0_radial_1200_7534)"/>
<path d="M366.545 238.599C372.815 238.599 377.898 233.54 377.898 227.3C377.898 221.06 372.815 216.001 366.545 216.001C360.275 216.001 355.192 221.06 355.192 227.3C355.192 233.54 360.275 238.599 366.545 238.599Z" fill="#5CEEFF" stroke="#45B3E9" stroke-width="2.16641" stroke-miterlimit="10"/>
<path d="M364.363 222.518C364.363 222.518 359.998 225.128 361.741 229.485L364.363 222.518Z" fill="#5CEEFF"/>
<path d="M364.363 222.518C364.363 222.518 359.998 225.128 361.741 229.485" stroke="white" stroke-width="2.88854" stroke-miterlimit="10" stroke-linecap="round"/>
<path d="M261.545 291.9C276.658 291.9 288.909 279.707 288.909 264.667C288.909 249.626 276.658 237.433 261.545 237.433C246.433 237.433 234.182 249.626 234.182 264.667C234.182 279.707 246.433 291.9 261.545 291.9Z" fill="url(#paint1_radial_1200_7534)"/>
<path d="M261.545 275.965C267.815 275.965 272.898 270.907 272.898 264.667C272.898 258.427 267.815 253.368 261.545 253.368C255.275 253.368 250.192 258.427 250.192 264.667C250.192 270.907 255.275 275.965 261.545 275.965Z" fill="#5CEEFF" stroke="#45B3E9" stroke-width="2.16641" stroke-miterlimit="10"/>
<path d="M259.363 259.885C259.363 259.885 254.998 262.494 256.741 266.852L259.363 259.885Z" fill="#5CEEFF"/>
<path d="M259.363 259.885C259.363 259.885 254.998 262.494 256.741 266.852" stroke="white" stroke-width="2.88854" stroke-miterlimit="10" stroke-linecap="round"/>
<path d="M207.454 362.2C222.567 362.2 234.818 350.007 234.818 334.967C234.818 319.926 222.567 307.733 207.454 307.733C192.342 307.733 180.091 319.926 180.091 334.967C180.091 350.007 192.342 362.2 207.454 362.2Z" fill="url(#paint2_radial_1200_7534)"/>
<path d="M207.454 346.265C213.724 346.265 218.807 341.207 218.807 334.967C218.807 328.727 213.724 323.668 207.454 323.668C201.184 323.668 196.102 328.727 196.102 334.967C196.102 341.207 201.184 346.265 207.454 346.265Z" fill="#5CEEFF" stroke="#45B3E9" stroke-width="2.16641" stroke-miterlimit="10"/>
<path d="M205.272 330.185C205.272 330.185 200.907 332.794 202.65 337.152L205.272 330.185Z" fill="#5CEEFF"/>
<path d="M205.272 330.185C205.272 330.185 200.907 332.794 202.65 337.152" stroke="white" stroke-width="2.88854" stroke-miterlimit="10" stroke-linecap="round"/>
<path d="M298.454 398.3C313.567 398.3 325.818 386.107 325.818 371.067C325.818 356.026 313.567 343.833 298.454 343.833C283.342 343.833 271.091 356.026 271.091 371.067C271.091 386.107 283.342 398.3 298.454 398.3Z" fill="url(#paint3_radial_1200_7534)"/>
<path d="M298.454 382.365C304.724 382.365 309.807 377.307 309.807 371.067C309.807 364.827 304.724 359.768 298.454 359.768C292.184 359.768 287.102 364.827 287.102 371.067C287.102 377.307 292.184 382.365 298.454 382.365Z" fill="#5CEEFF" stroke="#45B3E9" stroke-width="2.16641" stroke-miterlimit="10"/>
<path d="M296.272 366.285C296.272 366.285 291.907 368.894 293.65 373.252L296.272 366.285Z" fill="#5CEEFF"/>
<path d="M296.272 366.285C296.272 366.285 291.907 368.894 293.65 373.252" stroke="white" stroke-width="2.88854" stroke-miterlimit="10" stroke-linecap="round"/>
<path d="M420.636 409.7C435.749 409.7 448 397.507 448 382.467C448 367.426 435.749 355.233 420.636 355.233C405.524 355.233 393.272 367.426 393.272 382.467C393.272 397.507 405.524 409.7 420.636 409.7Z" fill="url(#paint4_radial_1200_7534)"/>
<path d="M420.636 393.765C426.906 393.765 431.989 388.707 431.989 382.467C431.989 376.227 426.906 371.168 420.636 371.168C414.366 371.168 409.283 376.227 409.283 382.467C409.283 388.707 414.366 393.765 420.636 393.765Z" fill="#5CEEFF" stroke="#45B3E9" stroke-width="2.16641" stroke-miterlimit="10"/>
<path d="M418.454 377.685C418.454 377.685 414.088 380.294 415.832 384.652L418.454 377.685Z" fill="#5CEEFF"/>
<path d="M418.454 377.685C418.454 377.685 414.088 380.294 415.832 384.652" stroke="white" stroke-width="2.88854" stroke-miterlimit="10" stroke-linecap="round"/>
<defs>
<radialGradient id="paint0_radial_1200_7534" cx="0" cy="0" r="1" gradientUnits="userSpaceOnUse" gradientTransform="translate(366.545 227.3) scale(27.3636 27.2333)">
<stop stop-color="white"/>
<stop offset="0.43" stop-color="#FFF8EF"/>
<stop offset="0.49" stop-color="#FFE3C3" stop-opacity="0.81"/>
<stop offset="0.56" stop-color="#FFCE98" stop-opacity="0.62"/>
<stop offset="0.63" stop-color="#FFBC72" stop-opacity="0.46"/>
<stop offset="0.7" stop-color="#FFAD54" stop-opacity="0.33"/>
<stop offset="0.77" stop-color="#FFA23C" stop-opacity="0.23"/>
<stop offset="0.84" stop-color="#FF992B" stop-opacity="0.16"/>
<stop offset="0.92" stop-color="#FF9521" stop-opacity="0.11"/>
<stop offset="1" stop-color="#FF931E" stop-opacity="0.1"/>
</radialGradient>
<radialGradient id="paint1_radial_1200_7534" cx="0" cy="0" r="1" gradientUnits="userSpaceOnUse" gradientTransform="translate(261.545 264.667) scale(27.3636 27.2333)">
<stop stop-color="white"/>
<stop offset="0.43" stop-color="#FFF8EF"/>
<stop offset="0.49" stop-color="#FFE3C3" stop-opacity="0.81"/>
<stop offset="0.56" stop-color="#FFCE98" stop-opacity="0.62"/>
<stop offset="0.63" stop-color="#FFBC72" stop-opacity="0.46"/>
<stop offset="0.7" stop-color="#FFAD54" stop-opacity="0.33"/>
<stop offset="0.77" stop-color="#FFA23C" stop-opacity="0.23"/>
<stop offset="0.84" stop-color="#FF992B" stop-opacity="0.16"/>
<stop offset="0.92" stop-color="#FF9521" stop-opacity="0.11"/>
<stop offset="1" stop-color="#FF931E" stop-opacity="0.1"/>
</radialGradient>
<radialGradient id="paint2_radial_1200_7534" cx="0" cy="0" r="1" gradientUnits="userSpaceOnUse" gradientTransform="translate(207.454 334.967) scale(27.3636 27.2333)">
<stop stop-color="white"/>
<stop offset="0.43" stop-color="#FFF8EF"/>
<stop offset="0.49" stop-color="#FFE3C3" stop-opacity="0.81"/>
<stop offset="0.56" stop-color="#FFCE98" stop-opacity="0.62"/>
<stop offset="0.63" stop-color="#FFBC72" stop-opacity="0.46"/>
<stop offset="0.7" stop-color="#FFAD54" stop-opacity="0.33"/>
<stop offset="0.77" stop-color="#FFA23C" stop-opacity="0.23"/>
<stop offset="0.84" stop-color="#FF992B" stop-opacity="0.16"/>
<stop offset="0.92" stop-color="#FF9521" stop-opacity="0.11"/>
<stop offset="1" stop-color="#FF931E" stop-opacity="0.1"/>
</radialGradient>
<radialGradient id="paint3_radial_1200_7534" cx="0" cy="0" r="1" gradientUnits="userSpaceOnUse" gradientTransform="translate(298.454 371.067) scale(27.3636 27.2333)">
<stop stop-color="white"/>
<stop offset="0.43" stop-color="#FFF8EF"/>
<stop offset="0.49" stop-color="#FFE3C3" stop-opacity="0.81"/>
<stop offset="0.56" stop-color="#FFCE98" stop-opacity="0.62"/>
<stop offset="0.63" stop-color="#FFBC72" stop-opacity="0.46"/>
<stop offset="0.7" stop-color="#FFAD54" stop-opacity="0.33"/>
<stop offset="0.77" stop-color="#FFA23C" stop-opacity="0.23"/>
<stop offset="0.84" stop-color="#FF992B" stop-opacity="0.16"/>
<stop offset="0.92" stop-color="#FF9521" stop-opacity="0.11"/>
<stop offset="1" stop-color="#FF931E" stop-opacity="0.1"/>
</radialGradient>
<radialGradient id="paint4_radial_1200_7534" cx="0" cy="0" r="1" gradientUnits="userSpaceOnUse" gradientTransform="translate(420.636 382.467) scale(27.3636 27.2333)">
<stop stop-color="white"/>
<stop offset="0.43" stop-color="#FFF8EF"/>
<stop offset="0.49" stop-color="#FFE3C3" stop-opacity="0.81"/>
<stop offset="0.56" stop-color="#FFCE98" stop-opacity="0.62"/>
<stop offset="0.63" stop-color="#FFBC72" stop-opacity="0.46"/>
<stop offset="0.7" stop-color="#FFAD54" stop-opacity="0.33"/>
<stop offset="0.77" stop-color="#FFA23C" stop-opacity="0.23"/>
<stop offset="0.84" stop-color="#FF992B" stop-opacity="0.16"/>
<stop offset="0.92" stop-color="#FF9521" stop-opacity="0.11"/>
<stop offset="1" stop-color="#FF931E" stop-opacity="0.1"/>
</radialGradient>
</defs>
</svg>
