<svg width="588" height="608" viewBox="0 0 588 608" fill="none" xmlns="http://www.w3.org/2000/svg">
<path d="M313.409 566.368C393.716 566.368 458.818 559.702 458.818 551.48C458.818 543.257 393.716 536.592 313.409 536.592C233.102 536.592 168 543.257 168 551.48C168 559.702 233.102 566.368 313.409 566.368Z" fill="black" fill-opacity="0.15"/>
<path d="M322.585 348.628C334.676 402.84 342.669 446.947 346.13 502.577L348.039 531.086C348.676 549.459 348.345 561.363 374.767 559.595C380.36 559.222 399.865 559.386 404.676 555.794C414.858 548.192 409.767 536.402 407.858 532.353C402.499 521.07 386.59 514.101 386.59 514.101C379.635 466.371 376.676 424.652 369.039 367.001" fill="#FF8000"/>
<path d="M321.668 348.882C325.13 364.384 328.452 379.925 331.436 395.529C334.281 410.366 336.814 425.261 338.914 440.218C341.077 455.626 342.774 471.089 344.005 486.606C344.705 495.298 345.239 503.997 345.825 512.695C346.232 518.821 346.741 524.954 347.053 531.067C347.275 535.42 347.263 539.779 347.861 544.112C348.332 547.52 349.185 551.036 351.234 553.875C356.681 561.401 367.423 560.875 375.67 560.476C380.22 560.254 384.776 560.197 389.326 559.881C393.876 559.564 398.872 559.317 403.135 557.625C407.8 555.788 410.963 550.815 411.599 545.994C412.185 541.559 410.963 537.124 409.232 533.126C405.414 524.46 397.185 518.39 388.938 514.177C388.302 513.861 387.665 513.544 387.029 513.259L387.468 513.829C384.84 495.767 382.67 477.641 380.653 459.497C378.559 440.643 376.586 421.77 374.397 402.922C373.01 390.932 371.525 378.951 369.943 366.982C369.784 365.784 367.875 365.772 368.034 366.982C370.713 387.217 373.055 407.49 375.275 427.801C377.248 445.851 379.145 463.913 381.327 481.93C382.405 490.855 383.565 499.771 384.808 508.678L385.266 511.941C385.394 512.796 385.266 514.399 386.055 514.931C386.349 515.092 386.653 515.234 386.966 515.356C388.977 516.33 390.932 517.417 392.82 518.612C398.605 522.236 404.211 526.899 407.145 533.183C409.512 538.252 411.103 544.505 408.513 549.801C407.17 552.551 404.828 555.097 401.869 556.086C398.969 556.953 395.981 557.494 392.96 557.701C386.972 558.297 380.965 558.278 374.964 558.639C368.835 559 361.651 559.323 356.191 555.978C352.315 553.602 350.667 549.415 349.916 545.126C349.083 540.361 349.216 535.515 348.917 530.706C348.669 526.709 348.383 522.717 348.115 518.72C347.314 506.765 346.601 494.798 345.57 482.862C343.873 462.88 341.415 442.983 338.195 423.17C335.013 403.271 331.074 383.485 326.823 363.782C325.716 358.647 324.589 353.513 323.444 348.381C323.176 347.19 321.337 347.691 321.605 348.888L321.668 348.882Z" fill="#CF6800"/>
<path d="M310.36 347.88C299.434 402.567 292.574 446.972 291.046 502.71L290.117 531.283C290.155 549.655 290.989 561.547 262.378 560.907C256.32 560.767 235.256 561.768 229.924 558.372C218.622 551.214 223.636 539.214 225.552 535.09C230.891 523.585 247.825 515.945 247.825 515.945C253.444 467.954 254.984 426.141 260.94 368.211" fill="#FF8000"/>
<path d="M309.437 347.627C305.282 368.426 301.4 389.282 298.275 410.258C295.259 430.493 292.974 450.805 291.581 471.236C290.626 485.218 290.2 499.213 289.748 513.22L289.252 528.495C289.124 532.442 289.252 536.389 289.093 540.336C288.921 544.771 288.456 549.687 285.726 553.387C282.544 557.657 276.855 559.088 271.822 559.614C268.225 559.926 264.613 560.036 261.004 559.944C258.083 559.944 255.155 559.994 252.234 559.994C248.715 559.994 245.19 559.944 241.677 559.728C238.673 559.632 235.687 559.222 232.768 558.506C229.682 557.529 227.083 555.423 225.494 552.614C223.957 549.8 223.414 546.553 223.954 543.396C224.875 537.601 227.626 532.249 231.807 528.115C236.174 523.845 241.194 520.291 246.679 517.586C247.163 517.338 247.704 517.136 248.162 516.857C248.421 516.724 248.619 516.497 248.715 516.223C249.065 515.241 248.995 513.854 249.116 512.828C249.647 508.182 250.147 503.525 250.618 498.858C252.47 480.574 253.908 462.246 255.321 443.924C256.861 424.044 258.407 404.164 260.278 384.309C260.783 378.949 261.311 373.591 261.863 368.236C261.984 367.02 260.074 367.026 259.954 368.236C257.841 388.819 256.097 409.416 254.487 430.056C253.055 448.429 251.706 466.763 250.033 485.098C249.091 495.399 248.03 505.69 246.851 515.97L247.328 515.146C244.863 516.299 242.48 517.618 240.194 519.093C235.67 521.963 231.285 525.353 227.957 529.559C222.561 536.338 219.01 547.45 224.775 555.027C226.317 557.146 228.394 558.82 230.795 559.88C232.713 560.566 234.71 561.009 236.739 561.198C242.042 561.782 247.378 562.021 252.712 561.914C257.344 561.914 262.003 561.99 266.635 561.87C271.688 561.743 276.995 561.236 281.622 559.038C284.751 557.598 287.277 555.115 288.762 552.018C290.321 548.692 290.773 544.973 290.964 541.343C291.148 537.846 290.964 534.374 291.091 530.852L291.377 522.109C291.587 515.653 291.81 509.198 292.014 502.742C292.497 486.561 293.382 470.431 294.864 454.276C296.284 438.793 298.212 423.353 300.554 407.978C302.978 392.019 305.835 376.136 308.903 360.291C309.688 356.241 310.483 352.195 311.289 348.153C311.531 346.955 309.692 346.449 309.45 347.646L309.437 347.627Z" fill="#CF6800"/>
<path d="M257.414 14.5585C253.253 21.9265 270.511 15.4264 271.414 21.6921L271.764 23.1555C262.764 28.3424 254.765 35.0853 248.143 43.0675C246.157 45.4623 244.248 48.8771 245.979 51.4619C247.411 53.5969 250.484 53.749 253.043 53.4005C259.819 52.481 266.208 49.7091 271.497 45.3926L272.089 46.3049C268.078 54.9485 265.958 64.3425 265.872 73.8637C265.754 75.9525 266.037 78.0446 266.705 80.028C267.469 81.9666 269.022 83.7088 271.058 84.2093L313.618 61.9912C315.922 63.6955 318.321 65.4504 321.184 66.0776C324.048 66.7048 327.504 65.8748 328.935 63.4357C331.035 59.8436 327.815 55.6876 324.812 52.786L311.728 40.1533L317.061 18.6131C309.424 19.481 306.389 19.8485 298.74 20.7164C298.74 20.7164 272.859 -12.7849 257.414 14.5585Z" fill="#FF8000"/>
<path d="M256.594 14.0517C255.919 15.2617 255.359 16.8899 256.415 18.0619C257.287 19.0376 258.745 19.2213 259.973 19.329C261.621 19.4874 263.282 19.4367 264.93 19.5001C266.324 19.5571 268.016 19.6521 269.181 20.216C269.451 20.3105 269.698 20.4611 269.905 20.6576C270.113 20.8542 270.276 21.0924 270.384 21.3563C270.384 21.293 270.46 21.6541 270.485 21.7491C270.511 21.8442 270.543 22.0215 270.568 22.1609C270.664 22.56 270.766 22.9655 270.861 23.3646L271.3 22.294C262.779 27.2043 255.141 33.4975 248.703 40.9136C246.157 43.8658 242.206 48.8518 245.699 52.6023C248.601 55.7256 254.214 54.3445 257.758 53.4069C263.024 51.9927 267.928 49.4813 272.146 46.0389L270.645 45.8425L271.236 46.7611V45.7981C268.797 51.068 267.038 56.6238 265.999 62.3334C265.488 65.1333 265.155 67.9623 265 70.8038C264.847 73.6103 264.688 76.5879 265.458 79.3248C266.095 81.5549 267.514 83.7596 269.69 84.7162C269.961 84.8955 270.269 85.0138 270.591 85.063C270.913 85.1123 271.242 85.0912 271.555 85.0013C271.644 84.9633 271.726 84.9063 271.816 84.8619L275.15 83.126L289.15 75.8087L305.136 67.465L311.009 64.3987C312.01 63.9391 312.987 63.4295 313.936 62.8719C313.979 62.8428 314.023 62.8174 314.07 62.7959H313.09C315.718 64.7535 318.531 66.7428 321.878 67.1483C324.487 67.465 327.516 66.7238 329.216 64.6141C331.188 62.1497 330.603 59.0137 329.076 56.4922C327.224 53.4449 324.366 51.0818 321.827 48.63L312.352 39.4818L312.6 40.4067L317.296 21.5274L317.933 18.8475C317.969 18.7063 317.973 18.5587 317.944 18.4158C317.915 18.2729 317.854 18.1384 317.765 18.0225C317.676 17.9066 317.562 17.8123 317.431 17.7467C317.301 17.6811 317.157 17.6459 317.01 17.6438C310.901 18.3344 304.798 19.0566 298.689 19.7471L299.516 20.216C296.607 16.4695 293.259 13.0816 289.545 10.1237C283.735 5.51161 275.958 1.16556 268.296 3.44628C263.008 5.02379 259.247 9.40152 256.613 14.0327C256.496 14.2496 256.468 14.5031 256.536 14.7399C256.603 14.9767 256.76 15.1783 256.974 15.3022C257.187 15.4262 257.441 15.4628 257.681 15.4044C257.921 15.3461 258.129 15.1973 258.261 14.9893C260.851 10.4342 264.586 6.1198 269.97 4.98577C274.1 4.13684 278.357 5.45459 281.991 7.37421C288.094 10.5926 293.395 15.5722 297.722 20.8938C297.824 21.0206 298.295 21.4957 297.913 21.1283C298.091 21.3235 298.321 21.465 298.577 21.5367C298.832 21.6083 299.103 21.6073 299.357 21.5337L301.235 21.3183L304.416 20.9572L317.061 19.5001L316.145 18.2963L311.887 35.5032L310.984 39.1523C310.933 39.3804 310.85 39.6148 310.818 39.8429C310.774 40.0611 310.795 40.2873 310.877 40.4941C310.96 40.701 311.101 40.8796 311.283 41.0086C311.97 41.7245 312.708 42.3897 313.421 43.0803L321.878 51.2465C324.239 53.5273 327.166 55.8903 328.293 59.0834C328.602 59.799 328.712 60.5842 328.611 61.3567C328.51 62.1292 328.203 62.8605 327.72 63.4738C326.72 64.5287 325.356 65.167 323.902 65.2603C320.16 65.6341 316.946 63.2393 314.108 61.136C313.963 61.0501 313.797 61.0048 313.628 61.0048C313.459 61.0048 313.293 61.0501 313.147 61.136L298.778 68.6371L275.869 80.5982L270.587 83.3541L271.319 83.2591C268.844 82.5939 267.552 80.1864 267.1 77.836C266.546 74.9978 266.82 71.9061 267.049 69.0425C267.535 63.1881 268.797 57.4234 270.804 51.8991C271.359 50.3786 271.966 48.8834 272.624 47.4136C272.891 46.8308 273.222 46.3303 272.872 45.7158C272.713 45.4243 272.516 45.1582 272.331 44.8795C272.255 44.7572 272.153 44.6533 272.032 44.5752C271.91 44.4971 271.773 44.4469 271.63 44.4281C271.487 44.4093 271.341 44.4224 271.204 44.4665C271.067 44.5106 270.941 44.5846 270.836 44.6831C267.423 47.4573 263.527 49.5833 259.343 50.9551C257.237 51.6618 255.068 52.1626 252.865 52.4502C251.235 52.653 249.314 52.7227 247.85 51.8611C243.72 49.4473 248.563 43.9925 250.446 41.8385C256.695 34.7159 264.078 28.6651 272.299 23.9285C272.478 23.8189 272.617 23.6553 272.696 23.4616C272.775 23.2679 272.79 23.0541 272.738 22.8515C272.433 21.5844 272.28 20.2413 271.268 19.3037C270.256 18.366 268.621 17.9542 267.176 17.7705C265.555 17.6049 263.926 17.5245 262.295 17.5298C260.964 17.6007 259.631 17.4486 258.35 17.08L258.14 16.9786L257.975 16.8772H257.943C257.739 16.7062 257.943 16.8772 257.835 16.7569C257.726 16.5605 257.726 16.6365 257.835 16.7569C257.807 16.6937 257.785 16.6279 257.771 16.5605C257.761 16.4004 257.778 16.2397 257.822 16.0853C257.929 15.7056 258.085 15.3414 258.286 15.002C258.834 13.925 257.185 12.981 256.594 14.0517Z" fill="#CF6800"/>
<path d="M316.081 27.812C316.45 30.9796 316.717 38.5441 313.822 40.1532C310.926 41.7624 301.368 39.5704 297.995 39.412C297.155 39.4425 296.322 39.2617 295.571 38.8862C294.298 38.1133 294.05 36.352 294.565 34.9899C295.081 33.6278 296.182 32.5762 297.251 31.5688C300.598 28.4012 305.492 21.5463 309.717 19.8168C313.777 18.1506 315.699 23.9854 316.081 27.812Z" fill="#BA5D00"/>
<path d="M321.783 27.2293C322.152 30.3969 322.419 37.9677 319.517 39.5769C316.616 41.1861 307.07 38.9877 303.697 38.8293C302.858 38.8612 302.023 38.6803 301.273 38.3035C300 37.5305 299.752 35.7693 300.261 34.4136C300.77 33.0578 301.877 31.9934 302.946 30.9861C306.3 27.8184 311.187 20.9699 315.419 19.2341C319.454 17.5932 321.401 23.4281 321.783 27.2293Z" fill="#FF8000"/>
<path d="M320.828 27.2292C321.049 29.149 321.104 31.0841 320.994 33.0134C320.892 34.7112 320.733 36.9666 319.556 38.3224C318.62 39.4057 316.59 39.2283 315.254 39.184C313.048 39.0649 310.85 38.8344 308.668 38.4934C306.841 38.2337 305.028 37.9993 303.188 37.8599C301.833 37.7522 300.917 37.0933 300.974 35.6489C301.031 34.2044 302.107 33.1147 303.055 32.2024C306.587 28.7623 309.508 24.6 313.415 21.5654C314.268 20.8938 315.324 20.0892 316.45 19.9245C316.862 19.8827 317.278 19.949 317.657 20.1168C318.035 20.2846 318.363 20.5481 318.608 20.8812C320.052 22.5474 320.606 25.1068 320.828 27.2165C320.949 28.4202 322.865 28.4329 322.738 27.2165C322.33 23.3646 320.192 16.1043 314.859 18.4357C312.403 19.5064 310.405 21.5527 308.585 23.4597C306.618 25.5376 304.811 27.774 302.788 29.795C300.764 31.816 298.155 34.1664 299.338 37.3024C300.357 40.0013 303.367 39.6591 305.734 39.9696C308.101 40.28 310.583 40.6791 313.027 40.9136C315.044 41.1036 317.424 41.3697 319.39 40.6538C321.719 39.7985 322.419 37.0997 322.725 34.895C323.043 32.3432 323.043 29.762 322.725 27.2102C322.598 26.0508 320.688 26.0318 320.828 27.2292Z" fill="#CF6800"/>
<path d="M374.181 408.618C374.181 408.618 359.545 402.282 335.999 415.586C333.059 401.649 325.817 358.568 325.817 358.568L366.545 349.699L374.181 408.618Z" fill="#BA5D00"/>
<path d="M353.117 553.558C353.117 553.558 374.27 536.947 406.998 553.558C403.52 556.239 399.499 558.137 395.213 559.12L363.694 560.064C363.694 560.064 354.326 558.487 353.117 553.558Z" fill="#BA5D00"/>
<path d="M257.008 410.018C257.008 410.018 272.58 403.049 298.531 415.358C301.152 401.306 307.261 357.947 307.261 357.947L262.913 350.82L257.008 410.018Z" fill="#BA5D00"/>
<path d="M285.523 553.95C285.523 553.95 262.016 538.251 227.321 556.244C231.243 558.8 235.651 560.525 240.271 561.312L274.361 560.913C274.361 560.913 284.416 558.936 285.523 553.944" fill="#BA5D00"/>
<path d="M321.395 349.002C324.857 364.504 328.179 380.045 331.17 395.649C334.014 410.48 336.541 425.381 338.647 440.339C340.811 455.746 342.518 471.209 343.77 486.726C344.47 495.418 345.004 504.117 345.583 512.815C345.997 518.941 346.506 525.074 346.818 531.188C347.041 535.572 347.034 539.962 347.639 544.327C348.11 547.723 348.981 551.239 351.043 554.058C356.554 561.572 367.315 560.97 375.581 560.59C380.125 560.375 384.681 560.311 389.219 559.994C393.756 559.678 398.713 559.418 402.977 557.714C407.692 555.813 410.785 550.745 411.358 545.886C411.867 541.533 410.613 537.187 408.94 533.215C407.101 528.837 403.957 525.46 400.349 522.445C396.809 519.492 393.041 516.823 389.079 514.462C388.442 514.063 387.749 513.67 387.074 513.29L387.513 513.86C384.885 495.805 382.677 477.698 380.609 459.566C378.458 440.731 376.428 421.884 374.207 403.061C372.794 391.075 371.309 379.099 369.752 367.134C369.593 365.936 367.684 365.924 367.843 367.134C370.529 387.407 372.934 407.731 375.193 428.061C377.204 446.034 379.158 464.007 381.366 481.956C382.469 490.931 383.648 499.897 384.904 508.855L385.343 511.953C385.471 512.834 385.343 514.355 386.139 514.937C386.476 515.168 386.827 515.38 387.189 515.571C389.276 516.792 391.312 518.092 393.298 519.473C396.116 521.382 398.782 523.504 401.271 525.822C403.531 527.963 405.624 530.326 406.865 533.202C409.086 538.334 410.861 544.46 408.335 549.826C407.018 552.626 404.644 555.218 401.653 556.219C398.795 557.075 395.849 557.613 392.871 557.821C386.883 558.423 380.876 558.417 374.875 558.759C368.721 559.114 361.55 559.481 356.051 556.155C352.125 553.786 350.451 549.585 349.688 545.258C348.861 540.513 348.994 535.686 348.701 530.896C348.447 526.88 348.161 522.863 347.893 518.859C347.098 506.968 346.385 495.07 345.348 483.197C343.651 463.152 341.188 443.19 337.96 423.309C334.778 403.41 330.839 383.625 326.588 363.922C325.481 358.781 324.354 353.648 323.209 348.52C322.941 347.329 321.096 347.83 321.363 349.027L321.395 349.002Z" fill="#CF6800"/>
<path d="M360.5 517.902C360.5 517.902 369.409 507.132 386.591 514.101" stroke="#CF6800" stroke-width="2.16641" stroke-miterlimit="10"/>
<path d="M276.13 518.637C276.13 518.637 266.082 508.254 247.793 515.951" stroke="#CF6800" stroke-width="2.16641" stroke-miterlimit="10"/>
<path d="M121.094 300.454C110.734 306.244 104.179 310.185 93.819 315.976C92.19 316.777 90.7096 317.848 89.4408 319.143C88.2508 320.486 87.5953 322.374 88.3017 323.768C89.5744 326.226 93.5644 325.46 96.5235 324.307C110.479 318.851 123.635 311.555 135.641 302.614L136.385 302.994C134.374 309.431 130.773 312.662 125.045 319.631C123.932 320.987 122.984 323.052 123.136 324.699C123.289 326.346 125.274 328.171 126.954 328.501C129.939 329.09 132.045 325.966 136.5 320.898C144.429 311.877 158.022 298.382 159.409 290.488C159.409 290.488 157.226 286.529 157.182 279.427C157.137 272.325 236.364 242.511 263.098 177.092C238.808 169.578 233.654 169.939 233.654 169.939C233.654 169.939 159.498 257.24 123.652 274.815C109.83 280.916 101.831 286.339 88.0153 292.44C85.7435 293.441 82.3581 294.714 82.7462 298.218C83.0644 301.125 86.5644 301.214 88.4735 300.612C95.709 298.338 105.776 295.044 115.519 291.204C103.746 298.046 99.3808 300.739 87.6081 307.581C85.7852 308.516 84.121 309.731 82.6762 311.18C81.3208 312.687 80.4617 314.791 81.1299 316.432C82.8544 320.619 88.7663 318.484 92.0881 316.647" fill="#39A84A"/>
<path d="M120.61 299.649C114.819 302.887 109.079 306.2 103.326 309.501C100.357 311.19 97.387 312.88 94.4173 314.569C91.7636 316.058 88.6518 317.559 87.4173 320.55C86.4373 322.97 87.4491 325.618 90.1345 326.201C92.82 326.784 95.5182 325.719 97.9363 324.756C104.288 322.221 110.478 319.303 116.474 316.02C123.289 312.28 129.837 308.078 136.074 303.444H135.106L135.857 303.824L135.418 302.747C133.764 307.936 130.276 311.921 126.808 316.001C124.899 318.269 122.538 320.569 122.163 323.679C121.851 326.277 123.957 328.748 126.426 329.381C128.335 329.875 130.003 329.039 131.415 327.848C133.56 326.03 135.278 323.686 137.143 321.582C140.636 317.61 144.27 313.765 147.764 309.792C151.257 305.82 154.668 301.829 157.417 297.369C158.504 295.691 159.37 293.881 159.995 291.984C160.29 291.349 160.351 290.631 160.166 289.956C159.995 289.544 159.861 289.323 159.715 288.917C158.948 286.844 158.458 284.68 158.257 282.481C158.181 281.695 158.136 280.903 158.111 280.117C158.111 279.946 158.149 279.009 158.111 279.484C158.117 279.419 158.132 279.355 158.155 279.294L158.194 279.18C158.149 279.275 158.085 279.402 158.194 279.262C158.302 279.123 158.391 278.939 158.499 278.787C158.499 278.787 158.404 278.888 158.575 278.692C158.665 278.603 158.747 278.508 158.83 278.413C159.242 277.994 159.68 277.601 160.141 277.235L160.542 276.912C160.675 276.81 160.415 277.013 160.605 276.867L160.873 276.665L161.84 275.968C162.61 275.423 163.399 274.897 164.188 274.378C166.135 273.111 168.115 271.881 170.1 270.665C175.433 267.383 180.778 264.133 186.047 260.757C192.665 256.512 199.169 252.084 205.469 247.383C212.664 242.056 219.554 236.333 226.106 230.239C233.076 223.762 239.517 216.744 245.369 209.25C251.472 201.457 256.722 193.039 261.03 184.137C262.099 181.9 263.105 179.626 264.046 177.333C264.109 177.089 264.075 176.831 263.95 176.612C263.826 176.393 263.62 176.232 263.378 176.161C257.161 174.26 250.905 172.397 244.58 170.877C241.669 170.143 238.72 169.564 235.747 169.141C235.003 169.046 233.635 168.691 232.979 169.255C232.533 169.711 232.119 170.195 231.738 170.706C228.798 174.135 225.828 177.542 222.829 180.925C217.692 186.736 212.503 192.497 207.264 198.208C200.722 205.337 194.089 212.376 187.365 219.323C180.237 226.672 172.989 233.895 165.544 240.94C158.544 247.522 151.435 253.959 143.958 259.977C138.015 264.761 131.823 269.404 125.077 273.028C122.532 274.397 119.84 275.493 117.231 276.747C113.89 278.356 110.594 280.054 107.316 281.784C100.743 285.243 94.1754 288.715 87.36 291.705C85.1582 292.674 82.6127 293.833 81.9254 296.368C81.7303 296.966 81.6738 297.601 81.7603 298.225C81.8468 298.848 82.074 299.444 82.4248 299.968C82.7756 300.491 83.241 300.929 83.7861 301.248C84.3311 301.567 84.9416 301.759 85.5718 301.81C86.6777 301.944 87.7996 301.84 88.8618 301.506C90.44 301.024 92.0436 300.505 93.59 299.998C97.1854 298.832 100.768 297.635 104.332 296.38C108.175 295.037 111.994 293.622 115.786 292.136L115.048 290.4C108.048 294.486 101.048 298.636 94.0482 302.747C92.0627 303.913 90.0751 305.075 88.0854 306.232C86.1318 307.372 84.0827 308.475 82.46 310.077C81.06 311.465 79.87 313.429 79.9909 315.462C80.0433 316.256 80.3004 317.023 80.7373 317.689C81.1743 318.355 81.7764 318.897 82.4854 319.264C85.6673 320.835 89.7718 319.042 92.6036 317.496C93.6854 316.913 92.7245 315.272 91.6427 315.855C89.4663 317.04 86.3609 318.541 83.8282 317.756C83.1899 317.563 82.6439 317.146 82.2925 316.581C81.9412 316.017 81.8084 315.344 81.9191 314.689C82.2373 312.694 83.9109 311.135 85.4954 310.046C88.8109 307.746 92.4954 305.883 95.9636 303.837C98.8654 302.148 101.763 300.439 104.656 298.712C108.441 296.482 112.229 294.262 116.022 292.053C116.925 291.527 116.321 289.912 115.29 290.317C108.971 292.801 102.563 295.063 96.11 297.191C93.45 298.072 90.79 299.022 88.0918 299.77C86.5836 300.182 84.0064 300.194 83.7009 298.211C83.3445 295.905 85.4636 294.663 87.2645 293.833C90.0518 292.566 92.8582 291.299 95.6136 289.975C101.055 287.321 106.368 284.413 111.745 281.632C114.577 280.168 117.428 278.749 120.317 277.4C122.296 276.475 124.307 275.626 126.229 274.587C128.775 273.193 131.32 271.628 133.719 269.987C139.631 265.919 145.314 261.53 150.742 256.841C157.029 251.507 163.113 245.926 169.075 240.236C175.316 234.268 181.444 228.184 187.46 221.984C193.225 216.071 198.917 210.078 204.534 204.005C209.37 198.784 214.164 193.52 218.915 188.21C222.382 184.337 225.822 180.443 229.237 176.528C230.86 174.659 232.648 172.847 234.125 170.864C234.195 170.776 234.271 170.7 234.341 170.617L233.666 170.89C233.897 170.874 234.129 170.874 234.36 170.89C235.141 170.938 235.919 171.031 236.689 171.168C241.009 171.92 245.287 172.894 249.505 174.089C253.96 175.293 258.415 176.623 262.869 177.979L262.182 176.813C256.703 190.187 248.818 202.49 239.451 213.501C230.685 223.688 220.926 232.986 210.318 241.256C201.263 248.331 191.838 254.922 182.083 261.004C175.395 265.223 168.484 269.145 161.929 273.573C160.262 274.707 158.416 275.879 157.118 277.444C156.621 277.964 156.308 278.631 156.227 279.345C156.17 281.338 156.356 283.332 156.781 285.281C157.031 286.682 157.408 288.058 157.907 289.392C158.097 289.926 158.322 290.447 158.582 290.951L158.486 290.216C158.079 292.066 157.358 293.833 156.355 295.443C155.092 297.584 153.684 299.637 152.142 301.588C148.718 306.023 144.925 310.16 141.158 314.297C139.395 316.197 137.626 318.161 135.902 320.119C133.993 322.267 132.255 324.706 130.035 326.537C128.38 327.899 126.624 327.905 125.052 326.309C122.595 323.812 125.465 320.562 127.165 318.554C131.167 313.79 135.386 309.273 137.308 303.229C137.362 303.027 137.349 302.813 137.27 302.62C137.19 302.427 137.05 302.264 136.869 302.158L136.125 301.778C135.978 301.692 135.811 301.647 135.641 301.647C135.471 301.647 135.304 301.692 135.157 301.778C124.937 309.376 113.885 315.796 102.213 320.917C99.5082 322.096 96.7336 323.451 93.8509 324.135C92.12 324.541 88.5754 324.845 88.9954 322.057C89.4409 319.093 92.9345 317.572 95.2445 316.273C98.0064 314.727 100.764 313.167 103.517 311.591C109.537 308.145 115.538 304.667 121.59 301.284C121.799 301.152 121.948 300.945 122.007 300.706C122.066 300.467 122.029 300.215 121.904 300.002C121.78 299.79 121.577 299.633 121.34 299.566C121.102 299.499 120.847 299.527 120.629 299.643L120.61 299.649Z" fill="#256E31"/>
<path d="M450.367 326.651C460.091 332.511 470.063 338.612 476.726 347.798C483.388 356.984 485.921 370.067 479.761 379.563C473.028 389.947 458.965 392.449 446.555 392.602C404.676 393.102 362.823 377.219 331.908 349.103L346.602 361.14C329.675 379.063 309.056 390.226 285.778 398.455C276.023 401.902 265.192 404.36 255.443 400.895C245.694 397.429 238.261 385.949 242.569 376.567L256.709 370.174C230.365 383.354 201.701 391.315 172.308 393.615C159.581 394.604 145.256 393.9 136.443 384.746C127.75 375.693 127.642 360.944 132.886 349.559C138.129 338.175 147.675 329.419 157.106 321.139C166.536 312.858 176.311 304.451 182.235 293.403L172.308 307.176C157.347 299.332 153.421 282.905 154.636 271.983L155.273 268.954C164.576 234.11 194.008 199.133 221.614 178.258L221.925 176.313C218.833 177.884 215.625 179.48 212.17 179.664C208.715 179.848 204.909 178.086 203.636 174.843C202.007 170.592 205.132 166.113 208.059 162.647C219.972 148.551 229.867 133.745 241.786 119.649L248.926 109.975L279.663 70.1764C283.767 64.8674 288.273 59.2669 294.694 57.2523C303.845 54.3887 313.441 59.7864 321.02 65.6213C336.172 77.2783 346.182 92.952 359.946 105.876C375.658 120.657 392.248 134.227 407.228 149.837C411.893 154.69 416.557 159.777 419.103 165.999C421.648 172.22 421.693 179.879 417.518 185.157C413.344 190.434 404.365 191.828 399.802 186.88C410.811 197.65 438.62 230.645 453.256 248.238C464.227 264.621 475.071 279.414 482.777 296.292C486.506 304.439 489.612 313.397 488.008 322.216C486.405 331.035 478.514 339.252 469.554 338.32" fill="#39A84A"/>
<path d="M449.909 327.474C462.636 335.134 476.872 343.864 481.174 358.999C483.121 365.841 482.784 373.456 478.685 379.468C474.867 385.069 468.554 388.192 462.14 389.82C455.534 391.493 448.674 391.721 441.891 391.607C434.131 391.475 426.39 390.794 418.727 389.567C403.724 387.149 389.116 382.734 375.295 376.44C359.693 369.352 345.285 359.904 332.583 348.431L331.227 349.775L345.927 361.812V360.469C330.597 376.624 311.264 387.863 290.513 395.712C279.567 399.862 266.795 404.259 255.239 399.805C250.631 397.966 246.807 394.592 244.421 390.258C243.263 388.211 242.544 385.948 242.308 383.612C242.142 381.926 242.306 380.224 242.792 378.6C242.858 378.186 242.948 377.776 243.059 377.371C243.466 376.877 244.917 376.535 245.484 376.282L250.256 374.121L257.167 370.992L256.206 369.351C233.511 380.664 209.075 388.116 183.909 391.398C176.324 392.38 168.598 393.197 160.943 392.861C153.943 392.551 146.752 391.176 140.891 387.16C135.125 383.232 131.676 377.023 130.639 370.206C128.323 354.913 137.244 341.463 147.636 331.092C159.759 318.978 174.707 309.171 183.075 293.802C183.192 293.585 183.22 293.331 183.152 293.094C183.085 292.858 182.928 292.656 182.715 292.532C182.501 292.408 182.248 292.372 182.007 292.43C181.767 292.488 181.559 292.637 181.427 292.845L171.487 306.618L172.76 306.276C164.112 301.651 158.397 293.498 156.272 284.026C155.341 280.175 155.089 276.192 155.527 272.255C156.062 268.245 157.474 264.298 158.836 260.509C166.956 237.867 181.593 217.587 198.189 200.324C202.707 195.623 207.435 191.131 212.374 186.848C214.754 184.783 217.184 182.777 219.666 180.83C220.513 180.158 222.027 179.442 222.479 178.429C222.656 177.796 222.758 177.146 222.784 176.49C222.828 176.309 222.817 176.12 222.755 175.945C222.693 175.77 222.581 175.616 222.433 175.503C222.285 175.39 222.107 175.322 221.921 175.307C221.735 175.292 221.549 175.331 221.384 175.419C216.739 177.776 208.333 181.406 204.839 175.191C201.581 169.401 209.383 162.559 212.609 158.574C221.289 147.842 229.25 136.565 237.892 125.813C240.227 122.906 242.607 120.074 244.822 117.077C246.451 114.872 248.054 112.642 249.709 110.457C258.243 99.1416 267.037 88.0168 275.704 76.7968C279.523 71.8869 283.086 66.5336 287.764 62.3902C292.549 58.1519 298.486 56.4667 304.767 57.9555C311.048 59.4443 316.584 63.2265 321.529 67.1861C326.294 71.0725 330.761 75.3078 334.893 79.8568C343.28 88.9417 350.91 98.6982 359.953 107.175C369.829 116.424 380.081 125.256 390.027 134.417C395.01 139.01 399.91 143.679 404.664 148.526C409.118 153.087 413.738 157.75 416.805 163.395C419.631 168.577 420.948 174.925 418.886 180.621C418.027 183.109 416.389 185.257 414.213 186.75C412.036 188.242 409.437 189.001 406.795 188.914C404.402 188.851 402.129 187.857 400.464 186.145L399.114 187.488C405.516 193.76 411.396 200.577 417.289 207.311C425.002 216.122 432.619 225.021 440.141 234.009C443.535 238.046 446.929 242.093 450.323 246.147C454.815 251.539 458.519 257.64 462.414 263.455C470.807 275.923 479.347 288.854 484.546 303.032C487.27 310.464 489.001 319.194 485.533 326.682C482.669 332.853 476.662 337.915 469.528 337.307C468.306 337.199 468.313 339.099 469.528 339.207C475.51 339.72 480.983 336.54 484.54 331.934C488.549 326.79 489.854 320.36 489.179 313.954C488.39 306.409 485.361 299.301 482.045 292.535C478.554 285.501 474.66 278.673 470.381 272.084C466.028 265.28 461.434 258.634 456.909 251.95C453.627 247.285 450.108 242.789 446.364 238.481C438.529 229.139 430.631 219.847 422.673 210.606C415.469 202.3 408.31 193.836 400.444 186.132C400.263 185.965 400.024 185.873 399.777 185.877C399.53 185.882 399.294 185.982 399.119 186.156C398.944 186.33 398.844 186.565 398.839 186.811C398.835 187.057 398.927 187.295 399.095 187.475C402.455 190.941 407.654 191.562 412.09 189.965C417.181 188.141 420.445 183.725 421.425 178.524C423.971 165.093 413.229 154.449 404.606 145.738C394.221 135.266 383.091 125.566 372.152 115.702C366.774 110.868 361.334 106.06 356.3 100.871C351.623 96.0563 347.27 90.9437 342.86 85.8817C334.25 75.9923 325.042 65.6086 313.333 59.2733C307.777 56.2766 301.286 54.3317 295.005 56.0549C289.278 57.6197 284.983 61.9341 281.368 66.3752C271.727 78.292 262.634 90.6459 253.273 102.74C248.449 108.98 243.918 115.481 238.897 121.562C229.403 133.086 220.85 145.339 211.476 156.958C207.874 161.393 201.587 166.873 202.255 173.208C202.828 178.612 208.574 181.083 213.455 180.393C216.637 179.949 219.533 178.492 222.364 177.054L220.958 175.977C220.949 176.583 220.852 177.185 220.672 177.763C220.767 177.599 219.946 178.226 219.711 178.397C219.176 178.809 218.642 179.221 218.114 179.664C215.857 181.442 213.64 183.269 211.464 185.144C206.903 189.072 202.518 193.19 198.31 197.498C189.51 206.431 181.532 216.132 174.472 226.482C167.546 236.5 161.848 247.307 157.5 258.672C155.941 262.866 154.426 267.193 153.682 271.622C153.193 275.379 153.331 279.192 154.089 282.905C156.03 293.453 162.273 302.817 171.818 307.885C172.038 308.005 172.296 308.037 172.539 307.973C172.782 307.91 172.991 307.756 173.123 307.543L183.05 293.776L181.402 292.82C173.415 307.486 159.288 317.052 147.541 328.462C136.945 338.757 127.629 351.713 128.45 367.146C128.787 373.735 131.034 380.248 135.609 385.12C140.35 390.188 146.974 392.855 153.72 393.989C161.159 395.256 168.732 394.844 176.196 394.141C204.412 391.468 231.883 383.592 257.205 370.916C258.319 370.364 257.345 368.774 256.244 369.275L249.811 372.183L245.076 374.324C244.101 374.674 243.154 375.097 242.244 375.591C241.054 376.396 240.743 378.721 240.552 380.026C240.236 382.263 240.39 384.541 241.004 386.716C242.363 391.322 245.169 395.374 249.009 398.278C258.809 405.88 272.383 403.733 283.334 400.179C294.623 396.53 305.522 391.779 315.872 385.994C327.5 379.518 338.087 371.341 347.276 361.736C347.455 361.558 347.555 361.316 347.555 361.064C347.555 360.812 347.455 360.571 347.276 360.393L332.583 348.355C331.647 347.589 330.304 348.862 331.227 349.699C355.141 371.251 384.713 385.596 416.5 391.062C424.295 392.406 432.176 393.196 440.083 393.425C447.281 393.622 454.567 393.47 461.605 391.848C467.969 390.384 474.333 387.565 478.647 382.535C483.254 377.175 484.852 370.13 483.954 363.212C481.6 345.01 465.296 334.513 450.863 325.789C450.645 325.661 450.384 325.625 450.139 325.689C449.894 325.752 449.684 325.91 449.556 326.128C449.427 326.345 449.391 326.605 449.455 326.849C449.519 327.093 449.678 327.302 449.896 327.43L449.909 327.474Z" fill="#256E31"/>
<path d="M231.45 204.383C228.599 208.088 226.182 212.105 224.246 216.356C222.592 219.999 221.064 223.87 221.001 227.925C220.963 231.447 222.35 235.014 225.767 236.515C229.687 238.245 234.129 236.401 237.584 234.431C239.996 233.056 242.294 231.46 244.623 229.952L252.093 225.15C253.124 224.485 252.17 222.837 251.133 223.509L238.857 231.435C235.79 233.411 231.902 235.831 228.039 235.236C224.469 234.691 222.904 231.435 222.884 228.146C222.884 224.554 224.208 221.076 225.64 217.833C227.611 213.392 230.109 209.202 233.079 205.352C233.823 204.383 232.163 203.451 231.424 204.389L231.45 204.383Z" fill="#256E31"/>
<path d="M250.102 224.358C248.078 226.119 248.282 229.129 249.637 231.226C251.394 233.937 254.531 234.672 257.579 234.051C260.984 233.354 263.943 231.213 266.628 229.097C269.363 226.844 271.974 224.446 274.449 221.913C277.227 219.037 280.215 216.371 283.39 213.936C284.376 213.22 283.422 211.573 282.429 212.296C277.338 216.014 273.138 220.753 268.499 224.966C266.222 227.15 263.698 229.064 260.977 230.668C258.585 232.005 255.034 233.291 252.514 231.53C250.745 230.263 249.58 227.31 251.451 225.676C252.374 224.865 251.018 223.528 250.102 224.333V224.358Z" fill="#256E31"/>
<path d="M395.727 284.968L399.915 294.37C401.022 296.853 402.906 299.774 401.69 302.536C401.161 303.654 400.339 304.609 399.309 305.3C398.28 305.99 397.081 306.39 395.842 306.458C392.94 306.61 390.115 305.286 387.976 303.417C385.431 301.174 383.598 298.254 381.816 295.384C381.18 294.345 379.519 295.301 380.168 296.34C383.554 301.795 387.906 308.149 395.066 308.377C396.525 308.427 397.975 308.121 399.289 307.486C400.603 306.851 401.742 305.907 402.607 304.735C403.462 303.587 403.952 302.21 404.013 300.781C404.076 299.083 403.377 297.506 402.708 295.992C400.935 291.996 399.157 288.007 397.376 284.024C396.879 282.903 395.237 283.872 395.727 284.981V284.968Z" fill="#256E31"/>
<path d="M380.747 297.449C383.044 298.893 382.949 302.124 381.804 304.278C380.206 307.288 376.611 308.187 373.423 308.168C369.795 308.168 366.136 307.205 362.725 306.046C355.28 303.498 348.597 299.128 343.291 293.337C342.457 292.431 341.108 293.774 341.935 294.68C347.538 300.772 354.601 305.35 362.465 307.985C366.219 309.252 370.33 310.259 374.32 310.082C377.954 309.917 381.829 308.517 383.541 305.089C385.087 301.998 384.877 297.829 381.715 295.833C380.671 295.2 379.71 296.822 380.747 297.474V297.449Z" fill="#256E31"/>
<path d="M322.063 380.805C259.362 396.644 253.565 385.24 256.734 369.402C173.497 394.901 142.99 372.126 131.86 353.677C128.596 364.194 129.671 376.351 137.186 384.201C145.962 393.375 160.242 394.078 172.899 393.07C196.972 391.18 220.585 385.462 242.842 376.136C238.661 385.5 246.024 396.91 255.703 400.369C265.382 403.828 276.2 401.376 285.917 397.93C307.592 390.239 326.931 379.988 343.133 364.055C339.894 366.462 333.746 371.239 322.063 380.805Z" fill="#409151"/>
<path d="M459.995 332.422L468.961 337.896C477.871 338.827 485.723 330.598 487.321 321.792C488.638 314.544 486.78 307.22 484.012 300.289C487.372 325.998 462.636 331.871 459.995 332.422Z" fill="#409151"/>
<path d="M346.01 361.172L346.5 360.665L344.794 359.265C373.819 380.742 409.92 392.577 446.046 392.146C458.404 391.994 472.411 389.491 479.137 379.108C482.828 373.406 483.375 366.367 481.791 359.683C452.015 399.989 332.182 348.527 332.182 348.527L346.01 361.172Z" fill="#409151"/>
<path d="M469.718 340.196C467.309 337.977 464.759 335.916 462.082 334.025C464.737 335.943 467.287 338.003 469.718 340.196Z" fill="#409151"/>
<path d="M156.786 264.957C156.786 264.957 160.999 295.848 181.999 293.314C178.835 297.919 175.437 302.359 171.817 306.618C171.817 306.618 146.21 289.823 156.786 264.957Z" fill="#409151"/>
<path d="M435.673 224.328C435.673 224.328 417.741 236.397 411.192 228.484C404.644 220.572 407.012 207.09 407.012 207.09C407.012 207.09 419.332 221.028 435.648 224.328" fill="#409151"/>
<path d="M416.728 161.729C416.728 161.729 420.636 188.781 397.09 179.911C392.636 183.712 403.848 189.307 403.848 189.307C403.848 189.307 422.939 191.879 420.521 171.004C418.726 165.973 416.703 161.729 416.703 161.729" fill="#409151"/>
<path d="M449.546 327.265C462.273 334.925 476.508 343.655 480.81 358.796C482.751 365.632 482.414 373.247 478.322 379.259C474.504 384.86 468.191 387.983 461.777 389.611C455.165 391.284 448.311 391.512 441.527 391.398C433.786 391.267 426.065 390.585 418.421 389.358C403.416 386.941 388.806 382.526 374.983 376.231C359.371 369.132 344.955 359.674 332.245 348.191L330.908 349.534L345.608 361.571V360.228C330.272 376.364 310.92 387.603 290.181 395.459C279.236 399.602 266.464 403.999 254.907 399.552C250.3 397.708 246.477 394.332 244.089 389.998C242.931 387.952 242.212 385.689 241.977 383.352C241.868 382.212 241.907 381.062 242.091 379.931C242.179 379.396 242.303 378.867 242.46 378.347C242.525 377.92 242.614 377.497 242.727 377.08C243.135 376.592 244.579 376.244 245.146 375.99L249.925 373.83L256.836 370.7L255.868 369.06C240.665 376.647 224.656 382.517 208.141 386.558C200.037 388.543 191.828 390.078 183.552 391.157C175.967 392.139 168.247 392.956 160.586 392.621C153.586 392.31 146.401 390.935 140.54 386.951C134.775 383.023 131.326 376.814 130.288 369.997C127.966 354.678 136.887 341.216 147.26 330.857C159.389 318.738 174.337 308.937 182.699 293.561C182.816 293.344 182.844 293.091 182.776 292.854C182.709 292.617 182.552 292.415 182.339 292.292C182.125 292.168 181.872 292.131 181.631 292.189C181.391 292.248 181.183 292.397 181.051 292.604L171.181 306.403L172.486 306.061C163.799 301.442 158.085 293.314 155.966 283.811C155.036 279.96 154.782 275.977 155.215 272.04C155.756 268.03 157.168 264.083 158.53 260.294C166.65 237.652 181.287 217.372 197.883 200.108C202.401 195.403 207.129 190.909 212.067 186.627C214.447 184.561 216.878 182.555 219.36 180.608C220.207 179.943 221.721 179.221 222.167 178.213C222.345 177.579 222.45 176.926 222.478 176.268C222.522 176.088 222.511 175.898 222.449 175.723C222.387 175.548 222.275 175.395 222.127 175.282C221.979 175.169 221.801 175.1 221.615 175.085C221.429 175.071 221.243 175.11 221.078 175.198C216.433 177.554 208.027 181.185 204.533 174.97C201.268 169.179 209.077 162.337 212.303 158.352C220.983 147.62 228.944 136.343 237.586 125.592C239.921 122.684 242.301 119.852 244.509 116.855C246.138 114.651 247.748 112.421 249.397 110.235C257.937 98.9264 266.731 87.7952 275.392 76.5753C279.21 71.6654 282.774 66.312 287.451 62.1687C292.243 57.9303 298.18 56.2451 304.455 57.7656C310.729 59.2861 316.278 63.0366 321.223 66.9962C325.991 70.893 330.458 75.1412 334.587 79.7049C342.999 88.7898 350.636 98.5463 359.659 107.055C369.529 116.304 379.781 125.136 389.734 134.297C394.71 138.89 399.617 143.565 404.37 148.406C408.825 152.967 413.445 157.63 416.512 163.275C419.337 168.457 420.655 174.811 418.593 180.5C417.734 182.989 416.096 185.137 413.919 186.63C411.743 188.122 409.143 188.881 406.502 188.793C404.097 188.74 401.811 187.745 400.138 186.025L398.789 187.368C405.185 193.64 411.071 200.457 416.964 207.191C424.677 216.01 432.294 224.909 439.816 233.888C443.21 237.922 446.604 241.968 449.997 246.027C454.49 251.418 458.2 257.519 462.088 263.335C470.482 275.803 479.016 288.734 484.221 302.912C486.945 310.343 488.676 319.074 485.201 326.562C482.344 332.733 476.337 337.795 469.203 337.186C467.981 337.079 467.987 338.979 469.203 339.087C475.185 339.6 480.626 336.42 484.208 331.814C488.224 326.67 489.528 320.239 488.854 313.834C488.065 306.289 485.036 299.181 481.72 292.414C478.228 285.38 474.331 278.552 470.049 271.964C465.703 265.166 461.14 258.514 456.584 251.83C453.3 247.164 449.779 242.668 446.033 238.361C438.206 229.019 430.308 219.727 422.341 210.486C415.144 202.18 407.985 193.716 400.119 186.012C399.938 185.844 399.699 185.753 399.452 185.757C399.204 185.762 398.968 185.861 398.794 186.035C398.619 186.21 398.518 186.444 398.514 186.691C398.51 186.937 398.602 187.175 398.77 187.355C402.13 190.821 407.329 191.442 411.765 189.845C416.824 188.02 420.12 183.605 421.1 178.403C423.646 164.979 412.904 154.329 404.281 145.618C393.896 135.146 382.766 125.446 371.827 115.582C366.449 110.748 361.008 105.94 355.968 100.751C351.297 95.9361 346.938 90.8235 342.535 85.7615C333.925 75.872 324.717 65.4884 313.007 59.153C307.446 56.1564 300.961 54.2051 294.674 55.9284C288.978 57.4932 284.657 61.8076 281.037 66.2486C271.383 78.0831 262.302 90.437 252.967 102.531C248.143 108.772 243.606 115.272 238.591 121.36C229.097 132.878 220.544 145.13 211.164 156.749C207.568 161.184 201.281 166.664 201.949 172.999C202.522 178.403 208.268 180.874 213.143 180.19C216.325 179.74 219.227 178.289 222.052 176.845L220.652 175.768C220.643 176.374 220.546 176.976 220.366 177.554C220.455 177.39 219.634 178.017 219.398 178.188L217.807 179.455C215.546 181.237 213.33 183.064 211.157 184.935C206.593 188.863 202.206 192.981 197.997 197.289C189.203 206.226 181.228 215.925 174.166 226.273C167.235 236.293 161.533 247.102 157.181 258.47C155.616 262.664 154.101 266.991 153.363 271.425C152.765 275.1 153.115 279.059 153.77 282.702C155.679 293.27 161.89 302.614 171.467 307.727C171.687 307.848 171.944 307.88 172.187 307.818C172.43 307.755 172.639 307.603 172.772 307.391L182.693 293.618L181.045 292.661C173.065 307.334 158.937 316.894 147.19 328.304C136.595 338.599 127.278 351.555 128.099 366.988C128.437 373.577 130.645 380.089 135.252 384.961C139.999 390.03 146.624 392.697 153.369 393.831C160.802 395.098 168.375 394.692 175.846 393.983C204.061 391.308 231.531 383.432 256.855 370.757C257.962 370.206 256.995 368.622 255.887 369.117L249.454 371.999L244.713 374.147C243.739 374.494 242.794 374.918 241.887 375.414C240.697 376.218 240.386 378.55 240.188 379.849C239.879 382.086 240.035 384.364 240.647 386.539C242.004 391.146 244.81 395.199 248.652 398.101C258.452 405.672 272.026 403.556 282.977 400.001C294.266 396.353 305.165 391.601 315.515 385.817C327.149 379.329 337.74 371.139 346.932 361.52C347.109 361.341 347.209 361.1 347.209 360.849C347.209 360.598 347.109 360.356 346.932 360.177L332.232 348.14C331.303 347.374 329.96 348.647 330.883 349.483C354.8 371.052 384.382 385.408 416.181 390.878C423.976 392.223 431.857 393.012 439.765 393.242C446.956 393.444 454.248 393.286 461.287 391.664C467.65 390.201 474.014 387.381 478.322 382.351C482.936 376.991 484.533 369.946 483.636 363.028C481.281 344.827 464.977 334.329 450.545 325.605C450.326 325.478 450.066 325.442 449.82 325.505C449.575 325.569 449.365 325.727 449.237 325.944C449.109 326.162 449.073 326.421 449.136 326.665C449.2 326.91 449.359 327.118 449.577 327.246L449.546 327.265Z" fill="#256E31"/>
<path d="M457.023 329.426C458.677 332.53 462.222 337.111 466.015 334.646C467.497 333.683 468.006 331.599 467.771 329.736C467.439 327.884 466.793 326.102 465.862 324.465C460.249 313.271 458.225 309.001 452.638 297.806C458.327 305.63 461.076 317.363 465.639 322.717C466.848 324.136 469.394 325.422 471.665 323.648C473.937 321.874 471.455 318.63 470.501 316.546C464.5 303.375 456.558 288.037 448.865 276.443C448.865 276.443 492.335 243.043 481.319 226.508C463.151 199.266 368.842 177.472 368.842 177.472L378.629 209.605L454.668 232.723C449.787 246.325 421.577 279.662 421.577 279.662L420.565 281.328C417.167 288.246 416.168 298.858 414.921 310.014C414.59 312.986 414.227 320.303 416.976 321.304C418.529 321.868 419.655 320.708 420.725 319.479C421.794 318.25 422.347 316.641 422.875 315.044L429.048 296.818L429.869 296.887C434.489 309.877 440.978 322.13 449.132 333.265C450.863 335.628 453.675 338.213 456.094 336.882C457.462 336.129 458.003 334.31 457.825 332.669C457.529 331.031 456.936 329.459 456.075 328.032C450.984 318.364 447.948 312.023 442.876 302.355" fill="#39A84A"/>
<path d="M456.196 329.888C457.602 332.486 459.842 335.685 462.992 336.224C463.811 336.353 464.649 336.273 465.428 335.992C466.207 335.71 466.902 335.236 467.446 334.614C468.464 333.289 468.921 331.62 468.719 329.964C468.528 327.823 467.58 325.878 466.632 323.984C465.684 322.089 464.723 320.233 463.819 318.358C462.288 315.266 460.763 312.172 459.244 309.077C457.309 305.153 455.362 301.236 453.402 297.324L451.817 298.262C455.266 303.045 457.398 308.601 459.74 313.961C460.726 316.34 461.874 318.65 463.176 320.873C464.411 322.881 465.945 324.953 468.439 325.365C469.165 325.489 469.91 325.446 470.616 325.238C471.322 325.031 471.971 324.664 472.512 324.167C472.943 323.739 473.257 323.208 473.422 322.624C473.586 322.04 473.598 321.424 473.454 320.835C473.141 319.577 472.637 318.374 471.958 317.268C471.277 316.001 470.686 314.664 470.094 313.353C467.23 307.208 464.203 301.143 461.013 295.158C457.506 288.607 453.79 282.145 449.686 275.943L449.342 277.248C452.046 275.17 454.649 272.952 457.207 270.703C462.659 265.983 467.763 260.878 472.48 255.429C476.992 250.126 481.555 244.114 483.419 237.297C484.256 234.571 484.3 231.665 483.546 228.915C482.732 226.312 480.906 224.1 479.092 222.124C474.637 217.322 469.063 213.565 463.444 210.264C456.513 206.275 449.325 202.745 441.928 199.697C433.999 196.383 426.032 193.412 417.976 190.681C410.547 188.147 403.066 185.788 395.531 183.605C389.753 181.915 383.949 180.317 378.12 178.809C375.231 178.061 372.336 177.327 369.434 176.642L369.052 176.554C368.889 176.511 368.719 176.512 368.556 176.556C368.394 176.601 368.247 176.686 368.128 176.805C368.01 176.923 367.925 177.071 367.881 177.232C367.838 177.394 367.838 177.564 367.881 177.726L370.363 185.873L375.021 201.16L376.854 207.153C377.121 208.028 377.325 208.959 377.668 209.808C377.929 210.441 378.508 210.543 379.1 210.72L381.798 211.537L391.834 214.591L405.916 218.874L421.698 223.67L436.653 228.218L448.286 231.754C450.195 232.343 452.155 233.021 454.115 233.527L454.382 233.61L453.746 232.438C452.579 235.392 451.123 238.225 449.399 240.895C447.229 244.469 444.862 247.934 442.437 251.342C437.633 258.09 432.548 264.647 427.343 271.09C425.646 273.168 423.949 275.237 422.252 277.298C421.356 278.322 420.549 279.42 419.84 280.58C418.684 282.751 417.828 285.068 417.295 287.467C416.541 290.452 415.955 293.476 415.538 296.526C415.036 299.992 414.641 303.495 414.266 306.954C413.946 309.314 413.759 311.689 413.706 314.069C413.706 316.166 413.814 318.504 414.768 320.404C415.129 321.195 415.774 321.823 416.576 322.165C417.95 322.698 419.274 322.165 420.317 321.228C422.767 319.067 423.563 315.887 424.568 312.916L428.157 302.304L429.926 297.077L429.01 297.774L429.831 297.844L428.908 297.115C433.109 308.919 438.836 320.127 445.944 330.458C447.586 332.834 449.196 335.47 451.633 337.123C453.727 338.542 456.558 338.587 457.996 336.243C459.53 333.746 458.512 330.775 457.309 328.393C455.89 325.58 454.401 322.805 452.963 320.005C449.87 313.948 446.816 307.873 443.659 301.848C443.093 300.765 441.445 301.728 442.011 302.811C444.614 307.765 447.14 312.757 449.679 317.75C450.952 320.246 452.225 322.742 453.497 325.232C454.185 326.562 454.897 327.886 455.578 329.223C456.279 330.407 456.713 331.727 456.851 333.094C456.889 334.101 456.622 335.311 455.744 335.926C454.866 336.54 453.663 336.167 452.785 335.615C450.5 334.165 448.966 331.554 447.496 329.381C440.506 319.226 434.872 308.21 430.735 296.609C430.674 296.412 430.553 296.239 430.389 296.114C430.224 295.989 430.025 295.918 429.818 295.912L428.997 295.842C428.789 295.844 428.587 295.914 428.421 296.039C428.255 296.164 428.133 296.34 428.075 296.539L424.587 306.847C423.487 310.097 422.551 313.467 421.234 316.628C420.686 317.94 418.084 322.14 416.569 319.726C415.583 318.142 415.602 315.855 415.602 314.024C415.645 311.759 415.817 309.498 416.117 307.252C416.493 303.888 416.862 300.518 417.346 297.166C417.75 294.182 418.313 291.221 419.032 288.297C419.611 286.035 420.254 283.583 421.437 281.556C421.628 281.233 421.832 280.922 422.023 280.593C422.099 280.472 422.519 279.845 422.188 280.263L422.379 280.042C422.767 279.585 423.149 279.123 423.531 278.667C425.156 276.72 426.762 274.762 428.348 272.794C433.369 266.579 438.282 260.275 442.985 253.788C445.422 250.418 447.789 247.003 449.985 243.487C451.8 240.714 453.406 237.81 454.789 234.801C455.063 234.167 455.324 233.534 455.559 232.9C455.624 232.661 455.594 232.406 455.475 232.188C455.357 231.97 455.159 231.806 454.923 231.728L447.356 229.428L429.182 223.904L407.272 217.29L388.181 211.493L381.945 209.593C380.976 209.233 379.985 208.932 378.979 208.693L378.852 208.655L379.488 209.32L376.166 198.43L370.936 181.178L369.726 177.2L368.556 178.366C370.528 178.828 372.501 179.316 374.467 179.816C379.558 181.109 384.649 182.471 389.74 183.903C396.855 185.913 403.929 188.057 410.963 190.333C418.86 192.899 426.7 195.655 434.426 198.702C441.989 201.633 449.388 204.969 456.59 208.693C462.686 211.861 468.681 215.446 473.95 219.932C476.073 221.709 477.993 223.712 479.677 225.906C481.253 227.867 482.102 230.307 482.083 232.818C481.94 235.688 481.187 238.495 479.875 241.054C478.309 244.238 476.426 247.258 474.256 250.069C469.742 255.892 464.713 261.3 459.231 266.231C455.833 269.398 452.333 272.42 448.693 275.284C448.585 275.372 447.853 275.917 448.317 275.588C448.102 275.717 447.945 275.925 447.881 276.168C447.816 276.41 447.85 276.668 447.974 276.887C454.897 287.353 460.809 298.497 466.25 309.786C467.523 312.396 468.624 315.089 469.954 317.661C470.857 319.397 472.983 322.52 469.954 323.413C467.625 324.104 465.957 321.823 464.863 320.138C463.625 318.083 462.536 315.943 461.605 313.733C459.129 308.133 456.966 302.291 453.332 297.261C453.2 297.053 452.992 296.904 452.752 296.846C452.512 296.788 452.258 296.824 452.044 296.948C451.831 297.072 451.674 297.274 451.607 297.511C451.539 297.747 451.567 298.001 451.684 298.218C454.643 304.122 457.551 310.046 460.472 315.957C462.069 319.181 463.705 322.393 465.289 325.631C466.441 327.975 468.236 332.866 464.653 334.152C461.56 335.261 458.926 331.073 457.742 328.875C457.163 327.798 455.515 328.754 456.094 329.831L456.196 329.888Z" fill="#256E31"/>
<path d="M393.921 167.472L328.482 183.897L343.65 243.793L409.089 227.368L393.921 167.472Z" fill="#39A84A"/>
<path d="M151.149 325.751C147.299 327.576 143.99 330.395 142.348 334.386C140.802 338.143 140.961 342.356 141.903 346.239C144.226 355.812 150.761 364.397 157.748 371.137C162.406 375.514 167.328 379.604 172.487 383.384C177.941 387.509 183.615 391.339 189.484 394.857C201.136 401.826 213.507 407.787 225.897 413.318C250.855 424.456 277.022 433.123 304.023 437.678C331.024 442.233 358.928 442.638 385.942 437.621C392.754 436.357 399.494 434.735 406.134 432.761C412.321 431.014 418.367 428.803 424.219 426.147C434.656 421.231 444.5 412.564 445.111 400.299C445.252 397.583 444.819 394.868 443.838 392.329C443.399 391.201 441.554 391.696 441.999 392.83C444.087 398.202 443.317 404.1 440.765 409.181C438.047 414.585 433.523 418.684 428.381 421.789C423.112 424.956 417.302 427.136 411.486 429.081C405.249 431.16 398.909 432.917 392.49 434.345C366.469 440.155 339.373 440.681 312.996 437.126C287 433.629 261.609 426.141 237.364 416.22C225.146 411.202 213.182 405.538 201.524 399.399C189.817 393.307 178.734 386.092 168.433 377.859C160.033 371.099 152.117 363.763 147.007 354.133C143.322 347.164 140.535 337.44 146.771 331.041C148.308 329.515 150.11 328.281 152.091 327.398C153.198 326.872 152.231 325.231 151.124 325.751H151.149Z" fill="#256E31"/>
<path d="M311.182 545.36C317.452 545.36 322.535 540.299 322.535 534.057C322.535 527.815 317.452 522.755 311.182 522.755C304.912 522.755 299.829 527.815 299.829 534.057C299.829 540.299 304.912 545.36 311.182 545.36Z" fill="#5CEEFF" stroke="#45B3E9" stroke-width="2.16641" stroke-miterlimit="10"/>
<path d="M308.999 529.274C308.999 529.274 304.633 531.884 306.377 536.243L308.999 529.274Z" fill="#5CEEFF"/>
<path d="M308.999 529.274C308.999 529.274 304.633 531.884 306.377 536.243" stroke="white" stroke-width="2.88854" stroke-miterlimit="10" stroke-linecap="round"/>
<path d="M448.636 553.596C454.906 553.596 459.989 548.535 459.989 542.293C459.989 536.051 454.906 530.991 448.636 530.991C442.366 530.991 437.283 536.051 437.283 542.293C437.283 548.535 442.366 553.596 448.636 553.596Z" fill="#5CEEFF" stroke="#45B3E9" stroke-width="2.16641" stroke-miterlimit="10"/>
<path d="M446.453 537.51C446.453 537.51 442.088 540.12 443.831 544.479L446.453 537.51Z" fill="#5CEEFF"/>
<path d="M446.453 537.51C446.453 537.51 442.088 540.12 443.831 544.479" stroke="white" stroke-width="2.88854" stroke-miterlimit="10" stroke-linecap="round"/>
<path d="M425.728 435.758C431.998 435.758 437.08 430.698 437.08 424.456C437.08 418.214 431.998 413.154 425.728 413.154C419.458 413.154 414.375 418.214 414.375 424.456C414.375 430.698 419.458 435.758 425.728 435.758Z" fill="#5CEEFF" stroke="#45B3E9" stroke-width="2.16641" stroke-miterlimit="10"/>
<path d="M423.545 419.673C423.545 419.673 419.179 422.283 420.923 426.641L423.545 419.673Z" fill="#5CEEFF"/>
<path d="M423.545 419.673C423.545 419.673 419.179 422.283 420.923 426.641" stroke="white" stroke-width="2.88854" stroke-miterlimit="10" stroke-linecap="round"/>
<path d="M222.727 420.553C228.997 420.553 234.079 415.493 234.079 409.251C234.079 403.009 228.997 397.949 222.727 397.949C216.457 397.949 211.374 403.009 211.374 409.251C211.374 415.493 216.457 420.553 222.727 420.553Z" fill="#5CEEFF" stroke="#45B3E9" stroke-width="2.16641" stroke-miterlimit="10"/>
<path d="M220.545 404.468C220.545 404.468 216.179 407.078 217.923 411.437L220.545 404.468Z" fill="#5CEEFF"/>
<path d="M220.545 404.468C220.545 404.468 216.179 407.078 217.923 411.437" stroke="white" stroke-width="2.88854" stroke-miterlimit="10" stroke-linecap="round"/>
<path d="M175.35 223.625C177.978 242.758 192.761 257.525 208.708 267.092C226.526 277.786 247.329 283.703 268.042 285.116C288.136 286.623 308.312 283.602 327.071 276.278C345.83 268.953 362.689 257.513 376.396 242.808C389.454 229.006 399.504 212.665 405.917 194.812C406.689 192.645 407.4 190.457 408.049 188.248C408.399 187.076 406.56 186.576 406.21 187.748C400.808 205.53 391.805 222.023 379.756 236.209C367.707 250.396 352.868 261.975 336.152 270.234C317.59 279.197 297.192 283.751 276.563 283.538C255.58 283.448 234.907 278.489 216.185 269.056C199.99 260.82 183.979 247.807 178.64 229.777C177.994 227.593 177.517 225.362 177.214 223.106C177.049 221.895 175.21 222.409 175.369 223.606L175.35 223.625Z" fill="#256E31"/>
<path d="M112.115 314.442C112.285 334.813 112.455 355.185 112.624 375.56C112.79 395.833 112.957 416.106 113.127 436.379C113.216 447.783 113.309 459.186 113.407 470.59C113.407 470.842 113.508 471.084 113.687 471.262C113.866 471.44 114.108 471.54 114.362 471.54C114.615 471.54 114.858 471.44 115.037 471.262C115.216 471.084 115.316 470.842 115.316 470.59C115.142 450.215 114.975 429.843 114.813 409.473C114.644 389.2 114.476 368.927 114.311 348.653L114.024 314.442C114.024 314.19 113.924 313.949 113.745 313.771C113.566 313.592 113.323 313.492 113.07 313.492C112.817 313.492 112.574 313.592 112.395 313.771C112.216 313.949 112.115 314.19 112.115 314.442Z" fill="#256E31"/>
<path d="M119.954 275.917C119.829 275.821 119.741 275.684 119.706 275.53C119.672 275.376 119.692 275.215 119.763 275.074C119.86 274.834 120.047 274.64 120.285 274.535C120.522 274.43 120.792 274.421 121.036 274.511C122.531 274.846 122.996 276.55 123.251 277.843C123.862 281.215 124.287 284.618 124.523 288.036C125.155 294.893 125.119 301.795 124.415 308.645C124.237 310.16 123.893 311.813 122.869 313.029C122.447 313.586 121.865 314.002 121.2 314.222C120.535 314.442 119.818 314.454 119.146 314.259C117.981 313.847 117.485 315.684 118.637 316.089C122.131 317.318 125.077 314.157 125.898 311.084C126.325 309.146 126.559 307.17 126.598 305.186C126.731 303.026 126.801 300.859 126.821 298.693C126.84 294.357 126.63 290.024 126.191 285.711C125.974 283.57 125.705 281.439 125.382 279.319C125.109 277.494 124.905 275.518 123.664 274.029C122.525 272.673 120.272 271.938 118.802 273.218C117.657 274.213 117.358 276.202 118.605 277.241C119.541 278.02 120.902 276.684 119.954 275.898V275.917Z" fill="#256E31"/>
<path d="M127.132 272.217C127.298 271.419 128.151 271.159 128.902 271.267C129.913 271.413 130.55 272.357 130.932 273.218C131.382 274.413 131.71 275.651 131.912 276.912C132.211 278.362 132.472 279.813 132.688 281.277C133.577 287.294 133.759 293.394 133.229 299.453C133 302.069 132.745 306.086 129.525 306.745C128.322 306.986 128.832 308.817 130.034 308.576C133.216 307.942 134.489 304.654 134.896 301.772C135.345 298.168 135.517 294.536 135.412 290.906C135.327 287.256 134.993 283.615 134.412 280.01C134.132 278.223 133.776 276.443 133.375 274.688C133.124 273.315 132.565 272.015 131.74 270.887C131.323 270.353 130.776 269.933 130.152 269.666C129.528 269.399 128.846 269.293 128.17 269.36C127.503 269.392 126.864 269.635 126.346 270.055C125.829 270.474 125.46 271.048 125.293 271.691C125.052 272.889 126.891 273.402 127.132 272.198V272.217Z" fill="#256E31"/>
<path d="M122.373 483.533C124.696 483.146 126.866 485.433 126.828 487.803C126.789 490.172 125.109 492.238 123.009 493.334C120.909 494.43 118.555 494.74 116.188 494.943C114.202 495.114 112.217 495.228 110.231 495.342C108.36 495.45 106.413 495.538 104.689 494.759C103.483 494.159 102.506 493.185 101.904 491.984C101.303 490.783 101.11 489.42 101.354 488.101C101.654 486.792 102.34 485.603 103.324 484.686C104.309 483.769 105.546 483.167 106.878 482.956V482.64C107.094 480.036 107.419 477.362 108.64 475.037C109.862 472.712 112.191 470.805 114.819 470.799C117.658 470.799 120.127 472.997 121.285 475.576C122.443 478.154 122.558 481.062 122.659 483.888" fill="#009245"/>
<path d="M122.373 484.483C122.963 484.411 123.561 484.516 124.091 484.783C124.621 485.05 125.06 485.469 125.351 485.985C125.674 486.519 125.856 487.126 125.882 487.75C125.908 488.373 125.775 488.993 125.497 489.552C124.224 492.339 121.043 493.353 118.236 493.777C116.544 494.018 114.819 494.113 113.107 494.227C111.395 494.341 109.709 494.5 108.016 494.455C106.501 494.521 105.017 494.009 103.867 493.023C102.975 492.151 102.413 490.998 102.276 489.761C101.971 486.796 104.37 484.344 107.183 483.869C107.383 483.814 107.56 483.694 107.687 483.53C107.813 483.365 107.882 483.164 107.883 482.957C107.883 480.422 108.379 477.54 109.633 475.316C110.727 473.365 112.744 471.661 115.105 471.756C117.466 471.851 119.318 473.694 120.317 475.645C121.59 478.18 121.666 481.138 121.762 483.881C121.806 485.104 123.715 485.111 123.671 483.881C123.499 479.149 123.034 473.707 118.58 470.926C114.494 468.392 109.734 470.818 107.762 474.803C106.585 477.356 105.981 480.134 105.993 482.944L106.693 482.025C105.084 482.297 103.604 483.075 102.472 484.244C101.339 485.414 100.613 486.914 100.399 488.525C100.239 490.179 100.667 491.837 101.609 493.209C102.551 494.581 103.947 495.58 105.554 496.033C107.603 496.565 109.785 496.311 111.873 496.191C113.96 496.071 116.124 495.95 118.236 495.672C121.832 495.203 125.688 493.834 127.266 490.286C127.663 489.454 127.848 488.538 127.806 487.618C127.764 486.698 127.496 485.802 127.024 485.009C126.566 484.207 125.888 483.551 125.068 483.119C124.249 482.687 123.322 482.496 122.398 482.57C122.147 482.576 121.908 482.679 121.73 482.855C121.553 483.032 121.45 483.27 121.444 483.52C121.445 483.772 121.546 484.013 121.725 484.19C121.904 484.368 122.145 484.469 122.398 484.471L122.373 484.483Z" fill="#256E31"/>
<path d="M106.616 496.09V502.381C106.616 502.885 106.817 503.368 107.175 503.725C107.533 504.081 108.019 504.281 108.525 504.281C109.032 504.281 109.517 504.081 109.875 503.725C110.233 503.368 110.434 502.885 110.434 502.381V496.09C110.434 495.585 110.233 495.102 109.875 494.746C109.517 494.389 109.032 494.189 108.525 494.189C108.019 494.189 107.533 494.389 107.175 494.746C106.817 495.102 106.616 495.585 106.616 496.09Z" fill="#256E31"/>
<path d="M116.855 496.09V501.861C116.855 502.365 117.057 502.849 117.415 503.205C117.773 503.561 118.258 503.762 118.765 503.762C119.271 503.762 119.756 503.561 120.114 503.205C120.473 502.849 120.674 502.365 120.674 501.861V496.09C120.674 495.585 120.473 495.102 120.114 494.746C119.756 494.389 119.271 494.189 118.765 494.189C118.258 494.189 117.773 494.389 117.415 494.746C117.057 495.102 116.855 495.585 116.855 496.09Z" fill="#256E31"/>
<path d="M271.518 148.738C281.185 148.738 289.022 140.463 289.022 130.256C289.022 120.049 281.185 111.774 271.518 111.774C261.851 111.774 254.014 120.049 254.014 130.256C254.014 140.463 261.851 148.738 271.518 148.738Z" fill="white" stroke="#256E31" stroke-width="2.60673" stroke-miterlimit="10"/>
<path d="M271.871 140.846C277.511 140.846 282.083 136.02 282.083 130.067C282.083 124.114 277.511 119.288 271.871 119.288C266.231 119.288 261.659 124.114 261.659 130.067C261.659 136.02 266.231 140.846 271.871 140.846Z" fill="#256E31" stroke="#256E31" stroke-width="1.95505" stroke-miterlimit="10"/>
<path d="M256.673 119.503L243.164 114.551C242.789 114.45 242.391 114.502 242.054 114.693C241.718 114.884 241.47 115.201 241.365 115.574C241.268 115.948 241.321 116.346 241.511 116.683C241.702 117.02 242.017 117.269 242.388 117.379L255.871 122.325C256.246 122.425 256.646 122.374 256.983 122.183C257.321 121.992 257.57 121.675 257.677 121.302C257.771 120.931 257.719 120.537 257.533 120.203C257.346 119.868 257.038 119.618 256.673 119.503Z" fill="#256E31"/>
<path d="M246.369 110.432L260.204 116.088C260.579 116.189 260.978 116.138 261.316 115.946C261.654 115.755 261.902 115.439 262.009 115.065C262.104 114.688 262.051 114.288 261.859 113.95C261.667 113.611 261.352 113.359 260.979 113.247L247.151 107.61C246.776 107.508 246.375 107.558 246.037 107.75C245.699 107.941 245.45 108.259 245.345 108.633C245.252 109.007 245.306 109.402 245.497 109.737C245.687 110.072 246 110.321 246.369 110.432Z" fill="#256E31"/>
<path d="M342.257 147.982C352.079 147.982 360.042 139.707 360.042 129.5C360.042 119.293 352.079 111.018 342.257 111.018C332.435 111.018 324.473 119.293 324.473 129.5C324.473 139.707 332.435 147.982 342.257 147.982Z" fill="white" stroke="#256E31" stroke-width="2.60673" stroke-miterlimit="10"/>
<path d="M341.907 140.435C347.821 140.435 352.615 135.455 352.615 129.311C352.615 123.167 347.821 118.187 341.907 118.187C335.994 118.187 331.2 123.167 331.2 129.311C331.2 135.455 335.994 140.435 341.907 140.435Z" fill="#256E31" stroke="#256E31" stroke-width="1.95505" stroke-miterlimit="10"/>
<path d="M358.147 121.576L371.833 116.629C372.203 116.52 372.517 116.272 372.708 115.937C372.9 115.602 372.955 115.206 372.862 114.831C372.756 114.457 372.507 114.14 372.17 113.948C371.832 113.755 371.433 113.703 371.057 113.801L357.372 118.747C357.002 118.86 356.69 119.11 356.499 119.446C356.309 119.782 356.255 120.178 356.349 120.553C356.455 120.926 356.704 121.242 357.042 121.434C357.379 121.625 357.779 121.676 358.154 121.576H358.147Z" fill="#256E31"/>
<path d="M367.016 106.854L352.973 112.504C352.605 112.619 352.294 112.869 352.103 113.204C351.912 113.539 351.855 113.934 351.943 114.309C351.996 114.497 352.085 114.673 352.205 114.826C352.326 114.979 352.476 115.107 352.646 115.202C352.816 115.297 353.003 115.357 353.197 115.38C353.391 115.402 353.587 115.386 353.774 115.333L367.824 109.682C368.193 109.569 368.504 109.319 368.695 108.983C368.885 108.648 368.94 108.252 368.848 107.877C368.743 107.503 368.494 107.186 368.156 106.994C367.818 106.802 367.417 106.752 367.042 106.854H367.016Z" fill="#256E31"/>
<path d="M295.663 160.761L320.759 160.155C322.643 160.11 322.649 157.177 320.759 157.223L295.663 157.829C293.773 157.875 293.767 160.807 295.663 160.761Z" fill="#256E31"/>
<path d="M302.408 168.379C304.029 169.466 305.928 170.064 307.879 170.103C309.83 170.142 311.752 169.621 313.415 168.601C313.582 168.504 313.727 168.375 313.844 168.222C313.961 168.068 314.046 167.893 314.095 167.707C314.144 167.52 314.156 167.326 314.13 167.135C314.104 166.944 314.04 166.76 313.943 166.594C313.846 166.427 313.717 166.282 313.563 166.165C313.41 166.049 313.235 165.963 313.049 165.914C312.862 165.865 312.668 165.853 312.477 165.879C312.286 165.905 312.102 165.969 311.936 166.066C311.611 166.272 311.274 166.457 310.926 166.62C311.063 166.555 310.926 166.62 310.874 166.62L310.541 166.744L309.987 166.913L309.427 167.044L309.14 167.089C308.899 167.135 309.349 167.089 309.101 167.089C308.694 167.136 308.285 167.153 307.876 167.141C307.687 167.141 307.491 167.141 307.302 167.141H307.016C307.172 167.141 307.081 167.141 306.977 167.141C306.598 167.075 306.224 166.985 305.856 166.874L305.315 166.685C305.074 166.6 305.315 166.685 305.197 166.639L304.937 166.516C304.572 166.324 304.221 166.106 303.888 165.864C303.55 165.673 303.152 165.621 302.777 165.719C302.401 165.818 302.08 166.059 301.88 166.392C301.692 166.73 301.642 167.128 301.741 167.502C301.839 167.876 302.078 168.197 302.408 168.399V168.379Z" fill="#256E31"/>
</svg>
