<svg width="588" height="608" viewBox="0 0 588 608" fill="none" xmlns="http://www.w3.org/2000/svg">
<path d="M295.577 594.928C375.195 594.928 439.738 588.262 439.738 580.039C439.738 571.817 375.195 565.151 295.577 565.151C215.959 565.151 151.416 571.817 151.416 580.039C151.416 588.262 215.959 594.928 295.577 594.928Z" fill="black" fill-opacity="0.15"/>
<path d="M272.549 109.164C270.593 108.473 269.23 106.586 268.669 104.577C268.204 102.538 268.129 100.429 268.448 98.3622C269.463 88.8968 272.474 79.7569 277.281 71.551L276.782 70.5817C271.15 74.3582 264.585 76.494 257.817 76.7524C255.262 76.841 252.247 76.3912 251.042 74.1295C249.584 71.3863 251.805 68.1743 254 65.9823C261.318 58.6799 269.875 52.7478 279.268 48.465L279.066 46.9762C278.776 40.6319 279.509 34.2822 281.236 28.1729C282.019 25.398 283.363 22.3317 286.113 21.5017C288.429 20.7985 290.978 22.0529 292.517 23.9282C294.056 25.8034 294.807 28.1855 295.52 30.5043L301.198 48.8768L301.514 48.6931L324.39 48.3573L316.964 69.302L328.63 83.1574C331.311 86.3251 334.081 90.7915 331.658 94.1556C330.011 96.449 326.51 96.9368 323.753 96.0562C320.996 95.1756 318.794 93.1673 316.712 91.2223L272.549 109.164Z" fill="#FF8000"/>
<path d="M272.77 108.252C270.316 107.314 269.319 104.514 269.2 102.094C269.158 99.1453 269.463 96.2022 270.108 93.3256C271.17 87.6754 272.958 82.1874 275.427 76.9994C276.133 75.5169 276.897 74.064 277.717 72.6407C278.051 72.0515 278.348 71.6523 278.026 70.9871C277.881 70.6894 277.723 70.3916 277.572 70.1002C277.444 69.8923 277.243 69.7412 277.008 69.6776C276.774 69.614 276.524 69.6428 276.31 69.7581C272.582 72.2489 268.428 74.0273 264.058 75.0037C261.937 75.4803 259.776 75.7498 257.604 75.8083C255.982 75.8463 254.064 75.726 252.727 74.687C251.074 73.4199 251.396 71.2912 252.31 69.663C253.339 67.8194 254.922 66.3687 256.436 64.9432C259.631 61.937 263.052 59.1835 266.67 56.7072C270.81 53.8704 275.185 51.3968 279.748 49.3139C279.925 49.2036 280.062 49.0399 280.14 48.8464C280.218 48.6529 280.234 48.4396 280.184 48.2369C279.806 44.8198 279.842 41.3693 280.291 37.9609C280.534 35.745 280.905 33.5451 281.401 31.3722C281.76 29.5207 282.303 27.7103 283.023 25.9681C283.653 24.5997 284.556 23.1742 285.994 22.566C287.578 21.9325 289.363 22.471 290.669 23.4656C292.196 24.6377 293.111 26.4369 293.761 28.2108C294.492 30.1875 295.054 32.2338 295.653 34.2484L300.24 49.1618C300.28 49.3007 300.351 49.4286 300.448 49.5361C300.544 49.6435 300.664 49.7278 300.797 49.7826C300.93 49.8374 301.074 49.8613 301.218 49.8525C301.362 49.8438 301.502 49.8026 301.628 49.732C301.693 49.6792 301.765 49.6365 301.842 49.6053C301.912 49.561 301.918 49.5546 301.842 49.6053C301.773 49.6497 301.786 49.7193 302.101 49.6497C302.568 49.6813 303.047 49.6497 303.514 49.6497L306.486 49.6053L312.442 49.5166L324.353 49.3456L323.438 48.1418L317.558 64.8418L316.296 68.3643C316.204 68.5879 316.124 68.8163 316.057 69.0485C316.014 69.2145 316.013 69.3883 316.053 69.5549C316.092 69.7216 316.172 69.8761 316.284 70.0051C316.915 70.8414 317.634 71.608 318.296 72.3999L325.741 81.2694C327.899 83.8036 330.567 86.4834 331.419 89.8348C331.653 90.5655 331.691 91.3453 331.528 92.0952C331.365 92.8451 331.007 93.5384 330.492 94.1048C329.389 95.1067 327.939 95.6345 326.454 95.5746C322.782 95.5746 319.886 92.9455 317.331 90.6141C317.213 90.4941 317.066 90.408 316.904 90.3645C316.742 90.3211 316.571 90.3219 316.41 90.367L301.533 96.3349L277.755 105.996L272.266 108.226C271.155 108.676 271.635 110.52 272.77 110.057L287.691 104.026L311.47 94.3646L316.952 92.1409L316.019 91.9001C318.385 94.0605 320.94 96.3349 324.132 97.1331C326.719 97.7667 329.81 97.3929 331.779 95.4669C334.113 93.2052 333.766 89.8982 332.479 87.193C330.977 84.0253 328.41 81.4341 326.17 78.7923L317.621 68.6557L317.861 69.5807L324.315 51.2462L325.236 48.6423C325.273 48.5012 325.276 48.3535 325.248 48.2106C325.219 48.0677 325.158 47.9332 325.07 47.8173C324.982 47.7014 324.869 47.6071 324.739 47.5415C324.609 47.4759 324.467 47.4407 324.321 47.4386L311.943 47.616L305.83 47.711L302.675 47.7554C301.976 47.6743 301.268 47.7906 300.631 48.0912L302.019 48.655L297.483 33.8936C296.253 29.9024 295.363 24.8784 291.937 22.1225C291.193 21.4777 290.322 20.9964 289.381 20.7095C288.44 20.4225 287.45 20.3363 286.474 20.4564C285.624 20.6261 284.817 20.9646 284.1 21.452C283.383 21.9394 282.77 22.5659 282.297 23.2946C281.313 24.8073 280.596 26.4789 280.177 28.2362C279.536 30.5626 279.034 32.9257 278.676 35.3128C277.921 39.7494 277.791 44.2708 278.291 48.7437L278.726 47.673C269.895 51.7133 261.793 57.1983 254.752 63.9042C252.001 66.5207 247.616 71.0251 250.449 75.0798C252.929 78.6149 258.455 77.861 262.096 77.3098C267.51 76.4801 272.678 74.4713 277.237 71.4243L275.944 71.0822L276.436 72.0515V71.0948C273.556 76.034 271.299 81.3139 269.717 86.8128C268.947 89.5181 268.344 92.2687 267.912 95.0488C267.465 97.9251 267.004 100.934 267.502 103.83C267.982 106.579 269.616 109.082 272.272 110.095C273.408 110.52 273.9 108.682 272.77 108.252Z" fill="#CF6800"/>
<path d="M322.485 57.461C322.542 60.6287 322.05 68.2311 319.047 69.4982C316.044 70.7652 306.82 67.6989 303.508 67.2111C302.676 67.1608 301.871 66.8992 301.167 66.4509C300.013 65.5576 299.905 63.7837 300.536 62.4786C301.167 61.1735 302.366 60.2296 303.521 59.3109C307.136 56.498 312.631 50.1437 316.978 48.8323C321.161 47.6285 322.485 53.6218 322.485 57.461Z" fill="#BA5D00"/>
<path d="M328.163 57.461C328.22 60.6287 327.728 68.2311 324.725 69.4982C321.722 70.7652 312.498 67.6989 309.186 67.2111C308.354 67.1608 307.549 66.8992 306.845 66.4509C305.69 65.5576 305.583 63.7837 306.214 62.4786C306.845 61.1735 308.044 60.2296 309.198 59.3109C312.813 56.498 318.309 50.1437 322.655 48.8323C326.838 47.6285 328.163 53.6218 328.163 57.461Z" fill="#FF8000"/>
<path d="M327.217 57.4611C327.257 59.3699 327.124 61.2784 326.819 63.1629C326.542 64.8291 326.188 67.0845 324.857 68.2882C323.816 69.2385 321.829 68.8837 320.529 68.7C318.343 68.36 316.176 67.9053 314.037 67.3379C313.066 67.1035 312.094 66.8564 311.123 66.6347C310.151 66.4129 309.331 66.3369 308.448 66.1279C308.169 66.0873 307.903 65.9874 307.667 65.8349C307.43 65.6824 307.229 65.4809 307.077 65.2438C306.924 65.0067 306.824 64.7396 306.783 64.4605C306.742 64.1813 306.761 63.8966 306.839 63.6254C307.104 62.2443 308.334 61.2433 309.362 60.4134C313.23 57.328 316.51 53.3621 320.769 50.79C321.646 50.2578 322.756 49.5926 323.823 49.6433C324.228 49.6926 324.616 49.8399 324.952 50.0728C325.288 50.3056 325.563 50.617 325.753 50.98C326.92 52.849 327.198 55.2881 327.204 57.4421C327.204 57.6941 327.304 57.9358 327.481 58.114C327.659 58.2923 327.9 58.3924 328.151 58.3924C328.402 58.3924 328.642 58.2923 328.82 58.114C328.997 57.9358 329.097 57.6941 329.097 57.4421C329.097 53.7232 327.722 46.3869 322.409 47.939C319.835 48.6993 317.602 50.5872 315.615 52.3168C313.444 54.2174 311.432 56.251 309.236 58.0946C307.041 59.9382 304.252 61.8958 304.99 65.1776C305.621 68.0475 308.776 68.0285 311.072 68.5733C313.369 69.1181 315.81 69.7643 318.208 70.2205C320.208 70.6069 322.624 71.1328 324.611 70.5436C326.92 69.8657 327.854 67.1922 328.346 65.0762C328.908 62.57 329.16 60.0039 329.097 57.4357C329.067 57.2045 328.954 56.9922 328.779 56.8394C328.603 56.6866 328.378 56.6039 328.146 56.607C327.913 56.6101 327.691 56.6989 327.519 56.8564C327.348 57.0139 327.24 57.2291 327.217 57.4611Z" fill="#CF6800"/>
<path d="M367.147 398.937C354.44 417.537 350.087 440.978 355.368 462.518C360.648 484.058 375.487 503.362 395.543 514.785L394.698 514.354C398.345 516.185 402.622 520.626 402.603 524.123C402.603 530.021 401.373 533.791 399.064 539.208C392.458 554.684 383.903 569.245 373.607 582.535C370.907 586.013 367.998 589.504 364.143 591.626C360.289 593.749 355.311 594.344 351.601 591.994C345.261 587.977 345.923 578.645 347.343 571.252C349.538 559.848 352.339 545.277 354.541 533.873L364.061 540.247C341.584 526.869 324.651 505.814 316.359 480.932C308.067 456.05 308.97 429.002 318.901 404.733L332.781 375.28L367.147 398.937Z" fill="#FF8000"/>
<path d="M366.333 398.455C355.877 413.839 351 432.362 352.516 450.925C354.005 468.157 361.349 484.407 372.705 497.356C379.102 504.643 386.657 510.815 395.064 515.621L396.023 513.98L395.178 513.55C394.092 512.998 393.133 514.633 394.219 515.191C396.443 516.348 398.382 517.989 399.897 519.993C400.645 520.871 401.184 521.909 401.472 523.027C401.761 524.146 401.792 525.316 401.562 526.448C401.209 531.827 399.146 536.743 396.976 541.615C392.255 552.211 386.609 562.366 380.105 571.962C376.869 576.732 373.512 581.585 369.632 585.855C366.131 589.713 361.431 593.103 355.98 592.526C345.387 591.405 347.027 577.866 348.447 570.517C350.785 558.404 353.12 546.287 355.45 534.165L354.062 534.735L363.582 541.07L364.541 539.43C344.837 527.702 329.365 509.977 320.369 488.824C311.374 467.671 309.321 444.191 314.511 421.788C315.829 416.004 317.463 410.005 319.999 404.626L323.924 396.308L333.387 376.187L333.589 375.762L332.296 376.104L343.866 384.068L362.346 396.783L366.623 399.722C367.626 400.419 368.579 398.772 367.576 398.082L356.005 390.118L337.526 377.409L333.248 374.463C333.035 374.346 332.784 374.317 332.549 374.381C332.314 374.444 332.113 374.596 331.987 374.805L323.482 392.83L318.801 402.751C316.784 407.168 315.146 411.751 313.905 416.448C309.504 432.451 308.691 449.235 311.526 465.591C314.169 480.637 319.934 494.957 328.447 507.62C336.557 519.722 346.948 530.113 359.033 538.207C360.529 539.201 362.043 540.152 363.582 541.07C364.642 541.704 365.544 540.107 364.541 539.43L355.014 533.063C354.889 532.989 354.749 532.946 354.604 532.936C354.46 532.926 354.315 532.95 354.181 533.005C354.047 533.06 353.927 533.145 353.831 533.254C353.735 533.363 353.665 533.492 353.626 533.633C351.376 545.29 349.128 556.951 346.882 568.617C345.349 576.574 343.015 589.384 352.453 593.495C357.456 595.675 363.134 593.876 367.241 590.67C371.916 587.033 375.443 581.8 378.837 577.055C386.084 566.948 392.36 556.174 397.581 544.878C400.244 539.106 402.957 533.227 403.449 526.803C403.636 525.417 403.604 524.01 403.354 522.635C402.992 521.327 402.379 520.102 401.55 519.03C399.867 516.74 397.688 514.864 395.178 513.543L394.219 515.184L395.064 515.615C396.143 516.166 397.089 514.589 396.023 513.974C381.464 505.672 369.674 493.231 362.137 478.217C354.355 462.431 352.183 444.447 355.98 427.25C358.17 417.287 362.239 407.838 367.967 399.412C368.655 398.405 367.014 397.448 366.333 398.455Z" fill="#CF6800"/>
<path d="M280.045 394.426C267.061 448.637 254.304 485.915 241.32 540.139L237.25 555.578C236.142 559.784 233.804 563.559 230.538 566.418C209.806 584.48 185.643 590.733 157.315 588.965C151.315 588.592 144.193 586.818 142.294 581.091C140.243 574.914 145.782 568.958 151.088 565.202C163.492 556.437 177.52 550.258 192.343 547.032L193.914 546.158L237.093 402.408" fill="#FF8000"/>
<path d="M279.136 394.172C275.01 411.373 270.499 428.472 265.786 445.489C261.414 461.327 256.884 477.083 252.537 492.915C250.262 501.219 248.041 509.539 245.875 517.876C243.951 525.339 242.247 532.866 240.285 540.323L237.219 552.011C236.929 553.107 236.645 554.21 236.348 555.312C235.362 559.067 233.357 562.473 230.557 565.151C225.15 570.295 218.626 574.565 212.033 577.999C205.587 581.335 198.758 583.864 191.7 585.532C184.454 587.218 177.054 588.143 169.618 588.294C165.681 588.389 161.732 588.294 157.795 588.079C154.609 587.888 151.316 587.445 148.388 586.089C145.461 584.733 143.12 582.434 142.824 579.12C142.483 575.363 144.937 571.98 147.454 569.472C150.325 566.608 153.82 564.403 157.246 562.262C160.827 560.045 164.528 558.03 168.331 556.224C172.162 554.401 176.095 552.802 180.11 551.435C184.11 550.066 188.166 549.084 192.255 548.033C193.006 547.843 194.28 547.317 194.722 546.652C194.972 546.104 195.154 545.527 195.264 544.935L195.712 543.44L196.829 539.721L200.967 525.935L217.472 471.008L233.97 416.074L238.001 402.662C238.348 401.49 236.525 400.989 236.172 402.161L219.283 458.394L202.519 514.253L193.012 545.929L193.447 545.359C192.916 545.697 192.354 545.983 191.769 546.214C190.267 546.69 188.659 546.937 187.132 547.342C183.998 548.187 180.905 549.152 177.851 550.237C171.888 552.385 166.111 555.021 160.577 558.119C157.742 559.707 154.985 561.415 152.306 563.244C149.831 564.842 147.542 566.712 145.48 568.819C141.877 572.677 139.265 578.259 142.256 583.283C144.735 587.439 149.827 588.984 154.363 589.618C160.041 590.397 165.946 590.328 171.668 590.093C182.823 589.624 193.946 587.622 204.368 583.53C209.529 581.505 214.492 579.004 219.194 576.06C221.596 574.544 223.926 572.922 226.185 571.195C228.532 569.509 230.737 567.631 232.778 565.582C235.545 562.53 237.499 558.825 238.456 554.812L240.872 545.511C243.396 536.008 245.604 526.505 248.064 517.002C251.294 504.515 254.708 492.085 258.159 479.668C261.566 467.586 264.979 455.549 268.335 443.411C271.862 430.607 275.275 417.772 278.467 404.879C279.309 401.5 280.139 398.1 280.959 394.679C281.243 393.488 279.42 392.981 279.136 394.172Z" fill="#CF6800"/>
<path d="M353.217 438.292C353.469 430.36 361.671 409.454 366.806 400.914L332.485 377.308L318.606 406.768C313.648 418.967 310.923 431.964 310.562 445.134C310.562 445.134 321.426 434.82 353.217 438.292Z" fill="#BA5D00"/>
<path d="M224.45 448.416C224.45 448.416 239.592 442.081 264.828 455.385C267.982 441.447 279.654 396.149 279.654 396.149L237.068 404.702L224.45 448.416Z" fill="#BA5D00"/>
<path d="M144.54 571.588C144.54 571.588 146.666 593.369 208.829 579.723C185.82 590.151 180.539 588.01 156.464 587.959C134.786 587.915 144.54 571.588 144.54 571.588Z" fill="#BA5D00"/>
<path d="M364.03 540.443L347.627 571.486L355.198 534.108L364.03 540.443Z" fill="#BA5D00"/>
<path d="M366.282 398.728C355.827 414.112 350.949 432.635 352.465 451.197C353.954 468.43 361.298 484.68 372.654 497.629C379.049 504.919 386.605 511.091 395.013 515.894L395.966 514.253L395.121 513.822C394.036 513.271 393.077 514.906 394.168 515.463C396.392 516.621 398.332 518.261 399.846 520.265C400.468 521.063 400.963 521.952 401.316 522.901C401.628 524.143 401.695 525.434 401.512 526.702C401.158 532.081 399.095 536.997 396.925 541.869C392.204 552.464 386.559 562.619 380.055 572.215C376.818 576.986 373.468 581.839 369.582 586.109C366.087 589.967 361.38 593.356 355.935 592.78C345.336 591.659 346.983 578.12 348.365 570.771C350.707 558.658 353.044 546.54 355.374 534.419L353.98 534.989L363.506 541.356L364.459 539.715C352.069 532.29 341.276 522.461 332.712 510.8C323.923 498.881 317.675 485.271 314.359 470.818C310.748 454.77 310.772 438.112 314.428 422.074C315.753 416.29 317.381 410.29 319.917 404.911L323.898 396.631L333.393 376.51L333.589 376.085L332.327 376.428L343.841 384.372L362.32 397.087L366.598 400.027C367.607 400.724 368.553 399.076 367.55 398.386L356.005 390.422L337.532 377.714L333.254 374.768C333.038 374.641 332.78 374.606 332.537 374.67C332.295 374.734 332.088 374.892 331.961 375.11L323.457 393.134L318.775 403.055C316.758 407.473 315.121 412.055 313.88 416.752C309.478 432.755 308.666 449.539 311.501 465.895C314.147 480.942 319.914 495.261 328.428 507.924C336.524 520.036 346.904 530.439 358.983 538.543C360.472 539.538 361.992 540.488 363.531 541.407C364.585 542.04 365.487 540.444 364.484 539.766L354.964 533.43C354.838 533.357 354.697 533.314 354.552 533.304C354.407 533.294 354.262 533.317 354.128 533.372C353.993 533.427 353.873 533.513 353.776 533.622C353.679 533.73 353.609 533.86 353.57 534.001C351.315 545.658 349.069 557.319 346.832 568.984C345.298 576.941 342.958 589.752 352.402 593.863C357.399 596.043 363.077 594.243 367.184 591.038C371.859 587.401 375.386 582.168 378.78 577.423C386.024 567.309 392.294 556.526 397.506 545.22C400.168 539.449 402.881 533.576 403.373 527.146C403.562 525.76 403.532 524.353 403.285 522.977C402.922 521.668 402.307 520.443 401.474 519.372C399.791 517.083 397.612 515.207 395.102 513.886L394.149 515.527L394.995 515.957C396.073 516.509 397.013 514.931 395.947 514.317C381.38 506.017 369.585 493.573 362.049 478.553C354.265 462.768 352.09 444.784 355.885 427.586C358.075 417.623 362.144 408.174 367.872 399.748C368.61 398.677 366.97 397.721 366.282 398.728Z" fill="#CF6800"/>
<path d="M279.325 394.059C275.205 411.253 270.694 428.352 265.981 445.375C261.603 461.214 257.079 476.976 252.733 492.802C250.449 501.122 248.222 509.451 246.051 517.788C244.121 525.252 242.424 532.778 240.455 540.228L237.383 551.892C237.093 552.994 236.809 554.096 236.512 555.199C235.518 558.938 233.519 562.331 230.733 565.006C225.326 570.15 218.803 574.42 212.21 577.854C205.764 581.191 198.935 583.721 191.876 585.387C184.63 587.072 177.23 587.998 169.794 588.149C165.851 588.25 161.908 588.149 157.971 587.934C154.785 587.743 151.492 587.3 148.564 585.951C145.637 584.601 143.296 582.295 143 578.982C142.659 575.225 145.113 571.848 147.631 569.339C150.501 566.469 153.997 564.271 157.422 562.13C161.001 559.911 164.7 557.893 168.501 556.086C172.334 554.268 176.266 552.672 180.28 551.303C184.28 549.934 188.343 548.946 192.425 547.9C193.175 547.704 194.45 547.185 194.898 546.513C195.149 545.966 195.331 545.389 195.44 544.796L195.888 543.307L197.005 539.582L201.144 525.803L217.661 470.882L234.165 415.948L238.19 402.542C238.544 401.37 236.72 400.87 236.367 402.035L219.478 458.274L202.702 514.139L193.188 545.816L193.623 545.252C193.094 545.588 192.534 545.872 191.952 546.101C190.45 546.583 188.835 546.823 187.308 547.229C184.179 548.074 181.087 549.039 178.034 550.124C172.067 552.27 166.287 554.908 160.753 558.012C157.927 559.595 155.17 561.302 152.482 563.131C150.011 564.73 147.724 566.6 145.662 568.706C142.06 572.57 139.448 578.152 142.438 583.176C144.918 587.332 150.009 588.909 154.539 589.511C160.217 590.297 166.129 590.227 171.845 589.986C182.999 589.524 194.128 587.515 204.544 583.423C209.709 581.394 214.673 578.883 219.371 575.922C221.774 574.414 224.109 572.786 226.367 571.062C228.713 569.374 230.918 567.497 232.96 565.449C235.725 562.396 237.678 558.692 238.638 554.679L241.08 545.417C243.603 535.914 245.805 526.411 248.266 516.908C251.502 504.427 254.915 491.991 258.36 479.574C261.748 467.486 265.18 455.411 268.511 443.31C272.038 430.506 275.451 417.671 278.65 404.778C279.491 401.4 280.32 398 281.136 394.579C281.426 393.388 279.596 392.881 279.312 394.072L279.325 394.059Z" fill="#CF6800"/>
<path d="M100.522 151.953C98.4207 149.419 94.2568 145.954 90.9887 149.084C89.7269 150.306 89.5629 152.353 90.0865 154.031C90.6102 155.71 91.7205 157.129 92.8057 158.511C100.042 167.684 102.654 171.219 109.89 180.399C103.127 174.374 95.853 168.723 90.5849 164.745C89.1906 163.693 86.1245 162.793 84.6103 165.207C82.7933 168.109 85.1655 170.149 86.6986 171.65L114.647 198.968L114.2 199.602C108.304 213.859 106.82 229.568 109.941 244.684C114.856 268.169 132.433 289.329 155.65 295.297C178.867 301.265 206.406 289.538 215.661 267.301L207.958 255.435L199.895 243.011C197.691 247.771 194.458 251.976 190.43 255.321C186.403 258.666 181.683 261.066 176.615 262.347C171.547 263.554 166.273 263.601 161.184 262.486C156.095 261.371 151.321 259.121 147.215 255.904C137.921 248.479 133.089 236.359 132.912 224.417C132.735 212.475 136.836 200.748 142.855 190.403L143.568 188.629C145.726 181.445 144.981 171.359 144.382 160.709C144.224 157.871 143.391 150.984 140.596 150.661C139.007 150.477 138.073 151.801 137.272 153.195C136.527 154.622 136.063 156.179 135.903 157.782L132.887 176.091L132.086 176.205C125.507 165.122 117.246 155.137 107.6 146.613C105.544 144.795 102.414 143.008 100.288 144.782C99.0895 145.783 98.8497 147.595 99.2977 149.084C99.8484 150.54 100.678 151.875 101.739 153.011C108.2 160.88 112.174 166.107 118.635 173.981" fill="#39A84A"/>
<path d="M101.19 151.282C99.2975 149.071 96.4711 146.569 93.3544 146.93C89.7583 147.348 88.1873 151.067 89.1716 154.285C89.8063 156.009 90.7563 157.599 91.9728 158.973L95.8086 163.858C97.7686 166.392 99.7244 168.911 101.676 171.416C104.2 174.643 106.723 177.861 109.247 181.071L110.584 179.722C106.326 175.92 101.922 172.322 97.4427 168.812C95.5121 167.298 93.5752 165.809 91.6195 164.327C90.1999 163.25 88.5343 162.502 86.7047 162.787C85.6792 162.992 84.7549 163.544 84.0865 164.351C83.418 165.159 83.0461 166.172 83.0329 167.222C82.995 169.332 84.5975 170.896 85.9918 172.252C90.3787 176.531 94.7571 180.813 99.1272 185.1L114.004 199.672L113.852 198.519C112.704 200.166 112.143 202.32 111.499 204.22C109.025 211.578 107.662 219.265 107.455 227.028C107.147 236.522 108.666 245.987 111.928 254.903C114.833 262.724 119.075 269.975 124.464 276.329C129.78 282.644 136.263 287.866 143.555 291.705C150.695 295.446 158.579 297.528 166.627 297.8C174.42 298.001 182.169 296.566 189.378 293.587C196.544 290.697 202.99 286.261 208.26 280.593C210.836 277.78 213.047 274.651 214.841 271.28C215.289 270.438 215.711 269.57 216.103 268.695C216.374 268.062 216.79 267.46 216.456 266.795C216.122 266.129 215.718 265.661 215.358 265.109L208.74 254.916L201.466 243.709L200.715 242.562C200.63 242.42 200.511 242.303 200.367 242.222C200.224 242.14 200.062 242.097 199.898 242.097C199.733 242.097 199.572 242.14 199.428 242.222C199.285 242.303 199.165 242.42 199.081 242.562C193.68 254.371 181.573 262.411 168.583 262.373C161.784 262.36 155.145 260.301 149.524 256.462C144.194 252.663 140.018 247.455 137.461 241.415C131.638 228.149 133.486 213.033 139.07 200.026C139.814 198.284 140.628 196.574 141.492 194.895C142.237 193.457 143.215 192.063 143.82 190.574C144.715 188.287 145.301 185.89 145.562 183.447C146.47 175.946 145.782 168.242 145.328 160.747C145.236 158.431 144.859 156.135 144.205 153.911C143.574 151.979 142.407 149.534 140.01 149.749C138.42 149.895 137.41 151.162 136.622 152.429C135.752 153.965 135.198 155.66 134.994 157.415C134.313 161.495 133.65 165.575 132.975 169.648L131.953 175.857L132.584 175.192L131.783 175.312L132.849 175.749C126.911 165.749 119.615 156.627 111.171 148.647C109.222 146.809 107.234 144.731 104.73 143.673C102.49 142.729 99.7202 143.04 98.5783 145.447C97.4364 147.855 98.5278 150.516 100.061 152.492C101.891 154.9 103.846 157.199 105.777 159.562C109.821 164.631 113.821 169.699 117.915 174.672C118.691 175.616 120.023 174.267 119.253 173.329C115.884 169.224 112.584 165.093 109.266 160.912C107.613 158.838 105.951 156.771 104.282 154.71C103.367 153.588 102.389 152.486 101.537 151.327C100.772 150.428 100.246 149.349 100.01 148.191C99.9055 147.663 99.9511 147.117 100.142 146.615C100.333 146.113 100.661 145.675 101.089 145.352C102.017 144.769 103.178 145.048 104.111 145.46C106.401 146.474 108.237 148.488 110.029 150.18C113.896 153.843 117.523 157.754 120.887 161.888C124.691 166.561 128.147 171.51 131.227 176.693C131.337 176.869 131.499 177.006 131.69 177.085C131.882 177.163 132.093 177.179 132.294 177.13L133.101 177.01C133.258 176.973 133.401 176.894 133.518 176.783C133.634 176.672 133.719 176.532 133.764 176.377L135.808 163.959C136.14 161.907 136.477 159.854 136.817 157.801C137.021 156.057 137.616 154.383 138.559 152.904C139.133 152.074 140.129 151.155 141.082 151.966C141.76 152.709 142.23 153.618 142.445 154.602C143.065 156.862 143.415 159.189 143.486 161.533C143.902 168.939 144.621 176.541 143.612 183.935C143.322 186.07 142.95 188.61 141.763 190.46C140.783 192.079 139.894 193.752 139.101 195.471C138.275 197.156 137.511 198.873 136.798 200.616C131.461 213.698 129.978 228.567 135.593 241.795C138.09 247.835 142.103 253.121 147.24 257.14C152.636 261.198 159.072 263.631 165.795 264.153C178.76 265.23 191.472 258.641 198.456 247.681C199.306 246.349 200.061 244.958 200.715 243.519H199.081L206.021 254.168L211.579 262.727L214.872 267.796L214.778 267.067C210.431 277.438 201.876 285.509 191.895 290.388C181.787 295.379 170.367 297.038 159.265 295.126C147.543 292.991 136.88 286.637 128.647 278.091C120.3 269.383 114.371 258.632 111.449 246.908C107.94 232.417 108.776 217.209 113.852 203.194C114.232 201.877 114.783 200.615 115.493 199.444C115.599 199.262 115.642 199.051 115.616 198.842C115.59 198.634 115.495 198.439 115.348 198.291L91.121 174.596C89.405 172.924 87.5312 171.321 85.9666 169.528C85.3541 168.916 84.986 168.1 84.9319 167.235C84.949 166.755 85.0864 166.288 85.3312 165.876C85.576 165.464 85.9204 165.121 86.3325 164.878C87.6952 164.187 89.304 164.941 90.4018 165.771C92.1389 167.085 93.8655 168.411 95.5815 169.75C100.244 173.393 104.831 177.137 109.253 181.077C109.431 181.255 109.673 181.355 109.924 181.355C110.176 181.354 110.416 181.253 110.594 181.074C110.771 180.895 110.87 180.653 110.87 180.4C110.869 180.148 110.769 179.906 110.591 179.728C106.805 174.907 103.02 170.048 99.2344 165.195C97.1903 162.559 95.102 159.955 93.0642 157.313C91.4491 155.223 89.1842 151.276 92.244 149.299C94.9822 147.532 98.2124 150.68 99.859 152.632C100.648 153.569 101.979 152.22 101.197 151.289L101.19 151.282Z" fill="#256E31"/>
<path d="M451.548 357.745C461.188 363.605 471.075 369.706 477.68 378.892C484.286 388.078 486.797 401.161 480.69 410.658C474.015 421.041 460.072 423.544 447.769 423.696C406.25 424.196 364.755 408.313 334.106 380.197L348.674 392.234C331.892 410.157 311.45 421.32 288.372 429.55C278.7 432.996 267.962 435.454 258.297 431.989C248.632 428.523 241.263 417.044 245.534 407.661L259.552 401.269C233.434 414.448 205.016 422.409 175.876 424.709C163.258 425.698 149.056 424.994 140.318 415.84C131.7 406.787 131.593 392.038 136.792 380.653C141.99 369.269 151.454 360.513 160.804 352.233C170.154 343.953 179.844 335.546 185.718 324.497L175.876 338.27C161.043 330.427 157.151 313.999 158.356 303.077L158.987 300.049C168.211 265.204 197.39 230.227 224.758 209.352L225.067 207.407C222.001 208.978 218.821 210.574 215.396 210.758C211.97 210.942 208.197 209.181 206.935 205.937C205.32 201.686 208.418 197.207 211.32 193.741C223.131 179.645 232.941 164.839 244.758 150.743L251.837 141.069L282.309 101.271C286.378 95.9615 290.845 90.361 297.211 88.3464C306.283 85.4828 315.797 90.8805 323.311 96.7154C338.333 108.372 348.257 124.046 361.904 136.97C377.481 151.751 393.928 165.321 408.78 180.931C413.404 185.784 418.029 190.871 420.552 197.093C423.076 203.314 423.12 210.973 418.981 216.251C414.842 221.528 405.94 222.922 401.417 217.974C412.332 228.744 439.902 261.739 454.413 279.332C465.289 295.715 476.04 310.508 483.68 327.386C487.377 335.533 490.456 344.491 488.866 353.31C487.276 362.129 479.453 370.346 470.57 369.414" fill="#39A84A"/>
<path d="M451.095 358.568C463.713 366.228 477.826 374.958 482.091 390.093C484.021 396.935 483.687 404.55 479.624 410.563C475.839 416.163 469.58 419.286 463.22 420.915C456.672 422.587 449.871 422.815 443.145 422.701C435.452 422.57 427.777 421.888 420.18 420.661C405.306 418.243 390.824 413.828 377.121 407.534C361.653 400.446 347.368 390.998 334.775 379.526L333.431 380.869L348.005 392.906V391.563C332.807 407.718 313.64 418.957 293.066 426.806C282.215 430.956 269.553 435.353 258.096 430.899C253.527 429.06 249.736 425.686 247.37 421.352C246.223 419.305 245.51 417.043 245.276 414.706C245.111 413.02 245.273 411.318 245.755 409.695C245.821 409.28 245.91 408.87 246.02 408.466C246.424 407.971 247.862 407.629 248.424 407.376L253.156 405.216L260.007 402.086L259.054 400.445C236.554 411.758 212.328 419.21 187.378 422.492C179.857 423.474 172.198 424.291 164.609 423.956C157.669 423.645 150.539 422.27 144.729 418.254C139.013 414.326 135.593 408.117 134.565 401.3C132.269 386.007 141.114 372.557 151.416 362.186C163.404 350.073 178.255 340.266 186.551 324.896C186.667 324.679 186.694 324.425 186.628 324.189C186.561 323.952 186.405 323.75 186.194 323.626C185.982 323.502 185.731 323.466 185.493 323.524C185.255 323.583 185.048 323.731 184.917 323.939L175.063 337.712L176.324 337.37C167.75 332.745 162.085 324.592 159.978 315.121C159.055 311.269 158.805 307.286 159.24 303.349C159.77 299.339 161.17 295.392 162.52 291.604C170.571 268.961 185.081 248.682 201.535 231.418C206.015 226.717 210.702 222.225 215.598 217.943C217.958 215.877 220.368 213.871 222.828 211.924C223.667 211.252 225.169 210.536 225.617 209.523C225.792 208.891 225.894 208.24 225.92 207.584C225.962 207.404 225.952 207.214 225.89 207.039C225.829 206.864 225.718 206.711 225.571 206.598C225.424 206.484 225.248 206.416 225.064 206.401C224.879 206.386 224.694 206.425 224.532 206.514C219.926 208.87 211.592 212.5 208.128 206.285C204.898 200.495 212.633 193.653 215.831 189.668C224.437 178.936 232.33 167.659 240.897 156.908C243.213 154 245.572 151.168 247.768 148.171C249.383 145.967 250.973 143.737 252.613 141.551C261.073 130.236 269.792 119.111 278.385 107.891C282.171 102.981 285.704 97.6278 290.341 93.4845C295.085 89.2461 300.972 87.5609 307.199 89.0497C313.426 90.5385 318.914 94.3208 323.817 98.2804C328.541 102.167 332.97 106.402 337.065 110.951C345.381 120.036 352.945 129.792 361.91 138.269C371.702 147.519 381.866 156.35 391.727 165.511C396.667 170.104 401.525 174.773 406.237 179.62C410.654 184.181 415.234 188.844 418.275 194.489C421.076 199.671 422.382 206.019 420.338 211.715C419.486 214.203 417.862 216.351 415.705 217.844C413.547 219.337 410.97 220.095 408.351 220.008C405.978 219.945 403.725 218.951 402.074 217.239L400.736 218.582C407.083 224.854 412.912 231.671 418.755 238.406C426.401 247.216 433.953 256.115 441.41 265.103C444.775 269.141 448.14 273.187 451.505 277.241C455.959 282.633 459.631 288.734 463.492 294.55C471.813 307.018 480.28 319.948 485.435 334.127C488.135 341.558 489.851 350.288 486.412 357.776C483.573 363.947 477.618 369.009 470.545 368.401C469.334 368.293 469.34 370.194 470.545 370.301C476.476 370.815 481.901 367.634 485.428 363.028C489.403 357.884 490.696 351.454 490.027 345.049C489.245 337.503 486.242 330.395 482.955 323.629C479.494 316.595 475.633 309.767 471.391 303.178C467.075 296.374 462.52 289.728 458.034 283.045C454.781 278.379 451.292 273.883 447.58 269.576C439.812 260.233 431.982 250.941 424.092 241.7C416.95 233.394 409.853 224.93 402.055 217.227C401.875 217.059 401.638 216.967 401.393 216.972C401.148 216.976 400.914 217.076 400.74 217.25C400.567 217.424 400.468 217.659 400.463 217.905C400.459 218.151 400.55 218.39 400.717 218.57C404.048 222.035 409.203 222.656 413.6 221.06C418.647 219.235 421.884 214.819 422.855 209.618C425.379 196.187 414.729 185.544 406.181 176.832C395.884 166.36 384.85 156.661 374.005 146.796C368.674 141.963 363.279 137.154 358.289 131.965C353.652 127.151 349.337 122.038 344.964 116.976C336.428 107.086 327.299 96.7028 315.691 90.3675C310.183 87.3709 303.748 85.4259 297.521 87.1491C291.842 88.714 287.584 93.0283 284 97.4694C274.442 109.386 265.427 121.74 256.146 133.834C251.364 140.075 246.872 146.575 241.894 152.657C232.481 164.181 224.002 176.433 214.708 188.052C211.138 192.487 204.904 197.967 205.567 204.303C206.134 209.707 211.832 212.177 216.671 211.487C219.825 211.043 222.696 209.586 225.503 208.148L224.109 207.071C224.1 207.677 224.004 208.279 223.825 208.858C223.92 208.693 223.106 209.32 222.872 209.491C222.342 209.903 221.812 210.315 221.289 210.758C219.051 212.536 216.854 214.363 214.696 216.238C210.174 220.166 205.827 224.284 201.655 228.592C192.931 237.526 185.022 247.226 178.022 257.576C171.155 267.594 165.506 278.401 161.195 289.766C159.65 293.96 158.148 298.287 157.41 302.716C156.926 306.474 157.062 310.286 157.814 313.999C159.738 324.548 165.927 333.911 175.391 338.979C175.609 339.1 175.865 339.131 176.105 339.067C176.346 339.004 176.553 338.85 176.684 338.637L186.526 324.871L184.892 323.914C176.974 338.58 162.968 348.147 151.322 359.557C140.817 369.852 131.581 382.807 132.395 398.24C132.729 404.829 134.956 411.342 139.492 416.214C144.193 421.282 150.76 423.949 157.448 425.083C164.823 426.35 172.331 425.939 179.731 425.235C207.705 422.562 234.94 414.686 260.045 402.01C261.149 401.459 260.184 399.869 259.092 400.369L252.714 403.277L248.02 405.418C247.053 405.768 246.115 406.192 245.213 406.685C244.033 407.49 243.724 409.815 243.534 411.12C243.222 413.357 243.374 415.635 243.982 417.81C245.33 422.417 248.112 426.468 251.919 429.372C261.635 436.975 275.092 434.827 285.95 431.273C297.142 427.624 307.947 422.873 318.208 417.088C329.737 410.612 340.232 402.435 349.343 392.83C349.52 392.652 349.62 392.41 349.62 392.158C349.62 391.907 349.52 391.665 349.343 391.487L334.775 379.45C333.848 378.683 332.517 379.957 333.431 380.793C357.14 402.345 386.458 416.69 417.972 422.156C425.7 423.5 433.514 424.29 441.353 424.519C448.489 424.716 455.713 424.564 462.691 422.942C469 421.478 475.309 418.659 479.586 413.629C484.154 408.269 485.737 401.224 484.848 394.306C482.513 376.105 466.35 365.607 452.041 356.883C451.824 356.755 451.566 356.719 451.323 356.783C451.08 356.847 450.872 357.004 450.744 357.222C450.617 357.44 450.581 357.699 450.645 357.943C450.708 358.187 450.865 358.396 451.082 358.524L451.095 358.568Z" fill="#256E31"/>
<path d="M324.347 411.899C262.184 427.737 256.437 416.334 259.579 400.495C177.057 425.995 146.811 403.22 135.777 384.771C132.54 395.288 133.606 407.445 141.057 415.295C149.758 424.468 163.915 425.172 176.464 424.164C200.33 422.273 223.74 416.556 245.806 407.23C241.661 416.593 248.96 428.003 258.556 431.463C268.152 434.922 278.878 432.47 288.512 429.023C310 421.332 329.173 411.082 345.236 395.148C342.025 397.556 335.93 402.333 324.347 411.899Z" fill="#409151"/>
<path d="M461.095 363.516L469.984 368.989C478.817 369.921 486.602 361.691 488.186 352.885C489.492 345.637 487.649 338.314 484.905 331.383C488.236 357.092 463.713 362.965 461.095 363.516Z" fill="#409151"/>
<path d="M348.087 392.265L348.573 391.759L346.882 390.359C375.658 411.835 411.449 423.67 447.265 423.239C459.517 423.087 473.403 420.584 480.072 410.201C483.731 404.499 484.274 397.46 482.703 390.777C453.183 431.082 334.378 379.62 334.378 379.62L348.087 392.265Z" fill="#409151"/>
<path d="M470.735 371.289C468.347 369.07 465.818 367.009 463.164 365.119C465.797 367.037 468.324 369.097 470.735 371.289Z" fill="#409151"/>
<path d="M160.489 296.051C160.489 296.051 164.665 326.942 185.485 324.408C182.349 329.013 178.979 333.453 175.391 337.712C175.391 337.712 150.003 320.917 160.489 296.051Z" fill="#409151"/>
<path d="M408.591 281.397C408.591 281.397 390.812 293.434 384.32 285.553C377.828 277.672 380.175 264.159 380.175 264.159C380.175 264.159 392.389 278.096 408.566 281.397" fill="#409151"/>
<path d="M418.199 192.822C418.199 192.822 422.073 219.874 398.73 211.005C394.313 214.806 405.43 220.4 405.43 220.4C405.43 220.4 424.357 222.972 421.959 202.097C420.18 197.067 418.174 192.822 418.174 192.822" fill="#409151"/>
<path d="M450.735 358.359C463.353 366.018 477.467 374.749 481.731 389.89C483.656 396.726 483.321 404.341 479.265 410.353C475.479 415.954 469.221 419.077 462.861 420.705C456.306 422.378 449.511 422.606 442.786 422.492C435.111 422.361 427.456 421.679 419.878 420.452C405.002 418.035 390.517 413.62 376.813 407.325C361.335 400.226 347.042 390.767 334.441 379.285L333.116 380.628L347.69 392.665V391.322C332.485 407.458 313.3 418.697 292.739 426.553C281.887 430.696 269.225 435.093 257.768 430.645C253.2 428.802 249.41 425.426 247.042 421.092C245.894 419.046 245.181 416.783 244.948 414.446C244.84 413.305 244.879 412.156 245.061 411.025C245.149 410.489 245.271 409.96 245.427 409.441C245.492 409.014 245.58 408.591 245.692 408.174C246.096 407.686 247.528 407.338 248.09 407.084L252.828 404.924L259.679 401.794L258.72 400.153C243.648 407.741 227.776 413.611 211.403 417.652C203.368 419.637 195.229 421.172 187.025 422.251C179.504 423.233 171.852 424.05 164.256 423.714C157.316 423.404 150.193 422.029 144.382 418.044C138.666 414.116 135.247 407.908 134.218 401.091C131.916 385.772 140.761 372.309 151.045 361.951C163.069 349.832 177.889 340.031 186.179 324.655C186.295 324.438 186.322 324.184 186.256 323.948C186.189 323.711 186.033 323.509 185.822 323.385C185.61 323.261 185.359 323.225 185.121 323.283C184.883 323.341 184.676 323.49 184.545 323.698L174.76 337.497L176.053 337.155C167.442 332.536 161.776 324.408 159.675 314.905C158.754 311.053 158.502 307.071 158.931 303.134C159.467 299.123 160.868 295.176 162.218 291.388C170.268 268.745 184.779 248.466 201.233 231.202C205.712 226.497 210.4 222.003 215.296 217.72C217.655 215.655 220.065 213.649 222.526 211.702C223.365 211.037 224.866 210.314 225.308 209.307C225.485 208.673 225.589 208.02 225.617 207.362C225.66 207.181 225.65 206.992 225.588 206.817C225.526 206.642 225.415 206.489 225.268 206.375C225.122 206.262 224.945 206.194 224.761 206.179C224.577 206.164 224.392 206.203 224.229 206.291C219.623 208.648 211.289 212.278 207.826 206.063C204.589 200.273 212.33 193.431 215.529 189.446C224.134 178.714 232.027 167.437 240.595 156.686C242.91 153.778 245.27 150.946 247.459 147.949C249.074 145.744 250.67 143.514 252.304 141.329C260.771 130.02 269.49 118.889 278.076 107.669C281.862 102.759 285.395 97.4057 290.032 93.2624C294.783 89.0241 300.669 87.3389 306.89 88.8594C313.11 90.3798 318.612 94.1304 323.514 98.09C328.241 101.987 332.67 106.235 336.763 110.799C345.103 119.884 352.674 129.64 361.62 138.148C371.406 147.398 381.57 156.23 391.437 165.39C396.37 169.984 401.235 174.659 405.948 179.499C410.364 184.061 414.944 188.724 417.985 194.368C420.786 199.551 422.092 205.905 420.048 211.594C419.197 214.082 417.573 216.231 415.415 217.723C413.257 219.216 410.68 219.974 408.061 219.887C405.677 219.834 403.41 218.839 401.752 217.119L400.415 218.462C406.755 224.734 412.591 231.551 418.433 238.285C426.08 247.104 433.632 256.003 441.089 264.982C444.454 269.016 447.818 273.062 451.183 277.121C455.637 282.512 459.315 288.613 463.17 294.429C471.492 306.897 479.952 319.827 485.113 334.006C487.813 341.437 489.529 350.167 486.085 357.656C483.252 363.826 477.296 368.888 470.224 368.28C469.012 368.172 469.019 370.073 470.224 370.181C476.154 370.694 481.548 367.514 485.1 362.908C489.081 357.763 490.375 351.333 489.706 344.928C488.924 337.383 485.921 330.274 482.634 323.508C479.171 316.474 475.308 309.645 471.063 303.058C466.754 296.26 462.23 289.608 457.713 282.924C454.458 278.258 450.966 273.762 447.253 269.455C439.493 260.112 431.663 250.821 423.764 241.579C416.629 233.274 409.531 224.81 401.733 217.106C401.554 216.938 401.316 216.847 401.071 216.851C400.826 216.855 400.592 216.955 400.419 217.129C400.245 217.303 400.146 217.538 400.142 217.784C400.137 218.031 400.228 218.269 400.396 218.449C403.727 221.914 408.881 222.535 413.279 220.939C418.294 219.114 421.562 214.698 422.534 209.497C425.058 196.073 414.408 185.423 405.859 176.712C395.563 166.239 384.528 156.54 373.683 146.676C368.352 141.842 362.958 137.033 357.961 131.845C353.33 127.03 349.009 121.917 344.643 116.855C336.107 106.966 326.978 96.5822 315.369 90.2468C309.855 87.2502 303.426 85.2989 297.193 87.0221C291.546 88.5869 287.262 92.9013 283.673 97.3424C274.102 109.177 265.099 121.531 255.844 133.625C251.061 139.865 246.563 146.365 241.591 152.454C232.178 163.971 223.699 176.224 214.4 187.843C210.835 192.278 204.602 197.758 205.264 204.093C205.832 209.497 211.529 211.968 216.362 211.284C219.516 210.834 222.393 209.383 225.194 207.939L223.806 206.862C223.797 207.468 223.702 208.069 223.522 208.648C223.611 208.483 222.797 209.111 222.563 209.282L220.986 210.549C218.744 212.331 216.547 214.158 214.393 216.029C209.868 219.957 205.519 224.075 201.346 228.383C192.628 237.319 184.721 247.019 177.719 257.367C170.848 267.386 165.194 278.195 160.88 289.563C159.328 293.757 157.827 298.084 157.095 302.519C156.502 306.194 156.849 310.153 157.499 313.796C159.391 324.363 165.549 333.708 175.044 338.821C175.261 338.941 175.517 338.974 175.757 338.911C175.998 338.849 176.205 338.696 176.337 338.485L186.173 324.712L184.539 323.755C176.628 338.428 162.622 347.988 150.975 359.398C140.471 369.693 131.234 382.649 132.048 398.082C132.382 404.67 134.572 411.183 139.139 416.055C143.846 421.123 150.414 423.79 157.101 424.924C164.47 426.192 171.978 425.786 179.385 425.077C207.358 422.401 234.592 414.526 259.698 401.851C260.796 401.3 259.837 399.716 258.739 400.21L252.361 403.093L247.661 405.241C246.695 405.588 245.758 406.011 244.86 406.508C243.68 407.312 243.371 409.644 243.175 410.942C242.868 413.18 243.023 415.457 243.629 417.633C244.975 422.24 247.757 426.292 251.566 429.195C261.282 436.765 274.739 434.649 285.597 431.095C296.789 427.446 307.594 422.695 317.855 416.91C329.39 410.422 339.889 402.232 349.002 392.614C349.178 392.435 349.277 392.194 349.277 391.943C349.277 391.691 349.178 391.45 349.002 391.271L334.429 379.234C333.507 378.467 332.176 379.741 333.091 380.577C356.803 402.145 386.131 416.502 417.657 421.972C425.385 423.316 433.199 424.106 441.038 424.335C448.167 424.538 455.398 424.38 462.375 422.758C468.684 421.294 474.993 418.475 479.265 413.445C483.839 408.085 485.422 401.04 484.533 394.122C482.198 375.921 466.035 365.423 451.726 356.699C451.509 356.571 451.251 356.535 451.008 356.599C450.764 356.662 450.556 356.82 450.429 357.038C450.302 357.256 450.266 357.515 450.329 357.759C450.393 358.003 450.55 358.212 450.767 358.34L450.735 358.359Z" fill="#256E31"/>
<path d="M429.682 121.36C429.897 118.078 431.197 112.8 435.632 113.39C437.367 113.618 438.685 115.183 439.247 116.849C439.708 118.55 439.855 120.321 439.682 122.075C439.253 133.771 439.222 138.174 438.793 149.869C440.685 140.999 443.209 132.13 445.102 125.794C445.6 124.115 447.531 121.575 450.149 122.627C453.303 123.894 452.597 126.947 452.243 129.063C450.103 141.945 447.966 154.827 445.833 167.709L446.572 167.962C459.648 175.996 470.016 187.792 476.331 201.819C486.11 223.688 484.407 251.184 469.309 269.759C454.212 288.334 425.335 295.189 404.957 282.721L404.194 268.581L403.399 253.775C407.918 256.346 412.962 257.846 418.147 258.159C423.332 258.473 428.519 257.592 433.312 255.584C438.106 253.575 442.379 250.493 445.804 246.573C449.23 242.652 451.717 237.997 453.076 232.963C456.174 221.464 452.969 208.813 446.136 199.069C439.304 189.325 429.171 182.287 418.314 177.529L416.711 176.515C410.787 171.998 405.494 163.414 399.752 154.462C398.226 152.073 394.869 146.029 396.932 144.091C398.1 143.001 399.595 143.54 401.065 144.154C402.497 144.868 403.782 145.848 404.85 147.043L417.948 160.037L418.661 159.657C417.451 146.814 418.23 133.861 420.97 121.258C421.556 118.572 423.02 115.278 425.752 115.449C427.298 115.544 428.547 116.868 429.058 118.331C429.471 119.833 429.587 121.403 429.398 122.95C428.824 133.137 428.698 139.707 428.137 149.894" fill="#39A84A"/>
<path d="M430.628 121.359C430.773 119.262 431.221 116.703 432.792 115.176C433.176 114.808 433.645 114.541 434.158 114.4C434.67 114.26 435.209 114.25 435.726 114.372C437.247 114.726 438.155 116.272 438.508 117.698C438.994 119.636 438.748 121.74 438.679 123.716C438.616 125.541 438.555 127.363 438.496 129.184C438.403 132.187 438.315 135.187 438.231 138.186C438.117 142.08 437.989 145.974 437.846 149.869C437.808 150.927 439.48 151.18 439.739 150.122C440.874 144.813 442.205 139.555 443.656 134.328C444.283 132.077 444.927 129.834 445.587 127.6C446.041 126.048 446.502 124.153 448.186 123.482C449.871 122.81 451.492 124.28 451.637 125.896C451.808 127.796 451.177 129.931 450.868 131.813L448.104 148.456L444.95 167.462C444.889 167.701 444.92 167.954 445.037 168.172C445.154 168.389 445.348 168.554 445.581 168.634C446.772 169.145 447.891 169.81 448.912 170.61C450.296 171.544 451.644 172.524 452.956 173.55C455.498 175.532 457.913 177.674 460.186 179.961C464.832 184.66 468.847 189.949 472.129 195.692C478.468 206.766 481.687 219.363 481.441 232.133C481.182 244.639 477.479 257.139 470.028 267.25C463.183 276.55 453.07 283.133 442.01 286.193C431.202 289.177 419.297 288.797 409.07 283.899C407.809 283.296 406.579 282.628 405.386 281.897L405.853 282.721L405.172 270.082L404.61 259.673L404.295 253.775L402.869 254.592C414.679 261.25 429.934 260.503 440.83 252.33C445.811 248.618 449.747 243.671 452.256 237.974C454.873 231.806 455.747 225.032 454.779 218.398C452.887 204.688 444.432 193.139 433.512 185.118C430.774 183.116 427.903 181.304 424.919 179.695C422.465 178.371 419.834 177.364 417.48 175.894C415.127 174.424 413.159 172.017 411.411 169.882C409.136 167.018 407.009 164.038 405.039 160.955C403.19 158.136 401.254 155.33 399.594 152.396C398.93 151.259 398.357 150.07 397.878 148.842C397.412 147.831 397.181 146.726 397.203 145.611C397.367 144.186 398.818 144.344 399.872 144.705C401.601 145.307 402.856 146.441 404.137 147.702L412.969 156.445L417.253 160.696C417.403 160.842 417.595 160.936 417.802 160.964C418.009 160.991 418.219 160.95 418.401 160.848L419.114 160.468C419.259 160.385 419.379 160.265 419.461 160.12C419.543 159.975 419.585 159.811 419.581 159.644C418.505 148.196 419.011 136.653 421.083 125.344C421.506 123.076 421.796 120.58 422.894 118.509C423.796 116.804 425.619 115.499 427.272 117.241C429.102 119.142 428.452 122.411 428.326 124.774C428.187 127.41 428.061 130.047 427.947 132.687C427.701 138.433 427.474 144.173 427.152 149.913C427.083 151.136 428.975 151.129 429.045 149.913C429.354 144.363 429.581 138.807 429.815 133.251C429.941 130.368 430.073 127.492 430.231 124.616C430.376 121.904 430.824 118.787 429.089 116.462C427.745 114.669 425.304 113.871 423.348 115.157C421.575 116.31 420.666 118.509 420.162 120.485C418.744 126.43 417.849 132.489 417.487 138.592C416.967 145.613 417.035 152.666 417.689 159.676L418.162 158.858L417.449 159.239L418.591 159.384L409.758 150.648C408.301 149.197 406.837 147.74 405.342 146.295C404.191 145.012 402.802 143.967 401.254 143.216C399.821 142.583 398.131 142.076 396.711 143.001C396.261 143.302 395.893 143.713 395.641 144.194C395.39 144.676 395.263 145.213 395.273 145.757C395.184 148.202 396.534 150.743 397.645 152.827C399.222 155.729 401.134 158.472 402.938 161.234C404.963 164.345 407.052 167.424 409.348 170.338C411.256 172.894 413.487 175.19 415.985 177.168C417.947 178.631 420.313 179.455 422.477 180.57C434.426 186.721 445.291 196.123 450.312 208.92C452.836 215.306 453.921 222.364 452.836 229.193C451.809 235.527 448.993 241.432 444.724 246.207C440.454 250.982 434.909 254.427 428.748 256.131C422.014 257.891 414.905 257.537 408.376 255.118C406.794 254.524 405.26 253.806 403.79 252.97C403.646 252.889 403.483 252.846 403.317 252.847C403.152 252.848 402.99 252.893 402.846 252.976C402.703 253.059 402.584 253.178 402.5 253.321C402.417 253.465 402.372 253.628 402.37 253.794L403.058 266.534L403.619 276.924C403.72 278.825 403.708 280.782 403.929 282.677C404.011 283.405 404.515 283.64 405.102 283.982C405.973 284.488 406.862 284.964 407.771 285.407C409.502 286.258 411.287 286.995 413.115 287.612C420.599 290.036 428.551 290.637 436.313 289.367C444.142 288.145 451.623 285.261 458.256 280.909C465.105 276.388 470.812 270.328 474.924 263.208C479.197 255.714 481.892 247.419 482.842 238.836C483.851 230.121 483.252 221.294 481.075 212.798C478.842 204.159 475.06 196.001 469.915 188.723C464.705 181.298 458.25 174.839 450.836 169.635C449.335 168.583 447.795 167.379 446.054 166.778L446.716 167.95L452.792 131.325C453.114 129.38 453.713 127.258 453.423 125.281C453.256 124.308 452.783 123.413 452.074 122.729C451.364 122.045 450.455 121.608 449.48 121.48C444.653 120.808 443.656 127.289 442.71 130.59C440.906 136.881 439.253 143.216 437.877 149.596L439.77 149.85C440.041 142.507 440.218 135.164 440.464 127.828C440.534 125.693 440.622 123.564 440.685 121.435C440.742 119.408 440.685 117.298 439.72 115.461C438.262 112.667 434.729 111.343 432.067 113.326C429.663 115.113 428.963 118.515 428.767 121.34C428.685 122.557 430.578 122.55 430.66 121.34L430.628 121.359Z" fill="#256E31"/>
<path d="M397.659 234.14L369.019 244.021L390.132 305.734L418.772 295.854L397.659 234.14Z" fill="#39A84A"/>
<path d="M251.61 43.7514C244.746 48.6676 237.497 53.888 233.686 61.6931C230.286 68.662 230.033 77.2337 235.617 83.132C238.336 85.9955 242.178 87.8328 246.172 87.516C247.377 87.421 247.39 85.5204 246.172 85.6154C239.478 86.1539 233.964 80.1417 233.194 73.7936C232.254 66.0582 236.683 58.8929 242.027 53.7423C245.334 50.7078 248.855 47.9172 252.563 45.3923C253.547 44.689 252.607 43.0418 251.61 43.7514Z" fill="#CF6800"/>
<path d="M245.471 88.2828C244.17 90.0735 243.241 92.1081 242.738 94.2662C242.235 96.4242 242.169 98.6616 242.544 100.846C243.162 104.117 244.763 107.12 247.131 109.45C249.5 111.78 252.523 113.325 255.793 113.878C256.985 114.068 257.496 112.237 256.297 112.047C253.843 111.692 251.524 110.698 249.572 109.163C247.62 107.628 246.102 105.606 245.171 103.299C244.239 100.992 243.925 98.4794 244.261 96.0126C244.597 93.5459 245.571 91.2106 247.086 89.2395C247.818 88.2638 246.178 87.3389 245.452 88.2828H245.471Z" fill="#CF6800"/>
<path d="M293.742 5.67627C297.063 9.36906 299.599 13.7026 301.197 18.4125C302.795 23.1224 303.42 28.1098 303.035 33.0703C302.94 34.2867 304.833 34.2804 304.928 33.0703C305.314 27.8599 304.64 22.6251 302.947 17.6846C301.254 12.7442 298.577 8.20149 295.079 4.33318C294.259 3.42722 292.922 4.77032 293.742 5.67627Z" fill="#CF6800"/>
<path d="M305.805 34.0778C309.277 32.5854 313.015 31.8159 316.792 31.8159C320.569 31.8159 324.307 32.5854 327.779 34.0778C331.134 35.5573 334.155 37.7037 336.661 40.3877C339.167 43.0717 341.105 46.2376 342.359 49.6944C343.793 53.5645 344.351 57.7066 343.993 61.8203C343.88 63.0367 345.772 63.0303 345.886 61.8203C346.516 53.8984 343.991 46.0492 338.864 39.995C336.267 36.9851 333.083 34.5417 329.508 32.8157C325.934 31.0897 322.045 30.1177 318.082 29.9598C313.534 29.7469 308.999 30.597 304.833 32.4432C303.723 32.9374 304.682 34.5782 305.786 34.0841L305.805 34.0778Z" fill="#CF6800"/>
<path d="M334.271 74.1614C342.384 79.0269 346.693 89.3662 344.441 98.5588C344.151 99.7498 345.974 100.257 346.264 99.0656C348.157 91.2415 345.797 82.7141 340.428 76.7842C338.912 75.1161 337.16 73.6797 335.23 72.5205C335.122 72.4573 335.004 72.4159 334.88 72.3987C334.757 72.3815 334.632 72.3889 334.511 72.4203C334.391 72.4518 334.278 72.5068 334.179 72.5821C334.079 72.6575 333.996 72.7517 333.933 72.8594C333.87 72.9672 333.829 73.0863 333.812 73.2101C333.795 73.3338 333.802 73.4597 333.833 73.5806C333.865 73.7015 333.919 73.815 333.994 73.9146C334.069 74.0143 334.163 74.0981 334.271 74.1614Z" fill="#CF6800"/>
<path d="M338.68 29.478C347.128 34.0648 352.933 42.8646 354.27 52.3803C354.655 55.0802 354.655 57.8214 354.27 60.5212C354.093 61.7186 355.917 62.2381 356.093 61.0281C356.784 55.9314 356.282 50.7432 354.629 45.875C352.975 41.0068 350.215 36.5923 346.567 32.9815C344.508 30.9412 342.172 29.2049 339.627 27.8245C338.561 27.2416 337.602 28.8825 338.674 29.4653L338.68 29.478Z" fill="#CF6800"/>
<path d="M222.254 47.0523C214.261 52.3993 210.841 63.068 213.277 72.2606C213.951 74.8341 215.119 77.2508 216.715 79.3752C217.44 80.3382 219.087 79.3752 218.349 78.4186C213.005 71.3547 213.258 61.1104 218.09 53.8501C219.441 51.8096 221.18 50.0571 223.207 48.6931C224.216 48.0152 223.27 46.368 222.254 47.0523Z" fill="#CF6800"/>
<path d="M314.341 21.3118L326.606 1.81159C327.237 0.772594 325.622 -0.184044 324.972 0.848618L312.707 20.3488C312.076 21.3878 313.691 22.3381 314.341 21.3118Z" fill="#CF6800"/>
<path d="M241.666 32.7723L259.029 35.94C260.221 36.1554 260.732 34.3245 259.534 34.1091L242.165 30.9414C240.979 30.726 240.468 32.5569 241.666 32.7723Z" fill="#CF6800"/>
<path d="M243.837 19.1134L264.152 25.6831C265.313 26.0569 265.811 24.226 264.651 23.8522L244.342 17.2824C243.181 16.9023 242.683 18.7396 243.837 19.1134Z" fill="#CF6800"/>
<path d="M235.289 236.486C232.462 240.191 230.066 244.208 228.147 248.459C226.507 252.102 224.993 255.973 224.929 260.028C224.892 263.55 226.267 267.117 229.655 268.618C233.541 270.348 237.945 268.504 241.371 266.534C243.762 265.159 246.039 263.563 248.349 262.055L255.755 257.253C256.777 256.588 255.831 254.94 254.803 255.612L242.633 263.538C239.592 265.514 235.737 267.934 231.907 267.339C228.368 266.794 226.816 263.538 226.797 260.25C226.797 256.657 228.109 253.179 229.529 249.936C231.483 245.495 233.959 241.305 236.904 237.455C237.642 236.486 235.995 235.554 235.264 236.492L235.289 236.486Z" fill="#256E31"/>
<path d="M253.78 256.461C251.774 258.222 251.976 261.231 253.32 263.328C255.061 266.04 258.172 266.775 261.194 266.154C264.569 265.457 267.503 263.316 270.165 261.2C272.876 258.947 275.465 256.549 277.919 254.016C280.672 251.14 283.635 248.474 286.783 246.039C287.761 245.323 286.814 243.676 285.83 244.398C280.783 248.117 276.619 252.856 272.02 257.069C269.762 259.253 267.26 261.167 264.563 262.771C262.19 264.108 258.67 265.394 256.172 263.633C254.418 262.365 253.263 259.413 255.118 257.779C256.033 256.968 254.689 255.631 253.78 256.436V256.461Z" fill="#256E31"/>
<path d="M398.156 317.072L402.307 326.473C403.405 328.957 405.273 331.877 404.068 334.64C403.543 335.758 402.728 336.713 401.707 337.403C400.686 338.094 399.499 338.494 398.27 338.561C395.393 338.713 392.592 337.389 390.472 335.52C387.948 333.278 386.131 330.357 384.365 327.487C383.734 326.448 382.087 327.405 382.731 328.444C386.087 333.898 390.402 340.253 397.5 340.481C398.947 340.53 400.384 340.224 401.687 339.589C402.99 338.954 404.119 338.01 404.976 336.838C405.825 335.69 406.31 334.313 406.37 332.885C406.433 331.187 405.74 329.609 405.077 328.095C403.319 324.1 401.557 320.111 399.79 316.128C399.298 315.006 397.67 315.976 398.156 317.084V317.072Z" fill="#256E31"/>
<path d="M383.304 329.552C385.582 330.997 385.487 334.228 384.352 336.382C382.768 339.391 379.204 340.291 376.043 340.272C372.447 340.272 368.819 339.309 365.437 338.149C358.056 335.601 351.43 331.231 346.17 325.441C345.343 324.535 344.006 325.878 344.826 326.784C350.38 332.876 357.383 337.453 365.179 340.088C368.901 341.355 372.977 342.362 376.932 342.185C380.535 342.02 384.377 340.62 386.074 337.193C387.607 334.101 387.399 329.932 384.263 327.937C383.229 327.303 382.276 328.925 383.304 329.578V329.552Z" fill="#256E31"/>
<path d="M234.424 212.393C225.752 216.921 218.495 223.768 213.453 232.178C213.083 232.833 212.983 233.607 213.174 234.335C213.365 235.063 213.832 235.687 214.475 236.074C215.129 236.44 215.898 236.538 216.623 236.348C217.347 236.158 217.97 235.695 218.362 235.054C218.993 234.034 219.623 233.033 220.292 232.064C220.582 231.646 220.879 231.234 221.188 230.797L221.491 230.391L221.434 230.467L221.989 229.77C223.408 228.023 224.942 226.374 226.582 224.835C227.415 224.05 228.279 223.296 229.163 222.567L229.756 222.092C230.273 221.674 229.503 222.276 229.983 221.908C230.462 221.541 230.936 221.199 231.421 220.857C233.295 219.535 235.258 218.345 237.295 217.296C237.94 216.909 238.408 216.284 238.598 215.554C238.788 214.824 238.685 214.048 238.311 213.394C237.919 212.753 237.296 212.289 236.572 212.098C235.849 211.907 235.079 212.003 234.424 212.367V212.393Z" fill="#A8E580"/>
<path d="M290.486 104.185L280.058 119.434C279.683 120.087 279.579 120.863 279.771 121.593C279.962 122.322 280.433 122.947 281.08 123.33C281.733 123.693 282.501 123.789 283.223 123.599C283.945 123.409 284.567 122.948 284.96 122.31L295.389 107.067C295.762 106.412 295.865 105.636 295.673 104.906C295.482 104.176 295.013 103.55 294.366 103.165C293.713 102.802 292.946 102.706 292.223 102.896C291.501 103.085 290.879 103.547 290.486 104.185Z" fill="#A8E580"/>
<path d="M191.629 237.74C183.989 241.75 176.317 248.383 176.02 257.677C175.762 265.21 180.695 271.647 187.635 274.194C192.02 275.803 196.821 275.898 201.427 275.6C206.619 275.264 211.811 274.675 216.979 274.061C229.176 272.612 241.279 270.572 253.287 267.941C277.475 262.634 301.099 255.007 323.834 245.165C346.502 235.378 368.174 223.412 388.546 209.434C393.593 205.987 398.533 202.465 403.341 198.727C407.687 195.356 412.041 191.549 414.552 186.55C415.574 184.517 416.564 182.116 416.356 179.759C416.136 177.865 415.346 176.083 414.091 174.653C411.385 171.358 407.044 169.248 402.905 168.526C400.93 168.142 398.897 168.163 396.931 168.59C395.744 168.868 396.249 170.706 397.435 170.427C401.467 169.477 405.978 170.896 409.385 173.069C411.118 174.103 412.574 175.547 413.624 177.275C414.653 179.1 414.615 180.874 414.022 182.838C412.47 187.957 408.59 191.948 404.602 195.293C400.148 199.031 395.341 202.382 390.584 205.715C371.343 219.185 350.908 230.849 329.538 240.559C308.004 250.354 285.618 258.135 262.662 263.804C251.281 266.608 239.786 268.887 228.177 270.639C222.331 271.522 216.465 272.261 210.581 272.857C206.165 273.307 201.717 273.858 197.276 273.814C192.733 273.769 188.052 272.977 184.26 270.304C181.564 268.422 179.567 265.694 178.582 262.549C176.367 255.251 180.26 248.339 185.818 243.778C187.939 242.077 190.228 240.602 192.651 239.375C193.73 238.804 192.771 237.163 191.692 237.727L191.629 237.74Z" fill="#256E31"/>
<path d="M173.334 260.547C169.233 262.524 165.719 265.565 163.958 269.854C162.299 273.909 162.438 278.445 163.416 282.651C165.839 293.073 172.816 302.443 180.286 309.83C185.247 314.583 190.493 319.026 195.996 323.134C201.761 327.584 207.757 331.725 213.957 335.539C226.575 343.281 240.033 349.876 253.502 355.989C280.24 368.128 308.296 377.599 337.267 382.598C366.345 387.59 396.326 388.015 425.36 382.484C432.575 381.115 439.712 379.362 446.741 377.232C453.459 375.306 460.017 372.857 466.356 369.908C477.523 364.504 487.933 354.995 488.494 341.729C488.619 338.819 488.149 335.915 487.112 333.195C486.683 332.061 484.854 332.561 485.289 333.702C487.529 339.556 486.721 345.98 483.996 351.536C481.169 357.307 476.475 361.767 471.094 365.144C465.416 368.705 459.107 371.125 452.798 373.285C446.116 375.567 439.32 377.497 432.438 379.069C404.584 385.405 375.563 386.038 347.311 382.237C319.242 378.436 291.88 370.2 265.773 359.316C252.487 353.759 239.509 347.481 226.815 340.677C214.346 334.033 202.554 326.182 191.605 317.236C182.639 309.881 174.236 301.879 168.81 291.445C164.848 283.842 161.87 273.155 168.615 266.148C170.257 264.502 172.18 263.165 174.293 262.201C175.39 261.669 174.431 260.028 173.334 260.554V260.547Z" fill="#256E31"/>
<path d="M370.97 281.327C395.709 281.327 415.764 261.189 415.764 236.346C415.764 211.504 395.709 191.365 370.97 191.365C346.231 191.365 326.176 211.504 326.176 236.346C326.176 261.189 346.231 281.327 370.97 281.327Z" fill="url(#paint0_radial_1200_8497)"/>
<path d="M370.97 251.773C379.454 251.773 386.332 244.866 386.332 236.346C386.332 227.826 379.454 220.919 370.97 220.919C362.485 220.919 355.607 227.826 355.607 236.346C355.607 244.866 362.485 251.773 370.97 251.773Z" fill="#5CEEFF" stroke="#45B3E9" stroke-width="2.16641" stroke-miterlimit="10"/>
<path d="M368.017 229.821C368.017 229.821 362.105 233.381 364.471 239.324L368.017 229.821Z" fill="#5CEEFF"/>
<path d="M368.017 229.821C368.017 229.821 362.105 233.381 364.471 239.324" stroke="white" stroke-width="2.88854" stroke-miterlimit="10" stroke-linecap="round"/>
<path d="M263.716 299.066C282.88 299.066 298.416 283.466 298.416 264.222C298.416 244.978 282.88 229.377 263.716 229.377C244.552 229.377 229.017 244.978 229.017 264.222C229.017 283.466 244.552 299.066 263.716 299.066Z" fill="url(#paint1_radial_1200_8497)"/>
<path d="M263.716 274.409C269.319 274.409 273.861 269.848 273.861 264.222C273.861 258.596 269.319 254.035 263.716 254.035C258.113 254.035 253.571 258.596 253.571 264.222C253.571 269.848 258.113 274.409 263.716 274.409Z" fill="#5CEEFF" stroke="#45B3E9" stroke-width="2.16641" stroke-miterlimit="10"/>
<path d="M261.767 259.914C261.767 259.914 257.862 262.264 259.427 266.179L261.767 259.914Z" fill="#5CEEFF"/>
<path d="M261.767 259.914C261.767 259.914 257.862 262.264 259.427 266.179" stroke="white" stroke-width="2.88854" stroke-miterlimit="10" stroke-linecap="round"/>
<path d="M210.09 392.829C242.146 392.829 268.133 366.734 268.133 334.544C268.133 302.354 242.146 276.259 210.09 276.259C178.034 276.259 152.047 302.354 152.047 334.544C152.047 366.734 178.034 392.829 210.09 392.829Z" fill="url(#paint2_radial_1200_8497)"/>
<path d="M210.089 352.784C220.121 352.784 228.253 344.618 228.253 334.544C228.253 324.471 220.121 316.305 210.089 316.305C200.058 316.305 191.926 324.471 191.926 334.544C191.926 344.618 200.058 352.784 210.089 352.784Z" fill="#5CEEFF" stroke="#45B3E9" stroke-width="2.16641" stroke-miterlimit="10"/>
<path d="M206.594 326.828C206.594 326.828 199.61 331.034 202.405 338.054L206.594 326.828Z" fill="#5CEEFF"/>
<path d="M206.594 326.828C206.594 326.828 199.61 331.034 202.405 338.054" stroke="white" stroke-width="2.88854" stroke-miterlimit="10" stroke-linecap="round"/>
<path d="M300.309 405.5C319.473 405.5 335.009 389.9 335.009 370.655C335.009 351.411 319.473 335.811 300.309 335.811C281.145 335.811 265.609 351.411 265.609 370.655C265.609 389.9 281.145 405.5 300.309 405.5Z" fill="url(#paint3_radial_1200_8497)"/>
<path d="M300.309 380.843C305.912 380.843 310.454 376.282 310.454 370.656C310.454 365.029 305.912 360.468 300.309 360.468C294.706 360.468 290.164 365.029 290.164 370.656C290.164 376.282 294.706 380.843 300.309 380.843Z" fill="#5CEEFF" stroke="#45B3E9" stroke-width="2.16641" stroke-miterlimit="10"/>
<path d="M298.359 366.348C298.359 366.348 294.454 368.698 296.018 372.613L298.359 366.348Z" fill="#5CEEFF"/>
<path d="M298.359 366.348C298.359 366.348 294.454 368.698 296.018 372.613" stroke="white" stroke-width="2.88854" stroke-miterlimit="10" stroke-linecap="round"/>
<path d="M421.442 430.842C448.271 430.842 470.021 409.001 470.021 382.06C470.021 355.118 448.271 333.277 421.442 333.277C394.612 333.277 372.862 355.118 372.862 382.06C372.862 409.001 394.612 430.842 421.442 430.842Z" fill="url(#paint4_radial_1200_8497)"/>
<path d="M421.442 397.327C429.839 397.327 436.647 390.492 436.647 382.059C436.647 373.627 429.839 366.791 421.442 366.791C413.045 366.791 406.237 373.627 406.237 382.059C406.237 390.492 413.045 397.327 421.442 397.327Z" fill="#5CEEFF" stroke="#45B3E9" stroke-width="2.16641" stroke-miterlimit="10"/>
<path d="M418.521 375.604C418.521 375.604 412.672 379.126 415.013 384.993L418.521 375.604Z" fill="#5CEEFF"/>
<path d="M418.521 375.604C418.521 375.604 412.672 379.126 415.013 384.993" stroke="white" stroke-width="2.88854" stroke-miterlimit="10" stroke-linecap="round"/>
<g clip-path="url(#clip0_1200_8497)">
<path d="M370.742 450.516L2252.15 451.167C2252.15 451.167 2179.16 331.258 1943.25 206.786C1623.28 33.4384 1255.08 203.528 1151.46 281.078C987.886 249.146 918.808 284.336 830.179 324.741C624.247 251.752 370.742 450.516 370.742 450.516Z" fill="white"/>
<path d="M272.519 176.131C282.186 176.131 290.023 167.856 290.023 157.649C290.023 147.442 282.186 139.167 272.519 139.167C262.852 139.167 255.015 147.442 255.015 157.649C255.015 167.856 262.852 176.131 272.519 176.131Z" fill="white" stroke="#256E31" stroke-width="2.60673" stroke-miterlimit="10"/>
<path d="M257.674 146.896L244.165 141.944C243.79 141.844 243.392 141.895 243.055 142.086C242.719 142.278 242.471 142.594 242.366 142.967C242.269 143.342 242.321 143.74 242.512 144.076C242.703 144.413 243.018 144.663 243.389 144.772L256.872 149.718C257.247 149.819 257.647 149.768 257.984 149.576C258.322 149.385 258.571 149.068 258.678 148.695C258.772 148.324 258.72 147.931 258.534 147.596C258.347 147.262 258.039 147.011 257.674 146.896Z" fill="#256E31"/>
<path d="M247.37 137.825L261.205 143.482C261.58 143.582 261.979 143.531 262.317 143.34C262.655 143.148 262.903 142.832 263.01 142.459C263.105 142.081 263.052 141.682 262.86 141.343C262.668 141.004 262.353 140.753 261.98 140.641L248.152 135.003C247.777 134.901 247.376 134.952 247.038 135.143C246.7 135.335 246.451 135.652 246.346 136.027C246.253 136.4 246.307 136.796 246.498 137.131C246.688 137.466 247.001 137.714 247.37 137.825Z" fill="#256E31"/>
<path d="M343.258 175.375C353.08 175.375 361.042 167.101 361.042 156.893C361.042 146.686 353.08 138.412 343.258 138.412C333.436 138.412 325.474 146.686 325.474 156.893C325.474 167.101 333.436 175.375 343.258 175.375Z" fill="white" stroke="#256E31" stroke-width="2.60673" stroke-miterlimit="10"/>
<path d="M341.604 167.229C348.932 167.229 354.872 161.058 354.872 153.446C354.872 145.834 348.932 139.663 341.604 139.663C334.276 139.663 328.336 145.834 328.336 153.446C328.336 161.058 334.276 167.229 341.604 167.229Z" fill="#256E31" stroke="#256E31" stroke-width="1.95505" stroke-miterlimit="10"/>
<path d="M271.222 167.229C278.55 167.229 284.491 161.058 284.491 153.446C284.491 145.834 278.55 139.663 271.222 139.663C263.895 139.663 257.954 145.834 257.954 153.446C257.954 161.058 263.895 167.229 271.222 167.229Z" fill="#256E31" stroke="#256E31" stroke-width="1.95505" stroke-miterlimit="10"/>
<path d="M359.148 148.969L372.834 144.022C373.204 143.913 373.517 143.665 373.709 143.33C373.901 142.995 373.956 142.598 373.863 142.224C373.757 141.85 373.508 141.533 373.171 141.341C372.833 141.148 372.434 141.096 372.058 141.194L358.373 146.14C358.003 146.252 357.691 146.502 357.5 146.838C357.31 147.174 357.256 147.571 357.35 147.945C357.456 148.319 357.705 148.635 358.043 148.827C358.38 149.018 358.78 149.069 359.155 148.969H359.148Z" fill="#256E31"/>
<path d="M368.017 134.247L353.974 139.897C353.606 140.012 353.295 140.262 353.104 140.597C352.913 140.932 352.856 141.327 352.944 141.702C352.997 141.89 353.086 142.066 353.206 142.219C353.327 142.372 353.477 142.5 353.647 142.595C353.817 142.69 354.004 142.75 354.198 142.773C354.392 142.795 354.588 142.779 354.775 142.725L368.825 137.075C369.194 136.962 369.505 136.712 369.696 136.376C369.886 136.04 369.941 135.645 369.849 135.27C369.744 134.896 369.495 134.578 369.157 134.387C368.819 134.195 368.418 134.145 368.043 134.247H368.017Z" fill="#256E31"/>
<path d="M309.481 208.741C315.789 208.741 321.839 206.235 326.3 201.774C330.761 197.313 333.267 191.263 333.267 184.955H285.694C285.694 191.263 288.2 197.313 292.661 201.774C297.122 206.235 303.172 208.741 309.481 208.741Z" fill="#256E31" stroke="#256E31" stroke-width="1.95505" stroke-miterlimit="10"/>
<path d="M329.638 194.391C330.541 191.978 331.002 189.422 331 186.845H287.989C287.987 189.422 288.449 191.978 289.351 194.391H329.638Z" fill="white"/>
<path d="M348.434 143.39L349.887 147.861C349.944 148.036 350.055 148.188 350.204 148.296C350.352 148.403 350.531 148.461 350.715 148.46H355.427C355.61 148.46 355.789 148.518 355.938 148.625C356.087 148.733 356.197 148.885 356.254 149.06C356.31 149.235 356.31 149.423 356.253 149.598C356.195 149.772 356.084 149.924 355.935 150.031L352.136 152.794C351.986 152.901 351.875 153.053 351.818 153.227C351.76 153.402 351.76 153.59 351.816 153.765L353.257 158.236C353.306 158.405 353.303 158.586 353.247 158.754C353.191 158.922 353.085 159.069 352.943 159.174C352.801 159.28 352.63 159.34 352.453 159.346C352.276 159.351 352.102 159.303 351.953 159.207L348.147 156.443C348 156.335 347.822 156.277 347.639 156.277C347.456 156.277 347.278 156.335 347.131 156.443L343.325 159.207C343.177 159.303 343.002 159.351 342.825 159.346C342.648 159.34 342.477 159.28 342.336 159.174C342.194 159.069 342.087 158.922 342.031 158.754C341.975 158.586 341.972 158.405 342.022 158.236L343.475 153.765C343.531 153.59 343.531 153.402 343.474 153.227C343.416 153.053 343.305 152.901 343.156 152.794L339.356 150.031C339.211 149.928 339.102 149.783 339.042 149.616C338.982 149.448 338.975 149.267 339.022 149.095C339.069 148.924 339.167 148.771 339.304 148.657C339.441 148.544 339.609 148.475 339.786 148.46H344.485C344.669 148.461 344.848 148.403 344.997 148.296C345.145 148.188 345.256 148.036 345.313 147.861L346.766 143.39C346.821 143.212 346.932 143.056 347.082 142.946C347.232 142.835 347.414 142.775 347.6 142.775C347.787 142.775 347.968 142.835 348.118 142.946C348.268 143.056 348.379 143.212 348.434 143.39Z" fill="white"/>
<path d="M278.704 143.39L280.157 147.861C280.214 148.036 280.324 148.188 280.473 148.296C280.622 148.403 280.801 148.461 280.985 148.46H285.696C285.88 148.46 286.059 148.518 286.208 148.625C286.356 148.733 286.467 148.885 286.523 149.06C286.58 149.235 286.58 149.423 286.522 149.598C286.465 149.772 286.354 149.924 286.205 150.031L282.405 152.794C282.256 152.901 282.145 153.053 282.087 153.227C282.03 153.402 282.029 153.59 282.086 153.765L283.526 158.236C283.576 158.405 283.573 158.586 283.516 158.754C283.46 158.922 283.354 159.069 283.212 159.174C283.07 159.28 282.899 159.34 282.723 159.346C282.546 159.351 282.371 159.303 282.223 159.207L278.417 156.443C278.27 156.335 278.091 156.277 277.909 156.277C277.726 156.277 277.548 156.335 277.4 156.443L273.595 159.207C273.446 159.303 273.272 159.351 273.095 159.346C272.918 159.34 272.747 159.28 272.605 159.174C272.463 159.069 272.357 158.922 272.301 158.754C272.245 158.586 272.241 158.405 272.291 158.236L273.744 153.765C273.801 153.59 273.801 153.402 273.743 153.227C273.686 153.053 273.574 152.901 273.425 152.794L269.626 150.031C269.481 149.928 269.371 149.783 269.311 149.616C269.251 149.448 269.245 149.267 269.292 149.095C269.338 148.924 269.437 148.771 269.574 148.657C269.71 148.544 269.879 148.475 270.056 148.46H274.755C274.938 148.461 275.117 148.403 275.266 148.296C275.415 148.188 275.526 148.036 275.582 147.861L277.035 143.39C277.091 143.212 277.201 143.056 277.351 142.946C277.502 142.835 277.683 142.775 277.87 142.775C278.056 142.775 278.238 142.835 278.388 142.946C278.538 143.056 278.649 143.212 278.704 143.39Z" fill="white"/>
</g>
<defs>
<radialGradient id="paint0_radial_1200_8497" cx="0" cy="0" r="1" gradientUnits="userSpaceOnUse" gradientTransform="translate(370.97 236.346) scale(44.794 44.981)">
<stop stop-color="white"/>
<stop offset="0.43" stop-color="#FFF8EF"/>
<stop offset="0.49" stop-color="#FFE3C3" stop-opacity="0.81"/>
<stop offset="0.56" stop-color="#FFCE98" stop-opacity="0.62"/>
<stop offset="0.63" stop-color="#FFBC72" stop-opacity="0.46"/>
<stop offset="0.7" stop-color="#FFAD54" stop-opacity="0.33"/>
<stop offset="0.77" stop-color="#FFA23C" stop-opacity="0.23"/>
<stop offset="0.84" stop-color="#FF992B" stop-opacity="0.16"/>
<stop offset="0.92" stop-color="#FF9521" stop-opacity="0.11"/>
<stop offset="1" stop-color="#FF931E" stop-opacity="0.1"/>
</radialGradient>
<radialGradient id="paint1_radial_1200_8497" cx="0" cy="0" r="1" gradientUnits="userSpaceOnUse" gradientTransform="translate(263.716 264.222) scale(34.6996 34.8444)">
<stop stop-color="white"/>
<stop offset="0.43" stop-color="#FFF8EF"/>
<stop offset="0.49" stop-color="#FFE3C3" stop-opacity="0.81"/>
<stop offset="0.56" stop-color="#FFCE98" stop-opacity="0.62"/>
<stop offset="0.63" stop-color="#FFBC72" stop-opacity="0.46"/>
<stop offset="0.7" stop-color="#FFAD54" stop-opacity="0.33"/>
<stop offset="0.77" stop-color="#FFA23C" stop-opacity="0.23"/>
<stop offset="0.84" stop-color="#FF992B" stop-opacity="0.16"/>
<stop offset="0.92" stop-color="#FF9521" stop-opacity="0.11"/>
<stop offset="1" stop-color="#FF931E" stop-opacity="0.1"/>
</radialGradient>
<radialGradient id="paint2_radial_1200_8497" cx="0" cy="0" r="1" gradientUnits="userSpaceOnUse" gradientTransform="translate(210.09 334.544) scale(58.0429 58.2853)">
<stop stop-color="white"/>
<stop offset="0.43" stop-color="#FFF8EF"/>
<stop offset="0.49" stop-color="#FFE3C3" stop-opacity="0.81"/>
<stop offset="0.56" stop-color="#FFCE98" stop-opacity="0.62"/>
<stop offset="0.63" stop-color="#FFBC72" stop-opacity="0.46"/>
<stop offset="0.7" stop-color="#FFAD54" stop-opacity="0.33"/>
<stop offset="0.77" stop-color="#FFA23C" stop-opacity="0.23"/>
<stop offset="0.84" stop-color="#FF992B" stop-opacity="0.16"/>
<stop offset="0.92" stop-color="#FF9521" stop-opacity="0.11"/>
<stop offset="1" stop-color="#FF931E" stop-opacity="0.1"/>
</radialGradient>
<radialGradient id="paint3_radial_1200_8497" cx="0" cy="0" r="1" gradientUnits="userSpaceOnUse" gradientTransform="translate(300.309 370.655) scale(34.6996 34.8444)">
<stop stop-color="white"/>
<stop offset="0.43" stop-color="#FFF8EF"/>
<stop offset="0.49" stop-color="#FFE3C3" stop-opacity="0.81"/>
<stop offset="0.56" stop-color="#FFCE98" stop-opacity="0.62"/>
<stop offset="0.63" stop-color="#FFBC72" stop-opacity="0.46"/>
<stop offset="0.7" stop-color="#FFAD54" stop-opacity="0.33"/>
<stop offset="0.77" stop-color="#FFA23C" stop-opacity="0.23"/>
<stop offset="0.84" stop-color="#FF992B" stop-opacity="0.16"/>
<stop offset="0.92" stop-color="#FF9521" stop-opacity="0.11"/>
<stop offset="1" stop-color="#FF931E" stop-opacity="0.1"/>
</radialGradient>
<radialGradient id="paint4_radial_1200_8497" cx="0" cy="0" r="1" gradientUnits="userSpaceOnUse" gradientTransform="translate(421.442 382.06) scale(48.5794 48.7822)">
<stop stop-color="white"/>
<stop offset="0.43" stop-color="#FFF8EF"/>
<stop offset="0.49" stop-color="#FFE3C3" stop-opacity="0.81"/>
<stop offset="0.56" stop-color="#FFCE98" stop-opacity="0.62"/>
<stop offset="0.63" stop-color="#FFBC72" stop-opacity="0.46"/>
<stop offset="0.7" stop-color="#FFAD54" stop-opacity="0.33"/>
<stop offset="0.77" stop-color="#FFA23C" stop-opacity="0.23"/>
<stop offset="0.84" stop-color="#FF992B" stop-opacity="0.16"/>
<stop offset="0.92" stop-color="#FF9521" stop-opacity="0.11"/>
<stop offset="1" stop-color="#FF931E" stop-opacity="0.1"/>
</radialGradient>
<clipPath id="clip0_1200_8497">
<rect width="159.011" height="96.4491" fill="white" transform="translate(229 125)"/>
</clipPath>
</defs>
</svg>
